<?xml version="1.0" encoding="UTF-8" standalone="no"?>
<!-- Created with Inkscape (http://www.inkscape.org/) -->

<svg
   xmlns:dc="http://purl.org/dc/elements/1.1/"
   xmlns:cc="http://creativecommons.org/ns#"
   xmlns:rdf="http://www.w3.org/1999/02/22-rdf-syntax-ns#"
   xmlns:svg="http://www.w3.org/2000/svg"
   xmlns="http://www.w3.org/2000/svg"
   xmlns:xlink="http://www.w3.org/1999/xlink"
   xmlns:sodipodi="http://sodipodi.sourceforge.net/DTD/sodipodi-0.dtd"
   xmlns:inkscape="http://www.inkscape.org/namespaces/inkscape"
   width="13.463934mm"
   height="13.463934mm"
   viewBox="0 0 47.706853 47.706852"
   id="svg10661"
   version="1.1"
   inkscape:version="0.91 r13725"
   sodipodi:docname="communications-videoconference.svg">
  <defs
     id="defs10663">
    <clipPath
       id="b-7">
      <use
         height="100%"
         width="100%"
         y="0"
         x="0"
         style="overflow:visible"
         xlink:href="#a"
         overflow="visible"
         id="use8-3" />
    </clipPath>
  </defs>
  <sodipodi:namedview
     id="base"
     pagecolor="#ffffff"
     bordercolor="#666666"
     borderopacity="1.0"
     inkscape:pageopacity="0.0"
     inkscape:pageshadow="2"
     inkscape:zoom="0.35"
     inkscape:cx="-151.14657"
     inkscape:cy="-264.718"
     inkscape:document-units="px"
     inkscape:current-layer="layer1"
     showgrid="false"
     fit-margin-top="0"
     fit-margin-left="0"
     fit-margin-right="0"
     fit-margin-bottom="0"
     inkscape:window-width="1920"
     inkscape:window-height="1018"
     inkscape:window-x="-8"
     inkscape:window-y="-8"
     inkscape:window-maximized="1" />
  <metadata
     id="metadata10666">
    <rdf:RDF>
      <cc:Work
         rdf:about="">
        <dc:format>image/svg+xml</dc:format>
        <dc:type
           rdf:resource="http://purl.org/dc/dcmitype/StillImage" />
        <dc:title></dc:title>
      </cc:Work>
    </rdf:RDF>
  </metadata>
  <g
     inkscape:label="Layer 1"
     inkscape:groupmode="layer"
     id="layer1"
     transform="translate(-90.432289,-219.93735)">
    <g
       transform="translate(-14.071425,-836.5891)"
       style="display:inline"
       id="g4359">
      <rect
         style="fill:none;stroke:#4caf50;stroke-width:3.66975784;stroke-linejoin:round;stroke-miterlimit:0;stroke-dasharray:none;stroke-opacity:1"
         id="rect8514"
         width="44.037094"
         height="44.037094"
         x="106.33859"
         y="1058.3613"
         ry="1.8348789" />
      <rect
         ry="1.8348789"
         y="1058.3613"
         x="106.33859"
         height="44.037094"
         width="44.037094"
         id="rect8516"
         style="fill:none;stroke:#4caf50;stroke-width:3.66975784;stroke-linejoin:round;stroke-miterlimit:0;stroke-dasharray:none;stroke-opacity:1" />
      <path
         style="fill:#4caf50"
         id="path8972"
         d="m 133.97021,1079.0858 0,-2.9792 c 0,-0.4681 -0.38304,-0.8512 -0.85119,-0.8512 l -10.21429,0 c -0.46815,0 -0.85119,0.3831 -0.85119,0.8512 l 0,8.5119 c 0,0.4682 0.38304,0.8512 0.85119,0.8512 l 10.21429,0 c 0.46815,0 0.85119,-0.383 0.85119,-0.8512 l 0,-2.9791 3.40476,3.4047 0,-9.3631 -3.40476,3.4048 z"
         inkscape:connector-curvature="0" />
      <path
         style="fill:#4caf50"
         id="path10180"
         d="m 143.77272,1066.1609 -30.54545,0 c -1.87515,0 -3.39394,1.5188 -3.39394,3.3939 l 0,20.3636 c 0,1.8752 1.51879,3.394 3.39394,3.394 l 8.48484,0 0,3.3939 13.57576,0 0,-3.3939 8.48485,0 c 1.87515,0 3.37697,-1.5188 3.37697,-3.394 l 0.017,-20.3636 c 0,-1.8751 -1.51878,-3.3939 -3.39394,-3.3939 z m 0,23.7575 -30.54545,0 0,-20.3636 30.54545,0 0,20.3636 z"
         inkscape:connector-curvature="0" />
      <path
         style="fill:#ff80ab"
         transform="translate(125.43037,1055.9468)"
         inkscape:connector-curvature="0"
         id="path8512"
         d="M 9.01,14 2,14 l 0,2 7.01,0 0,3 3.99,-4 -3.99,-4 0,3 z m 5.98,-1 0,-3 7.01,0 0,-2 -7.01,0 0,-3 -3.99,4 3.99,4 z"
         clip-path="url(#b-7)" />
    </g>
  </g>
</svg>
