<?xml version="1.0" encoding="UTF-8" standalone="no"?>
<!-- Created with Inkscape (http://www.inkscape.org/) -->

<svg
   xmlns:dc="http://purl.org/dc/elements/1.1/"
   xmlns:cc="http://creativecommons.org/ns#"
   xmlns:rdf="http://www.w3.org/1999/02/22-rdf-syntax-ns#"
   xmlns:svg="http://www.w3.org/2000/svg"
   xmlns="http://www.w3.org/2000/svg"
   xmlns:sodipodi="http://sodipodi.sourceforge.net/DTD/sodipodi-0.dtd"
   xmlns:inkscape="http://www.inkscape.org/namespaces/inkscape"
   width="13.463934mm"
   height="13.463934mm"
   viewBox="0 0 47.706853 47.706852"
   id="svg13762"
   version="1.1"
   inkscape:version="0.91 r13725"
   sodipodi:docname="communications-phone.svg">
  <defs
     id="defs13764" />
  <sodipodi:namedview
     id="base"
     pagecolor="#ffffff"
     bordercolor="#666666"
     borderopacity="1.0"
     inkscape:pageopacity="0.0"
     inkscape:pageshadow="2"
     inkscape:zoom="3.959798"
     inkscape:cx="115.97262"
     inkscape:cy="19.507806"
     inkscape:document-units="px"
     inkscape:current-layer="layer1"
     showgrid="false"
     fit-margin-top="0"
     fit-margin-left="0"
     fit-margin-right="0"
     fit-margin-bottom="0"
     inkscape:window-width="1920"
     inkscape:window-height="1018"
     inkscape:window-x="-8"
     inkscape:window-y="-8"
     inkscape:window-maximized="1" />
  <metadata
     id="metadata13767">
    <rdf:RDF>
      <cc:Work
         rdf:about="">
        <dc:format>image/svg+xml</dc:format>
        <dc:type
           rdf:resource="http://purl.org/dc/dcmitype/StillImage" />
        <dc:title></dc:title>
      </cc:Work>
    </rdf:RDF>
  </metadata>
  <g
     inkscape:label="Layer 1"
     inkscape:groupmode="layer"
     id="layer1"
     transform="translate(343.85343,-8.5087792)">
    <g
       id="g14394">
      <rect
         style="fill:none;stroke:#4caf50;stroke-width:3.66975784;stroke-linejoin:round;stroke-miterlimit:0;stroke-dasharray:none;stroke-opacity:1"
         id="rect13740"
         width="44.037094"
         height="44.037094"
         x="-342.01855"
         y="10.343658"
         ry="1.8348789" />
      <path
         id="path13742"
         d="m -312.65783,20.807171 -6.27595,0 0,1.790573 6.27595,0 0,2.685855 3.57219,-3.581146 -3.57219,-3.581137 0,2.685855 z m 5.35381,-0.895282 0,-2.685855 6.27594,0 0,-1.790573 -6.27594,0 0,-2.685855 -3.57219,3.581137 3.57219,3.581146 z"
         clip-path="url(#b-4)"
         inkscape:connector-curvature="0"
         style="fill:#ff80ab" />
      <path
         style="display:inline;fill:#4caf50"
         id="path6216"
         d="m -330.94606,30.046742 c 2.88,5.66 7.51,10.29 13.18,13.17 l 4.4,-4.41 c 0.55,-0.55 1.34,-0.71 2.03,-0.49 2.24,0.74 4.65,1.14 7.14,1.14 1.11,0 2,0.89 2,2 l 0,7 c 0,1.11 -0.89,2 -2,2 -18.78,0 -34,-15.22 -34,-34 0,-1.11 0.9,-2 2,-2 l 7,0 c 1.11,0 2,0.89 2,2 0,2.49 0.4,4.9 1.14,7.14 0.22,0.69 0.06,1.48 -0.49,2.03 l -4.4,4.42 z"
         inkscape:connector-curvature="0" />
    </g>
  </g>
</svg>
