<?xml version="1.0" encoding="UTF-8" standalone="no"?>
<!-- Created with Inkscape (http://www.inkscape.org/) -->

<svg
   xmlns:dc="http://purl.org/dc/elements/1.1/"
   xmlns:cc="http://creativecommons.org/ns#"
   xmlns:rdf="http://www.w3.org/1999/02/22-rdf-syntax-ns#"
   xmlns:svg="http://www.w3.org/2000/svg"
   xmlns="http://www.w3.org/2000/svg"
   xmlns:sodipodi="http://sodipodi.sourceforge.net/DTD/sodipodi-0.dtd"
   xmlns:inkscape="http://www.inkscape.org/namespaces/inkscape"
   width="13.463934mm"
   height="13.463934mm"
   viewBox="0 0 47.706853 47.706852"
   id="svg13762"
   version="1.1"
   inkscape:version="0.91 r13725"
   sodipodi:docname="communications-feedback.svg">
  <defs
     id="defs13764" />
  <sodipodi:namedview
     id="base"
     pagecolor="#ffffff"
     bordercolor="#666666"
     borderopacity="1.0"
     inkscape:pageopacity="0.0"
     inkscape:pageshadow="2"
     inkscape:zoom="3.959798"
     inkscape:cx="160.45725"
     inkscape:cy="19.507806"
     inkscape:document-units="px"
     inkscape:current-layer="layer1"
     showgrid="false"
     fit-margin-top="0"
     fit-margin-left="0"
     fit-margin-right="0"
     fit-margin-bottom="0"
     inkscape:window-width="1920"
     inkscape:window-height="1018"
     inkscape:window-x="-8"
     inkscape:window-y="-8"
     inkscape:window-maximized="1" />
  <metadata
     id="metadata13767">
    <rdf:RDF>
      <cc:Work
         rdf:about="">
        <dc:format>image/svg+xml</dc:format>
        <dc:type
           rdf:resource="http://purl.org/dc/dcmitype/StillImage" />
        <dc:title></dc:title>
      </cc:Work>
    </rdf:RDF>
  </metadata>
  <g
     inkscape:label="Layer 1"
     inkscape:groupmode="layer"
     id="layer1"
     transform="translate(343.85343,-8.5087792)">
    <g
       id="g14340">
      <rect
         style="fill:none;stroke:#4caf50;stroke-width:3.66975784;stroke-linejoin:round;stroke-miterlimit:0;stroke-dasharray:none;stroke-opacity:1"
         id="rect13740"
         width="44.037094"
         height="44.037094"
         x="-342.01855"
         y="10.343658"
         ry="1.8348789" />
      <path
         id="path13742"
         d="m -312.65783,20.807171 -6.27595,0 0,1.790573 6.27595,0 0,2.685855 3.57219,-3.581146 -3.57219,-3.581137 0,2.685855 z m 5.35381,-0.895282 0,-2.685855 6.27594,0 0,-1.790573 -6.27594,0 0,-2.685855 -3.57219,3.581137 3.57219,3.581146 z"
         clip-path="url(#b-4)"
         inkscape:connector-curvature="0"
         style="fill:#ff80ab" />
      <path
         style="display:inline;fill:#4caf50"
         id="path8269"
         d="m -311.23668,36.477047 -4.5,0 6,6 6,-6 -4.5,0 c 0,-6.63 -5.37,-12 -12,-12 -2.35499,0 -4.53749,0.69 -6.38999,1.86 l 2.19,2.19 c 1.2525,-0.6675 2.6775,-1.05 4.19999,-1.05 4.9725,0 9,4.0275 9,9 z m -2.61,10.14 -2.19,-2.19 c -1.2525,0.6675 -2.6775,1.05 -4.2,1.05 -4.97249,0 -9,-4.0275 -9,-9 l 4.5,0 -6,-6 -6,6 4.5,0 c 0,6.63 5.37001,12 12,12 2.355,0 4.5375,-0.69 6.39,-1.86 z"
         inkscape:connector-curvature="0" />
    </g>
  </g>
</svg>
