<?xml version="1.0" encoding="UTF-8" standalone="no"?>
<!-- Created with Inkscape (http://www.inkscape.org/) -->

<svg
   xmlns:dc="http://purl.org/dc/elements/1.1/"
   xmlns:cc="http://creativecommons.org/ns#"
   xmlns:rdf="http://www.w3.org/1999/02/22-rdf-syntax-ns#"
   xmlns:svg="http://www.w3.org/2000/svg"
   xmlns="http://www.w3.org/2000/svg"
   xmlns:sodipodi="http://sodipodi.sourceforge.net/DTD/sodipodi-0.dtd"
   xmlns:inkscape="http://www.inkscape.org/namespaces/inkscape"
   width="48"
   height="48"
   viewBox="0 0 48.000001 48"
   id="svg13762"
   version="1.1"
   inkscape:version="0.91 r13725"
   sodipodi:docname="communications-work-group.svg">
  <defs
     id="defs13764" />
  <sodipodi:namedview
     id="base"
     pagecolor="#ffffff"
     bordercolor="#666666"
     borderopacity="1.0"
     inkscape:pageopacity="0.0"
     inkscape:pageshadow="2"
     inkscape:zoom="3.959798"
     inkscape:cx="56.358292"
     inkscape:cy="31.751363"
     inkscape:document-units="px"
     inkscape:current-layer="layer1"
     showgrid="false"
     fit-margin-top="0"
     fit-margin-left="0"
     fit-margin-right="0"
     fit-margin-bottom="0"
     inkscape:window-width="1920"
     inkscape:window-height="1018"
     inkscape:window-x="-8"
     inkscape:window-y="-8"
     inkscape:window-maximized="1"
     units="px" />
  <metadata
     id="metadata13767">
    <rdf:RDF>
      <cc:Work
         rdf:about="">
        <dc:format>image/svg+xml</dc:format>
        <dc:type
           rdf:resource="http://purl.org/dc/dcmitype/StillImage" />
        <dc:title></dc:title>
      </cc:Work>
    </rdf:RDF>
  </metadata>
  <g
     inkscape:label="Layer 1"
     inkscape:groupmode="layer"
     id="layer1"
     transform="translate(343.85344,-8.2156317)">
    <g
       id="g14633"
       transform="matrix(1.0061448,0,0,1.0061448,2.1129032,-0.34543261)">
      <rect
         style="fill:none;stroke:#4caf50;stroke-width:3.66975784;stroke-linejoin:round;stroke-miterlimit:0;stroke-dasharray:none;stroke-opacity:1"
         id="rect13740"
         width="44.037094"
         height="44.037094"
         x="-342.01855"
         y="10.343658"
         ry="1.8348789" />
      <path
         id="path13742"
         d="m -312.65783,20.807171 -6.27595,0 0,1.790573 6.27595,0 0,2.685855 3.57219,-3.581146 -3.57219,-3.581137 0,2.685855 z m 5.35381,-0.895282 0,-2.685855 6.27594,0 0,-1.790573 -6.27594,0 0,-2.685855 -3.57219,3.581137 3.57219,3.581146 z"
         clip-path="url(#b-4)"
         inkscape:connector-curvature="0"
         style="fill:#ff80ab" />
      <path
         style="display:inline;fill:#4caf50"
         id="path8405"
         d="m -313.70071,37.123599 c 2.75833,0 4.98333,-2.2416 4.98333,-5 0,-2.7583 -2.225,-5 -4.98333,-5 -2.75833,0 -5,2.2417 -5,5 0,2.7584 2.24167,5 5,5 z m -13.33333,0 c 2.75833,0 4.98333,-2.2416 4.98333,-5 0,-2.7583 -2.225,-5 -4.98333,-5 -2.75834,0 -5,2.2417 -5,5 0,2.7584 2.24166,5 5,5 z m 0,3.3334 c -3.89167,0 -11.66667,1.95 -11.66667,5.8333 l 0,4.1667 23.33333,0 0,-4.1667 c 0,-3.8833 -7.775,-5.8333 -11.66666,-5.8333 z m 13.33333,0 c -0.48333,0 -1.025,0.033 -1.60833,0.092 1.93333,1.3917 3.275,3.2667 3.275,5.7417 l 0,4.1667 10,0 0,-4.1667 c 0,-3.8833 -7.775,-5.8333 -11.66667,-5.8333 z"
         inkscape:connector-curvature="0" />
    </g>
  </g>
</svg>
