<?xml version="1.0" encoding="UTF-8" standalone="no"?>
<!-- Created with Inkscape (http://www.inkscape.org/) -->

<svg
   xmlns:dc="http://purl.org/dc/elements/1.1/"
   xmlns:cc="http://creativecommons.org/ns#"
   xmlns:rdf="http://www.w3.org/1999/02/22-rdf-syntax-ns#"
   xmlns:svg="http://www.w3.org/2000/svg"
   xmlns="http://www.w3.org/2000/svg"
   xmlns:sodipodi="http://sodipodi.sourceforge.net/DTD/sodipodi-0.dtd"
   xmlns:inkscape="http://www.inkscape.org/namespaces/inkscape"
   width="48"
   height="48"
   viewBox="0 0 48.000002 48.000001"
   id="svg13762"
   version="1.1"
   inkscape:version="0.91 r13725"
   sodipodi:docname="communications-videoconference.svg">
  <defs
     id="defs13764" />
  <sodipodi:namedview
     id="base"
     pagecolor="#ffffff"
     bordercolor="#666666"
     borderopacity="1.0"
     inkscape:pageopacity="0.0"
     inkscape:pageshadow="2"
     inkscape:zoom="3.959798"
     inkscape:cx="56.358292"
     inkscape:cy="31.751362"
     inkscape:document-units="px"
     inkscape:current-layer="layer1"
     showgrid="false"
     fit-margin-top="0"
     fit-margin-left="0"
     fit-margin-right="0"
     fit-margin-bottom="0"
     inkscape:window-width="1920"
     inkscape:window-height="1018"
     inkscape:window-x="-8"
     inkscape:window-y="-8"
     inkscape:window-maximized="1"
     units="px" />
  <metadata
     id="metadata13767">
    <rdf:RDF>
      <cc:Work
         rdf:about="">
        <dc:format>image/svg+xml</dc:format>
        <dc:type
           rdf:resource="http://purl.org/dc/dcmitype/StillImage" />
        <dc:title></dc:title>
      </cc:Work>
    </rdf:RDF>
  </metadata>
  <g
     inkscape:label="Layer 1"
     inkscape:groupmode="layer"
     id="layer1"
     transform="translate(343.85344,-8.2156317)">
    <g
       id="g14608"
       transform="matrix(1.0061448,0,0,1.0061448,2.1129032,-0.34543261)">
      <path
         style="display:inline;fill:#4caf50"
         id="path8972"
         d="m -314.39206,32.907166 0,-2.9792 c 0,-0.4681 -0.38304,-0.8512 -0.85119,-0.8512 l -10.21429,0 c -0.46815,0 -0.85119,0.3831 -0.85119,0.8512 l 0,8.5119 c 0,0.4682 0.38304,0.8512 0.85119,0.8512 l 10.21429,0 c 0.46815,0 0.85119,-0.383 0.85119,-0.8512 l 0,-2.9791 3.40476,3.4047 0,-9.3631 -3.40476,3.4048 z"
         inkscape:connector-curvature="0" />
      <rect
         style="fill:none;stroke:#4caf50;stroke-width:3.66975784;stroke-linejoin:round;stroke-miterlimit:0;stroke-dasharray:none;stroke-opacity:1"
         id="rect13740"
         width="44.037094"
         height="44.037094"
         x="-342.01855"
         y="10.343658"
         ry="1.8348789" />
      <path
         style="display:inline;fill:#4caf50"
         id="path10180"
         d="m -304.58955,19.982266 -30.54545,0 c -1.87515,0 -3.39394,1.5188 -3.39394,3.3939 l 0,20.3636 c 0,1.8752 1.51879,3.394 3.39394,3.394 l 8.48484,0 0,3.3939 13.57576,0 0,-3.3939 8.48485,0 c 1.87515,0 3.37697,-1.5188 3.37697,-3.394 l 0.017,-20.3636 c 0,-1.8751 -1.51878,-3.3939 -3.39394,-3.3939 z m 0,23.7575 -30.54545,0 0,-20.3636 30.54545,0 0,20.3636 z"
         inkscape:connector-curvature="0" />
      <path
         id="path13742"
         d="m -312.65783,20.807171 -6.27595,0 0,1.790573 6.27595,0 0,2.685855 3.57219,-3.581146 -3.57219,-3.581137 0,2.685855 z m 5.35381,-0.895282 0,-2.685855 6.27594,0 0,-1.790573 -6.27594,0 0,-2.685855 -3.57219,3.581137 3.57219,3.581146 z"
         clip-path="url(#b-4)"
         inkscape:connector-curvature="0"
         style="fill:#ff80ab" />
    </g>
  </g>
</svg>
