<?xml version="1.0" encoding="UTF-8" standalone="no"?>
<!-- Created with Inkscape (http://www.inkscape.org/) -->

<svg
   xmlns:dc="http://purl.org/dc/elements/1.1/"
   xmlns:cc="http://creativecommons.org/ns#"
   xmlns:rdf="http://www.w3.org/1999/02/22-rdf-syntax-ns#"
   xmlns:svg="http://www.w3.org/2000/svg"
   xmlns="http://www.w3.org/2000/svg"
   xmlns:xlink="http://www.w3.org/1999/xlink"
   xmlns:sodipodi="http://sodipodi.sourceforge.net/DTD/sodipodi-0.dtd"
   xmlns:inkscape="http://www.inkscape.org/namespaces/inkscape"
   width="262.064"
   height="155.00055"
   viewBox="0 0 262.064 155.00055"
   id="svg3342"
   version="1.1"
   inkscape:version="0.91 r13725"
   sodipodi:docname="icons.svg">
  <defs
     id="defs3344">
    <clipPath
       id="b">
      <use
         xlink:href="#a"
         overflow="visible"
         id="use8"
         style="overflow:visible"
         x="0"
         y="0"
         width="100%"
         height="100%" />
    </clipPath>
    <path
       d="M 0,0 24,0 24,24 0,24 0,0 Z"
       id="a"
       inkscape:connector-curvature="0" />
    <clipPath
       id="b-7">
      <use
         height="100%"
         width="100%"
         y="0"
         x="0"
         style="overflow:visible"
         xlink:href="#a"
         overflow="visible"
         id="use8-3" />
    </clipPath>
    <path
       d="M 0,0 48,0 48,48 0,48 0,0 Z"
       id="a-1"
       inkscape:connector-curvature="0" />
    <path
       d="M 0,0 48,0 48,48 0,48 0,0 Z"
       id="a-7"
       inkscape:connector-curvature="0" />
  </defs>
  <sodipodi:namedview
     id="base"
     pagecolor="#ffffff"
     bordercolor="#666666"
     borderopacity="1.0"
     inkscape:pageopacity="0.0"
     inkscape:pageshadow="2"
     inkscape:zoom="2.8"
     inkscape:cx="113.9482"
     inkscape:cy="90.928572"
     inkscape:document-units="px"
     inkscape:current-layer="layer1"
     showgrid="false"
     units="px"
     showborder="true"
     inkscape:window-width="1920"
     inkscape:window-height="1018"
     inkscape:window-x="-8"
     inkscape:window-y="-8"
     inkscape:window-maximized="1"
     fit-margin-top="0"
     fit-margin-left="0"
     fit-margin-right="0"
     fit-margin-bottom="0"
     borderlayer="false" />
  <metadata
     id="metadata3347">
    <rdf:RDF>
      <cc:Work
         rdf:about="">
        <dc:format>image/svg+xml</dc:format>
        <dc:type
           rdf:resource="http://purl.org/dc/dcmitype/StillImage" />
        <dc:title />
      </cc:Work>
    </rdf:RDF>
  </metadata>
  <g
     inkscape:label="Layer 1"
     inkscape:groupmode="layer"
     id="layer1"
     transform="translate(109.85343,-952.52645)"
     style="display:inline">
    <path
       style="fill:none"
       inkscape:connector-curvature="0"
       d="m 143.64285,930.07654 48,0 0,48 -48,0 z"
       id="path6214" />
    <g
       id="g4338">
      <path
         style="fill:#4caf50"
         id="path6216"
         d="m 12.964274,1026.3094 c 2.88,5.66 7.51,10.29 13.18,13.17 l 4.4,-4.41 c 0.55,-0.55 1.34,-0.71 2.03,-0.49 2.24,0.74 4.65,1.14 7.14,1.14 1.11,0 2,0.89 2,2 l 0,7 c 0,1.11 -0.89,2 -2,2 -18.78,0 -33.9999997,-15.22 -33.9999997,-34 0,-1.11 0.9,-2 2,-2 l 6.9999997,0 c 1.11,0 2,0.89 2,2 0,2.49 0.4,4.9 1.14,7.14 0.22,0.69 0.06,1.48 -0.49,2.03 l -4.4,4.42 z"
         inkscape:connector-curvature="0" />
      <rect
         style="fill:none;stroke:#4caf50;stroke-width:3.66975784;stroke-linejoin:round;stroke-miterlimit:0;stroke-dasharray:none;stroke-opacity:1"
         id="rect6291"
         width="44.037094"
         height="44.037094"
         x="1.9814532"
         y="1006.3613"
         ry="1.8348789" />
      <path
         style="fill:#ff80ab"
         clip-path="url(#b-7)"
         d="M 9.01,14 2,14 l 0,2 7.01,0 0,3 3.99,-4 -3.99,-4 0,3 z m 5.98,-1 0,-3 7.01,0 0,-2 -7.01,0 0,-3 -3.99,4 3.99,4 z"
         id="path6293"
         inkscape:connector-curvature="0"
         transform="translate(20.716089,1004.5182)" />
    </g>
    <g
       id="g4399"
       transform="translate(-108,0)">
      <path
         style="fill:#ff80ab"
         clip-path="url(#b-7)"
         d="M 9.01,14 2,14 l 0,2 7.01,0 0,3 3.99,-4 -3.99,-4 0,3 z m 5.98,-1 0,-3 7.01,0 0,-2 -7.01,0 0,-3 -3.99,4 3.99,4 z"
         id="path6274"
         inkscape:connector-curvature="0"
         transform="translate(73.073232,951.94676)" />
      <rect
         ry="1.8348789"
         y="954.36133"
         x="53.981453"
         height="44.037094"
         width="44.037094"
         id="rect6320"
         style="fill:none;stroke:#4caf50;stroke-width:3.66975784;stroke-linejoin:round;stroke-miterlimit:0;stroke-dasharray:none;stroke-opacity:1" />
      <rect
         style="fill:none;stroke:#4caf50;stroke-width:3.66975784;stroke-linejoin:round;stroke-miterlimit:0;stroke-dasharray:none;stroke-opacity:1"
         id="rect7259"
         width="44.037094"
         height="44.037094"
         x="53.981453"
         y="954.36133"
         ry="1.8348789" />
    </g>
    <g
       id="g4354">
      <rect
         style="fill:none;stroke:#4caf50;stroke-width:3.66975784;stroke-linejoin:round;stroke-miterlimit:0;stroke-dasharray:none;stroke-opacity:1"
         id="rect7162"
         width="44.037094"
         height="44.037094"
         x="105.98145"
         y="1006.3613"
         ry="1.8348789" />
      <path
         style="fill:#4caf50"
         inkscape:connector-curvature="0"
         d="m 129.05953,1009.8901 -15.83334,-0.016 c -1.74958,0 -3.15083,1.4171 -3.15083,3.1667 l 0,28.5 c 0,1.7496 1.40125,3.1667 3.15083,3.1667 l 15.83334,0 c 1.74958,0 3.16666,-1.4171 3.16666,-3.1667 l 0,-28.5 c 0,-1.7496 -1.41708,-3.1508 -3.16666,-3.1508 z m 0,28.4841 -15.83334,0 0,-22.1666 15.83334,0 0,22.1666 z"
         id="path7223" />
      <path
         transform="translate(125.07323,1003.9468)"
         inkscape:connector-curvature="0"
         id="path7160"
         d="M 9.01,14 2,14 l 0,2 7.01,0 0,3 3.99,-4 -3.99,-4 0,3 z m 5.98,-1 0,-3 7.01,0 0,-2 -7.01,0 0,-3 -3.99,4 3.99,4 z"
         clip-path="url(#b-7)"
         style="stroke:none;fill:#ff80ab" />
    </g>
    <g
       id="g4343">
      <rect
         style="fill:none;stroke:#4caf50;stroke-width:3.66975784;stroke-linejoin:round;stroke-miterlimit:0;stroke-dasharray:none;stroke-opacity:1"
         id="rect6343"
         width="44.037094"
         height="44.037094"
         x="53.981453"
         y="1006.3613"
         ry="1.8348789" />
      <path
         id="path7138"
         d="m 90.666666,1015.6953 -29.333333,0 c -2.025833,0 -3.648333,1.6409 -3.648333,3.6667 l -0.01833,22 c 0,2.0258 1.640833,3.6667 3.666666,3.6667 l 29.333333,0 c 2.025834,0 3.666667,-1.6409 3.666667,-3.6667 l 0,-22 c 0,-2.0258 -1.640833,-3.6667 -3.666667,-3.6667 z m 0,7.3334 L 76,1032.1953 l -14.666667,-9.1666 0,-3.6667 14.666667,9.1667 14.666666,-9.1667 0,3.6667 z"
         inkscape:connector-curvature="0"
         style="fill:#4caf50" />
      <path
         style="fill:#ff80ab"
         transform="translate(71.644662,1003.95)"
         inkscape:connector-curvature="0"
         id="path6341"
         d="M 9.01,14 2,14 l 0,2 7.01,0 0,3 3.99,-4 -3.99,-4 0,3 z m 5.98,-1 0,-3 7.01,0 0,-2 -7.01,0 0,-3 -3.99,4 3.99,4 z"
         clip-path="url(#b-7)" />
    </g>
    <g
       id="g4331">
      <path
         transform="translate(-34.926768,1003.9468)"
         inkscape:connector-curvature="0"
         id="path7263"
         d="M 9.01,14 2,14 l 0,2 7.01,0 0,3 3.99,-4 -3.99,-4 0,3 z m 5.98,-1 0,-3 7.01,0 0,-2 -7.01,0 0,-3 -3.99,4 3.99,4 z"
         clip-path="url(#b-7)"
         style="stroke:none;fill:#ff80ab" />
      <rect
         style="fill:none;stroke:#4caf50;stroke-width:3.66975784;stroke-linejoin:round;stroke-miterlimit:0;stroke-dasharray:none;stroke-opacity:1"
         id="rect7265"
         width="44.037094"
         height="44.037094"
         x="-54.018547"
         y="1006.3613"
         ry="1.8348789" />
      <rect
         ry="1.8348789"
         y="1006.3613"
         x="-54.018547"
         height="44.037094"
         width="44.037094"
         id="rect7267"
         style="fill:none;stroke:#4caf50;stroke-width:3.66975784;stroke-linejoin:round;stroke-miterlimit:0;stroke-dasharray:none;stroke-opacity:1" />
      <path
         style="fill:#4caf50"
         id="path7410"
         clip-path="url(#b-3)"
         d="m -49.982143,1042.8266 33.25,0 0,3.5 -33.25,0 z m 34.2475,-16.3888 c -0.37625,-1.4 -1.81125,-2.2312 -3.21125,-1.855 l -9.30125,2.4938 -12.075,-11.2613 -3.3775,0.91 7.245,12.5563 -8.6975,2.3275 -3.43875,-2.7038 -2.5375,0.6825 3.185,5.5213 1.33875,2.3187 2.80875,-0.7525 9.30125,-2.4937 7.60375,-2.0388 9.30125,-2.4937 c 1.4,-0.3763 2.23125,-1.8113 1.855,-3.2113 z"
         inkscape:connector-curvature="0" />
      <path
         id="path7412"
         d="m -54.357143,1009.5766 42,0 0,42 -42,0 0,-42 z"
         clip-path="url(#b-3)"
         inkscape:connector-curvature="0"
         style="fill:none" />
    </g>
    <g
       id="g4366">
      <path
         style="fill:#ff80ab"
         transform="translate(73.073232,1055.9468)"
         inkscape:connector-curvature="0"
         id="path8285"
         d="M 9.01,14 2,14 l 0,2 7.01,0 0,3 3.99,-4 -3.99,-4 0,3 z m 5.98,-1 0,-3 7.01,0 0,-2 -7.01,0 0,-3 -3.99,4 3.99,4 z"
         clip-path="url(#b-7)" />
      <rect
         style="fill:none;stroke:#4caf50;stroke-width:3.66975784;stroke-linejoin:round;stroke-miterlimit:0;stroke-dasharray:none;stroke-opacity:1"
         id="rect8287"
         width="44.037094"
         height="44.037094"
         x="53.981453"
         y="1058.3613"
         ry="1.8348789" />
      <rect
         ry="1.8348789"
         y="1058.3613"
         x="53.981453"
         height="44.037094"
         width="44.037094"
         id="rect8289"
         style="fill:none;stroke:#4caf50;stroke-width:3.66975784;stroke-linejoin:round;stroke-miterlimit:0;stroke-dasharray:none;stroke-opacity:1" />
      <path
         style="fill:#4caf50"
         id="path8405"
         d="m 83.225723,1085.8603 c 2.758334,0 4.983333,-2.2416 4.983333,-5 0,-2.7583 -2.224999,-5 -4.983333,-5 -2.758333,0 -5,2.2417 -5,5 0,2.7584 2.241667,5 5,5 z m -13.333333,0 c 2.758333,0 4.983333,-2.2416 4.983333,-5 0,-2.7583 -2.225,-5 -4.983333,-5 -2.758333,0 -5,2.2417 -5,5 0,2.7584 2.241667,5 5,5 z m 0,3.3334 c -3.891666,0 -11.666666,1.95 -11.666666,5.8333 l 0,4.1667 23.333333,0 0,-4.1667 c 0,-3.8833 -7.775,-5.8333 -11.666667,-5.8333 z m 13.333333,0 c -0.483333,0 -1.025,0.033 -1.608333,0.092 1.933333,1.3917 3.275,3.2667 3.275,5.7417 l 0,4.1667 10,0 0,-4.1667 c 0,-3.8833 -7.775,-5.8333 -11.666667,-5.8333 z"
         inkscape:connector-curvature="0" />
    </g>
    <g
       id="g4359">
      <rect
         style="fill:none;stroke:#4caf50;stroke-width:3.66975784;stroke-linejoin:round;stroke-miterlimit:0;stroke-dasharray:none;stroke-opacity:1"
         id="rect8514"
         width="44.037094"
         height="44.037094"
         x="106.33859"
         y="1058.3613"
         ry="1.8348789" />
      <rect
         ry="1.8348789"
         y="1058.3613"
         x="106.33859"
         height="44.037094"
         width="44.037094"
         id="rect8516"
         style="fill:none;stroke:#4caf50;stroke-width:3.66975784;stroke-linejoin:round;stroke-miterlimit:0;stroke-dasharray:none;stroke-opacity:1" />
      <path
         style="fill:#4caf50"
         id="path8972"
         d="m 133.97021,1079.0858 0,-2.9792 c 0,-0.4681 -0.38304,-0.8512 -0.85119,-0.8512 l -10.21429,0 c -0.46815,0 -0.85119,0.3831 -0.85119,0.8512 l 0,8.5119 c 0,0.4682 0.38304,0.8512 0.85119,0.8512 l 10.21429,0 c 0.46815,0 0.85119,-0.383 0.85119,-0.8512 l 0,-2.9791 3.40476,3.4047 0,-9.3631 -3.40476,3.4048 z"
         inkscape:connector-curvature="0" />
      <path
         style="fill:#4caf50"
         id="path10180"
         d="m 143.77272,1066.1609 -30.54545,0 c -1.87515,0 -3.39394,1.5188 -3.39394,3.3939 l 0,20.3636 c 0,1.8752 1.51879,3.394 3.39394,3.394 l 8.48484,0 0,3.3939 13.57576,0 0,-3.3939 8.48485,0 c 1.87515,0 3.37697,-1.5188 3.37697,-3.394 l 0.017,-20.3636 c 0,-1.8751 -1.51878,-3.3939 -3.39394,-3.3939 z m 0,23.7575 -30.54545,0 0,-20.3636 30.54545,0 0,20.3636 z"
         inkscape:connector-curvature="0" />
      <path
         style="fill:#ff80ab"
         transform="translate(125.43037,1055.9468)"
         inkscape:connector-curvature="0"
         id="path8512"
         d="M 9.01,14 2,14 l 0,2 7.01,0 0,3 3.99,-4 -3.99,-4 0,3 z m 5.98,-1 0,-3 7.01,0 0,-2 -7.01,0 0,-3 -3.99,4 3.99,4 z"
         clip-path="url(#b-7)" />
    </g>
    <g
       id="g4382">
      <path
         style="fill:#ff80ab"
         transform="translate(-34.926768,1055.9468)"
         inkscape:connector-curvature="0"
         id="path10196"
         d="M 9.01,14 2,14 l 0,2 7.01,0 0,3 3.99,-4 -3.99,-4 0,3 z m 5.98,-1 0,-3 7.01,0 0,-2 -7.01,0 0,-3 -3.99,4 3.99,4 z"
         clip-path="url(#b-7)" />
      <rect
         style="fill:none;stroke:#4caf50;stroke-width:3.66975784;stroke-linejoin:round;stroke-miterlimit:0;stroke-dasharray:none;stroke-opacity:1"
         id="rect10198"
         width="44.037094"
         height="44.037094"
         x="-54.018547"
         y="1058.3613"
         ry="1.8348789" />
      <rect
         ry="1.8348789"
         y="1058.3613"
         x="-54.018547"
         height="44.037094"
         width="44.037094"
         id="rect10200"
         style="fill:none;stroke:#4caf50;stroke-width:3.66975784;stroke-linejoin:round;stroke-miterlimit:0;stroke-dasharray:none;stroke-opacity:1" />
      <path
         style="fill:#4caf50"
         id="path10280"
         d="m -40.5,1061.0764 c 1.1,0 2,0.9 2,2 0,1.1 -0.9,2 -2,2 -1.1,0 -2,-0.9 -2,-2 0,-1.1 0.9,-2 2,-2 z m 9,7 -6,0 0,13 -2,0 0,-6 -2,0 0,6 -2,0 0,-13 -6,0 0,-2 18,0 0,2 z"
         inkscape:connector-curvature="0" />
      <path
         style="fill:#4caf50"
         inkscape:connector-curvature="0"
         d="m -24.5,1077.0764 c 1.1,0 2,0.9 2,2 0,1.1 -0.9,2 -2,2 -1.1,0 -2,-0.9 -2,-2 0,-1.1 0.9,-2 2,-2 z m 9,7 -6,0 0,13 -2,0 0,-6 -2,0 0,6 -2,0 0,-13 -6,0 0,-2 18,0 0,2 z"
         id="path10296" />
    </g>
    <g
       id="g4389">
      <path
         style="fill:#ff80ab"
         transform="translate(-86.926768,1055.9468)"
         inkscape:connector-curvature="0"
         id="path10300"
         d="M 9.01,14 2,14 l 0,2 7.01,0 0,3 3.99,-4 -3.99,-4 0,3 z m 5.98,-1 0,-3 7.01,0 0,-2 -7.01,0 0,-3 -3.99,4 3.99,4 z"
         clip-path="url(#b-7)" />
      <rect
         style="fill:none;stroke:#4caf50;stroke-width:3.66975784;stroke-linejoin:round;stroke-miterlimit:0;stroke-dasharray:none;stroke-opacity:1"
         id="rect10302"
         width="44.037094"
         height="44.037094"
         x="-106.01855"
         y="1058.3613"
         ry="1.8348789" />
      <rect
         ry="1.8348789"
         y="1058.3613"
         x="-106.01855"
         height="44.037094"
         width="44.037094"
         id="rect10304"
         style="fill:none;stroke:#4caf50;stroke-width:3.66975784;stroke-linejoin:round;stroke-miterlimit:0;stroke-dasharray:none;stroke-opacity:1" />
      <text
         sodipodi:linespacing="125%"
         id="text10306"
         y="1095.1479"
         x="-102.28571"
         style="font-style:normal;font-weight:normal;font-size:40px;line-height:125%;font-family:sans-serif;letter-spacing:0px;word-spacing:0px;fill:#4caf50;fill-opacity:1;stroke:none;stroke-width:1px;stroke-linecap:butt;stroke-linejoin:miter;stroke-opacity:1;"
         xml:space="preserve"><tspan
           style="font-style:normal;font-variant:normal;font-weight:bold;font-stretch:normal;font-size:25px;font-family:sans-serif;-inkscape-font-specification:'sans-serif Bold';fill:#4caf50;"
           y="1095.1479"
           x="-102.28571"
           id="tspan10308"
           sodipodi:role="line">EV</tspan></text>
    </g>
    <g
       id="g4404"
       transform="translate(-108,0)">
      <rect
         style="fill:none;stroke:#000000;stroke-width:3.66975784;stroke-linejoin:round;stroke-miterlimit:0;stroke-dasharray:none;stroke-opacity:1"
         id="rect10314"
         width="44.037094"
         height="44.037094"
         x="1.9814529"
         y="954.36133"
         ry="1.8348789" />
      <rect
         ry="1.8348789"
         y="954.36133"
         x="1.9814529"
         height="44.037094"
         width="44.037094"
         id="rect10316"
         style="fill:none;stroke:#4caf50;stroke-width:3.66975784;stroke-linejoin:round;stroke-miterlimit:0;stroke-dasharray:none;stroke-opacity:1" />
      <path
         style="fill:#4caf50"
         inkscape:connector-curvature="0"
         clip-path="url(#b-4)"
         d="m 18.832286,978.4622 -12.6180002,0 0,3.6 12.6180002,0 0,5.4 7.182,-7.2 -7.182,-7.2 0,5.4 z m 10.764,-1.8 0,-5.4 12.618,0 0,-3.6 -12.618,0 0,-5.4 -7.182,7.2 7.182,7.2 z"
         id="path10374" />
    </g>
    <g
       id="g4326"
       transform="translate(2,0)">
      <rect
         ry="1.8348789"
         y="1006.2184"
         x="-108.01855"
         height="44.037094"
         width="44.037094"
         id="rect7438"
         style="fill:none;stroke:#4caf50;stroke-width:3.66975784;stroke-linejoin:round;stroke-miterlimit:0;stroke-dasharray:none;stroke-opacity:1" />
      <path
         style="fill:#4caf50"
         id="path8269"
         d="m -80.428576,1033.0045 -4.5,0 6,6 6,-6 -4.5,0 c 0,-6.63 -5.37,-12 -12,-12 -2.354999,0 -4.537499,0.69 -6.389999,1.86 l 2.19,2.19 c 1.2525,-0.6675 2.6775,-1.05 4.199999,-1.05 4.9725,0 9,4.0275 9,9 z m -2.61,10.14 -2.19,-2.19 c -1.2525,0.6675 -2.6775,1.05 -4.2,1.05 -4.972499,0 -8.999999,-4.0275 -8.999999,-9 l 4.5,0 -6,-6 -6.000005,6 4.5,0 c 0,6.63 5.370005,12 12.000004,12 2.355,0 4.5375,-0.69 6.39,-1.86 z"
         inkscape:connector-curvature="0" />
      <path
         style="fill:#ff80ab;stroke:none"
         clip-path="url(#b-7)"
         d="M 9.01,14 2,14 l 0,2 7.01,0 0,3 3.99,-4 -3.99,-4 0,3 z m 5.98,-1 0,-3 7.01,0 0,-2 -7.01,0 0,-3 -3.99,4 3.99,4 z"
         id="path4281"
         inkscape:connector-curvature="0"
         transform="translate(-89.498196,1003.9468)" />
    </g>
    <g
       id="g4372">
      <path
         style="fill:#ff80ab"
         transform="translate(21.073232,1055.9468)"
         inkscape:connector-curvature="0"
         id="path8433"
         d="M 9.01,14 2,14 l 0,2 7.01,0 0,3 3.99,-4 -3.99,-4 0,3 z m 5.98,-1 0,-3 7.01,0 0,-2 -7.01,0 0,-3 -3.99,4 3.99,4 z"
         clip-path="url(#b-7)" />
      <rect
         style="fill:none;stroke:#4caf50;stroke-width:3.66975784;stroke-linejoin:round;stroke-miterlimit:0;stroke-dasharray:none;stroke-opacity:1"
         id="rect8435"
         width="44.037094"
         height="44.037094"
         x="1.9814529"
         y="1058.3613"
         ry="1.8348789" />
      <rect
         ry="1.8348789"
         y="1058.3613"
         x="1.9814529"
         height="44.037094"
         width="44.037094"
         id="rect8437"
         style="fill:none;stroke:#4caf50;stroke-width:3.66975784;stroke-linejoin:round;stroke-miterlimit:0;stroke-dasharray:none;stroke-opacity:1" />
      <path
         style="fill:#4caf50"
         id="path8486"
         d="m 20.714288,1077.8614 c 1.11,0 2,-0.9 2,-2 0,-1.1 -0.89,-2 -2,-2 -1.1,0 -2,0.9 -2,2 0,1.1 0.9,2 2,2 z m 6,0 c 1.11,0 2,-0.9 2,-2 0,-1.1 -0.89,-2 -2,-2 -1.11,0 -2,0.9 -2,2 0,1.1 0.9,2 2,2 z m -6,1.2 c -1.67,0 -5,0.83 -5,2.5 l 0,1.3 10,0 0,-1.3 c 0,-1.67 -3.33,-2.5 -5,-2.5 z m 6,0 c -0.25,0 -0.54,0.02 -0.84,0.06 0.79,0.6 1.34,1.4 1.34,2.44 l 0,1.3 4.5,0 0,-1.3 c 0,-1.67 -3.33,-2.5 -5,-2.5 z"
         inkscape:connector-curvature="0" />
      <g
         transform="translate(24.5,1081.4336)"
         id="g8504">
        <path
           style="fill:none"
           inkscape:connector-curvature="0"
           d="M 0,0 18,0 18,18 0,18 Z"
           id="path8506" />
      </g>
      <path
         style="fill:#4caf50"
         inkscape:connector-curvature="0"
         d="m 10.714288,1089.8614 c 1.11,0 2,-0.9 2,-2 0,-1.1 -0.89,-2 -2,-2 -1.1,0 -2,0.9 -2,2 0,1.1 0.9,2 2,2 z m 6,0 c 1.11,0 2,-0.9 2,-2 0,-1.1 -0.89,-2 -2,-2 -1.11,0 -2,0.9 -2,2 0,1.1 0.9,2 2,2 z m -6,1.2 c -1.67,0 -5,0.83 -5,2.5 l 0,1.3 10,0 0,-1.3 c 0,-1.67 -3.33,-2.5 -5,-2.5 z m 6,0 c -0.25,0 -0.54,0.02 -0.84,0.06 0.79,0.6 1.34,1.4 1.34,2.44 l 0,1.3 4.5,0 0,-1.3 c 0,-1.67 -3.33,-2.5 -5,-2.5 z"
         id="path4297" />
      <path
         style="fill:#4caf50"
         id="path4299"
         d="m 30.357145,1089.8614 c 1.11,0 2,-0.9 2,-2 0,-1.1 -0.89,-2 -2,-2 -1.1,0 -2,0.9 -2,2 0,1.1 0.9,2 2,2 z m 6,0 c 1.11,0 2,-0.9 2,-2 0,-1.1 -0.89,-2 -2,-2 -1.11,0 -2,0.9 -2,2 0,1.1 0.9,2 2,2 z m -6,1.2 c -1.67,0 -5,0.83 -5,2.5 l 0,1.3 10,0 0,-1.3 c 0,-1.67 -3.33,-2.5 -5,-2.5 z m 6,0 c -0.25,0 -0.54,0.02 -0.84,0.06 0.79,0.6 1.34,1.4 1.34,2.44 l 0,1.3 4.5,0 0,-1.3 c 0,-1.67 -3.33,-2.5 -5,-2.5 z"
         inkscape:connector-curvature="0" />
    </g>
  </g>
</svg>
