<?xml version="1.0" encoding="UTF-8" standalone="no"?>
<!-- Created with Inkscape (http://www.inkscape.org/) -->

<svg
   xmlns:dc="http://purl.org/dc/elements/1.1/"
   xmlns:cc="http://creativecommons.org/ns#"
   xmlns:rdf="http://www.w3.org/1999/02/22-rdf-syntax-ns#"
   xmlns:svg="http://www.w3.org/2000/svg"
   xmlns="http://www.w3.org/2000/svg"
   xmlns:sodipodi="http://sodipodi.sourceforge.net/DTD/sodipodi-0.dtd"
   xmlns:inkscape="http://www.inkscape.org/namespaces/inkscape"
   width="149.782"
   height="48.210567"
   viewBox="0 0 149.782 48.210568"
   id="svg13762"
   version="1.1"
   inkscape:version="0.91 r13725"
   sodipodi:docname="other-all.svg">
  <defs
     id="defs13764" />
  <sodipodi:namedview
     id="base"
     pagecolor="#ffffff"
     bordercolor="#666666"
     borderopacity="1.0"
     inkscape:pageopacity="0.0"
     inkscape:pageshadow="2"
     inkscape:zoom="2.8"
     inkscape:cx="-9.6242936"
     inkscape:cy="26.916075"
     inkscape:document-units="px"
     inkscape:current-layer="layer1"
     showgrid="false"
     fit-margin-top="0"
     fit-margin-left="0"
     fit-margin-right="0"
     fit-margin-bottom="0"
     inkscape:window-width="1307"
     inkscape:window-height="744"
     inkscape:window-x="53"
     inkscape:window-y="24"
     inkscape:window-maximized="1"
     units="px" />
  <metadata
     id="metadata13767">
    <rdf:RDF>
      <cc:Work
         rdf:about="">
        <dc:format>image/svg+xml</dc:format>
        <dc:type
           rdf:resource="http://purl.org/dc/dcmitype/StillImage" />
        <dc:title></dc:title>
      </cc:Work>
    </rdf:RDF>
  </metadata>
  <g
     inkscape:label="Layer 1"
     inkscape:groupmode="layer"
     id="layer1"
     transform="translate(343.85343,-8.0050625)">
    <rect
       ry="1.8348789"
       y="10.343658"
       x="-342.01855"
       height="44.037094"
       width="44.037094"
       id="rect13740"
       style="fill:none;stroke:#80cbc4;stroke-width:3.66975784;stroke-linejoin:round;stroke-miterlimit:0;stroke-dasharray:none;stroke-opacity:1" />
    <text
       xml:space="preserve"
       style="font-style:normal;font-weight:normal;font-size:13.70482922px;line-height:125%;font-family:sans-serif;letter-spacing:0px;word-spacing:0px;fill:#80cbc4;fill-opacity:1;stroke:none;stroke-width:1px;stroke-linecap:butt;stroke-linejoin:miter;stroke-opacity:1"
       x="-498.11288"
       y="25.994144"
       id="text4791"
       sodipodi:linespacing="125%"
       transform="scale(0.67867786,1.4734531)"><tspan
         sodipodi:role="line"
         id="tspan4793"
         x="-498.11288"
         y="25.994144"
         style="font-style:normal;font-variant:normal;font-weight:bold;font-stretch:normal;font-family:sans-serif;-inkscape-font-specification:'sans-serif Bold';fill:#80cbc4;fill-opacity:1">OTHER</tspan></text>
    <g
       id="layer1-2"
       inkscape:label="Layer 1"
       transform="translate(102.07515,-0.503717)">
      <g
         id="g3353">
        <rect
           ry="1.8348789"
           y="10.343658"
           x="-342.01855"
           height="44.037094"
           width="44.037094"
           id="rect13740-4"
           style="fill:none;stroke:#80cbc4;stroke-width:3.66975784;stroke-linejoin:round;stroke-miterlimit:0;stroke-dasharray:none;stroke-opacity:1" />
        <text
           xml:space="preserve"
           style="font-style:normal;font-weight:normal;font-size:5.97623348px;line-height:125%;font-family:sans-serif;letter-spacing:0px;word-spacing:0px;fill:#ef6c00;fill-opacity:1;stroke:none;stroke-width:1px;stroke-linecap:butt;stroke-linejoin:miter;stroke-opacity:1"
           x="-375.81989"
           y="17.194225"
           id="text4791-6"
           sodipodi:linespacing="125%"
           transform="scale(0.85508659,1.1694722)"><tspan
             sodipodi:role="line"
             id="tspan4793-7"
             x="-375.81989"
             y="17.194225"
             style="font-style:normal;font-variant:normal;font-weight:bold;font-stretch:normal;font-family:sans-serif;-inkscape-font-specification:'sans-serif Bold'">OTHER</tspan></text>
        <path
           inkscape:connector-curvature="0"
           d="m -319.93486,28.715637 c -5.52,0 -9.99,4.48 -9.99,10 0,5.52 4.47,10 9.99,10 5.53,0 10.01,-4.48 10.01,-10 0,-5.52 -4.48,-10 -10.01,-10 z m 0.01,18 c -4.42,0 -8,-3.58 -8,-8 0,-4.42 3.58,-8 8,-8 4.42,0 8,3.58 8,8 0,4.42 -3.58,8 -8,8 z m 3.5,-9 c 0.83,0 1.5,-0.67 1.5,-1.5 0,-0.83 -0.67,-1.5 -1.5,-1.5 -0.83,0 -1.5,0.67 -1.5,1.5 0,0.83 0.67,1.5 1.5,1.5 z m -7,0 c 0.83,0 1.5,-0.67 1.5,-1.5 0,-0.83 -0.67,-1.5 -1.5,-1.5 -0.83,0 -1.5,0.67 -1.5,1.5 0,0.83 0.67,1.5 1.5,1.5 z m 3.5,6.5 c 2.33,0 4.31,-1.46 5.11,-3.5 l -10.22,0 c 0.8,2.04 2.78,3.5 5.11,3.5 z"
           id="path4799"
           style="fill:#80cbc4" />
        <path
           inkscape:connector-curvature="0"
           d="m -307.99629,24.679917 1.5,0 0,7.178571 -1.5,0 z"
           id="path4838"
           style="fill:#80cbc4" />
        <ellipse
           cx="-307.15704"
           cy="35.322777"
           id="circle4836"
           rx="1.1964285"
           ry="1.4642857"
           style="fill:#80cbc4" />
      </g>
    </g>
    <g
       id="layer1-9"
       inkscape:label="Layer 1"
       transform="translate(52.075149,-0.503717)">
      <rect
         style="fill:none;stroke:#80cbc4;stroke-width:3.66975784;stroke-linejoin:round;stroke-miterlimit:0;stroke-dasharray:none;stroke-opacity:1"
         id="rect13740-2"
         width="44.037094"
         height="44.037094"
         x="-342.01855"
         y="10.343658"
         ry="1.8348789" />
      <text
         transform="scale(0.85508659,1.1694722)"
         sodipodi:linespacing="125%"
         id="text4791-3"
         y="16.736141"
         x="-376.23755"
         style="font-style:normal;font-weight:normal;font-size:5.97623348px;line-height:125%;font-family:sans-serif;letter-spacing:0px;word-spacing:0px;fill:#ef6c00;fill-opacity:1;stroke:none;stroke-width:1px;stroke-linecap:butt;stroke-linejoin:miter;stroke-opacity:1"
         xml:space="preserve"><tspan
           style="font-style:normal;font-variant:normal;font-weight:bold;font-stretch:normal;font-family:sans-serif;-inkscape-font-specification:'sans-serif Bold'"
           y="16.736141"
           x="-376.23755"
           id="tspan4793-8"
           sodipodi:role="line">OTHER</tspan></text>
    </g>
  </g>
</svg>
