<?xml version="1.0" encoding="UTF-8" standalone="no"?>
<!-- Created with Inkscape (http://www.inkscape.org/) -->

<svg
   xmlns:dc="http://purl.org/dc/elements/1.1/"
   xmlns:cc="http://creativecommons.org/ns#"
   xmlns:rdf="http://www.w3.org/1999/02/22-rdf-syntax-ns#"
   xmlns:svg="http://www.w3.org/2000/svg"
   xmlns="http://www.w3.org/2000/svg"
   xmlns:sodipodi="http://sodipodi.sourceforge.net/DTD/sodipodi-0.dtd"
   xmlns:inkscape="http://www.inkscape.org/namespaces/inkscape"
   width="48"
   height="48"
   viewBox="0 0 48.000001 48"
   id="svg13762"
   version="1.1"
   inkscape:version="0.91 r13725"
   sodipodi:docname="hw.svg">
  <defs
     id="defs13764" />
  <sodipodi:namedview
     id="base"
     pagecolor="#ffffff"
     bordercolor="#666666"
     borderopacity="1.0"
     inkscape:pageopacity="0.0"
     inkscape:pageshadow="2"
     inkscape:zoom="2.8"
     inkscape:cx="39.866861"
     inkscape:cy="-30.609484"
     inkscape:document-units="px"
     inkscape:current-layer="layer1"
     showgrid="false"
     fit-margin-top="0"
     fit-margin-left="0"
     fit-margin-right="0"
     fit-margin-bottom="0"
     inkscape:window-width="1920"
     inkscape:window-height="1018"
     inkscape:window-x="-8"
     inkscape:window-y="-8"
     inkscape:window-maximized="1"
     units="px" />
  <metadata
     id="metadata13767">
    <rdf:RDF>
      <cc:Work
         rdf:about="">
        <dc:format>image/svg+xml</dc:format>
        <dc:type
           rdf:resource="http://purl.org/dc/dcmitype/StillImage" />
        <dc:title></dc:title>
      </cc:Work>
    </rdf:RDF>
  </metadata>
  <g
     inkscape:label="Layer 1"
     inkscape:groupmode="layer"
     id="layer1"
     transform="translate(343.85356,-8.215753)">
    <rect
       ry="1.8461444"
       y="10.062019"
       x="-342.00729"
       height="44.307468"
       width="44.307468"
       id="rect13740"
       style="fill:#ffffff;fill-opacity:1;stroke:#080100;stroke-width:3.69253278;stroke-linejoin:round;stroke-miterlimit:0;stroke-dasharray:none;stroke-opacity:1" />
    <g
       style="fill:#000000"
       id="g4184"
       transform="matrix(1.297619,0,0,1.297619,-336.21057,16.358488)">
      <path
         id="path4174"
         d="M 0,0 24,0 24,24 0,24 Z"
         inkscape:connector-curvature="0"
         style="fill:none" />
      <path
         id="path4176"
         d="M 4,6 22,6 22,4 4,4 C 2.9,4 2,4.9 2,6 l 0,11 -2,0 0,3 14,0 0,-3 L 4,17 4,6 Z m 19,2 -6,0 c -0.55,0 -1,0.45 -1,1 l 0,10 c 0,0.55 0.45,1 1,1 l 6,0 c 0.55,0 1,-0.45 1,-1 L 24,9 C 24,8.45 23.55,8 23,8 Z m -1,9 -4,0 0,-7 4,0 0,7 z"
         inkscape:connector-curvature="0" />
    </g>
  </g>
</svg>
