<?xml version="1.0" encoding="UTF-8" standalone="no"?>
<!-- Created with Inkscape (http://www.inkscape.org/) -->

<svg
   xmlns:dc="http://purl.org/dc/elements/1.1/"
   xmlns:cc="http://creativecommons.org/ns#"
   xmlns:rdf="http://www.w3.org/1999/02/22-rdf-syntax-ns#"
   xmlns:svg="http://www.w3.org/2000/svg"
   xmlns="http://www.w3.org/2000/svg"
   xmlns:sodipodi="http://sodipodi.sourceforge.net/DTD/sodipodi-0.dtd"
   xmlns:inkscape="http://www.inkscape.org/namespaces/inkscape"
   width="153.72272"
   height="101.88893"
   viewBox="0 0 153.72272 101.88893"
   id="svg13762"
   version="1.1"
   inkscape:version="0.91 r13725"
   sodipodi:docname="Trable.svg">
  <defs
     id="defs13764" />
  <sodipodi:namedview
     id="base"
     pagecolor="#ffffff"
     bordercolor="#666666"
     borderopacity="1.0"
     inkscape:pageopacity="0.0"
     inkscape:pageshadow="2"
     inkscape:zoom="1.979899"
     inkscape:cx="5.5094438"
     inkscape:cy="126.60844"
     inkscape:document-units="px"
     inkscape:current-layer="layer1"
     showgrid="false"
     fit-margin-top="0"
     fit-margin-left="0"
     fit-margin-right="0"
     fit-margin-bottom="0"
     inkscape:window-width="1307"
     inkscape:window-height="744"
     inkscape:window-x="53"
     inkscape:window-y="24"
     inkscape:window-maximized="1"
     units="px" />
  <metadata
     id="metadata13767">
    <rdf:RDF>
      <cc:Work
         rdf:about="">
        <dc:format>image/svg+xml</dc:format>
        <dc:type
           rdf:resource="http://purl.org/dc/dcmitype/StillImage" />
        <dc:title></dc:title>
      </cc:Work>
    </rdf:RDF>
  </metadata>
  <g
     inkscape:label="Layer 1"
     inkscape:groupmode="layer"
     id="layer1"
     transform="translate(343.85343,-8.5087795)">
    <g
       id="g3336">
      <rect
         style="fill:none;stroke:#ab47bc;stroke-width:3.66975784;stroke-linejoin:round;stroke-miterlimit:0;stroke-dasharray:none;stroke-opacity:1"
         id="rect13740"
         width="44.037094"
         height="44.037094"
         x="-342.01855"
         y="10.343658"
         ry="1.8348789" />
      <ellipse
         ry="4.0203052"
         rx="3.6414979"
         style="fill:#9c27b0;fill-opacity:1"
         id="circle3361"
         cy="44.56221"
         cx="-318.67093" />
      <path
         style="fill:#9c27b0;fill-opacity:1;stroke:none;stroke-width:0.85413921;stroke-opacity:1"
         id="path3363"
         d="m -321.78336,16.029478 6.16617,0 0,22.752461 -6.16617,0 z"
         inkscape:connector-curvature="0" />
    </g>
    <g
       id="layer1-0"
       inkscape:label="Layer 1"
       transform="translate(54.01587,54.182083)">
      <rect
         style="fill:none;stroke:#ab47bc;stroke-width:3.66975784;stroke-linejoin:round;stroke-miterlimit:0;stroke-dasharray:none;stroke-opacity:1"
         id="rect13740-0"
         width="44.037094"
         height="44.037094"
         x="-342.01855"
         y="10.343658"
         ry="1.8348789" />
      <circle
         style="fill:#c62828;fill-opacity:1"
         id="circle3361-3"
         r="2"
         cy="27.642155"
         cx="-303.6449" />
      <path
         style="fill:#c62828;fill-opacity:1;stroke:none;stroke-width:0.85413921;stroke-opacity:1"
         id="path3363-2"
         d="m -305.11584,12.746482 2.88317,0 0,12.14586 -2.88317,0 z"
         inkscape:connector-curvature="0" />
      <path
         style="fill:#9c27b0"
         id="path4288"
         d="m -325.64023,33.408963 -3.09433,0 0,2.934391 3.09433,0 0,-2.934391 z m 6.18867,0 -3.09433,0 0,2.934391 3.09433,0 0,-2.934391 z m 6.18865,0 -3.09432,0 0,2.934391 3.09432,0 0,-2.934391 z m 3.09434,-10.270368 -1.54717,0 0,-2.934392 -3.09432,0 0,2.934392 -12.37733,0 0,-2.934392 -3.09433,0 0,2.934392 -1.54717,0 c -1.71734,0 -3.07886,1.320476 -3.07886,2.934391 l -0.0155,20.540737 c 0,1.613915 1.37699,2.934391 3.09433,2.934391 l 21.66032,0 c 1.70188,0 3.09433,-1.320476 3.09433,-2.934391 l 0,-20.540737 c 0,-1.613915 -1.39245,-2.934391 -3.09433,-2.934391 z m 0,23.475128 -21.66032,0 0,-16.139151 21.66032,0 0,16.139151 z"
         inkscape:connector-curvature="0" />
    </g>
    <g
       id="layer1-3"
       inkscape:label="Layer 1"
       transform="translate(0.01587,54.182083)">
      <rect
         style="fill:none;stroke:#ab47bc;stroke-width:3.66975784;stroke-linejoin:round;stroke-miterlimit:0;stroke-dasharray:none;stroke-opacity:1"
         id="rect13740-7"
         width="44.037094"
         height="44.037094"
         x="-342.01855"
         y="10.343658"
         ry="1.8348789" />
      <circle
         style="fill:#c62828;fill-opacity:1"
         id="circle3361-7"
         r="2"
         cy="27.642155"
         cx="-303.6449" />
      <path
         style="fill:#c62828;fill-opacity:1;stroke:none;stroke-width:0.85413921;stroke-opacity:1"
         id="path3363-24"
         d="m -305.11584,12.746482 2.88317,0 0,12.14586 -2.88317,0 z"
         inkscape:connector-curvature="0" />
      <path
         style="fill:#9c27b0"
         id="path4317"
         d="m -334.65038,46.522733 31.09137,0 -15.54569,-28.091373 -15.54568,28.091373 z m 16.95893,-4.43548 -2.82649,0 0,-2.956986 2.82649,0 0,2.956986 z m 0,-5.913974 -2.82649,0 0,-5.913972 2.82649,0 0,5.913972 z"
         inkscape:connector-curvature="0" />
    </g>
    <g
       id="layer1-5"
       inkscape:label="Layer 1"
       transform="translate(106.01587,0.182083)">
      <g
         id="g4221">
        <rect
           ry="1.8348789"
           y="10.343658"
           x="-342.01855"
           height="44.037094"
           width="44.037094"
           id="rect13740-8"
           style="fill:none;stroke:#ab47bc;stroke-width:3.66975784;stroke-linejoin:round;stroke-miterlimit:0;stroke-dasharray:none;stroke-opacity:1" />
        <circle
           cx="-303.6449"
           cy="27.642155"
           r="2"
           id="circle3361-78"
           style="fill:#c62828;fill-opacity:1" />
        <path
           inkscape:connector-curvature="0"
           d="m -305.11584,12.746482 2.88317,0 0,12.14586 -2.88317,0 z"
           id="path3363-0"
           style="fill:#c62828;fill-opacity:1;stroke:none;stroke-width:0.85413921;stroke-opacity:1" />
        <path
           id="path4212"
           d="m -337.86103,44.212639 3.20251,0 0,0.800628 -1.60125,0 0,1.601256 1.60125,0 0,0.800627 -3.20251,0 0,1.601256 4.80377,0 0,-6.405022 -4.80377,0 0,1.601255 z m 1.60126,-14.4113 1.60125,0 0,-6.405021 -3.20251,0 0,1.601255 1.60126,0 0,4.803766 z m -1.60126,4.803767 2.88226,0 -2.88226,3.362637 0,1.44113 4.80377,0 0,-1.601256 -2.88226,0 2.88226,-3.362637 0,-1.44113 -4.80377,0 0,1.601256 z m 8.00628,-9.607533 0,3.20251 22.41758,0 0,-3.20251 -22.41758,0 z m 0,22.417577 22.41758,0 0,-3.202511 -22.41758,0 0,3.202511 z m 0,-9.607533 22.41758,0 0,-3.202511 -22.41758,0 0,3.202511 z"
           inkscape:connector-curvature="0"
           style="fill:#9c27b0" />
      </g>
    </g>
    <g
       id="layer1-35"
       inkscape:label="Layer 1"
       transform="translate(54.01587,0.182083)">
      <rect
         style="fill:none;stroke:#ab47bc;stroke-width:3.66975784;stroke-linejoin:round;stroke-miterlimit:0;stroke-dasharray:none;stroke-opacity:1"
         id="rect13740-4"
         width="44.037094"
         height="44.037094"
         x="-342.01855"
         y="10.343658"
         ry="1.8348789" />
      <circle
         style="fill:#c62828;fill-opacity:1"
         id="circle3361-6"
         r="2"
         cy="27.642155"
         cx="-303.6449" />
      <path
         style="fill:#c62828;fill-opacity:1;stroke:none;stroke-width:0.85413921;stroke-opacity:1"
         id="path3363-3"
         d="m -305.11584,12.746482 2.88317,0 0,12.14586 -2.88317,0 z"
         inkscape:connector-curvature="0" />
    </g>
  </g>
</svg>
