<?xml version="1.0" standalone="no"?>
<!DOCTYPE svg PUBLIC "-//W3C//DTD SVG 20010904//EN"
 "http://www.w3.org/TR/2001/REC-SVG-20010904/DTD/svg10.dtd">
<svg version="1.0" xmlns="http://www.w3.org/2000/svg"
 width="390.000000pt" height="393.000000pt" viewBox="0 0 390.000000 393.000000"
 preserveAspectRatio="xMidYMid meet">
<metadata>
Created by potrace 1.13, written by Peter Selinger 2001-2015
</metadata>
<g transform="translate(0.000000,393.000000) scale(0.100000,-0.100000)"
fill="#000000" stroke="none">
<path d="M1924 3169 c-137 -13 -251 -45 -369 -104 -209 -104 -351 -264 -428
-482 -46 -128 -57 -216 -57 -458 0 -185 -2 -225 -15 -235 -19 -16 -45 -102
-45 -150 0 -105 75 -221 165 -255 41 -16 45 -21 81 -108 169 -414 365 -660
594 -746 53 -20 84 -24 165 -25 117 0 188 21 290 85 60 37 212 187 235 230 10
18 7 19 -57 19 l-68 0 -77 -74 c-213 -206 -443 -203 -654 8 -126 126 -239 317
-344 579 l-49 122 -43 7 c-32 6 -53 18 -81 48 -37 39 -38 42 -35 108 2 52 6
67 18 65 8 0 57 -20 108 -44 144 -67 152 -55 152 222 l0 196 68 7 c257 26 536
124 696 245 l66 50 32 -40 c53 -64 186 -167 276 -211 l82 -41 0 -201 c0 -207
5 -237 42 -260 13 -8 30 -4 73 17 l55 27 0 -95 0 -95 -28 0 c-27 0 -31 -6 -67
-97 -21 -54 -60 -145 -87 -202 -27 -57 -46 -106 -44 -108 8 -8 71 17 117 45
40 26 48 38 89 138 42 104 54 123 74 124 15 0 -2 -127 -23 -175 -26 -59 -95
-132 -153 -161 -58 -29 -150 -44 -283 -44 -99 0 -100 0 -116 29 -9 15 -33 41
-54 56 -32 25 -48 29 -118 33 -47 2 -101 -1 -126 -8 -88 -24 -147 -118 -123
-199 28 -90 93 -130 212 -131 106 0 142 13 188 65 l40 45 123 0 c197 0 301 31
400 119 92 81 149 206 149 327 0 60 2 64 23 64 42 0 101 43 125 90 20 40 22
59 22 187 0 99 -4 154 -14 177 -15 37 -82 96 -107 96 -48 0 -49 4 -49 155 0
212 -40 392 -114 519 -112 192 -323 316 -563 333 l-81 6 -58 58 c-65 66 -60
65 -230 48z m187 -164 c57 -54 58 -55 117 -55 72 0 190 -21 252 -46 74 -28
179 -103 222 -157 107 -136 148 -270 155 -513 6 -170 5 -172 -16 -179 -28 -9
-41 -43 -41 -109 0 -47 -3 -54 -25 -64 l-25 -12 0 183 c0 132 -4 188 -13 200
-7 10 -46 33 -88 51 -140 60 -233 134 -360 285 -15 17 -34 31 -43 31 -8 0 -44
-26 -79 -57 -36 -32 -89 -73 -119 -91 -137 -82 -367 -151 -593 -178 -105 -13
-133 -20 -147 -36 -16 -18 -18 -43 -18 -204 0 -101 -2 -184 -5 -184 -3 0 -28
12 -56 26 l-51 25 4 247 c5 280 11 312 82 457 85 171 208 283 404 365 92 39
227 68 316 69 l69 1 58 -55z m903 -1081 c13 -12 16 -40 16 -142 0 -152 -8
-172 -71 -172 l-39 0 0 165 0 165 39 0 c23 0 46 -7 55 -16z m-840 -840 c20
-19 20 -44 2 -69 -20 -27 -145 -35 -181 -11 -27 18 -34 63 -13 84 19 19 173
16 192 -4z"/>
</g>
</svg>
