<?xml version="1.0" standalone="no"?>
<!DOCTYPE svg PUBLIC "-//W3C//DTD SVG 20010904//EN"
 "http://www.w3.org/TR/2001/REC-SVG-20010904/DTD/svg10.dtd">
<svg version="1.0" xmlns="http://www.w3.org/2000/svg"
 width="48.000000pt" height="48.000000pt" viewBox="0 0 48.000000 48.000000"
 preserveAspectRatio="xMidYMid meet">
<metadata>
Created by potrace 1.13, written by Peter Selinger 2001-2015
</metadata>
<g transform="translate(0.000000,48.000000) scale(0.100000,-0.100000)"
fill="#000000" stroke="none">
<path d="M272 384 c-13 -9 -22 -26 -22 -41 0 -25 -1 -25 -18 -10 -28 25 -48
21 -92 -19 -48 -44 -57 -67 -35 -100 15 -23 15 -27 1 -43 -21 -23 -20 -34 4
-56 20 -18 21 -18 48 2 15 11 38 24 52 28 42 13 100 57 100 74 0 10 -13 30
-30 46 -20 19 -27 32 -20 40 5 6 7 20 4 32 -4 14 1 26 17 37 31 21 48 21 26
-1 -16 -16 -15 -19 10 -45 25 -26 28 -27 45 -11 22 20 24 5 2 -25 -13 -19 -22
-22 -45 -17 -18 4 -29 3 -29 -4 0 -6 15 -11 34 -11 39 0 66 28 66 67 0 27 -7
29 -31 7 -17 -15 -19 -15 -35 0 -15 16 -15 18 0 35 9 10 16 21 16 24 0 13 -46
7 -68 -9z m-37 -76 c0 -9 15 -33 34 -52 18 -19 30 -39 26 -45 -3 -6 -10 -9
-15 -6 -4 3 -10 -2 -14 -10 -3 -9 -12 -12 -22 -8 -12 4 -15 3 -10 -5 4 -8 -3
-16 -20 -22 -23 -9 -31 -7 -53 12 -62 55 -65 78 -19 125 25 26 40 33 63 31 20
-2 30 -8 30 -20z"/>
</g>
</svg>
