<?xml version="1.0" encoding="UTF-8" standalone="no"?>
<!-- Created with Inkscape (http://www.inkscape.org/) -->

<svg
   xmlns:dc="http://purl.org/dc/elements/1.1/"
   xmlns:cc="http://creativecommons.org/ns#"
   xmlns:rdf="http://www.w3.org/1999/02/22-rdf-syntax-ns#"
   xmlns:svg="http://www.w3.org/2000/svg"
   xmlns="http://www.w3.org/2000/svg"
   xmlns:sodipodi="http://sodipodi.sourceforge.net/DTD/sodipodi-0.dtd"
   xmlns:inkscape="http://www.inkscape.org/namespaces/inkscape"
   width="47.706852"
   height="47.706852"
   viewBox="0 0 47.706853 47.706852"
   id="svg13762"
   version="1.1"
   inkscape:version="0.91 r13725"
   sodipodi:docname="Knowing_it_secure.svg">
  <defs
     id="defs13764" />
  <sodipodi:namedview
     id="base"
     pagecolor="#ffffff"
     bordercolor="#666666"
     borderopacity="1.0"
     inkscape:pageopacity="0.0"
     inkscape:pageshadow="2"
     inkscape:zoom="7.919596"
     inkscape:cx="73.449279"
     inkscape:cy="11.473811"
     inkscape:document-units="px"
     inkscape:current-layer="layer1"
     showgrid="false"
     fit-margin-top="0"
     fit-margin-left="0"
     fit-margin-right="0"
     fit-margin-bottom="0"
     inkscape:window-width="1920"
     inkscape:window-height="1018"
     inkscape:window-x="-8"
     inkscape:window-y="-8"
     inkscape:window-maximized="1"
     units="px" />
  <metadata
     id="metadata13767">
    <rdf:RDF>
      <cc:Work
         rdf:about="">
        <dc:format>image/svg+xml</dc:format>
        <dc:type
           rdf:resource="http://purl.org/dc/dcmitype/StillImage" />
        <dc:title></dc:title>
      </cc:Work>
    </rdf:RDF>
  </metadata>
  <g
     inkscape:label="Layer 1"
     inkscape:groupmode="layer"
     id="layer1"
     transform="translate(343.85343,-8.5087792)">
    <rect
       ry="1.8348789"
       y="10.343658"
       x="-342.01855"
       height="44.037094"
       width="44.037094"
       id="rect13740"
       style="fill:none;stroke:#4dd0e1;stroke-width:3.66975784;stroke-linejoin:round;stroke-miterlimit:0;stroke-dasharray:none;stroke-opacity:1" />
    <path
       d="m -312.07867,15.617906 -1.11612,0 0,6.928932 c 0,0.544416 0.50226,0.989848 1.11612,0.989848 l 7.81282,0 0,-0.989848 -7.81282,0 0,-6.928932 z m 8.92893,-1.979694 -6.6967,0 c -0.61386,0 -1.11611,0.445431 -1.11611,0.989847 l 0,5.939084 c 0,0.544416 0.50225,0.989848 1.11611,0.989848 l 6.6967,0 c 0.61387,0 1.11612,-0.445432 1.11612,-0.989848 l 0,-5.939084 c 0,-0.544416 -0.50225,-0.989847 -1.11612,-0.989847 z m -0.55805,4.454313 -5.58059,0 0,-0.989848 5.58059,0 0,0.989848 z m -2.23224,1.979695 -3.34835,0 0,-0.989848 3.34835,0 0,0.989848 z m 2.23224,-3.95939 -5.58059,0 0,-0.989847 5.58059,0 0,0.989847 z"
       id="path4431"
       inkscape:connector-curvature="0"
       style="fill:#f06292" />
    <path
       d="m -321.79967,33.144788 -5.33819,2.347023 0,3.520534 c 0,3.256495 2.27763,6.301758 5.33819,7.041071 3.06057,-0.739313 5.3382,-3.784576 5.3382,-7.041071 l 0,-3.520534 -5.3382,-2.347023 z m -1.18627,9.388091 -2.37253,-2.347023 0.83632,-0.827324 1.53621,1.513829 3.90876,-3.866721 0.83631,0.833194 -4.74507,4.694045 z"
       id="path3339"
       inkscape:connector-curvature="0"
       style="fill:#4dd0e1" />
    <path
       inkscape:connector-curvature="0"
       d="m -312.9745,25.585301 -5.41154,0 c -0.54374,-1.466259 -1.96783,-2.528033 -3.65085,-2.528033 -1.68302,0 -3.10711,1.061774 -3.65085,2.528033 l -5.41155,0 c -1.42409,0 -2.58925,1.137615 -2.58925,2.528034 l 0,20.224275 c 0,1.390419 1.16516,2.528034 2.58925,2.528034 l 18.12479,0 c 1.42409,0 2.58926,-1.137615 2.58926,-2.528034 l 0,-20.224275 c 0,-1.390419 -1.16517,-2.528034 -2.58926,-2.528034 z m -9.06239,0 c 0.71204,0 1.29463,0.568808 1.29463,1.264017 0,0.69521 -0.58259,1.264017 -1.29463,1.264017 -0.71205,0 -1.29463,-0.568807 -1.29463,-1.264017 0,-0.695209 0.58258,-1.264017 1.29463,-1.264017 z m 9.06239,22.752309 -18.12479,0 0,-20.224275 2.58926,0 0,3.792052 12.94628,0 0,-3.792052 2.58925,0 0,20.224275 z"
       id="path3364"
       style="fill:#4dd0e1" />
    <text
       xml:space="preserve"
       style="font-style:normal;font-weight:normal;font-size:6.59236956px;line-height:125%;font-family:sans-serif;letter-spacing:0px;word-spacing:0px;fill:#4dd0e1;fill-opacity:1;stroke:none;stroke-width:1px;stroke-linecap:butt;stroke-linejoin:miter;stroke-opacity:1;"
       x="-411.94687"
       y="17.147594"
       id="text3389"
       sodipodi:linespacing="125%"
       transform="scale(0.81837769,1.2219297)"><tspan
         sodipodi:role="line"
         id="tspan3391"
         x="-411.94687"
         y="17.147594">it secur</tspan></text>
  </g>
</svg>
