<?xml version="1.0" encoding="UTF-8" standalone="no"?>
<!-- Created with Inkscape (http://www.inkscape.org/) -->

<svg
   xmlns:dc="http://purl.org/dc/elements/1.1/"
   xmlns:cc="http://creativecommons.org/ns#"
   xmlns:rdf="http://www.w3.org/1999/02/22-rdf-syntax-ns#"
   xmlns:svg="http://www.w3.org/2000/svg"
   xmlns="http://www.w3.org/2000/svg"
   xmlns:sodipodi="http://sodipodi.sourceforge.net/DTD/sodipodi-0.dtd"
   xmlns:inkscape="http://www.inkscape.org/namespaces/inkscape"
   width="47.706852"
   height="47.706852"
   viewBox="0 0 47.706853 47.706852"
   id="svg13762"
   version="1.1"
   inkscape:version="0.91 r13725"
   sodipodi:docname="Knowing_education.svg">
  <defs
     id="defs13764" />
  <sodipodi:namedview
     id="base"
     pagecolor="#ffffff"
     bordercolor="#666666"
     borderopacity="1.0"
     inkscape:pageopacity="0.0"
     inkscape:pageshadow="2"
     inkscape:zoom="3.959798"
     inkscape:cx="-74.934032"
     inkscape:cy="25.669546"
     inkscape:document-units="px"
     inkscape:current-layer="layer1"
     showgrid="false"
     fit-margin-top="0"
     fit-margin-left="0"
     fit-margin-right="0"
     fit-margin-bottom="0"
     inkscape:window-width="1920"
     inkscape:window-height="1018"
     inkscape:window-x="-8"
     inkscape:window-y="-8"
     inkscape:window-maximized="1"
     units="px" />
  <metadata
     id="metadata13767">
    <rdf:RDF>
      <cc:Work
         rdf:about="">
        <dc:format>image/svg+xml</dc:format>
        <dc:type
           rdf:resource="http://purl.org/dc/dcmitype/StillImage" />
        <dc:title></dc:title>
      </cc:Work>
    </rdf:RDF>
  </metadata>
  <g
     inkscape:label="Layer 1"
     inkscape:groupmode="layer"
     id="layer1"
     transform="translate(343.85343,-8.5087792)">
    <rect
       ry="1.8348789"
       y="10.343658"
       x="-342.01855"
       height="44.037094"
       width="44.037094"
       id="rect13740"
       style="fill:none;stroke:#4dd0e1;stroke-width:3.66975784;stroke-linejoin:round;stroke-miterlimit:0;stroke-dasharray:none;stroke-opacity:1" />
    <path
       d="m -312.07867,15.617906 -1.11612,0 0,6.928932 c 0,0.544416 0.50226,0.989848 1.11612,0.989848 l 7.81282,0 0,-0.989848 -7.81282,0 0,-6.928932 z m 8.92893,-1.979694 -6.6967,0 c -0.61386,0 -1.11611,0.445431 -1.11611,0.989847 l 0,5.939084 c 0,0.544416 0.50225,0.989848 1.11611,0.989848 l 6.6967,0 c 0.61387,0 1.11612,-0.445432 1.11612,-0.989848 l 0,-5.939084 c 0,-0.544416 -0.50225,-0.989847 -1.11612,-0.989847 z m -0.55805,4.454313 -5.58059,0 0,-0.989848 5.58059,0 0,0.989848 z m -2.23224,1.979695 -3.34835,0 0,-0.989848 3.34835,0 0,0.989848 z m 2.23224,-3.95939 -5.58059,0 0,-0.989847 5.58059,0 0,0.989847 z"
       id="path4431"
       inkscape:connector-curvature="0"
       style="fill:#f06292" />
    <path
       inkscape:connector-curvature="0"
       d="m -319.10469,33.611981 c -2.95599,-2.686643 -6.91401,-4.335265 -11.27285,-4.335265 l 0,13.433215 c 4.35884,0 8.31686,1.648621 11.27285,4.335264 2.95599,-2.67443 6.91401,-4.335264 11.27284,-4.335264 l 0,-13.433215 c -4.35883,0 -8.31685,1.648622 -11.27284,4.335265 z m 0,-4.335265 c 2.07921,0 3.75761,-1.63641 3.75761,-3.663604 0,-2.027194 -1.6784,-3.663604 -3.75761,-3.663604 -2.07922,0 -3.75762,1.63641 -3.75762,3.663604 0,2.027194 1.6784,3.663604 3.75762,3.663604 z"
       id="path4489"
       style="fill:#4dd0e1" />
  </g>
</svg>
