<?xml version="1.0" encoding="UTF-8" standalone="no"?>
<!-- Created with Inkscape (http://www.inkscape.org/) -->

<svg
   xmlns:dc="http://purl.org/dc/elements/1.1/"
   xmlns:cc="http://creativecommons.org/ns#"
   xmlns:rdf="http://www.w3.org/1999/02/22-rdf-syntax-ns#"
   xmlns:svg="http://www.w3.org/2000/svg"
   xmlns="http://www.w3.org/2000/svg"
   xmlns:sodipodi="http://sodipodi.sourceforge.net/DTD/sodipodi-0.dtd"
   xmlns:inkscape="http://www.inkscape.org/namespaces/inkscape"
   width="205.70685"
   height="154.00189"
   viewBox="0 0 205.70685 154.00189"
   id="svg13762"
   version="1.1"
   inkscape:version="0.91 r13725"
   sodipodi:docname="knowing.svg">
  <defs
     id="defs13764" />
  <sodipodi:namedview
     id="base"
     pagecolor="#ffffff"
     bordercolor="#666666"
     borderopacity="1.0"
     inkscape:pageopacity="0.0"
     inkscape:pageshadow="2"
     inkscape:zoom="1.979899"
     inkscape:cx="132.99515"
     inkscape:cy="34.956812"
     inkscape:document-units="px"
     inkscape:current-layer="layer1"
     showgrid="false"
     fit-margin-top="0"
     fit-margin-left="0"
     fit-margin-right="0"
     fit-margin-bottom="0"
     inkscape:window-width="1307"
     inkscape:window-height="744"
     inkscape:window-x="53"
     inkscape:window-y="24"
     inkscape:window-maximized="1"
     units="px" />
  <metadata
     id="metadata13767">
    <rdf:RDF>
      <cc:Work
         rdf:about="">
        <dc:format>image/svg+xml</dc:format>
        <dc:type
           rdf:resource="http://purl.org/dc/dcmitype/StillImage" />
        <dc:title></dc:title>
      </cc:Work>
    </rdf:RDF>
  </metadata>
  <g
     inkscape:label="Layer 1"
     inkscape:groupmode="layer"
     id="layer1"
     transform="translate(343.97082,-8.5087795)">
    <g
       id="g4139">
      <rect
         style="fill:none;stroke:#4dd0e1;stroke-width:3.66975784;stroke-linejoin:round;stroke-miterlimit:0;stroke-dasharray:none;stroke-opacity:1"
         id="rect13740"
         width="44.037094"
         height="44.037094"
         x="-342.01855"
         y="10.343658"
         ry="1.8348789" />
      <path
         style="fill:#4dd0e1;fill-opacity:1"
         inkscape:connector-curvature="0"
         id="path4431"
         d="m -332.34652,24.225047 -3.1697,0 0,18.928933 c 0,1.487273 1.42638,2.704134 3.1697,2.704134 l 22.18782,0 0,-2.704134 -22.18782,0 0,-18.928933 z m 25.35748,-5.408264 -19.01812,0 c -1.74332,0 -3.16966,1.216859 -3.16966,2.704132 l 0,16.224798 c 0,1.487273 1.42634,2.704134 3.16966,2.704134 l 19.01812,0 c 1.74335,0 3.1697,-1.216861 3.1697,-2.704134 l 0,-16.224798 c 0,-1.487273 -1.42635,-2.704132 -3.1697,-2.704132 z m -1.58481,12.168598 -15.84846,0 0,-2.704134 15.84846,0 0,2.704134 z m -6.3394,5.408267 -9.50906,0 0,-2.704134 9.50906,0 0,2.704134 z m 6.3394,-10.816534 -15.84846,0 0,-2.704132 15.84846,0 0,2.704132 z" />
    </g>
    <g
       id="layer1-0"
       inkscape:label="Layer 1"
       transform="translate(53.882612,106.29504)">
      <rect
         style="fill:none;stroke:#4dd0e1;stroke-width:3.66975784;stroke-linejoin:round;stroke-miterlimit:0;stroke-dasharray:none;stroke-opacity:1"
         id="rect13740-7"
         width="44.037094"
         height="44.037094"
         x="-342.01855"
         y="10.343658"
         ry="1.8348789" />
      <path
         style="fill:#f06292"
         inkscape:connector-curvature="0"
         id="path4431-5"
         d="m -312.07867,15.617906 -1.11612,0 0,6.928932 c 0,0.544416 0.50226,0.989848 1.11612,0.989848 l 7.81282,0 0,-0.989848 -7.81282,0 0,-6.928932 z m 8.92893,-1.979694 -6.6967,0 c -0.61386,0 -1.11611,0.445431 -1.11611,0.989847 l 0,5.939084 c 0,0.544416 0.50225,0.989848 1.11611,0.989848 l 6.6967,0 c 0.61387,0 1.11612,-0.445432 1.11612,-0.989848 l 0,-5.939084 c 0,-0.544416 -0.50225,-0.989847 -1.11612,-0.989847 z m -0.55805,4.454313 -5.58059,0 0,-0.989848 5.58059,0 0,0.989848 z m -2.23224,1.979695 -3.34835,0 0,-0.989848 3.34835,0 0,0.989848 z m 2.23224,-3.95939 -5.58059,0 0,-0.989847 5.58059,0 0,0.989847 z" />
      <path
         style="fill:#4dd0e1"
         id="path4489"
         d="m -319.10469,33.611981 c -2.95599,-2.686643 -6.91401,-4.335265 -11.27285,-4.335265 l 0,13.433215 c 4.35884,0 8.31686,1.648621 11.27285,4.335264 2.95599,-2.67443 6.91401,-4.335264 11.27284,-4.335264 l 0,-13.433215 c -4.35883,0 -8.31685,1.648622 -11.27284,4.335265 z m 0,-4.335265 c 2.07921,0 3.75761,-1.63641 3.75761,-3.663604 0,-2.027194 -1.6784,-3.663604 -3.75761,-3.663604 -2.07922,0 -3.75762,1.63641 -3.75762,3.663604 0,2.027194 1.6784,3.663604 3.75762,3.663604 z"
         inkscape:connector-curvature="0" />
    </g>
    <g
       id="layer1-8"
       inkscape:label="Layer 1"
       transform="translate(-0.11739,106.29504)">
      <rect
         style="fill:none;stroke:#4dd0e1;stroke-width:3.66975784;stroke-linejoin:round;stroke-miterlimit:0;stroke-dasharray:none;stroke-opacity:1"
         id="rect13740-2"
         width="44.037094"
         height="44.037094"
         x="-342.01855"
         y="10.343658"
         ry="1.8348789" />
      <path
         style="fill:#f06292"
         inkscape:connector-curvature="0"
         id="path4431-9"
         d="m -312.07867,15.617906 -1.11612,0 0,6.928932 c 0,0.544416 0.50226,0.989848 1.11612,0.989848 l 7.81282,0 0,-0.989848 -7.81282,0 0,-6.928932 z m 8.92893,-1.979694 -6.6967,0 c -0.61386,0 -1.11611,0.445431 -1.11611,0.989847 l 0,5.939084 c 0,0.544416 0.50225,0.989848 1.11611,0.989848 l 6.6967,0 c 0.61387,0 1.11612,-0.445432 1.11612,-0.989848 l 0,-5.939084 c 0,-0.544416 -0.50225,-0.989847 -1.11612,-0.989847 z m -0.55805,4.454313 -5.58059,0 0,-0.989848 5.58059,0 0,0.989848 z m -2.23224,1.979695 -3.34835,0 0,-0.989848 3.34835,0 0,0.989848 z m 2.23224,-3.95939 -5.58059,0 0,-0.989847 5.58059,0 0,0.989847 z" />
      <text
         transform="scale(1.0109683,0.98915069)"
         sodipodi:linespacing="125%"
         id="text4629"
         y="44.322128"
         x="-335.97092"
         style="font-style:normal;font-weight:normal;font-size:20.07169914px;line-height:125%;font-family:sans-serif;letter-spacing:0px;word-spacing:0px;fill:#4dd0e1;fill-opacity:1;stroke:none;stroke-width:1px;stroke-linecap:butt;stroke-linejoin:miter;stroke-opacity:1"
         xml:space="preserve"><tspan
           y="44.322128"
           x="-335.97092"
           id="tspan4631"
           sodipodi:role="line">EXP</tspan></text>
    </g>
    <g
       id="layer1-07"
       inkscape:label="Layer 1"
       transform="translate(-0.117388,54.295036)">
      <rect
         style="fill:none;stroke:#4dd0e1;stroke-width:3.66975784;stroke-linejoin:round;stroke-miterlimit:0;stroke-dasharray:none;stroke-opacity:1"
         id="rect13740-21"
         width="44.037094"
         height="44.037094"
         x="-342.01855"
         y="10.343658"
         ry="1.8348789" />
      <path
         style="fill:#f06292"
         inkscape:connector-curvature="0"
         id="path4431-3"
         d="m -312.07867,15.617906 -1.11612,0 0,6.928932 c 0,0.544416 0.50226,0.989848 1.11612,0.989848 l 7.81282,0 0,-0.989848 -7.81282,0 0,-6.928932 z m 8.92893,-1.979694 -6.6967,0 c -0.61386,0 -1.11611,0.445431 -1.11611,0.989847 l 0,5.939084 c 0,0.544416 0.50225,0.989848 1.11611,0.989848 l 6.6967,0 c 0.61387,0 1.11612,-0.445432 1.11612,-0.989848 l 0,-5.939084 c 0,-0.544416 -0.50225,-0.989847 -1.11612,-0.989847 z m -0.55805,4.454313 -5.58059,0 0,-0.989848 5.58059,0 0,0.989848 z m -2.23224,1.979695 -3.34835,0 0,-0.989848 3.34835,0 0,0.989848 z m 2.23224,-3.95939 -5.58059,0 0,-0.989847 5.58059,0 0,0.989847 z" />
      <path
         style="fill:#4dd0e1"
         id="path4574"
         d="m -338.7113,36.962073 1.66328,0 0,-2.656599 -1.66328,0 0,2.656599 z m 0,5.313199 1.66328,0 0,-2.656599 -1.66328,0 0,2.656599 z m 0,-10.626397 1.66328,0 0,-2.656599 -1.66328,0 0,2.656599 z m 3.32656,5.313198 11.64298,0 0,-2.656599 -11.64298,0 0,2.656599 z m 0,5.313199 11.64298,0 0,-2.656599 -11.64298,0 0,2.656599 z m 0,-13.282996 0,2.656599 11.64298,0 0,-2.656599 -11.64298,0 z"
         inkscape:connector-curvature="0" />
      <path
         style="fill:#4dd0e1"
         id="path4574-1"
         d="m -316.74048,36.835803 1.66328,0 0,-2.656599 -1.66328,0 0,2.656599 z m 0,5.313199 1.66328,0 0,-2.656599 -1.66328,0 0,2.656599 z m 0,-10.626397 1.66328,0 0,-2.656599 -1.66328,0 0,2.656599 z m 3.32656,5.313198 11.64298,0 0,-2.656599 -11.64298,0 0,2.656599 z m 0,5.313199 11.64298,0 0,-2.656599 -11.64298,0 0,2.656599 z m 0,-13.282996 0,2.656599 11.64298,0 0,-2.656599 -11.64298,0 z"
         inkscape:connector-curvature="0" />
    </g>
    <g
       id="layer1-04"
       inkscape:label="Layer 1"
       transform="translate(53.882612,54.295036)">
      <rect
         style="fill:none;stroke:#4dd0e1;stroke-width:3.66975784;stroke-linejoin:round;stroke-miterlimit:0;stroke-dasharray:none;stroke-opacity:1"
         id="rect13740-6"
         width="44.037094"
         height="44.037094"
         x="-342.01855"
         y="10.343658"
         ry="1.8348789" />
      <path
         style="fill:#f06292"
         inkscape:connector-curvature="0"
         id="path4431-6"
         d="m -312.07867,15.617906 -1.11612,0 0,6.928932 c 0,0.544416 0.50226,0.989848 1.11612,0.989848 l 7.81282,0 0,-0.989848 -7.81282,0 0,-6.928932 z m 8.92893,-1.979694 -6.6967,0 c -0.61386,0 -1.11611,0.445431 -1.11611,0.989847 l 0,5.939084 c 0,0.544416 0.50225,0.989848 1.11611,0.989848 l 6.6967,0 c 0.61387,0 1.11612,-0.445432 1.11612,-0.989848 l 0,-5.939084 c 0,-0.544416 -0.50225,-0.989847 -1.11612,-0.989847 z m -0.55805,4.454313 -5.58059,0 0,-0.989848 5.58059,0 0,0.989848 z m -2.23224,1.979695 -3.34835,0 0,-0.989848 3.34835,0 0,0.989848 z m 2.23224,-3.95939 -5.58059,0 0,-0.989847 5.58059,0 0,0.989847 z" />
      <path
         style="fill:#4dd0e1"
         inkscape:connector-curvature="0"
         id="path3339"
         d="m -321.79967,33.144788 -5.33819,2.347023 0,3.520534 c 0,3.256495 2.27763,6.301758 5.33819,7.041071 3.06057,-0.739313 5.3382,-3.784576 5.3382,-7.041071 l 0,-3.520534 -5.3382,-2.347023 z m -1.18627,9.388091 -2.37253,-2.347023 0.83632,-0.827324 1.53621,1.513829 3.90876,-3.866721 0.83631,0.833194 -4.74507,4.694045 z" />
      <path
         style="fill:#4dd0e1"
         id="path3364"
         d="m -312.9745,25.585301 -5.41154,0 c -0.54374,-1.466259 -1.96783,-2.528033 -3.65085,-2.528033 -1.68302,0 -3.10711,1.061774 -3.65085,2.528033 l -5.41155,0 c -1.42409,0 -2.58925,1.137615 -2.58925,2.528034 l 0,20.224275 c 0,1.390419 1.16516,2.528034 2.58925,2.528034 l 18.12479,0 c 1.42409,0 2.58926,-1.137615 2.58926,-2.528034 l 0,-20.224275 c 0,-1.390419 -1.16517,-2.528034 -2.58926,-2.528034 z m -9.06239,0 c 0.71204,0 1.29463,0.568808 1.29463,1.264017 0,0.69521 -0.58259,1.264017 -1.29463,1.264017 -0.71205,0 -1.29463,-0.568807 -1.29463,-1.264017 0,-0.695209 0.58258,-1.264017 1.29463,-1.264017 z m 9.06239,22.752309 -18.12479,0 0,-20.224275 2.58926,0 0,3.792052 12.94628,0 0,-3.792052 2.58925,0 0,20.224275 z"
         inkscape:connector-curvature="0" />
      <text
         transform="scale(0.81837769,1.2219297)"
         sodipodi:linespacing="125%"
         id="text3389"
         y="17.147594"
         x="-411.94687"
         style="font-style:normal;font-weight:normal;font-size:6.59236956px;line-height:125%;font-family:sans-serif;letter-spacing:0px;word-spacing:0px;fill:#4dd0e1;fill-opacity:1;stroke:none;stroke-width:1px;stroke-linecap:butt;stroke-linejoin:miter;stroke-opacity:1"
         xml:space="preserve"><tspan
           y="17.147594"
           x="-411.94687"
           id="tspan3391"
           sodipodi:role="line">it secur</tspan></text>
    </g>
    <g
       id="layer1-079"
       inkscape:label="Layer 1"
       transform="translate(105.88261,54.295036)">
      <rect
         style="fill:none;stroke:#4dd0e1;stroke-width:3.66975784;stroke-linejoin:round;stroke-miterlimit:0;stroke-dasharray:none;stroke-opacity:1"
         id="rect13740-4"
         width="44.037094"
         height="44.037094"
         x="-342.01855"
         y="10.343658"
         ry="1.8348789" />
      <path
         style="fill:#f06292"
         inkscape:connector-curvature="0"
         id="path4431-94"
         d="m -312.07867,15.617906 -1.11612,0 0,6.928932 c 0,0.544416 0.50226,0.989848 1.11612,0.989848 l 7.81282,0 0,-0.989848 -7.81282,0 0,-6.928932 z m 8.92893,-1.979694 -6.6967,0 c -0.61386,0 -1.11611,0.445431 -1.11611,0.989847 l 0,5.939084 c 0,0.544416 0.50225,0.989848 1.11611,0.989848 l 6.6967,0 c 0.61387,0 1.11612,-0.445432 1.11612,-0.989848 l 0,-5.939084 c 0,-0.544416 -0.50225,-0.989847 -1.11612,-0.989847 z m -0.55805,4.454313 -5.58059,0 0,-0.989848 5.58059,0 0,0.989848 z m -2.23224,1.979695 -3.34835,0 0,-0.989848 3.34835,0 0,0.989848 z m 2.23224,-3.95939 -5.58059,0 0,-0.989847 5.58059,0 0,0.989847 z" />
      <path
         style="fill:#4dd0e1"
         id="path4456"
         d="m -319.60977,23.094051 c 1.16,0 2.1,0.94 2.1,2.1 0,1.16 -0.94,2.1 -2.1,2.1 -1.16,0 -2.1,-0.94 -2.1,-2.1 0,-1.16 0.94,-2.1 2.1,-2.1 m 0,9 c 2.97,0 6.1,1.46 6.1,2.1 l 0,1.1 -12.2,0 0,-1.1 c 0,-0.64 3.13,-2.1 6.1,-2.1 m 0,-10.899999 c -2.21,0 -4,1.789999 -4,3.999999 0,2.21 1.79,4 4,4 2.21,0 4,-1.79 4,-4 0,-2.21 -1.79,-3.999999 -4,-3.999999 z m 0,8.999999 c -2.67,0 -8,1.34 -8,4 l 0,3 16,0 0,-3 c 0,-2.66 -5.33,-4 -8,-4 z"
         inkscape:connector-curvature="0" />
      <text
         transform="scale(0.77750401,1.286167)"
         sodipodi:linespacing="125%"
         id="text4481"
         y="35.130985"
         x="-429.48169"
         style="font-style:normal;font-weight:normal;font-size:8.41940975px;line-height:125%;font-family:sans-serif;letter-spacing:0px;word-spacing:0px;fill:#4dd0e1;fill-opacity:1;stroke:none;stroke-width:1px;stroke-linecap:butt;stroke-linejoin:miter;stroke-opacity:1"
         xml:space="preserve"><tspan
           y="35.130985"
           x="-429.48169"
           id="tspan4483"
           sodipodi:role="line">it special</tspan></text>
    </g>
    <g
       id="layer1-1"
       inkscape:label="Layer 1"
       transform="translate(157.88261,54.295036)">
      <rect
         style="fill:none;stroke:#4dd0e1;stroke-width:3.66975784;stroke-linejoin:round;stroke-miterlimit:0;stroke-dasharray:none;stroke-opacity:1"
         id="rect13740-68"
         width="44.037094"
         height="44.037094"
         x="-342.01855"
         y="10.343658"
         ry="1.8348789" />
      <path
         style="fill:#f06292"
         inkscape:connector-curvature="0"
         id="path4431-2"
         d="m -312.07867,15.617906 -1.11612,0 0,6.928932 c 0,0.544416 0.50226,0.989848 1.11612,0.989848 l 7.81282,0 0,-0.989848 -7.81282,0 0,-6.928932 z m 8.92893,-1.979694 -6.6967,0 c -0.61386,0 -1.11611,0.445431 -1.11611,0.989847 l 0,5.939084 c 0,0.544416 0.50225,0.989848 1.11611,0.989848 l 6.6967,0 c 0.61387,0 1.11612,-0.445432 1.11612,-0.989848 l 0,-5.939084 c 0,-0.544416 -0.50225,-0.989847 -1.11612,-0.989847 z m -0.55805,4.454313 -5.58059,0 0,-0.989848 5.58059,0 0,0.989848 z m -2.23224,1.979695 -3.34835,0 0,-0.989848 3.34835,0 0,0.989848 z m 2.23224,-3.95939 -5.58059,0 0,-0.989847 5.58059,0 0,0.989847 z" />
      <path
         style="fill:#4dd0e1"
         id="path4724-7"
         d="m -310.58947,24.808611 -5.23561,0 c -0.52606,-1.49289 -1.90385,-2.573949 -3.53215,-2.573949 -1.6283,0 -3.00609,1.081059 -3.53216,2.573949 l -5.23561,0 c -1.37779,0 -2.50508,1.158278 -2.50508,2.573951 l 0,20.591602 c 0,1.415673 1.12729,2.573951 2.50508,2.573951 l 17.53553,0 c 1.3778,0 2.50508,-1.158278 2.50508,-2.573951 l 0,-20.591602 c 0,-1.415673 -1.12728,-2.573951 -2.50508,-2.573951 z m -8.76776,0 c 0.68889,0 1.25253,0.579139 1.25253,1.286975 0,0.707837 -0.56364,1.286976 -1.25253,1.286976 -0.6889,0 -1.25254,-0.579139 -1.25254,-1.286976 0,-0.707836 0.56364,-1.286975 1.25254,-1.286975 z m 8.76776,23.165553 -17.53553,0 0,-20.591602 2.50508,0 0,3.860925 12.52538,0 0,-3.860925 2.50507,0 0,20.591602 z"
         inkscape:connector-curvature="0" />
      <path
         style="fill:#4dd0e1"
         id="path4766"
         d="m -326.71573,40.346085 1.41075,0 0,-2.227285 -1.41075,0 0,2.227285 z m 0,4.454569 1.41075,0 0,-2.227285 -1.41075,0 0,2.227285 z m 0,-8.909137 1.41075,0 0,-2.227285 -1.41075,0 0,2.227285 z m 2.82148,4.454568 9.87522,0 0,-2.227285 -9.87522,0 0,2.227285 z m 0,4.454569 9.87522,0 0,-2.227285 -9.87522,0 0,2.227285 z m 0,-11.136422 0,2.227285 9.87522,0 0,-2.227285 -9.87522,0 z"
         inkscape:connector-curvature="0" />
    </g>
    <g
       id="layer1-88"
       inkscape:label="Layer 1"
       transform="translate(157.88261,0.295036)">
      <rect
         style="fill:none;stroke:#4dd0e1;stroke-width:3.66975784;stroke-linejoin:round;stroke-miterlimit:0;stroke-dasharray:none;stroke-opacity:1"
         id="rect13740-3"
         width="44.037094"
         height="44.037094"
         x="-342.01855"
         y="10.343658"
         ry="1.8348789" />
      <path
         style="fill:#f06292"
         inkscape:connector-curvature="0"
         id="path4431-8"
         d="m -312.07867,15.617906 -1.11612,0 0,6.928932 c 0,0.544416 0.50226,0.989848 1.11612,0.989848 l 7.81282,0 0,-0.989848 -7.81282,0 0,-6.928932 z m 8.92893,-1.979694 -6.6967,0 c -0.61386,0 -1.11611,0.445431 -1.11611,0.989847 l 0,5.939084 c 0,0.544416 0.50225,0.989848 1.11611,0.989848 l 6.6967,0 c 0.61387,0 1.11612,-0.445432 1.11612,-0.989848 l 0,-5.939084 c 0,-0.544416 -0.50225,-0.989847 -1.11612,-0.989847 z m -0.55805,4.454313 -5.58059,0 0,-0.989848 5.58059,0 0,0.989848 z m -2.23224,1.979695 -3.34835,0 0,-0.989848 3.34835,0 0,0.989848 z m 2.23224,-3.95939 -5.58059,0 0,-0.989847 5.58059,0 0,0.989847 z" />
      <path
         style="fill:#4dd0e1"
         id="path4635"
         d="m -320.43052,40.558267 c 3.16926,0 5.7362,-2.439812 5.7362,-5.452095 0,-3.012282 -2.56694,-5.452094 -5.7362,-5.452094 -3.16925,0 -5.7362,2.439812 -5.7362,5.452094 0,3.012283 2.56695,5.452095 5.7362,5.452095 z m 0,2.726046 c -3.82892,0 -11.4724,1.826452 -11.4724,5.452094 l 0,2.726048 22.9448,0 0,-2.726048 c 0,-3.625642 -7.64349,-5.452094 -11.4724,-5.452094 z"
         inkscape:connector-curvature="0" />
      <path
         style="fill:#4dd0e1;fill-opacity:1;stroke:none;stroke-width:0.85413921;stroke-opacity:1"
         id="path3363"
         d="m -311.20237,26.530385 1.99929,0 0,7.726443 -1.99929,0 z"
         inkscape:connector-curvature="0" />
      <ellipse
         ry="1.2423856"
         rx="0.98984748"
         style="fill:#4dd0e1;fill-opacity:1"
         id="circle3361"
         cy="36.012581"
         cx="-310.26587" />
    </g>
    <g
       id="layer1-9"
       inkscape:label="Layer 1"
       transform="translate(105.88261,0.295036)">
      <rect
         style="fill:none;stroke:#4dd0e1;stroke-width:3.66975784;stroke-linejoin:round;stroke-miterlimit:0;stroke-dasharray:none;stroke-opacity:1"
         id="rect13740-210"
         width="44.037094"
         height="44.037094"
         x="-342.01855"
         y="10.343658"
         ry="1.8348789" />
      <path
         style="fill:#f06292"
         inkscape:connector-curvature="0"
         id="path4431-61"
         d="m -312.07867,15.617906 -1.11612,0 0,6.928932 c 0,0.544416 0.50226,0.989848 1.11612,0.989848 l 7.81282,0 0,-0.989848 -7.81282,0 0,-6.928932 z m 8.92893,-1.979694 -6.6967,0 c -0.61386,0 -1.11611,0.445431 -1.11611,0.989847 l 0,5.939084 c 0,0.544416 0.50225,0.989848 1.11611,0.989848 l 6.6967,0 c 0.61387,0 1.11612,-0.445432 1.11612,-0.989848 l 0,-5.939084 c 0,-0.544416 -0.50225,-0.989847 -1.11612,-0.989847 z m -0.55805,4.454313 -5.58059,0 0,-0.989848 5.58059,0 0,0.989848 z m -2.23224,1.979695 -3.34835,0 0,-0.989848 3.34835,0 0,0.989848 z m 2.23224,-3.95939 -5.58059,0 0,-0.989847 5.58059,0 0,0.989847 z" />
      <path
         style="fill:#4dd0e1"
         id="path4543"
         d="m -319.32412,36.730706 9.81235,0 0,2.012504 -9.81235,0 z m 0,-3.354173 9.81235,0 0,2.012503 -9.81235,0 z m 0,6.708347 9.81235,0 0,2.012503 -9.81235,0 z m 11.21412,-14.087528 -25.23177,0 c -1.54195,0 -2.80353,1.207502 -2.80353,2.683339 l 0,17.4417 c 0,1.475836 1.26158,2.683338 2.80353,2.683338 l 25.23177,0 c 1.54194,0 2.80353,-1.207502 2.80353,-2.683338 l 0,-17.4417 c 0,-1.475837 -1.26159,-2.683339 -2.80353,-2.683339 z m 0,20.125039 -12.61589,0 0,-17.4417 12.61589,0 0,17.4417 z"
         inkscape:connector-curvature="0" />
    </g>
    <g
       id="layer1-10"
       inkscape:label="Layer 1"
       transform="translate(53.882612,0.295036)">
      <rect
         style="fill:none;stroke:#4dd0e1;stroke-width:3.66975784;stroke-linejoin:round;stroke-miterlimit:0;stroke-dasharray:none;stroke-opacity:1"
         id="rect13740-72"
         width="44.037094"
         height="44.037094"
         x="-342.01855"
         y="10.343658"
         ry="1.8348789" />
      <path
         style="fill:#f06292"
         inkscape:connector-curvature="0"
         id="path4431-30"
         d="m -312.07867,15.617906 -1.11612,0 0,6.928932 c 0,0.544416 0.50226,0.989848 1.11612,0.989848 l 7.81282,0 0,-0.989848 -7.81282,0 0,-6.928932 z m 8.92893,-1.979694 -6.6967,0 c -0.61386,0 -1.11611,0.445431 -1.11611,0.989847 l 0,5.939084 c 0,0.544416 0.50225,0.989848 1.11611,0.989848 l 6.6967,0 c 0.61387,0 1.11612,-0.445432 1.11612,-0.989848 l 0,-5.939084 c 0,-0.544416 -0.50225,-0.989847 -1.11612,-0.989847 z m -0.55805,4.454313 -5.58059,0 0,-0.989848 5.58059,0 0,0.989848 z m -2.23224,1.979695 -3.34835,0 0,-0.989848 3.34835,0 0,0.989848 z m 2.23224,-3.95939 -5.58059,0 0,-0.989847 5.58059,0 0,0.989847 z" />
    </g>
    <g
       id="g4529">
      <rect
         ry="1.8348789"
         y="10.343658"
         x="-342.01855"
         height="44.037094"
         width="44.037094"
         id="rect4531"
         style="fill:none;stroke:#4dd0e1;stroke-width:3.66975784;stroke-linejoin:round;stroke-miterlimit:0;stroke-dasharray:none;stroke-opacity:1" />
      <path
         d="m -332.34652,24.225047 -3.1697,0 0,18.928933 c 0,1.487273 1.42638,2.704134 3.1697,2.704134 l 22.18782,0 0,-2.704134 -22.18782,0 0,-18.928933 z m 25.35748,-5.408264 -19.01812,0 c -1.74332,0 -3.16966,1.216859 -3.16966,2.704132 l 0,16.224798 c 0,1.487273 1.42634,2.704134 3.16966,2.704134 l 19.01812,0 c 1.74335,0 3.1697,-1.216861 3.1697,-2.704134 l 0,-16.224798 c 0,-1.487273 -1.42635,-2.704132 -3.1697,-2.704132 z m -1.58481,12.168598 -15.84846,0 0,-2.704134 15.84846,0 0,2.704134 z m -6.3394,5.408267 -9.50906,0 0,-2.704134 9.50906,0 0,2.704134 z m 6.3394,-10.816534 -15.84846,0 0,-2.704132 15.84846,0 0,2.704132 z"
         id="path4533"
         inkscape:connector-curvature="0"
         style="fill:#4dd0e1;fill-opacity:1" />
    </g>
    <g
       transform="translate(53.882612,106.29504)"
       inkscape:label="Layer 1"
       id="g4535">
      <rect
         ry="1.8348789"
         y="10.343658"
         x="-342.01855"
         height="44.037094"
         width="44.037094"
         id="rect4537"
         style="fill:none;stroke:#4dd0e1;stroke-width:3.66975784;stroke-linejoin:round;stroke-miterlimit:0;stroke-dasharray:none;stroke-opacity:1" />
      <path
         d="m -312.07867,15.617906 -1.11612,0 0,6.928932 c 0,0.544416 0.50226,0.989848 1.11612,0.989848 l 7.81282,0 0,-0.989848 -7.81282,0 0,-6.928932 z m 8.92893,-1.979694 -6.6967,0 c -0.61386,0 -1.11611,0.445431 -1.11611,0.989847 l 0,5.939084 c 0,0.544416 0.50225,0.989848 1.11611,0.989848 l 6.6967,0 c 0.61387,0 1.11612,-0.445432 1.11612,-0.989848 l 0,-5.939084 c 0,-0.544416 -0.50225,-0.989847 -1.11612,-0.989847 z m -0.55805,4.454313 -5.58059,0 0,-0.989848 5.58059,0 0,0.989848 z m -2.23224,1.979695 -3.34835,0 0,-0.989848 3.34835,0 0,0.989848 z m 2.23224,-3.95939 -5.58059,0 0,-0.989847 5.58059,0 0,0.989847 z"
         id="path4539"
         inkscape:connector-curvature="0"
         style="fill:#f06292" />
      <path
         inkscape:connector-curvature="0"
         d="m -319.10469,33.611981 c -2.95599,-2.686643 -6.91401,-4.335265 -11.27285,-4.335265 l 0,13.433215 c 4.35884,0 8.31686,1.648621 11.27285,4.335264 2.95599,-2.67443 6.91401,-4.335264 11.27284,-4.335264 l 0,-13.433215 c -4.35883,0 -8.31685,1.648622 -11.27284,4.335265 z m 0,-4.335265 c 2.07921,0 3.75761,-1.63641 3.75761,-3.663604 0,-2.027194 -1.6784,-3.663604 -3.75761,-3.663604 -2.07922,0 -3.75762,1.63641 -3.75762,3.663604 0,2.027194 1.6784,3.663604 3.75762,3.663604 z"
         id="path4541"
         style="fill:#4dd0e1" />
    </g>
    <g
       transform="translate(-0.11739,106.29504)"
       inkscape:label="Layer 1"
       id="g4543">
      <rect
         ry="1.8348789"
         y="10.343658"
         x="-342.01855"
         height="44.037094"
         width="44.037094"
         id="rect4545"
         style="fill:none;stroke:#4dd0e1;stroke-width:3.66975784;stroke-linejoin:round;stroke-miterlimit:0;stroke-dasharray:none;stroke-opacity:1" />
      <path
         d="m -312.07867,15.617906 -1.11612,0 0,6.928932 c 0,0.544416 0.50226,0.989848 1.11612,0.989848 l 7.81282,0 0,-0.989848 -7.81282,0 0,-6.928932 z m 8.92893,-1.979694 -6.6967,0 c -0.61386,0 -1.11611,0.445431 -1.11611,0.989847 l 0,5.939084 c 0,0.544416 0.50225,0.989848 1.11611,0.989848 l 6.6967,0 c 0.61387,0 1.11612,-0.445432 1.11612,-0.989848 l 0,-5.939084 c 0,-0.544416 -0.50225,-0.989847 -1.11612,-0.989847 z m -0.55805,4.454313 -5.58059,0 0,-0.989848 5.58059,0 0,0.989848 z m -2.23224,1.979695 -3.34835,0 0,-0.989848 3.34835,0 0,0.989848 z m 2.23224,-3.95939 -5.58059,0 0,-0.989847 5.58059,0 0,0.989847 z"
         id="path4547"
         inkscape:connector-curvature="0"
         style="fill:#f06292" />
      <text
         xml:space="preserve"
         style="font-style:normal;font-weight:normal;font-size:20.07169914px;line-height:125%;font-family:sans-serif;letter-spacing:0px;word-spacing:0px;fill:#4dd0e1;fill-opacity:1;stroke:none;stroke-width:1px;stroke-linecap:butt;stroke-linejoin:miter;stroke-opacity:1"
         x="-335.97092"
         y="44.322128"
         id="text4549"
         sodipodi:linespacing="125%"
         transform="scale(1.0109683,0.98915069)"><tspan
           sodipodi:role="line"
           id="tspan4551"
           x="-335.97092"
           y="44.322128">EXP</tspan></text>
    </g>
    <g
       transform="translate(-0.117388,54.295036)"
       inkscape:label="Layer 1"
       id="g4553">
      <rect
         ry="1.8348789"
         y="10.343658"
         x="-342.01855"
         height="44.037094"
         width="44.037094"
         id="rect4555"
         style="fill:none;stroke:#4dd0e1;stroke-width:3.66975784;stroke-linejoin:round;stroke-miterlimit:0;stroke-dasharray:none;stroke-opacity:1" />
      <path
         d="m -312.07867,15.617906 -1.11612,0 0,6.928932 c 0,0.544416 0.50226,0.989848 1.11612,0.989848 l 7.81282,0 0,-0.989848 -7.81282,0 0,-6.928932 z m 8.92893,-1.979694 -6.6967,0 c -0.61386,0 -1.11611,0.445431 -1.11611,0.989847 l 0,5.939084 c 0,0.544416 0.50225,0.989848 1.11611,0.989848 l 6.6967,0 c 0.61387,0 1.11612,-0.445432 1.11612,-0.989848 l 0,-5.939084 c 0,-0.544416 -0.50225,-0.989847 -1.11612,-0.989847 z m -0.55805,4.454313 -5.58059,0 0,-0.989848 5.58059,0 0,0.989848 z m -2.23224,1.979695 -3.34835,0 0,-0.989848 3.34835,0 0,0.989848 z m 2.23224,-3.95939 -5.58059,0 0,-0.989847 5.58059,0 0,0.989847 z"
         id="path4557"
         inkscape:connector-curvature="0"
         style="fill:#f06292" />
      <path
         inkscape:connector-curvature="0"
         d="m -338.7113,36.962073 1.66328,0 0,-2.656599 -1.66328,0 0,2.656599 z m 0,5.313199 1.66328,0 0,-2.656599 -1.66328,0 0,2.656599 z m 0,-10.626397 1.66328,0 0,-2.656599 -1.66328,0 0,2.656599 z m 3.32656,5.313198 11.64298,0 0,-2.656599 -11.64298,0 0,2.656599 z m 0,5.313199 11.64298,0 0,-2.656599 -11.64298,0 0,2.656599 z m 0,-13.282996 0,2.656599 11.64298,0 0,-2.656599 -11.64298,0 z"
         id="path4559"
         style="fill:#4dd0e1" />
      <path
         inkscape:connector-curvature="0"
         d="m -316.74048,36.835803 1.66328,0 0,-2.656599 -1.66328,0 0,2.656599 z m 0,5.313199 1.66328,0 0,-2.656599 -1.66328,0 0,2.656599 z m 0,-10.626397 1.66328,0 0,-2.656599 -1.66328,0 0,2.656599 z m 3.32656,5.313198 11.64298,0 0,-2.656599 -11.64298,0 0,2.656599 z m 0,5.313199 11.64298,0 0,-2.656599 -11.64298,0 0,2.656599 z m 0,-13.282996 0,2.656599 11.64298,0 0,-2.656599 -11.64298,0 z"
         id="path4561"
         style="fill:#4dd0e1" />
    </g>
    <g
       transform="translate(53.882612,54.295036)"
       inkscape:label="Layer 1"
       id="g4563">
      <rect
         ry="1.8348789"
         y="10.343658"
         x="-342.01855"
         height="44.037094"
         width="44.037094"
         id="rect4565"
         style="fill:none;stroke:#4dd0e1;stroke-width:3.66975784;stroke-linejoin:round;stroke-miterlimit:0;stroke-dasharray:none;stroke-opacity:1" />
      <path
         d="m -312.07867,15.617906 -1.11612,0 0,6.928932 c 0,0.544416 0.50226,0.989848 1.11612,0.989848 l 7.81282,0 0,-0.989848 -7.81282,0 0,-6.928932 z m 8.92893,-1.979694 -6.6967,0 c -0.61386,0 -1.11611,0.445431 -1.11611,0.989847 l 0,5.939084 c 0,0.544416 0.50225,0.989848 1.11611,0.989848 l 6.6967,0 c 0.61387,0 1.11612,-0.445432 1.11612,-0.989848 l 0,-5.939084 c 0,-0.544416 -0.50225,-0.989847 -1.11612,-0.989847 z m -0.55805,4.454313 -5.58059,0 0,-0.989848 5.58059,0 0,0.989848 z m -2.23224,1.979695 -3.34835,0 0,-0.989848 3.34835,0 0,0.989848 z m 2.23224,-3.95939 -5.58059,0 0,-0.989847 5.58059,0 0,0.989847 z"
         id="path4567"
         inkscape:connector-curvature="0"
         style="fill:#f06292" />
      <path
         d="m -321.79967,33.144788 -5.33819,2.347023 0,3.520534 c 0,3.256495 2.27763,6.301758 5.33819,7.041071 3.06057,-0.739313 5.3382,-3.784576 5.3382,-7.041071 l 0,-3.520534 -5.3382,-2.347023 z m -1.18627,9.388091 -2.37253,-2.347023 0.83632,-0.827324 1.53621,1.513829 3.90876,-3.866721 0.83631,0.833194 -4.74507,4.694045 z"
         id="path4569"
         inkscape:connector-curvature="0"
         style="fill:#4dd0e1" />
      <path
         inkscape:connector-curvature="0"
         d="m -312.9745,25.585301 -5.41154,0 c -0.54374,-1.466259 -1.96783,-2.528033 -3.65085,-2.528033 -1.68302,0 -3.10711,1.061774 -3.65085,2.528033 l -5.41155,0 c -1.42409,0 -2.58925,1.137615 -2.58925,2.528034 l 0,20.224275 c 0,1.390419 1.16516,2.528034 2.58925,2.528034 l 18.12479,0 c 1.42409,0 2.58926,-1.137615 2.58926,-2.528034 l 0,-20.224275 c 0,-1.390419 -1.16517,-2.528034 -2.58926,-2.528034 z m -9.06239,0 c 0.71204,0 1.29463,0.568808 1.29463,1.264017 0,0.69521 -0.58259,1.264017 -1.29463,1.264017 -0.71205,0 -1.29463,-0.568807 -1.29463,-1.264017 0,-0.695209 0.58258,-1.264017 1.29463,-1.264017 z m 9.06239,22.752309 -18.12479,0 0,-20.224275 2.58926,0 0,3.792052 12.94628,0 0,-3.792052 2.58925,0 0,20.224275 z"
         id="path4571"
         style="fill:#4dd0e1" />
      <text
         xml:space="preserve"
         style="font-style:normal;font-weight:normal;font-size:6.59236956px;line-height:125%;font-family:sans-serif;letter-spacing:0px;word-spacing:0px;fill:#4dd0e1;fill-opacity:1;stroke:none;stroke-width:1px;stroke-linecap:butt;stroke-linejoin:miter;stroke-opacity:1"
         x="-411.94687"
         y="17.147594"
         id="text4573"
         sodipodi:linespacing="125%"
         transform="scale(0.81837769,1.2219297)"><tspan
           sodipodi:role="line"
           id="tspan4575"
           x="-411.94687"
           y="17.147594">it secur</tspan></text>
    </g>
    <g
       transform="translate(105.88261,54.295036)"
       inkscape:label="Layer 1"
       id="g4577">
      <rect
         ry="1.8348789"
         y="10.343658"
         x="-342.01855"
         height="44.037094"
         width="44.037094"
         id="rect4579"
         style="fill:none;stroke:#4dd0e1;stroke-width:3.66975784;stroke-linejoin:round;stroke-miterlimit:0;stroke-dasharray:none;stroke-opacity:1" />
      <path
         d="m -312.07867,15.617906 -1.11612,0 0,6.928932 c 0,0.544416 0.50226,0.989848 1.11612,0.989848 l 7.81282,0 0,-0.989848 -7.81282,0 0,-6.928932 z m 8.92893,-1.979694 -6.6967,0 c -0.61386,0 -1.11611,0.445431 -1.11611,0.989847 l 0,5.939084 c 0,0.544416 0.50225,0.989848 1.11611,0.989848 l 6.6967,0 c 0.61387,0 1.11612,-0.445432 1.11612,-0.989848 l 0,-5.939084 c 0,-0.544416 -0.50225,-0.989847 -1.11612,-0.989847 z m -0.55805,4.454313 -5.58059,0 0,-0.989848 5.58059,0 0,0.989848 z m -2.23224,1.979695 -3.34835,0 0,-0.989848 3.34835,0 0,0.989848 z m 2.23224,-3.95939 -5.58059,0 0,-0.989847 5.58059,0 0,0.989847 z"
         id="path4581"
         inkscape:connector-curvature="0"
         style="fill:#f06292" />
      <path
         inkscape:connector-curvature="0"
         d="m -319.60977,23.094051 c 1.16,0 2.1,0.94 2.1,2.1 0,1.16 -0.94,2.1 -2.1,2.1 -1.16,0 -2.1,-0.94 -2.1,-2.1 0,-1.16 0.94,-2.1 2.1,-2.1 m 0,9 c 2.97,0 6.1,1.46 6.1,2.1 l 0,1.1 -12.2,0 0,-1.1 c 0,-0.64 3.13,-2.1 6.1,-2.1 m 0,-10.899999 c -2.21,0 -4,1.789999 -4,3.999999 0,2.21 1.79,4 4,4 2.21,0 4,-1.79 4,-4 0,-2.21 -1.79,-3.999999 -4,-3.999999 z m 0,8.999999 c -2.67,0 -8,1.34 -8,4 l 0,3 16,0 0,-3 c 0,-2.66 -5.33,-4 -8,-4 z"
         id="path4583"
         style="fill:#4dd0e1" />
      <text
         xml:space="preserve"
         style="font-style:normal;font-weight:normal;font-size:8.41940975px;line-height:125%;font-family:sans-serif;letter-spacing:0px;word-spacing:0px;fill:#4dd0e1;fill-opacity:1;stroke:none;stroke-width:1px;stroke-linecap:butt;stroke-linejoin:miter;stroke-opacity:1"
         x="-429.48169"
         y="35.130985"
         id="text4585"
         sodipodi:linespacing="125%"
         transform="scale(0.77750401,1.286167)"><tspan
           sodipodi:role="line"
           id="tspan4587"
           x="-429.48169"
           y="35.130985">it special</tspan></text>
    </g>
    <g
       transform="translate(157.88261,54.295036)"
       inkscape:label="Layer 1"
       id="g4589">
      <rect
         ry="1.8348789"
         y="10.343658"
         x="-342.01855"
         height="44.037094"
         width="44.037094"
         id="rect4591"
         style="fill:none;stroke:#4dd0e1;stroke-width:3.66975784;stroke-linejoin:round;stroke-miterlimit:0;stroke-dasharray:none;stroke-opacity:1" />
      <path
         d="m -312.07867,15.617906 -1.11612,0 0,6.928932 c 0,0.544416 0.50226,0.989848 1.11612,0.989848 l 7.81282,0 0,-0.989848 -7.81282,0 0,-6.928932 z m 8.92893,-1.979694 -6.6967,0 c -0.61386,0 -1.11611,0.445431 -1.11611,0.989847 l 0,5.939084 c 0,0.544416 0.50225,0.989848 1.11611,0.989848 l 6.6967,0 c 0.61387,0 1.11612,-0.445432 1.11612,-0.989848 l 0,-5.939084 c 0,-0.544416 -0.50225,-0.989847 -1.11612,-0.989847 z m -0.55805,4.454313 -5.58059,0 0,-0.989848 5.58059,0 0,0.989848 z m -2.23224,1.979695 -3.34835,0 0,-0.989848 3.34835,0 0,0.989848 z m 2.23224,-3.95939 -5.58059,0 0,-0.989847 5.58059,0 0,0.989847 z"
         id="path4593"
         inkscape:connector-curvature="0"
         style="fill:#f06292" />
      <path
         inkscape:connector-curvature="0"
         d="m -310.58947,24.808611 -5.23561,0 c -0.52606,-1.49289 -1.90385,-2.573949 -3.53215,-2.573949 -1.6283,0 -3.00609,1.081059 -3.53216,2.573949 l -5.23561,0 c -1.37779,0 -2.50508,1.158278 -2.50508,2.573951 l 0,20.591602 c 0,1.415673 1.12729,2.573951 2.50508,2.573951 l 17.53553,0 c 1.3778,0 2.50508,-1.158278 2.50508,-2.573951 l 0,-20.591602 c 0,-1.415673 -1.12728,-2.573951 -2.50508,-2.573951 z m -8.76776,0 c 0.68889,0 1.25253,0.579139 1.25253,1.286975 0,0.707837 -0.56364,1.286976 -1.25253,1.286976 -0.6889,0 -1.25254,-0.579139 -1.25254,-1.286976 0,-0.707836 0.56364,-1.286975 1.25254,-1.286975 z m 8.76776,23.165553 -17.53553,0 0,-20.591602 2.50508,0 0,3.860925 12.52538,0 0,-3.860925 2.50507,0 0,20.591602 z"
         id="path4595"
         style="fill:#4dd0e1" />
      <path
         inkscape:connector-curvature="0"
         d="m -326.71573,40.346085 1.41075,0 0,-2.227285 -1.41075,0 0,2.227285 z m 0,4.454569 1.41075,0 0,-2.227285 -1.41075,0 0,2.227285 z m 0,-8.909137 1.41075,0 0,-2.227285 -1.41075,0 0,2.227285 z m 2.82148,4.454568 9.87522,0 0,-2.227285 -9.87522,0 0,2.227285 z m 0,4.454569 9.87522,0 0,-2.227285 -9.87522,0 0,2.227285 z m 0,-11.136422 0,2.227285 9.87522,0 0,-2.227285 -9.87522,0 z"
         id="path4597"
         style="fill:#4dd0e1" />
    </g>
    <g
       transform="translate(157.88261,0.295036)"
       inkscape:label="Layer 1"
       id="g4599">
      <rect
         ry="1.8348789"
         y="10.343658"
         x="-342.01855"
         height="44.037094"
         width="44.037094"
         id="rect4601"
         style="fill:none;stroke:#4dd0e1;stroke-width:3.66975784;stroke-linejoin:round;stroke-miterlimit:0;stroke-dasharray:none;stroke-opacity:1" />
      <path
         d="m -312.07867,15.617906 -1.11612,0 0,6.928932 c 0,0.544416 0.50226,0.989848 1.11612,0.989848 l 7.81282,0 0,-0.989848 -7.81282,0 0,-6.928932 z m 8.92893,-1.979694 -6.6967,0 c -0.61386,0 -1.11611,0.445431 -1.11611,0.989847 l 0,5.939084 c 0,0.544416 0.50225,0.989848 1.11611,0.989848 l 6.6967,0 c 0.61387,0 1.11612,-0.445432 1.11612,-0.989848 l 0,-5.939084 c 0,-0.544416 -0.50225,-0.989847 -1.11612,-0.989847 z m -0.55805,4.454313 -5.58059,0 0,-0.989848 5.58059,0 0,0.989848 z m -2.23224,1.979695 -3.34835,0 0,-0.989848 3.34835,0 0,0.989848 z m 2.23224,-3.95939 -5.58059,0 0,-0.989847 5.58059,0 0,0.989847 z"
         id="path4603"
         inkscape:connector-curvature="0"
         style="fill:#f06292" />
      <path
         inkscape:connector-curvature="0"
         d="m -320.43052,40.558267 c 3.16926,0 5.7362,-2.439812 5.7362,-5.452095 0,-3.012282 -2.56694,-5.452094 -5.7362,-5.452094 -3.16925,0 -5.7362,2.439812 -5.7362,5.452094 0,3.012283 2.56695,5.452095 5.7362,5.452095 z m 0,2.726046 c -3.82892,0 -11.4724,1.826452 -11.4724,5.452094 l 0,2.726048 22.9448,0 0,-2.726048 c 0,-3.625642 -7.64349,-5.452094 -11.4724,-5.452094 z"
         id="path4605"
         style="fill:#4dd0e1" />
      <path
         inkscape:connector-curvature="0"
         d="m -311.20237,26.530385 1.99929,0 0,7.726443 -1.99929,0 z"
         id="path4607"
         style="fill:#4dd0e1;fill-opacity:1;stroke:none;stroke-width:0.85413921;stroke-opacity:1" />
      <ellipse
         cx="-310.26587"
         cy="36.012581"
         id="ellipse4609"
         style="fill:#4dd0e1;fill-opacity:1"
         rx="0.98984748"
         ry="1.2423856" />
    </g>
    <g
       transform="translate(105.88261,0.295036)"
       inkscape:label="Layer 1"
       id="g4611">
      <rect
         ry="1.8348789"
         y="10.343658"
         x="-342.01855"
         height="44.037094"
         width="44.037094"
         id="rect4613"
         style="fill:none;stroke:#4dd0e1;stroke-width:3.66975784;stroke-linejoin:round;stroke-miterlimit:0;stroke-dasharray:none;stroke-opacity:1" />
      <path
         d="m -312.07867,15.617906 -1.11612,0 0,6.928932 c 0,0.544416 0.50226,0.989848 1.11612,0.989848 l 7.81282,0 0,-0.989848 -7.81282,0 0,-6.928932 z m 8.92893,-1.979694 -6.6967,0 c -0.61386,0 -1.11611,0.445431 -1.11611,0.989847 l 0,5.939084 c 0,0.544416 0.50225,0.989848 1.11611,0.989848 l 6.6967,0 c 0.61387,0 1.11612,-0.445432 1.11612,-0.989848 l 0,-5.939084 c 0,-0.544416 -0.50225,-0.989847 -1.11612,-0.989847 z m -0.55805,4.454313 -5.58059,0 0,-0.989848 5.58059,0 0,0.989848 z m -2.23224,1.979695 -3.34835,0 0,-0.989848 3.34835,0 0,0.989848 z m 2.23224,-3.95939 -5.58059,0 0,-0.989847 5.58059,0 0,0.989847 z"
         id="path4615"
         inkscape:connector-curvature="0"
         style="fill:#f06292" />
      <path
         inkscape:connector-curvature="0"
         d="m -319.32412,36.730706 9.81235,0 0,2.012504 -9.81235,0 z m 0,-3.354173 9.81235,0 0,2.012503 -9.81235,0 z m 0,6.708347 9.81235,0 0,2.012503 -9.81235,0 z m 11.21412,-14.087528 -25.23177,0 c -1.54195,0 -2.80353,1.207502 -2.80353,2.683339 l 0,17.4417 c 0,1.475836 1.26158,2.683338 2.80353,2.683338 l 25.23177,0 c 1.54194,0 2.80353,-1.207502 2.80353,-2.683338 l 0,-17.4417 c 0,-1.475837 -1.26159,-2.683339 -2.80353,-2.683339 z m 0,20.125039 -12.61589,0 0,-17.4417 12.61589,0 0,17.4417 z"
         id="path4617"
         style="fill:#4dd0e1" />
    </g>
    <g
       transform="translate(53.882612,0.295036)"
       inkscape:label="Layer 1"
       id="g4619">
      <rect
         ry="1.8348789"
         y="10.343658"
         x="-342.01855"
         height="44.037094"
         width="44.037094"
         id="rect4621"
         style="fill:none;stroke:#4dd0e1;stroke-width:3.66975784;stroke-linejoin:round;stroke-miterlimit:0;stroke-dasharray:none;stroke-opacity:1" />
      <path
         d="m -312.07867,15.617906 -1.11612,0 0,6.928932 c 0,0.544416 0.50226,0.989848 1.11612,0.989848 l 7.81282,0 0,-0.989848 -7.81282,0 0,-6.928932 z m 8.92893,-1.979694 -6.6967,0 c -0.61386,0 -1.11611,0.445431 -1.11611,0.989847 l 0,5.939084 c 0,0.544416 0.50225,0.989848 1.11611,0.989848 l 6.6967,0 c 0.61387,0 1.11612,-0.445432 1.11612,-0.989848 l 0,-5.939084 c 0,-0.544416 -0.50225,-0.989847 -1.11612,-0.989847 z m -0.55805,4.454313 -5.58059,0 0,-0.989848 5.58059,0 0,0.989848 z m -2.23224,1.979695 -3.34835,0 0,-0.989848 3.34835,0 0,0.989848 z m 2.23224,-3.95939 -5.58059,0 0,-0.989847 5.58059,0 0,0.989847 z"
         id="path4623"
         inkscape:connector-curvature="0"
         style="fill:#f06292" />
    </g>
  </g>
</svg>
