<?xml version="1.0" encoding="UTF-8" standalone="no"?>
<!-- Created with Inkscape (http://www.inkscape.org/) -->

<svg
   xmlns:dc="http://purl.org/dc/elements/1.1/"
   xmlns:cc="http://creativecommons.org/ns#"
   xmlns:rdf="http://www.w3.org/1999/02/22-rdf-syntax-ns#"
   xmlns:svg="http://www.w3.org/2000/svg"
   xmlns="http://www.w3.org/2000/svg"
   xmlns:sodipodi="http://sodipodi.sourceforge.net/DTD/sodipodi-0.dtd"
   xmlns:inkscape="http://www.inkscape.org/namespaces/inkscape"
   width="47.725044"
   height="47.931095"
   viewBox="0 0 47.725043 47.931093"
   id="svg7571"
   version="1.1"
   inkscape:version="0.91 r13725"
   sodipodi:docname="roles-it-director.svg">
  <defs
     id="defs7573" />
  <sodipodi:namedview
     id="base"
     pagecolor="#ffffff"
     bordercolor="#666666"
     borderopacity="1.0"
     inkscape:pageopacity="0.0"
     inkscape:pageshadow="2"
     inkscape:zoom="0.35"
     inkscape:cx="43.148233"
     inkscape:cy="-87.463021"
     inkscape:document-units="px"
     inkscape:current-layer="layer1"
     showgrid="false"
     fit-margin-top="0"
     fit-margin-left="0"
     fit-margin-right="0"
     fit-margin-bottom="0"
     units="px"
     inkscape:window-width="1307"
     inkscape:window-height="744"
     inkscape:window-x="53"
     inkscape:window-y="24"
     inkscape:window-maximized="1" />
  <metadata
     id="metadata7576">
    <rdf:RDF>
      <cc:Work
         rdf:about="">
        <dc:format>image/svg+xml</dc:format>
        <dc:type
           rdf:resource="http://purl.org/dc/dcmitype/StillImage" />
        <dc:title></dc:title>
      </cc:Work>
    </rdf:RDF>
  </metadata>
  <g
     inkscape:label="Layer 1"
     inkscape:groupmode="layer"
     id="layer1"
     transform="translate(-213.28034,-396.96809)">
    <g
       id="g6590"
       transform="translate(412.96459,324.23478)">
      <g
         transform="matrix(1.2487419,0,0,1.2781455,439.24099,13.326578)"
         id="g4183">
        <path
           style="fill:#ff00ff"
           d="m -501.80622,69.736262 c -1.06511,-3.774719 -1.04145,-4.089194 0.3373,-4.484616 l 0.79443,-0.227839 0,-2.693119 c 0,-3.540063 0.0703,-3.634829 2.81999,-3.799808 l 2.1045,-0.126269 0.0757,-1.452094 0.0757,-1.452094 2.75271,0 2.75272,0 0.0757,1.452094 0.0757,1.452094 2.1045,0.126269 c 2.75157,0.165093 2.81999,0.257688 2.81999,3.816274 l 0,2.709587 0.74017,0.162567 c 1.41763,0.311366 1.44029,0.571403 0.38585,4.428617 -0.80222,2.934591 -1.04464,3.530167 -1.43687,3.530167 -0.56926,0 -1.80233,-0.603353 -2.87897,-1.408714 l -0.79071,-0.591474 -0.47198,0.530684 c -0.65723,0.738975 -2.3227,1.458412 -3.37617,1.458412 -1.05347,0 -2.71894,-0.719437 -3.37617,-1.458412 l -0.47198,-0.530684 -0.79071,0.591474 c -1.07651,0.80526 -2.30969,1.408714 -2.87875,1.408714 -0.38991,0 -0.63992,-0.596406 -1.4428,-3.44183 z m 6.10796,-6.335814 2.85245,-0.938809 2.85245,0.938809 c 1.56885,0.516345 2.93255,0.93881 3.03046,0.93881 0.0979,0 0.17801,-0.909138 0.17801,-2.020306 l 0,-2.020305 -6.06092,0 -6.06091,0 0,2.020305 c 0,1.111168 0.0801,2.020306 0.17801,2.020306 0.0979,0 1.46161,-0.422465 3.03045,-0.93881 z"
           id="path4109"
           inkscape:connector-curvature="0" />
        <path
           style="fill:#ff00ff"
           d="m -502.6948,76.404115 0,-0.886758 1.83091,-0.119557 c 1.17472,-0.07671 2.20828,-0.313008 2.88389,-0.659334 l 1.05299,-0.539777 1.21985,0.554358 c 1.66292,0.755707 4.05979,0.755707 5.7227,0 l 1.21986,-0.554358 1.05299,0.539777 c 0.67561,0.346326 1.70916,0.582625 2.88389,0.659334 l 1.8309,0.119557 0,0.886758 0,0.886759 -1.96164,-0.134454 c -1.0789,-0.07395 -2.37739,-0.308167 -2.88554,-0.520484 -0.84927,-0.354846 -1.04963,-0.3469 -2.48028,0.09837 -1.96075,0.610253 -3.08231,0.610253 -5.04306,0 -1.43064,-0.445268 -1.63101,-0.453214 -2.48028,-0.09837 -0.50814,0.212317 -1.80664,0.446535 -2.88554,0.520484 l -1.96164,0.134454 0,-0.886759 z"
           id="path4113"
           inkscape:connector-curvature="0" />
        <g
           id="g4176"
           transform="matrix(0.20632369,-0.002974,0.00319396,0.20910808,-388.12383,57.38191)">
          <path
             style="fill:#ff00ff"
             d="m -496.63388,24.146592 c 0,-1.181113 0.0899,-1.387276 0.96936,-2.223921 1.12457,-1.069775 3.45764,-1.929303 5.88887,-2.169525 2.91394,-0.287915 7.02955,0.988304 8.26915,2.564199 0.37334,0.474629 0.52999,1.036913 0.52999,1.902406 l 0,1.228634 -7.82869,0 -7.82868,0 0,-1.301793 z"
             id="path4160"
             inkscape:connector-curvature="0" />
          <path
             style="fill:#ff00ff"
             d="m -490.76468,16.863453 c -2.43922,-1.487216 -2.43922,-5.081505 0,-6.56872 1.08052,-0.6588012 2.83844,-0.6588012 3.91896,0 2.43923,1.487215 2.43923,5.081504 0,6.56872 -1.08052,0.658801 -2.83844,0.658801 -3.91896,0 z"
             id="path4162"
             inkscape:connector-curvature="0" />
        </g>
        <flowRoot
           xml:space="preserve"
           id="flowRoot4168"
           style="font-style:normal;font-weight:normal;font-size:40px;line-height:125%;font-family:sans-serif;letter-spacing:0px;word-spacing:0px;fill:#000000;fill-opacity:1;stroke:none;stroke-width:1px;stroke-linecap:butt;stroke-linejoin:miter;stroke-opacity:1"
           transform="translate(-335.51967,111.79688)"><flowRegion
             id="flowRegion4170"><rect
               id="rect4172"
               width="9.5964499"
               height="9.0913734"
               x="-161.87694"
               y="-49.520329" /></flowRegion><flowPara
             id="flowPara4174"
             style="font-style:normal;font-variant:normal;font-weight:bold;font-stretch:normal;font-size:7.5px;line-height:121.00000381%;font-family:sans-serif;-inkscape-font-specification:'sans-serif Bold';fill:#ffffff">IT</flowPara></flowRoot>      </g>
      <g
         id="g6536"
         transform="translate(0,64)">
        <path
           inkscape:connector-curvature="0"
           id="path6538"
           d="m -197.23682,56.425962 c -0.399,-0.120202 -0.95336,-0.425903 -1.23193,-0.679335 -1.25498,-1.141758 -1.2162,-0.400572 -1.21519,-23.228379 9.3e-4,-20.762719 0.0155,-21.411874 0.49654,-22.205085 1.03537,-1.7070689 -0.24301,-1.6232042 23.59641,-1.5479876 l 21.56402,0.068037 0.68781,0.6380697 c 1.43115,1.3276569 1.38447,0.5436619 1.37843,23.1537079 -0.005,20.12208 -0.0233,20.91239 -0.49919,21.966391 -0.37684,0.834668 -0.75091,1.210738 -1.58119,1.589567 -1.04966,0.478935 -1.80869,0.495663 -21.77891,0.4799 -11.38024,-0.009 -21.0178,-0.114682 -21.4168,-0.234886 z m 41.72732,-23.8581 0,-20.547341 -20.37399,0.06533 -20.374,0.06533 -0.0649,20.482015 -0.0649,20.482015 20.43897,0 20.43897,0 0,-20.54734 z"
           style="fill:#ea80fc" />
        <path
           inkscape:connector-curvature="0"
           id="path6540"
           d="m -163.28986,22.671548 c -2.32963,-0.70146 -3.81803,-2.677992 -3.79578,-5.040609 0.0159,-1.689564 0.45548,-2.665016 1.68899,-3.748045 2.61705,-2.297807 7.37536,-1.394276 8.64371,1.641312 0.50855,1.217134 0.43183,3.453184 -0.15817,4.609671 -1.05194,2.061973 -4.02735,3.245687 -6.37875,2.537671 z m 4.02181,-1.579446 c 1.41342,-0.959799 1.3467,-1.802051 -0.20636,-2.605168 -0.90296,-0.46694 -3.57832,-0.46694 -4.48128,0 -1.54473,0.798809 -1.61606,1.633373 -0.22268,2.605168 0.64001,0.446366 1.16412,0.56821 2.44414,0.56821 1.27349,0 1.81221,-0.124121 2.46618,-0.56821 z m -1.60965,-4.015282 c 0.73636,-0.387585 0.92194,-0.704824 0.92655,-1.583807 0.005,-1.029934 -0.64833,-1.661383 -1.72002,-1.661383 -1.12825,0 -1.81275,0.612458 -1.80778,1.617504 0.005,0.901273 0.17656,1.217355 0.88002,1.616261 0.64893,0.367986 1.03891,0.370575 1.72123,0.01143 z"
           style="fill:#2196f3" />
      </g>
    </g>
  </g>
</svg>
