<?xml version="1.0" encoding="UTF-8" standalone="no"?>
<!-- Created with Inkscape (http://www.inkscape.org/) -->

<svg
   xmlns:dc="http://purl.org/dc/elements/1.1/"
   xmlns:cc="http://creativecommons.org/ns#"
   xmlns:rdf="http://www.w3.org/1999/02/22-rdf-syntax-ns#"
   xmlns:svg="http://www.w3.org/2000/svg"
   xmlns="http://www.w3.org/2000/svg"
   xmlns:sodipodi="http://sodipodi.sourceforge.net/DTD/sodipodi-0.dtd"
   xmlns:inkscape="http://www.inkscape.org/namespaces/inkscape"
   width="47.72504"
   height="47.931095"
   viewBox="0 0 47.725041 47.931096"
   id="svg7780"
   version="1.1"
   inkscape:version="0.91 r13725"
   sodipodi:docname="roles-it-spec.svg">
  <defs
     id="defs7782" />
  <sodipodi:namedview
     id="base"
     pagecolor="#ffffff"
     bordercolor="#666666"
     borderopacity="1.0"
     inkscape:pageopacity="0.0"
     inkscape:pageshadow="2"
     inkscape:zoom="0.35"
     inkscape:cx="-51.137477"
     inkscape:cy="-161.74872"
     inkscape:document-units="px"
     inkscape:current-layer="layer1"
     showgrid="false"
     units="px"
     fit-margin-top="0"
     fit-margin-left="0"
     fit-margin-right="0"
     fit-margin-bottom="0"
     inkscape:window-width="1307"
     inkscape:window-height="744"
     inkscape:window-x="53"
     inkscape:window-y="24"
     inkscape:window-maximized="1" />
  <metadata
     id="metadata7785">
    <rdf:RDF>
      <cc:Work
         rdf:about="">
        <dc:format>image/svg+xml</dc:format>
        <dc:type
           rdf:resource="http://purl.org/dc/dcmitype/StillImage" />
        <dc:title></dc:title>
      </cc:Work>
    </rdf:RDF>
  </metadata>
  <g
     inkscape:label="Layer 1"
     inkscape:groupmode="layer"
     id="layer1"
     transform="translate(-307.56605,-322.68237)">
    <g
       id="g6750"
       transform="translate(507.2503,163.94906)">
      <g
         transform="translate(211.59946,227.65972)"
         id="g3508">
        <path
           style="fill:#ff00ff"
           d="m -391.95899,-44.72312 c -0.97532,-0.443082 -2.64948,-2.065917 -2.64948,-2.568266 0,-0.148089 1.88309,-0.24375 4.79822,-0.24375 2.91514,0 4.79823,0.09566 4.79823,0.24375 0,0.502349 -1.67416,2.125184 -2.64949,2.568266 -0.55677,0.252938 -1.52371,0.459887 -2.14874,0.459887 -0.62503,0 -1.59196,-0.206949 -2.14874,-0.459887 z"
           id="path3498"
           inkscape:connector-curvature="0" />
        <path
           style="fill:#ff00ff"
           d="m -394.34326,-51.181668 c -0.48261,-0.581506 -0.2187,-1.731779 0.47641,-2.076515 0.71331,-0.353762 1.37081,-0.09931 1.79592,0.695006 0.6322,1.18128 -1.40872,2.422099 -2.27233,1.381509 z"
           id="path3500"
           inkscape:connector-curvature="0" />
        <path
           style="fill:#ff00ff"
           d="m -387.42326,-51.432543 c -0.72624,-1.10838 0.47263,-2.419278 1.66961,-1.82564 0.69512,0.344736 0.95902,1.495009 0.47641,2.076515 -0.48994,0.590343 -1.68649,0.450463 -2.14602,-0.250875 z"
           id="path3502"
           inkscape:connector-curvature="0" />
        <path
           style="fill:#ff00ff"
           d="m -392.39221,-40.080005 c -5.33561,-1.468692 -8.4286,-7.118212 -6.79934,-12.419349 2.34693,-7.636197 12.41805,-9.383185 17.25576,-2.993273 4.05747,5.359335 1.46232,13.275908 -5.00703,15.274088 -1.86754,0.576825 -3.68891,0.623128 -5.44939,0.138534 z m 6.01967,-2.191338 c 1.56476,-0.735046 3.10564,-2.268925 3.89913,-3.88142 0.50879,-1.033952 0.61811,-1.635744 0.61811,-3.402679 0,-1.8361 -0.10153,-2.353332 -0.702,-3.576077 -0.77117,-1.570362 -2.0982,-2.907902 -3.76917,-3.799027 -0.91197,-0.48635 -1.46665,-0.578369 -3.48378,-0.577935 -2.11732,4.55e-4 -2.55108,0.08054 -3.69295,0.681828 -4.79808,2.526581 -5.85613,9.103064 -2.07248,12.881891 1.09228,1.090892 2.44186,1.875742 3.8714,2.251423 1.29841,0.341221 3.99787,0.04858 5.33174,-0.578004 z"
           id="path3504"
           inkscape:connector-curvature="0" />
        <path
           style="fill:#ff00ff"
           d="m -399.71733,-30.196712 -0.69952,-0.339243 0,-3.721945 c 0,-3.519398 0.0294,-3.741439 0.54132,-4.080173 0.5369,-0.355307 0.61693,-0.358228 9.81274,-0.358228 9.19582,0 9.27585,0.0029 9.81274,0.358228 0.51131,0.338362 0.54132,0.561173 0.54132,4.017652 l 0,3.659424 -0.65164,0.401765 -0.65166,0.401765 -9.00289,0 c -8.70597,0 -9.02595,-0.01119 -9.70241,-0.339245 z m 13.90237,-1.543099 0,-0.736569 -4.24783,0 -4.24782,0 0,0.736569 0,0.73657 4.24782,0 4.24783,0 0,-0.73657 z m -9.34322,-2.577993 c -0.0813,-0.692268 -0.0871,-0.695894 -1.20996,-0.745981 l -1.12833,-0.05034 0,0.745981 0,0.74598 1.20996,0 1.20996,0 -0.0817,-0.695648 z m 3.18587,0 c -0.0813,-0.692268 -0.0871,-0.695894 -1.20998,-0.745981 l -1.12832,-0.05034 0,0.745981 0,0.74598 1.20997,0 1.20996,0 -0.0817,-0.695648 z m 2.97148,-0.04092 0,-0.73657 -1.06196,0 -1.06196,0 0,0.73657 0,0.73657 1.06196,0 1.06196,0 0,-0.73657 z m 3.18587,-0.0094 0,-0.745981 -1.12833,0.05034 c -1.12285,0.05009 -1.12873,0.05371 -1.20997,0.74598 l -0.0817,0.695649 1.20996,0 1.20997,0 0,-0.745981 z m 3.18587,0 0,-0.745981 -1.12833,0.05034 c -1.12285,0.05009 -1.12874,0.05371 -1.20997,0.74598 l -0.0817,0.695649 1.20996,0 1.20997,0 0,-0.745981 z m -12.47798,-1.872933 0,-0.654728 -1.1947,0 -1.1947,0 0,0.654728 0,0.654729 1.1947,0 1.1947,0 0,-0.654729 z m 3.18586,0 0,-0.654728 -1.1947,0 -1.1947,0 0,0.654728 0,0.654729 1.1947,0 1.1947,0 0,-0.654729 z m 2.92038,0 c 0,-0.654728 0,-0.654728 -1.06196,-0.654728 -1.06196,0 -1.06196,0 -1.06196,0.654728 0,0.654729 0,0.654729 1.06196,0.654729 1.06196,0 1.06196,0 1.06196,-0.654729 z m 3.18587,0 0,-0.654728 -1.1947,0 -1.19471,0 0,0.654728 0,0.654729 1.19471,0 1.1947,0 0,-0.654729 z m 3.18587,0 0,-0.654728 -1.19471,0 -1.1947,0 0,0.654728 0,0.654729 1.1947,0 1.19471,0 0,-0.654729 z"
           id="path3506"
           inkscape:connector-curvature="0" />
      </g>
      <g
         id="g6707"
         transform="translate(0,150)">
        <path
           inkscape:connector-curvature="0"
           id="path6709"
           d="m -197.23682,56.425962 c -0.399,-0.120202 -0.95336,-0.425903 -1.23193,-0.679335 -1.25498,-1.141758 -1.2162,-0.400572 -1.21519,-23.228379 9.3e-4,-20.762719 0.0155,-21.411874 0.49654,-22.205085 1.03537,-1.7070689 -0.24301,-1.6232042 23.59641,-1.5479876 l 21.56402,0.068037 0.68781,0.6380697 c 1.43115,1.3276569 1.38447,0.5436619 1.37843,23.1537079 -0.005,20.12208 -0.0233,20.91239 -0.49919,21.966391 -0.37684,0.834668 -0.75091,1.210738 -1.58119,1.589567 -1.04966,0.478935 -1.80869,0.495663 -21.77891,0.4799 -11.38024,-0.009 -21.0178,-0.114682 -21.4168,-0.234886 z m 41.72732,-23.8581 0,-20.547341 -20.37399,0.06533 -20.374,0.06533 -0.0649,20.482015 -0.0649,20.482015 20.43897,0 20.43897,0 0,-20.54734 z"
           style="fill:#ea80fc" />
        <path
           inkscape:connector-curvature="0"
           id="path6711"
           d="m -163.28986,22.671548 c -2.32963,-0.70146 -3.81803,-2.677992 -3.79578,-5.040609 0.0159,-1.689564 0.45548,-2.665016 1.68899,-3.748045 2.61705,-2.297807 7.37536,-1.394276 8.64371,1.641312 0.50855,1.217134 0.43183,3.453184 -0.15817,4.609671 -1.05194,2.061973 -4.02735,3.245687 -6.37875,2.537671 z m 4.02181,-1.579446 c 1.41342,-0.959799 1.3467,-1.802051 -0.20636,-2.605168 -0.90296,-0.46694 -3.57832,-0.46694 -4.48128,0 -1.54473,0.798809 -1.61606,1.633373 -0.22268,2.605168 0.64001,0.446366 1.16412,0.56821 2.44414,0.56821 1.27349,0 1.81221,-0.124121 2.46618,-0.56821 z m -1.60965,-4.015282 c 0.73636,-0.387585 0.92194,-0.704824 0.92655,-1.583807 0.005,-1.029934 -0.64833,-1.661383 -1.72002,-1.661383 -1.12825,0 -1.81275,0.612458 -1.80778,1.617504 0.005,0.901273 0.17656,1.217355 0.88002,1.616261 0.64893,0.367986 1.03891,0.370575 1.72123,0.01143 z"
           style="fill:#2196f3" />
      </g>
    </g>
  </g>
</svg>
