<?xml version="1.0" encoding="UTF-8" standalone="no"?>
<!-- Created with Inkscape (http://www.inkscape.org/) -->

<svg
   xmlns:dc="http://purl.org/dc/elements/1.1/"
   xmlns:cc="http://creativecommons.org/ns#"
   xmlns:rdf="http://www.w3.org/1999/02/22-rdf-syntax-ns#"
   xmlns:svg="http://www.w3.org/2000/svg"
   xmlns="http://www.w3.org/2000/svg"
   xmlns:sodipodi="http://sodipodi.sourceforge.net/DTD/sodipodi-0.dtd"
   xmlns:inkscape="http://www.inkscape.org/namespaces/inkscape"
   width="47.725044"
   height="47.931095"
   viewBox="0 0 47.725043 47.931093"
   id="svg7283"
   version="1.1"
   inkscape:version="0.91 r13725"
   sodipodi:docname="roles-helpdesk.svg">
  <defs
     id="defs7285" />
  <sodipodi:namedview
     id="base"
     pagecolor="#ffffff"
     bordercolor="#666666"
     borderopacity="1.0"
     inkscape:pageopacity="0.0"
     inkscape:pageshadow="2"
     inkscape:zoom="0.35"
     inkscape:cx="-102.56605"
     inkscape:cy="152.53698"
     inkscape:document-units="px"
     inkscape:current-layer="layer1"
     showgrid="false"
     fit-margin-top="0"
     fit-margin-left="0"
     fit-margin-right="0"
     fit-margin-bottom="0"
     units="px"
     inkscape:window-width="1307"
     inkscape:window-height="744"
     inkscape:window-x="53"
     inkscape:window-y="24"
     inkscape:window-maximized="1" />
  <metadata
     id="metadata7288">
    <rdf:RDF>
      <cc:Work
         rdf:about="">
        <dc:format>image/svg+xml</dc:format>
        <dc:type
           rdf:resource="http://purl.org/dc/dcmitype/StillImage" />
        <dc:title></dc:title>
      </cc:Work>
    </rdf:RDF>
  </metadata>
  <g
     inkscape:label="Layer 1"
     inkscape:groupmode="layer"
     id="layer1"
     transform="translate(-358.99462,-636.96809)">
    <g
       id="g6356"
       transform="translate(558.67887,628.23478)">
      <g
         transform="matrix(0.76229967,0,0,0.7274582,183.77744,27.90711)"
         id="g4015">
        <path
           style="fill:#ff00ff"
           d="m -478.32528,29.613329 c -0.27802,-0.195352 -1.24397,-0.544507 -2.14657,-0.7759 -1.96965,-0.504945 -4.29711,-0.375228 -6.3757,0.355337 -0.78021,0.274224 -1.48304,0.434117 -1.56184,0.355319 -0.0788,-0.0788 -0.14327,-3.483163 -0.14327,-7.565255 l 0,-7.421986 1.19956,-0.55401 c 1.0162,-0.469331 1.64638,-0.554011 4.12287,-0.554011 2.56455,0 3.08367,0.07503 4.23001,0.611379 l 1.3067,0.611379 1.3067,-0.611379 c 1.14634,-0.536348 1.66546,-0.611379 4.23001,-0.611379 2.47649,0 3.10667,0.08468 4.12287,0.554011 l 1.19956,0.55401 0,7.493516 0,7.493515 -0.56821,-0.141509 c -0.31252,-0.07783 -1.30689,-0.329672 -2.20971,-0.55965 -1.95169,-0.497158 -4.43833,-0.354214 -6.25287,0.359445 -0.65835,0.258928 -1.36747,0.536383 -1.57581,0.616567 -0.20835,0.08018 -0.60628,-0.01405 -0.8843,-0.209399 z m 3.84163,-2.550267 c 1.63844,-0.38509 3.83958,-0.363623 5.31329,0.05182 l 0.56821,0.160179 0,-5.822927 c 0,-4.290209 -0.0806,-5.872745 -0.30623,-6.012189 -0.16843,-0.104095 -1.24553,-0.238564 -2.39356,-0.29882 -2.13493,-0.112055 -3.76601,0.151925 -5.44456,0.881168 l -0.94702,0.411429 0,5.902777 0,5.902777 0.74762,-0.386608 c 0.41119,-0.212635 1.5192,-0.567957 2.46225,-0.789604 z"
           id="path4003"
           inkscape:connector-curvature="0" />
        <path
           style="fill:#ff00ff"
           d="m -480.52802,11.185236 c -5.33561,-1.4686918 -8.42861,-7.1182118 -6.79934,-12.4193488 2.34693,-7.636197 12.41805,-9.3831852 17.25576,-2.993272 4.05747,5.359335 1.46232,13.275907 -5.00703,15.2740878 -1.86754,0.576824 -3.68891,0.623127 -5.44939,0.138533 z m 6.01967,-2.1913378 c 1.56476,-0.735046 3.10564,-2.268925 3.89913,-3.88142 0.5088,-1.033952 0.61811,-1.635743 0.61811,-3.402678 0,-1.83610099 -0.10153,-2.35333299 -0.702,-3.576078 -0.77117,-1.570362 -2.0982,-2.907902 -3.76917,-3.799027 -0.91196,-0.48635 -1.46665,-0.578369 -3.48378,-0.577935 -2.11732,4.55e-4 -2.55108,0.08054 -3.69295,0.681829 -4.79808,2.52658 -5.85613,9.103064 -2.07248,12.881891 1.09228,1.090891 2.44186,1.875741 3.8714,2.251422 1.29841,0.341221 3.99787,0.04858 5.33174,-0.578004 z"
           id="path4005"
           inkscape:connector-curvature="0" />
        <path
           style="fill:#ff00ff"
           d="m -480.72398,4.3614502 0,-0.631345 2.77792,0 2.77792,0 0,0.631345 0,0.631346 -2.77792,0 -2.77792,0 0,-0.631346 z"
           id="path4007"
           inkscape:connector-curvature="0" />
        <path
           style="fill:#ff00ff"
           d="m -482.47907,0.08357321 c -0.48261,-0.581506 -0.2187,-1.73177801 0.47641,-2.07651501 0.71331,-0.353762 1.37081,-0.09932 1.79592,0.695007 0.6322,1.18128001 -1.40872,2.422098 -2.27233,1.38150801 z"
           id="path4009"
           inkscape:connector-curvature="0" />
        <path
           style="fill:#ff00ff"
           d="m -475.55907,-0.16730179 c -0.72624,-1.10837901 0.47263,-2.41927801 1.66962,-1.82564001 0.69511,0.344737 0.95901,1.49500901 0.4764,2.07651501 -0.48994,0.590343 -1.68649,0.450464 -2.14602,-0.250875 z"
           id="path4011"
           inkscape:connector-curvature="0" />
        <path
           style="fill:#ff00ff"
           d="m -460.86831,7.7867752 c -6.44317,-2.597629 -6.92098,-10.05476 -0.84515,-13.190095 1.5963,-0.823745 4.65962,-0.93326 6.51587,-0.232947 5.02774,1.896834 6.51834,7.861928 2.875,11.505263 -2.10826,2.108265 -5.94023,2.968211 -8.54572,1.917779 z m 3.63038,-2.415172 c 0,-0.841794 -0.0421,-0.883884 -0.88388,-0.883884 -0.8418,0 -0.88389,0.04209 -0.88389,0.883884 0,0.841793 0.0421,0.883883 0.88389,0.883883 0.84179,0 0.88388,-0.04209 0.88388,-0.883883 z m 0.0889,-2.654281 c 0.0836,-0.418135 0.55926,-1.167459 1.05697,-1.665165 0.4977,-0.49770499 1.00521,-1.16870299 1.12779,-1.49110499 0.53009,-1.39424501 -0.97166,-3.62502601 -2.48245,-3.68758301 -2.25874,-0.09353 -3.39077,0.620357 -3.94883,2.490201 -0.15578,0.521989 -0.0884,0.56821 0.82814,0.56821 0.78127,0 1.02602,-0.108249 1.1282,-0.498993 0.0718,-0.274446 0.4213,-0.631493 0.77673,-0.793437 0.52769,-0.240434 0.76394,-0.21732 1.28792,0.126008 0.86643,0.567704 0.81605,1.41123101 -0.13847,2.31873101 -0.95665,0.909521 -1.49268,1.89688699 -1.49268,2.74949099 0,0.562969 0.10711,0.643887 0.85231,0.643887 0.74565,0 0.87135,-0.09515 1.00437,-0.760245 z"
           id="path4013"
           inkscape:connector-curvature="0" />
      </g>
      <g
         id="g6346">
        <path
           style="fill:#ea80fc"
           d="m -197.23682,56.425962 c -0.399,-0.120202 -0.95336,-0.425903 -1.23193,-0.679335 -1.25498,-1.141758 -1.2162,-0.400572 -1.21519,-23.228379 9.3e-4,-20.762719 0.0155,-21.411874 0.49654,-22.205085 1.03537,-1.7070689 -0.24301,-1.6232042 23.59641,-1.5479876 l 21.56402,0.068037 0.68781,0.6380697 c 1.43115,1.3276569 1.38447,0.5436619 1.37843,23.1537079 -0.005,20.12208 -0.0233,20.91239 -0.49919,21.966391 -0.37684,0.834668 -0.75091,1.210738 -1.58119,1.589567 -1.04966,0.478935 -1.80869,0.495663 -21.77891,0.4799 -11.38024,-0.009 -21.0178,-0.114682 -21.4168,-0.234886 z m 41.72732,-23.8581 0,-20.547341 -20.37399,0.06533 -20.374,0.06533 -0.0649,20.482015 -0.0649,20.482015 20.43897,0 20.43897,0 0,-20.54734 z"
           id="path6271"
           inkscape:connector-curvature="0" />
        <path
           style="fill:#2196f3"
           d="m -163.28986,22.671548 c -2.32963,-0.70146 -3.81803,-2.677992 -3.79578,-5.040609 0.0159,-1.689564 0.45548,-2.665016 1.68899,-3.748045 2.61705,-2.297807 7.37536,-1.394276 8.64371,1.641312 0.50855,1.217134 0.43183,3.453184 -0.15817,4.609671 -1.05194,2.061973 -4.02735,3.245687 -6.37875,2.537671 z m 4.02181,-1.579446 c 1.41342,-0.959799 1.3467,-1.802051 -0.20636,-2.605168 -0.90296,-0.46694 -3.57832,-0.46694 -4.48128,0 -1.54473,0.798809 -1.61606,1.633373 -0.22268,2.605168 0.64001,0.446366 1.16412,0.56821 2.44414,0.56821 1.27349,0 1.81221,-0.124121 2.46618,-0.56821 z m -1.60965,-4.015282 c 0.73636,-0.387585 0.92194,-0.704824 0.92655,-1.583807 0.005,-1.029934 -0.64833,-1.661383 -1.72002,-1.661383 -1.12825,0 -1.81275,0.612458 -1.80778,1.617504 0.005,0.901273 0.17656,1.217355 0.88002,1.616261 0.64893,0.367986 1.03891,0.370575 1.72123,0.01143 z"
           id="path6273"
           inkscape:connector-curvature="0" />
      </g>
    </g>
  </g>
</svg>
