<?xml version="1.0" encoding="UTF-8" standalone="no"?>
<!-- Created with Inkscape (http://www.inkscape.org/) -->

<svg
   xmlns:dc="http://purl.org/dc/elements/1.1/"
   xmlns:cc="http://creativecommons.org/ns#"
   xmlns:rdf="http://www.w3.org/1999/02/22-rdf-syntax-ns#"
   xmlns:svg="http://www.w3.org/2000/svg"
   xmlns="http://www.w3.org/2000/svg"
   xmlns:sodipodi="http://sodipodi.sourceforge.net/DTD/sodipodi-0.dtd"
   xmlns:inkscape="http://www.inkscape.org/namespaces/inkscape"
   width="47.72504"
   height="47.931095"
   viewBox="0 0 47.725041 47.931096"
   id="svg7435"
   version="1.1"
   inkscape:version="0.91 r13725"
   sodipodi:docname="roles-outsource.svg">
  <defs
     id="defs7437" />
  <sodipodi:namedview
     id="base"
     pagecolor="#ffffff"
     bordercolor="#666666"
     borderopacity="1.0"
     inkscape:pageopacity="0.0"
     inkscape:pageshadow="2"
     inkscape:zoom="0.35"
     inkscape:cx="-202.56605"
     inkscape:cy="-24.605858"
     inkscape:document-units="px"
     inkscape:current-layer="layer1"
     showgrid="false"
     inkscape:window-width="1307"
     inkscape:window-height="744"
     inkscape:window-x="53"
     inkscape:window-y="24"
     inkscape:window-maximized="1"
     units="px"
     fit-margin-top="0"
     fit-margin-left="0"
     fit-margin-right="0"
     fit-margin-bottom="0" />
  <metadata
     id="metadata7440">
    <rdf:RDF>
      <cc:Work
         rdf:about="">
        <dc:format>image/svg+xml</dc:format>
        <dc:type
           rdf:resource="http://purl.org/dc/dcmitype/StillImage" />
        <dc:title></dc:title>
      </cc:Work>
    </rdf:RDF>
  </metadata>
  <g
     inkscape:label="Layer 1"
     inkscape:groupmode="layer"
     id="layer1"
     transform="translate(-458.99462,-459.82523)">
    <g
       id="g6477"
       transform="translate(658.67887,385.09192)">
      <g
         transform="translate(198.1134,118.47573)"
         id="g3804">
        <path
           style="fill:#ff00ff"
           d="m -386.61202,-3.6486334 c -5.42851,-2.484382 -4.69445,-9.7387946 1.13462,-11.2130256 2.59723,-0.656866 5.65771,0.75746 6.99061,3.230548 0.73815,1.369595 0.65494,3.8011529 -0.1841,5.379156 -1.4062,2.6446893 -5.16107,3.8756332 -7.94113,2.6033216 z m 4.6615,-1.6295077 c 1.81701,-0.9798338 2.40997,-2.1940105 2.3081,-4.7261599 -0.0497,-1.235025 -2.08702,-3.132283 -3.66466,-3.412701 -1.54,-0.27373 -3.81245,0.635252 -4.6484,1.859364 -0.83941,1.229196 -0.79954,3.8252195 0.0764,4.9708622 0.81097,1.0607214 2.55069,1.9555431 3.80325,1.956195 0.50799,2.647e-4 1.46439,-0.2911373 2.12535,-0.6475603 z"
           id="path3768"
           inkscape:connector-curvature="0" />
        <path
           style="fill:#ff00ff"
           d="m -376.45304,-9.8705549 0,-3.0743931 -2.13086,-1.799248 c -3.37487,-2.849666 -3.36663,-3.23484 0.14276,-6.672887 1.88353,-1.845229 2.27333,-2.088703 3.34406,-2.088703 1.04801,0 1.51084,0.270478 3.42041,1.998869 2.24241,2.029643 3.3463,2.642693 4.75859,2.642693 0.68245,0 0.78527,0.141811 0.78527,1.083032 0,1.016982 -0.0639,1.082616 -1.04815,1.076235 -1.46869,-0.0096 -3.73195,-1.06061 -5.16585,-2.399088 l -1.21514,-1.134275 -1.67872,1.610693 -1.67872,1.610694 1.36195,1.331489 1.36195,1.331489 0,3.778896 0,3.7788961 -1.12877,0 -1.12878,0 0,-3.074392 z"
           id="path3770"
           inkscape:connector-curvature="0" />
        <path
           style="fill:#ff00ff"
           d="m -371.46537,-23.493669 c -0.99823,-0.383835 -1.54759,-1.180023 -1.54759,-2.242888 0,-1.840796 2.59579,-2.808271 3.97759,-1.482478 1.68134,1.613204 -0.24455,4.565715 -2.43,3.725366 z"
           id="path3772"
           inkscape:connector-curvature="0" />
        <path
           style="fill:#ff00ff"
           d="m -369.06528,-3.8021953 c -1.59711,-0.8082108 -2.70884,-2.1893899 -3.21554,-3.9949098 -1.14332,-4.0738599 3.18184,-8.1352419 7.49169,-7.0348079 3.87571,0.989586 5.81135,4.787438 4.17441,8.1904688 -1.52333,3.1668551 -5.29741,4.4348817 -8.45056,2.8392489 z m 5.46875,-1.6668283 c 2.95045,-2.0739951 2.3601,-6.4246804 -1.04088,-7.6708874 -4.30293,-1.576713 -8.03907,3.4203952 -5.12163,6.8502275 1.44287,1.6962933 4.36353,2.0852361 6.16251,0.8206599 z"
           id="path3774"
           inkscape:connector-curvature="0" />
        <path
           style="fill:#ff00ff"
           d="m -364.71649,-16.263124 -0.34503,-0.295254 0,-4.948809 c 0,-4.783412 0.009,-4.959227 0.267,-5.260584 0.25968,-0.303245 0.34926,-0.311777 3.27364,-0.311777 2.83205,0 3.02186,0.01654 3.26854,0.284915 0.25178,0.273918 0.26189,0.474858 0.26189,5.206171 l 0,4.921256 -0.32141,0.349668 -0.32141,0.349668 -2.8691,0 c -2.70432,0 -2.88892,-0.01696 -3.21412,-0.295254 z m 2.14294,-1.912835 0,-0.641059 -0.52378,0 -0.52379,0 0,0.641059 0,0.641058 0.52379,0 0.52378,0 0,-0.641058 z m 1.57135,-0.0082 0,-0.64925 -0.55652,0.04381 c -0.55381,0.04359 -0.55671,0.04675 -0.59678,0.649249 l -0.0403,0.605444 0.59678,0 0.59679,0 0,-0.649249 z m -1.57135,-1.701298 0,-0.641058 -0.52378,0 -0.52379,0 0,0.641058 0,0.641059 0.52379,0 0.52378,0 0,-0.641059 z m 1.57135,0 0,-0.641058 -0.52379,0 -0.52378,0 0,0.641058 0,0.641059 0.52378,0 0.52379,0 0,-0.641059 z m 2.09513,-1.63826 0,-2.279318 -0.58925,0 -0.58926,0 0,2.279318 0,2.279319 0.58926,0 0.58925,0 0,-2.279319 z m -3.60101,-0.07123 c 0,-0.568544 -10e-4,-0.569928 -0.55652,-0.613635 l -0.55652,-0.04381 0,0.657441 0,0.65744 0.55652,-0.04381 c 0.55527,-0.04371 0.55652,-0.04509 0.55652,-0.613634 z m 1.50588,0 0,-0.641058 -0.52379,0 -0.52378,0 0,0.641058 0,0.641058 0.52378,0 0.52379,0 0,-0.641058 z m -1.46561,-1.673875 c -0.0401,-0.602501 -0.043,-0.605657 -0.59679,-0.649249 l -0.55652,-0.04381 0,0.649249 0,0.649249 0.59679,0 0.59679,0 -0.0403,-0.605444 z m 1.46561,0.03561 c 0,-0.569829 0,-0.569829 -0.52379,-0.569829 -0.52378,0 -0.52378,0 -0.52378,0.569829 0,0.56983 0,0.56983 0.52378,0.56983 0.52379,0 0.52379,0 0.52379,-0.56983 z m 0,-1.63826 0,-0.641058 -0.52379,0 c -0.52223,0 -0.52378,0.0016 -0.52378,0.559921 0,0.467396 0.0487,0.570124 0.29463,0.621659 0.73011,0.152986 0.75294,0.136596 0.75294,-0.540522 z m -1.4404,-0.07123 0,-0.569829 -0.58926,0 -0.58926,0 0,0.569829 0,0.56983 0.58926,0 0.58926,0 0,-0.56983 z"
           id="path3802"
           inkscape:connector-curvature="0" />
      </g>
      <g
         transform="translate(0,66)"
         id="g6350">
        <path
           inkscape:connector-curvature="0"
           id="path6352"
           d="m -197.23682,56.425962 c -0.399,-0.120202 -0.95336,-0.425903 -1.23193,-0.679335 -1.25498,-1.141758 -1.2162,-0.400572 -1.21519,-23.228379 9.3e-4,-20.762719 0.0155,-21.411874 0.49654,-22.205085 1.03537,-1.7070689 -0.24301,-1.6232042 23.59641,-1.5479876 l 21.56402,0.068037 0.68781,0.6380697 c 1.43115,1.3276569 1.38447,0.5436619 1.37843,23.1537079 -0.005,20.12208 -0.0233,20.91239 -0.49919,21.966391 -0.37684,0.834668 -0.75091,1.210738 -1.58119,1.589567 -1.04966,0.478935 -1.80869,0.495663 -21.77891,0.4799 -11.38024,-0.009 -21.0178,-0.114682 -21.4168,-0.234886 z m 41.72732,-23.8581 0,-20.547341 -20.37399,0.06533 -20.374,0.06533 -0.0649,20.482015 -0.0649,20.482015 20.43897,0 20.43897,0 0,-20.54734 z"
           style="fill:#ea80fc" />
        <path
           inkscape:connector-curvature="0"
           id="path6354"
           d="m -163.28986,22.671548 c -2.32963,-0.70146 -3.81803,-2.677992 -3.79578,-5.040609 0.0159,-1.689564 0.45548,-2.665016 1.68899,-3.748045 2.61705,-2.297807 7.37536,-1.394276 8.64371,1.641312 0.50855,1.217134 0.43183,3.453184 -0.15817,4.609671 -1.05194,2.061973 -4.02735,3.245687 -6.37875,2.537671 z m 4.02181,-1.579446 c 1.41342,-0.959799 1.3467,-1.802051 -0.20636,-2.605168 -0.90296,-0.46694 -3.57832,-0.46694 -4.48128,0 -1.54473,0.798809 -1.61606,1.633373 -0.22268,2.605168 0.64001,0.446366 1.16412,0.56821 2.44414,0.56821 1.27349,0 1.81221,-0.124121 2.46618,-0.56821 z m -1.60965,-4.015282 c 0.73636,-0.387585 0.92194,-0.704824 0.92655,-1.583807 0.005,-1.029934 -0.64833,-1.661383 -1.72002,-1.661383 -1.12825,0 -1.81275,0.612458 -1.80778,1.617504 0.005,0.901273 0.17656,1.217355 0.88002,1.616261 0.64893,0.367986 1.03891,0.370575 1.72123,0.01143 z"
           style="fill:#2196f3" />
      </g>
    </g>
  </g>
</svg>
