<?xml version="1.0" encoding="UTF-8" standalone="no"?>
<!-- Created with Inkscape (http://www.inkscape.org/) -->

<svg
   xmlns:dc="http://purl.org/dc/elements/1.1/"
   xmlns:cc="http://creativecommons.org/ns#"
   xmlns:rdf="http://www.w3.org/1999/02/22-rdf-syntax-ns#"
   xmlns:svg="http://www.w3.org/2000/svg"
   xmlns="http://www.w3.org/2000/svg"
   xmlns:sodipodi="http://sodipodi.sourceforge.net/DTD/sodipodi-0.dtd"
   xmlns:inkscape="http://www.inkscape.org/namespaces/inkscape"
   width="47.72504"
   height="47.931095"
   viewBox="0 0 47.725041 47.931096"
   id="svg7502"
   version="1.1"
   inkscape:version="0.91 r13725"
   sodipodi:docname="roles-implementer.svg">
  <defs
     id="defs7504" />
  <sodipodi:namedview
     id="base"
     pagecolor="#ffffff"
     bordercolor="#666666"
     borderopacity="1.0"
     inkscape:pageopacity="0.0"
     inkscape:pageshadow="2"
     inkscape:zoom="0.35"
     inkscape:cx="3.1482327"
     inkscape:cy="-167.463"
     inkscape:document-units="px"
     inkscape:current-layer="layer1"
     showgrid="false"
     units="px"
     fit-margin-top="0"
     fit-margin-left="0"
     fit-margin-right="0"
     fit-margin-bottom="0"
     inkscape:window-width="1307"
     inkscape:window-height="744"
     inkscape:window-x="53"
     inkscape:window-y="24"
     inkscape:window-maximized="1" />
  <metadata
     id="metadata7507">
    <rdf:RDF>
      <cc:Work
         rdf:about="">
        <dc:format>image/svg+xml</dc:format>
        <dc:type
           rdf:resource="http://purl.org/dc/dcmitype/StillImage" />
        <dc:title></dc:title>
      </cc:Work>
    </rdf:RDF>
  </metadata>
  <g
     inkscape:label="Layer 1"
     inkscape:groupmode="layer"
     id="layer1"
     transform="translate(-253.28034,-316.96809)">
    <g
       id="g6527"
       transform="translate(452.96459,242.23478)">
      <g
         transform="matrix(1.2787046,0,0,1.2022045,458.8673,82.669639)"
         id="g3476">
        <path
           style="fill:#ff00ff"
           d="m -492.62304,15.646445 c -0.25549,-0.267115 -0.46121,-0.57046 -0.45714,-0.6741 0.004,-0.103641 0.68374,-0.846512 1.51038,-1.650826 l 1.50298,-1.462389 -0.0347,-0.583596 c -0.075,-1.261209 0.78982,-2.2416693 1.97428,-2.2382715 0.34094,9.657e-4 0.67409,0.040881 0.74034,0.08867 0.0787,0.056758 -0.10774,0.3067193 -0.53754,0.7207691 -0.3619,0.3486324 -0.658,0.6897884 -0.658,0.7581244 0,0.06834 0.2004,0.347314 0.44532,0.619952 l 0.44533,0.495706 0.6837,-0.661971 c 0.37603,-0.364083 0.71428,-0.627277 0.75167,-0.584874 0.1273,0.144385 0.0537,1.190056 -0.10886,1.546597 -0.37708,0.827049 -1.17521,1.266591 -2.10447,1.158965 l -0.57345,-0.06642 -1.17748,1.162245 c -0.64761,0.639234 -1.34855,1.318582 -1.55765,1.509662 l -0.38017,0.347417 -0.46454,-0.485663 z"
           id="path3470"
           inkscape:connector-curvature="0" />
        <path
           style="fill:#ff00ff"
           d="m -504.21003,25.752625 c 0,-0.110459 0.61488,-3.264029 1.36639,-7.007933 0.75152,-3.743904 1.33718,-6.837 1.30147,-6.873548 -0.0357,-0.03655 -0.48012,0.107031 -0.98759,0.319062 l -0.92265,0.385511 0,1.638109 0,1.638109 -0.88389,0 -0.88388,0 0,-2.237928 0,-2.237929 2.53022,-1.045067 c 3.70677,-1.5310165 4.08532,-1.4631345 5.64485,1.01224 0.97692,1.550605 2.15875,2.434886 3.5576,2.661888 0.8183,0.132791 0.89424,0.217369 0.89424,0.995955 0,0.724802 -0.0879,0.850841 -0.59366,0.850841 -0.95902,0 -2.2244,-0.516337 -3.53483,-1.442376 -0.67336,-0.475844 -1.25313,-0.828952 -1.28839,-0.784685 -0.0352,0.04427 -0.1861,0.705519 -0.33522,1.469447 l -0.27113,1.388959 0.99131,1.019712 0.99131,1.019711 0,3.715379 0,3.715378 -0.88389,0 -0.88388,0 0,-2.977877 0,-2.977877 -1.09204,-1.071757 -1.09204,-1.071757 -0.69755,3.102616 c -1.20533,5.361237 -1.05556,4.996652 -2.0526,4.996652 -0.48078,0 -0.87415,-0.09037 -0.87415,-0.200835 z"
           id="path3472"
           inkscape:connector-curvature="0" />
        <path
           style="fill:#ff00ff"
           d="m -498.64921,8.2021525 c -0.89907,-0.452317 -1.2791,-1.333423 -0.96444,-2.236064 0.68688,-1.970378 3.48484,-1.465305 3.48484,0.629065 0,1.349176 -1.33763,2.202045 -2.5204,1.606999 z"
           id="path3474"
           inkscape:connector-curvature="0" />
      </g>
      <g
         id="g6488"
         transform="translate(0,66)">
        <path
           inkscape:connector-curvature="0"
           id="path6490"
           d="m -197.23682,56.425962 c -0.399,-0.120202 -0.95336,-0.425903 -1.23193,-0.679335 -1.25498,-1.141758 -1.2162,-0.400572 -1.21519,-23.228379 9.3e-4,-20.762719 0.0155,-21.411874 0.49654,-22.205085 1.03537,-1.7070689 -0.24301,-1.6232042 23.59641,-1.5479876 l 21.56402,0.068037 0.68781,0.6380697 c 1.43115,1.3276569 1.38447,0.5436619 1.37843,23.1537079 -0.005,20.12208 -0.0233,20.91239 -0.49919,21.966391 -0.37684,0.834668 -0.75091,1.210738 -1.58119,1.589567 -1.04966,0.478935 -1.80869,0.495663 -21.77891,0.4799 -11.38024,-0.009 -21.0178,-0.114682 -21.4168,-0.234886 z m 41.72732,-23.8581 0,-20.547341 -20.37399,0.06533 -20.374,0.06533 -0.0649,20.482015 -0.0649,20.482015 20.43897,0 20.43897,0 0,-20.54734 z"
           style="fill:#ea80fc" />
        <path
           inkscape:connector-curvature="0"
           id="path6492"
           d="m -163.28986,22.671548 c -2.32963,-0.70146 -3.81803,-2.677992 -3.79578,-5.040609 0.0159,-1.689564 0.45548,-2.665016 1.68899,-3.748045 2.61705,-2.297807 7.37536,-1.394276 8.64371,1.641312 0.50855,1.217134 0.43183,3.453184 -0.15817,4.609671 -1.05194,2.061973 -4.02735,3.245687 -6.37875,2.537671 z m 4.02181,-1.579446 c 1.41342,-0.959799 1.3467,-1.802051 -0.20636,-2.605168 -0.90296,-0.46694 -3.57832,-0.46694 -4.48128,0 -1.54473,0.798809 -1.61606,1.633373 -0.22268,2.605168 0.64001,0.446366 1.16412,0.56821 2.44414,0.56821 1.27349,0 1.81221,-0.124121 2.46618,-0.56821 z m -1.60965,-4.015282 c 0.73636,-0.387585 0.92194,-0.704824 0.92655,-1.583807 0.005,-1.029934 -0.64833,-1.661383 -1.72002,-1.661383 -1.12825,0 -1.81275,0.612458 -1.80778,1.617504 0.005,0.901273 0.17656,1.217355 0.88002,1.616261 0.64893,0.367986 1.03891,0.370575 1.72123,0.01143 z"
           style="fill:#2196f3" />
      </g>
    </g>
  </g>
</svg>
