<?xml version="1.0" encoding="UTF-8" standalone="no"?>
<!-- Created with Inkscape (http://www.inkscape.org/) -->

<svg
   xmlns:dc="http://purl.org/dc/elements/1.1/"
   xmlns:cc="http://creativecommons.org/ns#"
   xmlns:rdf="http://www.w3.org/1999/02/22-rdf-syntax-ns#"
   xmlns:svg="http://www.w3.org/2000/svg"
   xmlns="http://www.w3.org/2000/svg"
   xmlns:sodipodi="http://sodipodi.sourceforge.net/DTD/sodipodi-0.dtd"
   xmlns:inkscape="http://www.inkscape.org/namespaces/inkscape"
   width="47.72504"
   height="47.931095"
   viewBox="0 0 47.725041 47.931096"
   id="svg7199"
   version="1.1"
   inkscape:version="0.91 r13725"
   sodipodi:docname="roles-call-center.svg">
  <defs
     id="defs7201" />
  <sodipodi:namedview
     id="base"
     pagecolor="#ffffff"
     bordercolor="#666666"
     borderopacity="1.0"
     inkscape:pageopacity="0.0"
     inkscape:pageshadow="2"
     inkscape:zoom="0.35"
     inkscape:cx="-62.566047"
     inkscape:cy="-27.462998"
     inkscape:document-units="px"
     inkscape:current-layer="layer1"
     showgrid="false"
     units="px"
     fit-margin-top="0"
     fit-margin-left="0"
     fit-margin-right="0"
     fit-margin-bottom="0"
     inkscape:window-width="1307"
     inkscape:window-height="744"
     inkscape:window-x="53"
     inkscape:window-y="24"
     inkscape:window-maximized="1" />
  <metadata
     id="metadata7204">
    <rdf:RDF>
      <cc:Work
         rdf:about="">
        <dc:format>image/svg+xml</dc:format>
        <dc:type
           rdf:resource="http://purl.org/dc/dcmitype/StillImage" />
        <dc:title></dc:title>
      </cc:Work>
    </rdf:RDF>
  </metadata>
  <g
     inkscape:label="Layer 1"
     inkscape:groupmode="layer"
     id="layer1"
     transform="translate(-318.99462,-456.96809)">
    <g
       id="g6275"
       transform="translate(778.67887,448.23478)">
      <g
         id="g6265">
        <path
           inkscape:connector-curvature="0"
           id="path3392"
           d="m -457.23682,56.425962 c -0.399,-0.120202 -0.95336,-0.425903 -1.23193,-0.679335 -1.25498,-1.141758 -1.2162,-0.400572 -1.21519,-23.228379 9.3e-4,-20.762719 0.0155,-21.411874 0.49654,-22.205085 1.03537,-1.7070689 -0.24301,-1.6232042 23.59641,-1.5479876 l 21.56402,0.068037 0.68781,0.6380697 c 1.43115,1.3276569 1.38447,0.5436619 1.37843,23.1537079 -0.005,20.12208 -0.0233,20.91239 -0.49919,21.966391 -0.37684,0.834668 -0.75091,1.210738 -1.58119,1.589567 -1.04966,0.478935 -1.80869,0.495663 -21.77891,0.4799 -11.38024,-0.009 -21.0178,-0.114682 -21.4168,-0.234886 z m 41.72732,-23.8581 0,-20.547341 -20.37399,0.06533 -20.374,0.06533 -0.0649,20.482015 -0.0649,20.482015 20.43897,0 20.43897,0 0,-20.54734 z"
           style="fill:#ea80fc" />
        <path
           inkscape:connector-curvature="0"
           id="path3394"
           d="m -423.28986,22.671548 c -2.32963,-0.70146 -3.81803,-2.677992 -3.79578,-5.040609 0.0159,-1.689564 0.45548,-2.665016 1.68899,-3.748045 2.61705,-2.297807 7.37536,-1.394276 8.64371,1.641312 0.50855,1.217134 0.43183,3.453184 -0.15817,4.609671 -1.05194,2.061973 -4.02735,3.245687 -6.37875,2.537671 z m 4.02181,-1.579446 c 1.41342,-0.959799 1.3467,-1.802051 -0.20636,-2.605168 -0.90296,-0.46694 -3.57832,-0.46694 -4.48128,0 -1.54473,0.798809 -1.61606,1.633373 -0.22268,2.605168 0.64001,0.446366 1.16412,0.56821 2.44414,0.56821 1.27349,0 1.81221,-0.124121 2.46618,-0.56821 z m -1.60965,-4.015282 c 0.73636,-0.387585 0.92194,-0.704824 0.92655,-1.583807 0.005,-1.029934 -0.64833,-1.661383 -1.72002,-1.661383 -1.12825,0 -1.81275,0.612458 -1.80778,1.617504 0.005,0.901273 0.17656,1.217355 0.88002,1.616261 0.64893,0.367986 1.03891,0.370575 1.72123,0.01143 z"
           style="fill:#2196f3" />
      </g>
      <g
         style="fill:#ea80fc"
         id="g3396"
         transform="matrix(0.75709024,0,0,0.79523838,-53.456148,56.009509)">
        <path
           inkscape:connector-curvature="0"
           id="path3398"
           d="m -500.54822,-24.968758 c -0.97227,-0.205378 -2.73373,-0.836639 -3.91434,-1.402801 -2.96727,-1.422949 -6.02658,-4.456809 -7.5166,-7.454071 -1.17373,-2.361028 -1.89527,-5.213746 -1.7798,-7.036658 l 0.0788,-1.243279 2.23468,-0.07333 c 2.59551,-0.08517 2.94235,0.09255 2.94235,1.507653 0,0.546519 0.12938,1.507468 0.2875,2.135442 l 0.2875,1.141772 -1.34094,1.357814 -1.34095,1.357815 0.97106,1.463449 c 1.21521,1.831387 3.29994,3.85326 4.78581,4.641513 l 1.13629,0.602798 1.25283,-1.233994 1.25283,-1.233995 1.44692,0.290581 c 0.7958,0.159821 1.80298,0.290582 2.23817,0.290582 0.43519,0 0.92763,0.136371 1.0943,0.303046 0.40722,0.407223 0.40722,4.289988 0,4.697211 -0.39485,0.394849 -1.91395,0.353684 -4.11637,-0.111547 z"
           style="fill:#ea80fc" />
        <g
           style="fill:#ea80fc"
           id="g3400">
          <g
             style="fill:#ea80fc"
             id="g3402">
            <path
               inkscape:connector-curvature="0"
               id="path3404"
               d="m -504.46257,-10.436979 c 0,-1.388922 0.0751,-1.610345 0.76487,-2.254666 0.80743,-0.754262 3.13414,-1.626634 5.05364,-1.894802 2.16496,-0.302464 5.92137,0.712382 7.2472,1.957929 0.47666,0.447804 0.57135,0.801513 0.57135,2.134239 l 0,1.5974774 -6.81853,0 -6.81853,0 0,-1.5401774 z"
               style="fill:#ea80fc" />
            <path
               inkscape:connector-curvature="0"
               id="path3406"
               d="m -499.56333,-17.836652 c -1.21805,-1.218053 -1.21805,-2.620527 0,-3.83858 0.72337,-0.72337 1.03857,-0.858629 2.00088,-0.858629 0.9388,0 1.28066,0.138405 1.91929,0.77704 0.65391,0.653906 0.77704,0.970977 0.77704,2.000879 0,1.029902 -0.12313,1.346973 -0.77704,2.000879 -0.63863,0.638636 -0.98049,0.77704 -1.91929,0.77704 -0.96231,0 -1.27751,-0.135259 -2.00088,-0.858629 z"
               style="fill:#ea80fc" />
            <path
               inkscape:connector-curvature="0"
               id="path3408"
               d="m -491.53189,-17.723256 c -1.89548,-1.895483 -0.7016,-4.810605 1.97018,-4.810605 0.86826,0 1.21457,0.155013 1.91818,0.858629 0.7039,0.7039 0.85863,1.049767 0.85863,1.91929 0,0.869524 -0.15473,1.21539 -0.85863,1.91929 -0.72337,0.72337 -1.03857,0.858629 -2.00088,0.858629 -0.92823,0 -1.28188,-0.13963 -1.88748,-0.745233 z"
               style="fill:#ea80fc" />
            <path
               inkscape:connector-curvature="0"
               id="path3410"
               d="m -488.55266,-10.548361 c 0,-1.752501 -0.59872,-3.365291 -1.45032,-3.906807 -0.72383,-0.460266 2.33696,-0.06936 4.15785,0.531014 0.86412,0.284911 1.91531,0.83954 2.33598,1.232509 0.68975,0.644321 0.76486,0.865744 0.76486,2.254666 l 0,1.5401774 -2.90419,0 -2.90418,0 0,-1.6515594 z"
               style="fill:#ea80fc" />
          </g>
          <g
             style="fill:#ea80fc"
             transform="matrix(-1,0,0,1,-1010.193,-0.04240534)"
             id="g3412">
            <path
               inkscape:connector-curvature="0"
               id="path3414"
               d="m -504.46257,-10.436979 c 0,-1.388922 0.0751,-1.610345 0.76487,-2.254666 0.80743,-0.754262 3.13414,-1.626634 5.05364,-1.894802 2.16496,-0.302464 5.92137,0.712382 7.2472,1.957929 0.47666,0.447804 0.57135,0.801513 0.57135,2.134239 l 0,1.5974774 -6.81853,0 -6.81853,0 0,-1.5401774 z"
               style="fill:#ea80fc" />
            <path
               inkscape:connector-curvature="0"
               id="path3416"
               d="m -499.56333,-17.836652 c -1.21805,-1.218053 -1.21805,-2.620527 0,-3.83858 0.72337,-0.72337 1.03857,-0.858629 2.00088,-0.858629 0.9388,0 1.28066,0.138405 1.91929,0.77704 0.65391,0.653906 0.77704,0.970977 0.77704,2.000879 0,1.029902 -0.12313,1.346973 -0.77704,2.000879 -0.63863,0.638636 -0.98049,0.77704 -1.91929,0.77704 -0.96231,0 -1.27751,-0.135259 -2.00088,-0.858629 z"
               style="fill:#ea80fc" />
            <path
               inkscape:connector-curvature="0"
               id="path3418"
               d="m -491.53189,-17.723256 c -1.89548,-1.895483 -0.7016,-4.810605 1.97018,-4.810605 0.86826,0 1.21457,0.155013 1.91818,0.858629 0.7039,0.7039 0.85863,1.049767 0.85863,1.91929 0,0.869524 -0.15473,1.21539 -0.85863,1.91929 -0.72337,0.72337 -1.03857,0.858629 -2.00088,0.858629 -0.92823,0 -1.28188,-0.13963 -1.88748,-0.745233 z"
               style="fill:#ea80fc" />
            <path
               inkscape:connector-curvature="0"
               id="path3421"
               d="m -488.55266,-10.548361 c 0,-1.752501 -0.59872,-3.365291 -1.45032,-3.906807 -0.72383,-0.460266 2.33696,-0.06936 4.15785,0.531014 0.86412,0.284911 1.91531,0.83954 2.33598,1.232509 0.68975,0.644321 0.76486,0.865744 0.76486,2.254666 l 0,1.5401774 -2.90419,0 -2.90418,0 0,-1.6515594 z"
               style="fill:#ea80fc" />
          </g>
        </g>
      </g>
    </g>
  </g>
</svg>
