<?xml version="1.0" encoding="UTF-8" standalone="no"?>
<!-- Created with Inkscape (http://www.inkscape.org/) -->

<svg
   xmlns:dc="http://purl.org/dc/elements/1.1/"
   xmlns:cc="http://creativecommons.org/ns#"
   xmlns:rdf="http://www.w3.org/1999/02/22-rdf-syntax-ns#"
   xmlns:svg="http://www.w3.org/2000/svg"
   xmlns="http://www.w3.org/2000/svg"
   xmlns:sodipodi="http://sodipodi.sourceforge.net/DTD/sodipodi-0.dtd"
   xmlns:inkscape="http://www.inkscape.org/namespaces/inkscape"
   width="47.725044"
   height="47.931095"
   viewBox="0 0 47.725043 47.931093"
   id="svg7713"
   version="1.1"
   inkscape:version="0.91 r13725"
   sodipodi:docname="roles-client.svg">
  <defs
     id="defs7715" />
  <sodipodi:namedview
     id="base"
     pagecolor="#ffffff"
     bordercolor="#666666"
     borderopacity="1.0"
     inkscape:pageopacity="0.0"
     inkscape:pageshadow="2"
     inkscape:zoom="0.35"
     inkscape:cx="34.576803"
     inkscape:cy="-81.748741"
     inkscape:document-units="px"
     inkscape:current-layer="layer1"
     showgrid="false"
     fit-margin-top="0"
     fit-margin-left="0"
     fit-margin-right="0"
     fit-margin-bottom="0"
     units="px"
     inkscape:window-width="1307"
     inkscape:window-height="744"
     inkscape:window-x="53"
     inkscape:window-y="24"
     inkscape:window-maximized="1" />
  <metadata
     id="metadata7718">
    <rdf:RDF>
      <cc:Work
         rdf:about="">
        <dc:format>image/svg+xml</dc:format>
        <dc:type
           rdf:resource="http://purl.org/dc/dcmitype/StillImage" />
        <dc:title></dc:title>
      </cc:Work>
    </rdf:RDF>
  </metadata>
  <g
     inkscape:label="Layer 1"
     inkscape:groupmode="layer"
     id="layer1"
     transform="translate(-221.85177,-402.68237)">
    <g
       id="g6697"
       transform="translate(421.53602,243.94906)">
      <g
         transform="matrix(1.2686388,0,0,1.2179377,320.33765,202.61067)"
         id="g3603">
        <path
           style="fill:#ff00ff"
           d="m -400.41685,-8.8968016 0,-3.7880724 -0.75761,0 -0.75762,0 0,-3.030457 c 0,-2.66476 0.0593,-3.089707 0.49099,-3.521448 0.62872,-0.628717 1.96427,-0.875664 3.74297,-0.692086 2.23215,0.230378 2.44106,0.577108 2.54259,4.219854 l 0.0843,3.024137 -0.77876,0 -0.77877,0 0,3.7880724 0,3.788072 -1.89403,0 -1.89404,0 0,-3.788072 z"
           id="path3595"
           inkscape:connector-curvature="0" />
        <path
           style="fill:#ff00ff"
           d="m -399.32705,-21.275286 c -1.12589,-0.448829 -1.45563,-2.155437 -0.58472,-3.026342 1.09419,-1.094188 3.11464,-0.291514 3.11464,1.237367 0,1.311176 -1.34416,2.261668 -2.52992,1.788975 z"
           id="path3597"
           inkscape:connector-curvature="0" />
        <path
           style="fill:#ff00ff"
           d="m -390.23747,-21.275947 c -0.82535,-0.328945 -1.39387,-1.336337 -1.19694,-2.120948 0.33764,-1.345258 2.17062,-1.873501 3.13939,-0.904733 1.33683,1.336823 -0.19461,3.722282 -1.94245,3.025681 z"
           id="path3599"
           inkscape:connector-curvature="0" />
        <path
           style="fill:#ff00ff"
           d="m -391.07294,-8.1391872 0,-3.0304578 -1.41598,0 c -1.02636,0 -1.38402,-0.08686 -1.29983,-0.315673 0.0639,-0.173619 0.64933,-1.922065 1.30101,-3.885433 0.65736,-1.980456 1.40437,-3.768401 1.67789,-4.015929 0.62709,-0.567505 1.96075,-0.537431 2.525,0.05694 0.23897,0.251726 1.00771,2.190727 1.70831,4.308891 l 1.27382,3.851206 -1.49615,0 -1.49615,0 0,3.0304578 0,3.0304576 -1.38896,0 -1.38896,0 0,-3.0304576 z"
           id="path3601"
           inkscape:connector-curvature="0" />
      </g>
      <g
         id="g6656"
         transform="translate(0,150)">
        <path
           inkscape:connector-curvature="0"
           id="path6658"
           d="m -197.23682,56.425962 c -0.399,-0.120202 -0.95336,-0.425903 -1.23193,-0.679335 -1.25498,-1.141758 -1.2162,-0.400572 -1.21519,-23.228379 9.3e-4,-20.762719 0.0155,-21.411874 0.49654,-22.205085 1.03537,-1.7070689 -0.24301,-1.6232042 23.59641,-1.5479876 l 21.56402,0.068037 0.68781,0.6380697 c 1.43115,1.3276569 1.38447,0.5436619 1.37843,23.1537079 -0.005,20.12208 -0.0233,20.91239 -0.49919,21.966391 -0.37684,0.834668 -0.75091,1.210738 -1.58119,1.589567 -1.04966,0.478935 -1.80869,0.495663 -21.77891,0.4799 -11.38024,-0.009 -21.0178,-0.114682 -21.4168,-0.234886 z m 41.72732,-23.8581 0,-20.547341 -20.37399,0.06533 -20.374,0.06533 -0.0649,20.482015 -0.0649,20.482015 20.43897,0 20.43897,0 0,-20.54734 z"
           style="fill:#ea80fc" />
        <path
           inkscape:connector-curvature="0"
           id="path6660"
           d="m -163.28986,22.671548 c -2.32963,-0.70146 -3.81803,-2.677992 -3.79578,-5.040609 0.0159,-1.689564 0.45548,-2.665016 1.68899,-3.748045 2.61705,-2.297807 7.37536,-1.394276 8.64371,1.641312 0.50855,1.217134 0.43183,3.453184 -0.15817,4.609671 -1.05194,2.061973 -4.02735,3.245687 -6.37875,2.537671 z m 4.02181,-1.579446 c 1.41342,-0.959799 1.3467,-1.802051 -0.20636,-2.605168 -0.90296,-0.46694 -3.57832,-0.46694 -4.48128,0 -1.54473,0.798809 -1.61606,1.633373 -0.22268,2.605168 0.64001,0.446366 1.16412,0.56821 2.44414,0.56821 1.27349,0 1.81221,-0.124121 2.46618,-0.56821 z m -1.60965,-4.015282 c 0.73636,-0.387585 0.92194,-0.704824 0.92655,-1.583807 0.005,-1.029934 -0.64833,-1.661383 -1.72002,-1.661383 -1.12825,0 -1.81275,0.612458 -1.80778,1.617504 0.005,0.901273 0.17656,1.217355 0.88002,1.616261 0.64893,0.367986 1.03891,0.370575 1.72123,0.01143 z"
           style="fill:#2196f3" />
      </g>
    </g>
  </g>
</svg>
