<?xml version="1.0" encoding="UTF-8" standalone="no"?>
<!-- Created with Inkscape (http://www.inkscape.org/) -->

<svg
   xmlns:dc="http://purl.org/dc/elements/1.1/"
   xmlns:cc="http://creativecommons.org/ns#"
   xmlns:rdf="http://www.w3.org/1999/02/22-rdf-syntax-ns#"
   xmlns:svg="http://www.w3.org/2000/svg"
   xmlns="http://www.w3.org/2000/svg"
   xmlns:sodipodi="http://sodipodi.sourceforge.net/DTD/sodipodi-0.dtd"
   xmlns:inkscape="http://www.inkscape.org/namespaces/inkscape"
   width="47.72504"
   height="47.931095"
   viewBox="0 0 47.725041 47.931096"
   id="svg8196"
   version="1.1"
   inkscape:version="0.91 r13725"
   sodipodi:docname="roles-supplier.svg">
  <defs
     id="defs8198" />
  <sodipodi:namedview
     id="base"
     pagecolor="#ffffff"
     bordercolor="#666666"
     borderopacity="1.0"
     inkscape:pageopacity="0.0"
     inkscape:pageshadow="2"
     inkscape:zoom="0.35"
     inkscape:cx="-11.137477"
     inkscape:cy="-330.32015"
     inkscape:document-units="px"
     inkscape:current-layer="layer1"
     showgrid="false"
     inkscape:window-width="1307"
     inkscape:window-height="744"
     inkscape:window-x="53"
     inkscape:window-y="24"
     inkscape:window-maximized="1"
     units="px"
     fit-margin-top="0"
     fit-margin-left="0"
     fit-margin-right="0"
     fit-margin-bottom="0" />
  <metadata
     id="metadata8201">
    <rdf:RDF>
      <cc:Work
         rdf:about="">
        <dc:format>image/svg+xml</dc:format>
        <dc:type
           rdf:resource="http://purl.org/dc/dcmitype/StillImage" />
        <dc:title></dc:title>
      </cc:Work>
    </rdf:RDF>
  </metadata>
  <g
     inkscape:label="Layer 1"
     inkscape:groupmode="layer"
     id="layer1"
     transform="translate(-267.56605,-154.11094)">
    <g
       id="g7111"
       transform="translate(455.2503,-70.622367)">
      <g
         transform="matrix(1.2906977,0,0,1.2261905,461.82065,292.12099)"
         id="g3903">
        <g
           id="g3899"
           transform="matrix(0.38461556,0,0,0.37142859,-312.26447,-18.818057)">
          <path
             inkscape:connector-curvature="0"
             id="path3891"
             d="m -448.3991,-54.858742 0,-2.020305 -2.0203,0 -2.02031,0 0,-3.389889 c 0,-3.270099 0.0229,-3.417085 0.64758,-4.159491 0.35617,-0.423281 1.06643,-0.885935 1.57836,-1.02812 1.22188,-0.339367 14.02422,-0.339367 15.2461,0 0.51193,0.142185 1.22219,0.604839 1.57836,1.02812 0.62469,0.742406 0.64758,0.889392 0.64758,4.159491 l 0,3.389889 -2.02031,0 -2.0203,0 0,2.020305 0,2.020305 -5.80838,0 -5.80838,0 0,-2.020305 z m 9.84899,-2.399113 0,-2.65165 -4.04061,0 -4.04061,0 0,2.65165 0,2.651651 4.04061,0 4.04061,0 0,-2.651651 z m 3.78535,-4.794945 c 0.42564,-0.512859 0.12203,-1.554671 -0.50051,-1.717469 -0.28815,-0.07535 -0.75082,0.06296 -1.06697,0.318965 -0.48937,0.39627 -0.52107,0.533521 -0.25703,1.11302 0.34151,0.749536 1.3132,0.901578 1.82451,0.285484 z"
             style="fill:#ff00ff" />
          <path
             inkscape:connector-curvature="0"
             id="path3893"
             d="m -448.3991,-68.622071 0,-1.894036 5.80838,0 5.80838,0 0,1.894036 0,1.894036 -5.80838,0 -5.80838,0 0,-1.894036 z"
             style="fill:#ff00ff" />
        </g>
        <path
           style="fill:#ff00ff"
           d="m -495.62372,-39.038452 0,-0.342149 0.64545,-0.0077 c 0.355,-0.0043 0.58923,-0.03184 0.52052,-0.06133 -0.0687,-0.02949 -0.20925,-0.143655 -0.31231,-0.253715 -0.18379,-0.196267 -0.18739,-0.242615 -0.18739,-2.413043 0,-2.091901 0.009,-2.224633 0.16981,-2.426879 0.1684,-0.21217 0.19386,-0.213946 3.06699,-0.213946 l 2.89717,0 0.18108,0.226253 c 0.17458,0.218121 0.18109,0.30342 0.18109,2.373289 0,2.30283 -0.03,2.483021 -0.44616,2.680144 -0.12425,0.05885 0.0176,0.08643 0.46698,0.09074 l 0.64544,0.0063 0,0.342149 0,0.342148 -3.91433,0 -3.91434,0 0,-0.342148 z m 6.57942,-3.079338 0,-1.955135 -2.66508,0 -2.66508,0 0,1.955135 0,1.955135 2.66508,0 2.66508,0 0,-1.955135 z"
           id="path3895"
           inkscape:connector-curvature="0" />
        <path
           style="fill:#ff00ff"
           d="m -492.61906,-24.373256 c -0.5823,-0.391348 -0.93328,-0.878354 -1.09204,-1.515229 -0.219,-0.878583 -0.29561,-0.938524 -1.19955,-0.938524 l -0.96562,0 0,-4.750606 c 0,-4.431789 0.0346,-4.787697 0.51492,-5.303301 0.50701,-0.544216 0.62815,-0.552695 7.89576,-0.552695 l 7.38085,0 2.96338,2.971116 2.96337,2.971116 0,2.332185 0,2.332185 -1.26269,0 c -0.97201,0 -1.26269,0.09009 -1.26269,0.391348 0,1.306461 -1.51949,2.639109 -3.00913,2.639109 -0.97945,0 -2.4307,-1.250888 -2.63472,-2.270956 l -0.1519,-0.759501 -2.76465,0 -2.76464,0 -0.28898,0.875618 c -0.64886,1.966056 -2.65464,2.698503 -4.32167,1.578135 z m 2.7898,-1.357013 c 0.60411,-0.767996 0.50299,-1.486165 -0.30774,-2.185566 -0.996,-0.859235 -2.45627,-0.0416 -2.45627,1.375311 0,1.416176 1.85878,1.961069 2.76401,0.810255 z m 11.32193,0.277899 c 1.06166,-0.74361 0.59962,-2.448318 -0.75184,-2.773965 -0.52869,-0.12739 -0.82639,-0.01966 -1.32583,0.479776 -0.78076,0.780761 -0.80305,1.154375 -0.12065,2.021914 0.5924,0.753109 1.37368,0.849876 2.19832,0.272275 z m -11.30802,-8.193169 0,-2.020305 -2.14657,0 -2.14658,0 0,2.020305 0,2.020305 2.14658,0 2.14657,0 0,-2.020305 z m 5.80838,0 0,-2.020305 -2.02031,0 -2.0203,0 0,2.020305 0,2.020305 2.0203,0 2.02031,0 0,-2.020305 z m 5.17703,0 c -1.54784,-1.556974 -2.16909,-2.020305 -2.70886,-2.020305 l -0.70041,0 0,2.020305 0,2.020305 2.70886,0 2.70886,0 -2.00845,-2.020305 z"
           id="path3897"
           inkscape:connector-curvature="0" />
      </g>
      <g
         id="g7068"
         transform="translate(12,216)">
        <path
           inkscape:connector-curvature="0"
           id="path7070"
           d="m -197.23682,56.425962 c -0.399,-0.120202 -0.95336,-0.425903 -1.23193,-0.679335 -1.25498,-1.141758 -1.2162,-0.400572 -1.21519,-23.228379 9.3e-4,-20.762719 0.0155,-21.411874 0.49654,-22.205085 1.03537,-1.7070689 -0.24301,-1.6232042 23.59641,-1.5479876 l 21.56402,0.068037 0.68781,0.6380697 c 1.43115,1.3276569 1.38447,0.5436619 1.37843,23.1537079 -0.005,20.12208 -0.0233,20.91239 -0.49919,21.966391 -0.37684,0.834668 -0.75091,1.210738 -1.58119,1.589567 -1.04966,0.478935 -1.80869,0.495663 -21.77891,0.4799 -11.38024,-0.009 -21.0178,-0.114682 -21.4168,-0.234886 z m 41.72732,-23.8581 0,-20.547341 -20.37399,0.06533 -20.374,0.06533 -0.0649,20.482015 -0.0649,20.482015 20.43897,0 20.43897,0 0,-20.54734 z"
           style="fill:#ea80fc" />
        <path
           inkscape:connector-curvature="0"
           id="path7072"
           d="m -163.28986,22.671548 c -2.32963,-0.70146 -3.81803,-2.677992 -3.79578,-5.040609 0.0159,-1.689564 0.45548,-2.665016 1.68899,-3.748045 2.61705,-2.297807 7.37536,-1.394276 8.64371,1.641312 0.50855,1.217134 0.43183,3.453184 -0.15817,4.609671 -1.05194,2.061973 -4.02735,3.245687 -6.37875,2.537671 z m 4.02181,-1.579446 c 1.41342,-0.959799 1.3467,-1.802051 -0.20636,-2.605168 -0.90296,-0.46694 -3.57832,-0.46694 -4.48128,0 -1.54473,0.798809 -1.61606,1.633373 -0.22268,2.605168 0.64001,0.446366 1.16412,0.56821 2.44414,0.56821 1.27349,0 1.81221,-0.124121 2.46618,-0.56821 z m -1.60965,-4.015282 c 0.73636,-0.387585 0.92194,-0.704824 0.92655,-1.583807 0.005,-1.029934 -0.64833,-1.661383 -1.72002,-1.661383 -1.12825,0 -1.81275,0.612458 -1.80778,1.617504 0.005,0.901273 0.17656,1.217355 0.88002,1.616261 0.64893,0.367986 1.03891,0.370575 1.72123,0.01143 z"
           style="fill:#2196f3" />
      </g>
    </g>
  </g>
</svg>
