<?xml version="1.0" encoding="UTF-8" standalone="no"?>
<!-- Created with Inkscape (http://www.inkscape.org/) -->

<svg
   xmlns:dc="http://purl.org/dc/elements/1.1/"
   xmlns:cc="http://creativecommons.org/ns#"
   xmlns:rdf="http://www.w3.org/1999/02/22-rdf-syntax-ns#"
   xmlns:svg="http://www.w3.org/2000/svg"
   xmlns="http://www.w3.org/2000/svg"
   xmlns:sodipodi="http://sodipodi.sourceforge.net/DTD/sodipodi-0.dtd"
   xmlns:inkscape="http://www.inkscape.org/namespaces/inkscape"
   width="47.706852"
   height="47.706852"
   viewBox="0 0 47.706853 47.706852"
   id="svg3740"
   version="1.1"
   inkscape:version="0.91 r13725"
   sodipodi:docname="tasks-service-request.svg">
  <defs
     id="defs3742" />
  <sodipodi:namedview
     id="base"
     pagecolor="#ffffff"
     bordercolor="#666666"
     borderopacity="1.0"
     inkscape:pageopacity="0.0"
     inkscape:pageshadow="2"
     inkscape:zoom="0.35"
     inkscape:cx="-188.28943"
     inkscape:cy="-4.7180016"
     inkscape:document-units="px"
     inkscape:current-layer="layer1"
     showgrid="false"
     fit-margin-top="0"
     fit-margin-left="0"
     fit-margin-right="0"
     fit-margin-bottom="0"
     units="px"
     inkscape:window-width="1307"
     inkscape:window-height="744"
     inkscape:window-x="53"
     inkscape:window-y="24"
     inkscape:window-maximized="1" />
  <metadata
     id="metadata3745">
    <rdf:RDF>
      <cc:Work
         rdf:about="">
        <dc:format>image/svg+xml</dc:format>
        <dc:type
           rdf:resource="http://purl.org/dc/dcmitype/StillImage" />
        <dc:title></dc:title>
      </cc:Work>
    </rdf:RDF>
  </metadata>
  <g
     inkscape:label="Layer 1"
     inkscape:groupmode="layer"
     id="layer1"
     transform="translate(-444.718,-479.93735)">
    <g
       transform="translate(157.2857,222.85713)"
       id="g3412">
      <path
         style="fill:#673ab7"
         inkscape:connector-curvature="0"
         d="m 314.23585,277.99834 q 4.74868,0.97933 7.99058,4.63611 3.2419,3.65679 3.54261,8.55502 l -28.94553,0 q 0.30232,-4.89984 3.54261,-8.55502 3.24029,-3.65518 7.99057,-4.63611 -0.30232,-0.75419 -0.30232,-1.28164 0,-1.28165 0.97933,-2.22398 0.97932,-0.94234 2.26097,-0.94234 1.28164,0 2.26096,0.94234 0.97933,0.94233 0.97933,2.22398 0,0.52745 -0.30232,1.28164 z m -18.9947,14.85067 32.11186,0 0,3.16632 -32.11186,0 0,-3.16632 z"
         id="path7237" />
      <rect
         ry="1.8348789"
         y="258.9151"
         x="289.26718"
         height="44.037094"
         width="44.037094"
         id="rect7275"
         style="fill:none;stroke:#000000;stroke-width:3.66975784;stroke-linejoin:round;stroke-miterlimit:0;stroke-dasharray:none;stroke-opacity:1" />
      <rect
         style="fill:none;stroke:#673ab7;stroke-width:3.66975784;stroke-linejoin:round;stroke-miterlimit:0;stroke-dasharray:none;stroke-opacity:1"
         id="rect7277"
         width="44.037094"
         height="44.037094"
         x="289.26718"
         y="258.9151"
         ry="1.8348789" />
      <path
         style="fill:#f44336"
         id="path7279"
         d="m 317.67545,266.58316 c -0.59799,0 -1.08071,0.48272 -1.08071,1.08071 0,0.59799 0.48272,1.08071 1.08071,1.08071 0.59799,0 1.08071,-0.48272 1.08071,-1.08071 0,-0.59799 -0.48272,-1.08071 -1.08071,-1.08071 z m 0,-4.32284 c -0.59799,0 -1.08071,0.48272 -1.08071,1.08071 0,0.59799 0.48272,1.08071 1.08071,1.08071 0.59799,0 1.08071,-0.48272 1.08071,-1.08071 0,-0.59799 -0.48272,-1.08071 -1.08071,-1.08071 z m 0,8.64568 c -0.60159,0 -1.08071,0.48632 -1.08071,1.08071 0,0.59439 0.48632,1.08071 1.08071,1.08071 0.59439,0 1.08071,-0.48632 1.08071,-1.08071 0,-0.59439 -0.47911,-1.08071 -1.08071,-1.08071 z m 2.16142,1.80119 10.08663,0 0,-1.44095 -10.08663,0 0,1.44095 z m 0,-4.32285 10.08663,0 0,-1.44094 -10.08663,0 0,1.44094 z m 0,-5.76378 0,1.44094 10.08663,0 0,-1.44094 -10.08663,0 z"
         inkscape:connector-curvature="0" />
    </g>
  </g>
</svg>
