<?xml version="1.0" encoding="UTF-8" standalone="no"?>
<!-- Created with Inkscape (http://www.inkscape.org/) -->

<svg
   xmlns:dc="http://purl.org/dc/elements/1.1/"
   xmlns:cc="http://creativecommons.org/ns#"
   xmlns:rdf="http://www.w3.org/1999/02/22-rdf-syntax-ns#"
   xmlns:svg="http://www.w3.org/2000/svg"
   xmlns="http://www.w3.org/2000/svg"
   xmlns:sodipodi="http://sodipodi.sourceforge.net/DTD/sodipodi-0.dtd"
   xmlns:inkscape="http://www.inkscape.org/namespaces/inkscape"
   width="47.706852"
   height="47.706852"
   viewBox="0 0 47.706853 47.706852"
   id="svg3941"
   version="1.1"
   inkscape:version="0.91 r13725"
   sodipodi:docname="tasks-bi.svg">
  <defs
     id="defs3943" />
  <sodipodi:namedview
     id="base"
     pagecolor="#ffffff"
     bordercolor="#666666"
     borderopacity="1.0"
     inkscape:pageopacity="0.0"
     inkscape:pageshadow="2"
     inkscape:zoom="0.35"
     inkscape:cx="85.996283"
     inkscape:cy="-113.28943"
     inkscape:document-units="px"
     inkscape:current-layer="layer1"
     showgrid="false"
     fit-margin-top="0"
     fit-margin-left="0"
     fit-margin-right="0"
     fit-margin-bottom="0"
     units="px"
     inkscape:window-width="1307"
     inkscape:window-height="744"
     inkscape:window-x="53"
     inkscape:window-y="24"
     inkscape:window-maximized="1" />
  <metadata
     id="metadata3946">
    <rdf:RDF>
      <cc:Work
         rdf:about="">
        <dc:format>image/svg+xml</dc:format>
        <dc:type
           rdf:resource="http://purl.org/dc/dcmitype/StillImage" />
        <dc:title></dc:title>
      </cc:Work>
    </rdf:RDF>
  </metadata>
  <g
     inkscape:label="Layer 1"
     inkscape:groupmode="layer"
     id="layer1"
     transform="translate(-170.43229,-371.36592)">
    <g
       transform="translate(-14.28572,10.2857)"
       id="g3452">
      <rect
         ry="1.8348789"
         y="362.9151"
         x="186.55289"
         height="44.037094"
         width="44.037094"
         id="rect3606"
         style="fill:none;stroke:#000000;stroke-width:3.66975784;stroke-linejoin:round;stroke-miterlimit:0;stroke-dasharray:none;stroke-opacity:1" />
      <rect
         style="fill:none;stroke:#673ab7;stroke-width:3.66975784;stroke-linejoin:round;stroke-miterlimit:0;stroke-dasharray:none;stroke-opacity:1"
         id="rect3608"
         width="44.037094"
         height="44.037094"
         x="186.55289"
         y="362.9151"
         ry="1.8348789" />
      <path
         style="fill:#f44336"
         id="path3610"
         d="m 214.96115,370.58316 c -0.59799,0 -1.08071,0.48272 -1.08071,1.08071 0,0.59799 0.48272,1.08071 1.08071,1.08071 0.59799,0 1.08071,-0.48272 1.08071,-1.08071 0,-0.59799 -0.48272,-1.08071 -1.08071,-1.08071 z m 0,-4.32284 c -0.59799,0 -1.08071,0.48272 -1.08071,1.08071 0,0.59799 0.48272,1.08071 1.08071,1.08071 0.59799,0 1.08071,-0.48272 1.08071,-1.08071 0,-0.59799 -0.48272,-1.08071 -1.08071,-1.08071 z m 0,8.64568 c -0.60159,0 -1.08071,0.48632 -1.08071,1.08071 0,0.59439 0.48632,1.08071 1.08071,1.08071 0.59439,0 1.08071,-0.48632 1.08071,-1.08071 0,-0.59439 -0.47911,-1.08071 -1.08071,-1.08071 z m 2.16142,1.80119 10.08663,0 0,-1.44095 -10.08663,0 0,1.44095 z m 0,-4.32285 10.08663,0 0,-1.44094 -10.08663,0 0,1.44094 z m 0,-5.76378 0,1.44094 10.08663,0 0,-1.44094 -10.08663,0 z"
         inkscape:connector-curvature="0" />
      <path
         style="fill:#673ab7"
         inkscape:connector-curvature="0"
         d="m 193.82512,399.34853 10.71429,-9.38401 7.14285,6.24041 15.17858,-14.91457 -2.51786,-2.20754 -12.66072,12.4418 -7.14285,-6.2404 -13.39286,11.72416 z"
         id="path3692" />
    </g>
  </g>
</svg>
