<?xml version="1.0" encoding="UTF-8" standalone="no"?>
<!-- Created with Inkscape (http://www.inkscape.org/) -->

<svg
   xmlns:dc="http://purl.org/dc/elements/1.1/"
   xmlns:cc="http://creativecommons.org/ns#"
   xmlns:rdf="http://www.w3.org/1999/02/22-rdf-syntax-ns#"
   xmlns:svg="http://www.w3.org/2000/svg"
   xmlns="http://www.w3.org/2000/svg"
   xmlns:sodipodi="http://sodipodi.sourceforge.net/DTD/sodipodi-0.dtd"
   xmlns:inkscape="http://www.inkscape.org/namespaces/inkscape"
   width="47.706852"
   height="47.706852"
   viewBox="0 0 47.706853 47.706852"
   id="svg3805"
   version="1.1"
   inkscape:version="0.91 r13725"
   sodipodi:docname="tasks-learn.svg">
  <defs
     id="defs3807" />
  <sodipodi:namedview
     id="base"
     pagecolor="#ffffff"
     bordercolor="#666666"
     borderopacity="1.0"
     inkscape:pageopacity="0.0"
     inkscape:pageshadow="2"
     inkscape:zoom="0.35"
     inkscape:cx="-242.57515"
     inkscape:cy="6.7105684"
     inkscape:document-units="px"
     inkscape:current-layer="layer1"
     showgrid="false"
     fit-margin-top="0"
     fit-margin-left="0"
     fit-margin-right="0"
     fit-margin-bottom="0"
     units="px"
     inkscape:window-width="1307"
     inkscape:window-height="744"
     inkscape:window-x="53"
     inkscape:window-y="24"
     inkscape:window-maximized="1" />
  <metadata
     id="metadata3810">
    <rdf:RDF>
      <cc:Work
         rdf:about="">
        <dc:format>image/svg+xml</dc:format>
        <dc:type
           rdf:resource="http://purl.org/dc/dcmitype/StillImage" />
        <dc:title></dc:title>
      </cc:Work>
    </rdf:RDF>
  </metadata>
  <g
     inkscape:label="Layer 1"
     inkscape:groupmode="layer"
     id="layer1"
     transform="translate(-499.00372,-491.36592)">
    <g
       transform="translate(212.28571,180.2857)"
       id="g3430">
      <rect
         ry="1.8348789"
         y="312.9151"
         x="288.55289"
         height="44.037094"
         width="44.037094"
         id="rect4033"
         style="fill:none;stroke:#000000;stroke-width:3.66975784;stroke-linejoin:round;stroke-miterlimit:0;stroke-dasharray:none;stroke-opacity:1" />
      <rect
         style="fill:none;stroke:#673ab7;stroke-width:3.66975784;stroke-linejoin:round;stroke-miterlimit:0;stroke-dasharray:none;stroke-opacity:1"
         id="rect4035"
         width="44.037094"
         height="44.037094"
         x="288.55289"
         y="312.9151"
         ry="1.8348789" />
      <g
         style="fill:#673ab7"
         transform="matrix(0.68344156,0,0,0.68344156,295.27966,319.43968)"
         id="g7082">
        <circle
           style="fill:#673ab7"
           cx="18"
           cy="18"
           r="8"
           id="circle7072" />
        <path
           style="fill:#673ab7"
           inkscape:connector-curvature="0"
           d="M 18,30 C 12.66,30 2,32.68 2,38 l 0,4 32,0 0,-4 C 34,32.68 23.34,30 18,30 Z m 15.52,-19.27 -3.37,3.38 c 1.68,2.37 1.68,5.41 0,7.78 l 3.37,3.38 c 4.04,-4.06 4.04,-10.15 0,-14.54 z M 40.15,4 36.89,7.26 c 5.54,6.05 5.54,15.11 -0.01,21.47 L 40.15,32 c 7.8,-7.77 7.8,-19.91 0,-28 z"
           id="path7074" />
      </g>
      <path
         style="fill:#f44336"
         id="path4037"
         d="m 316.96115,320.58316 c -0.59799,0 -1.08071,0.48272 -1.08071,1.08071 0,0.59799 0.48272,1.08071 1.08071,1.08071 0.59799,0 1.08071,-0.48272 1.08071,-1.08071 0,-0.59799 -0.48272,-1.08071 -1.08071,-1.08071 z m 0,-4.32284 c -0.59799,0 -1.08071,0.48272 -1.08071,1.08071 0,0.59799 0.48272,1.08071 1.08071,1.08071 0.59799,0 1.08071,-0.48272 1.08071,-1.08071 0,-0.59799 -0.48272,-1.08071 -1.08071,-1.08071 z m 0,8.64568 c -0.60159,0 -1.08071,0.48632 -1.08071,1.08071 0,0.59439 0.48632,1.08071 1.08071,1.08071 0.59439,0 1.08071,-0.48632 1.08071,-1.08071 0,-0.59439 -0.47911,-1.08071 -1.08071,-1.08071 z m 2.16142,1.80119 10.08663,0 0,-1.44095 -10.08663,0 0,1.44095 z m 0,-4.32285 10.08663,0 0,-1.44094 -10.08663,0 0,1.44094 z m 0,-5.76378 0,1.44094 10.08663,0 0,-1.44094 -10.08663,0 z"
         inkscape:connector-curvature="0" />
    </g>
  </g>
</svg>
