<?xml version="1.0" encoding="UTF-8" standalone="no"?>
<!-- Created with Inkscape (http://www.inkscape.org/) -->

<svg
   xmlns:dc="http://purl.org/dc/elements/1.1/"
   xmlns:cc="http://creativecommons.org/ns#"
   xmlns:rdf="http://www.w3.org/1999/02/22-rdf-syntax-ns#"
   xmlns:svg="http://www.w3.org/2000/svg"
   xmlns="http://www.w3.org/2000/svg"
   xmlns:sodipodi="http://sodipodi.sourceforge.net/DTD/sodipodi-0.dtd"
   xmlns:inkscape="http://www.inkscape.org/namespaces/inkscape"
   width="47.706852"
   height="47.706852"
   viewBox="0 0 47.706853 47.706852"
   id="svg3470"
   version="1.1"
   inkscape:version="0.91 r13725"
   sodipodi:docname="tasks.svg">
  <defs
     id="defs3472" />
  <sodipodi:namedview
     id="base"
     pagecolor="#ffffff"
     bordercolor="#666666"
     borderopacity="1.0"
     inkscape:pageopacity="0.0"
     inkscape:pageshadow="2"
     inkscape:zoom="0.35"
     inkscape:cx="1283.1392"
     inkscape:cy="-441.86086"
     inkscape:document-units="px"
     inkscape:current-layer="layer1"
     showgrid="false"
     fit-margin-top="0"
     fit-margin-left="0"
     fit-margin-right="0"
     fit-margin-bottom="0"
     units="px"
     inkscape:window-width="1307"
     inkscape:window-height="744"
     inkscape:window-x="53"
     inkscape:window-y="24"
     inkscape:window-maximized="1" />
  <metadata
     id="metadata3475">
    <rdf:RDF>
      <cc:Work
         rdf:about="">
        <dc:format>image/svg+xml</dc:format>
        <dc:type
           rdf:resource="http://purl.org/dc/dcmitype/StillImage" />
        <dc:title></dc:title>
      </cc:Work>
    </rdf:RDF>
  </metadata>
  <g
     inkscape:label="Layer 1"
     inkscape:groupmode="layer"
     id="layer1"
     transform="translate(1026.7106,-42.794491)">
    <g
       transform="translate(-1211.4286,-214.28573)"
       id="g3399">
      <rect
         style="fill:none;stroke:#000000;stroke-width:3.66975784;stroke-linejoin:round;stroke-miterlimit:0;stroke-dasharray:none;stroke-opacity:1"
         id="rect10314"
         width="44.037094"
         height="44.037094"
         x="186.55289"
         y="258.9151"
         ry="1.8348789" />
      <rect
         ry="1.8348789"
         y="258.9151"
         x="186.55289"
         height="44.037094"
         width="44.037094"
         id="rect10316"
         style="fill:none;stroke:#673ab7;stroke-width:3.66975784;stroke-linejoin:round;stroke-miterlimit:0;stroke-dasharray:none;stroke-opacity:1" />
      <path
         style="fill:#673ab7"
         inkscape:connector-curvature="0"
         d="m 194.45278,277.74763 c -1.49976,0 -2.71042,1.21066 -2.71042,2.71043 0,1.49976 1.21066,2.71042 2.71042,2.71042 1.49977,0 2.71043,-1.21066 2.71043,-2.71042 0,-1.49977 -1.21066,-2.71043 -2.71043,-2.71043 z m 0,-10.8417 c -1.49976,0 -2.71042,1.21066 -2.71042,2.71043 0,1.49977 1.21066,2.71042 2.71042,2.71042 1.49977,0 2.71043,-1.21065 2.71043,-2.71042 0,-1.49977 -1.21066,-2.71043 -2.71043,-2.71043 z m 0,21.6834 c -1.5088,0 -2.71042,1.21969 -2.71042,2.71043 0,1.49073 1.21969,2.71042 2.71042,2.71042 1.49074,0 2.71043,-1.21969 2.71043,-2.71042 0,-1.49074 -1.20162,-2.71043 -2.71043,-2.71043 z m 5.42085,4.51738 25.2973,0 0,-3.6139 -25.2973,0 0,3.6139 z m 0,-10.8417 25.2973,0 0,-3.6139 -25.2973,0 0,3.6139 z m 0,-14.4556 0,3.6139 25.2973,0 0,-3.6139 -25.2973,0 z"
         id="path3400" />
    </g>
  </g>
</svg>
