<?xml version="1.0" encoding="UTF-8" standalone="no"?>
<!-- Created with Inkscape (http://www.inkscape.org/) -->

<svg
   xmlns:dc="http://purl.org/dc/elements/1.1/"
   xmlns:cc="http://creativecommons.org/ns#"
   xmlns:rdf="http://www.w3.org/1999/02/22-rdf-syntax-ns#"
   xmlns:svg="http://www.w3.org/2000/svg"
   xmlns="http://www.w3.org/2000/svg"
   xmlns:sodipodi="http://sodipodi.sourceforge.net/DTD/sodipodi-0.dtd"
   xmlns:inkscape="http://www.inkscape.org/namespaces/inkscape"
   width="47.706852"
   height="47.706852"
   viewBox="0 0 47.706853 47.706852"
   id="svg4067"
   version="1.1"
   inkscape:version="0.91 r13725"
   sodipodi:docname="tasks-change-request.svg">
  <defs
     id="defs4069" />
  <sodipodi:namedview
     id="base"
     pagecolor="#ffffff"
     bordercolor="#666666"
     borderopacity="1.0"
     inkscape:pageopacity="0.0"
     inkscape:pageshadow="2"
     inkscape:zoom="0.35"
     inkscape:cx="-36.86086"
     inkscape:cy="0.99628698"
     inkscape:document-units="px"
     inkscape:current-layer="layer1"
     showgrid="false"
     inkscape:window-width="1307"
     inkscape:window-height="744"
     inkscape:window-x="53"
     inkscape:window-y="24"
     inkscape:window-maximized="1"
     fit-margin-top="0"
     fit-margin-left="0"
     fit-margin-right="0"
     fit-margin-bottom="0"
     units="px" />
  <metadata
     id="metadata4072">
    <rdf:RDF>
      <cc:Work
         rdf:about="">
        <dc:format>image/svg+xml</dc:format>
        <dc:type
           rdf:resource="http://purl.org/dc/dcmitype/StillImage" />
        <dc:title></dc:title>
      </cc:Work>
    </rdf:RDF>
  </metadata>
  <g
     inkscape:label="Layer 1"
     inkscape:groupmode="layer"
     id="layer1"
     transform="translate(-259.00372,-457.08021)">
    <g
       transform="translate(22.285709,145.99999)"
       id="g3424">
      <rect
         ry="1.8348789"
         y="312.9151"
         x="238.55289"
         height="44.037094"
         width="44.037094"
         id="rect3539"
         style="fill:none;stroke:#000000;stroke-width:3.66975784;stroke-linejoin:round;stroke-miterlimit:0;stroke-dasharray:none;stroke-opacity:1" />
      <rect
         style="fill:none;stroke:#673ab7;stroke-width:3.66975784;stroke-linejoin:round;stroke-miterlimit:0;stroke-dasharray:none;stroke-opacity:1"
         id="rect3541"
         width="44.037094"
         height="44.037094"
         x="238.55289"
         y="312.9151"
         ry="1.8348789" />
      <path
         style="fill:#673ab7"
         inkscape:connector-curvature="0"
         d="m 271.55685,335.15988 -1.71596,0 0,-4.50786 c 0,-1.2453 -1.02385,-2.25393 -2.28793,-2.25393 l -4.5759,0 0,-1.69044 c 0,-1.55522 -1.28124,-2.81742 -2.85992,-2.81742 -1.57868,0 -2.85992,1.2622 -2.85992,2.81742 l 0,1.69044 -4.57589,0 c -1.26409,0 -2.27651,1.00863 -2.27651,2.25393 l -0.005,4.28246 1.71024,0 c 1.70451,0 3.08872,1.36362 3.08872,3.0428 0,1.67919 -1.38421,3.0428 -3.08872,3.0428 l -1.71024,0 -0.005,4.28247 c 0,1.2453 1.02385,2.25393 2.28795,2.25393 l 4.34708,0 0,-1.69045 c 0,-1.67917 1.3842,-3.0428 3.08873,-3.0428 1.70452,0 3.08871,1.36363 3.08871,3.0428 l 0,1.69045 4.34709,0 c 1.26409,0 2.28795,-1.00863 2.28795,-2.25393 l 0,-4.50785 1.71595,0 c 1.57868,0 2.85993,-1.26221 2.85993,-2.81742 0,-1.5552 -1.28125,-2.8174 -2.85993,-2.8174 z"
         id="path3586" />
      <path
         style="fill:#f44336"
         id="path3543"
         d="m 266.96115,320.58316 c -0.59799,0 -1.08071,0.48272 -1.08071,1.08071 0,0.59799 0.48272,1.08071 1.08071,1.08071 0.59799,0 1.08071,-0.48272 1.08071,-1.08071 0,-0.59799 -0.48272,-1.08071 -1.08071,-1.08071 z m 0,-4.32284 c -0.59799,0 -1.08071,0.48272 -1.08071,1.08071 0,0.59799 0.48272,1.08071 1.08071,1.08071 0.59799,0 1.08071,-0.48272 1.08071,-1.08071 0,-0.59799 -0.48272,-1.08071 -1.08071,-1.08071 z m 0,8.64568 c -0.60159,0 -1.08071,0.48632 -1.08071,1.08071 0,0.59439 0.48632,1.08071 1.08071,1.08071 0.59439,0 1.08071,-0.48632 1.08071,-1.08071 0,-0.59439 -0.47911,-1.08071 -1.08071,-1.08071 z m 2.16142,1.80119 10.08663,0 0,-1.44095 -10.08663,0 0,1.44095 z m 0,-4.32285 10.08663,0 0,-1.44094 -10.08663,0 0,1.44094 z m 0,-5.76378 0,1.44094 10.08663,0 0,-1.44094 -10.08663,0 z"
         inkscape:connector-curvature="0" />
    </g>
  </g>
</svg>
