<?xml version="1.0" encoding="UTF-8" standalone="no"?>
<!-- Created with Inkscape (http://www.inkscape.org/) -->

<svg
   xmlns:dc="http://purl.org/dc/elements/1.1/"
   xmlns:cc="http://creativecommons.org/ns#"
   xmlns:rdf="http://www.w3.org/1999/02/22-rdf-syntax-ns#"
   xmlns:svg="http://www.w3.org/2000/svg"
   xmlns="http://www.w3.org/2000/svg"
   xmlns:sodipodi="http://sodipodi.sourceforge.net/DTD/sodipodi-0.dtd"
   xmlns:inkscape="http://www.inkscape.org/namespaces/inkscape"
   width="47.706852"
   height="47.706852"
   viewBox="0 0 47.706853 47.706852"
   id="svg3874"
   version="1.1"
   inkscape:version="0.91 r13725"
   sodipodi:docname="tasks-audit.svg">
  <defs
     id="defs3876" />
  <sodipodi:namedview
     id="base"
     pagecolor="#ffffff"
     bordercolor="#666666"
     borderopacity="1.0"
     inkscape:pageopacity="0.0"
     inkscape:pageshadow="2"
     inkscape:zoom="0.35"
     inkscape:cx="-59.718003"
     inkscape:cy="52.424858"
     inkscape:document-units="px"
     inkscape:current-layer="layer1"
     showgrid="false"
     fit-margin-top="0"
     fit-margin-left="0"
     fit-margin-right="0"
     fit-margin-bottom="0"
     units="px"
     inkscape:window-width="1307"
     inkscape:window-height="744"
     inkscape:window-x="53"
     inkscape:window-y="24"
     inkscape:window-maximized="1" />
  <metadata
     id="metadata3879">
    <rdf:RDF>
      <cc:Work
         rdf:about="">
        <dc:format>image/svg+xml</dc:format>
        <dc:type
           rdf:resource="http://purl.org/dc/dcmitype/StillImage" />
        <dc:title></dc:title>
      </cc:Work>
    </rdf:RDF>
  </metadata>
  <g
     inkscape:label="Layer 1"
     inkscape:groupmode="layer"
     id="layer1"
     transform="translate(-316.14657,-537.08021)">
    <g
       transform="translate(29.428566,175.99999)"
       id="g3438">
      <rect
         ry="1.8348789"
         y="362.9151"
         x="288.55289"
         height="44.037094"
         width="44.037094"
         id="rect3907"
         style="fill:none;stroke:#000000;stroke-width:3.66975784;stroke-linejoin:round;stroke-miterlimit:0;stroke-dasharray:none;stroke-opacity:1" />
      <rect
         style="fill:none;stroke:#673ab7;stroke-width:3.66975784;stroke-linejoin:round;stroke-miterlimit:0;stroke-dasharray:none;stroke-opacity:1"
         id="rect3909"
         width="44.037094"
         height="44.037094"
         x="288.55289"
         y="362.9151"
         ry="1.8348789" />
      <path
         style="fill:#f44336"
         id="path3911"
         d="m 316.96115,370.58316 c -0.59799,0 -1.08071,0.48272 -1.08071,1.08071 0,0.59799 0.48272,1.08071 1.08071,1.08071 0.59799,0 1.08071,-0.48272 1.08071,-1.08071 0,-0.59799 -0.48272,-1.08071 -1.08071,-1.08071 z m 0,-4.32284 c -0.59799,0 -1.08071,0.48272 -1.08071,1.08071 0,0.59799 0.48272,1.08071 1.08071,1.08071 0.59799,0 1.08071,-0.48272 1.08071,-1.08071 0,-0.59799 -0.48272,-1.08071 -1.08071,-1.08071 z m 0,8.64568 c -0.60159,0 -1.08071,0.48632 -1.08071,1.08071 0,0.59439 0.48632,1.08071 1.08071,1.08071 0.59439,0 1.08071,-0.48632 1.08071,-1.08071 0,-0.59439 -0.47911,-1.08071 -1.08071,-1.08071 z m 2.16142,1.80119 10.08663,0 0,-1.44095 -10.08663,0 0,1.44095 z m 0,-4.32285 10.08663,0 0,-1.44094 -10.08663,0 0,1.44094 z m 0,-5.76378 0,1.44094 10.08663,0 0,-1.44094 -10.08663,0 z"
         inkscape:connector-curvature="0" />
      <g
         style="fill:#673ab7"
         transform="matrix(1.6377551,0,0,1.6377551,293.87418,375.25485)"
         id="g7220">
        <path
           style="fill:#673ab7"
           inkscape:connector-curvature="0"
           d="M 14.5,2 10,2 C 10,0.895 9.105,0 8,0 6.895,0 6,0.895 6,2 L 1.5,2 C 1.224,2 1,2.224 1,2.5 l 0,13 C 1,15.776 1.224,16 1.5,16 l 13,0 c 0.276,0 0.5,-0.224 0.5,-0.5 l 0,-13 C 15,2.224 14.776,2 14.5,2 Z M 8,1 C 8.552,1 9,1.448 9,2 9,2.552 8.552,3 8,3 7.448,3 7,2.552 7,2 7,1.448 7.448,1 8,1 Z M 14,15 2,15 2,3 4,3 4,4.5 C 4,4.776 4.224,5 4.5,5 l 7,0 C 11.776,5 12,4.776 12,4.5 l 0,-1.5 2,0 0,12 z"
           id="path7210" />
        <path
           style="fill:#673ab7"
           inkscape:connector-curvature="0"
           d="M 7,13.414 3.793,9.707 4.707,8.793 7,10.586 11.293,6.793 12.207,7.707 Z"
           id="path7212" />
      </g>
    </g>
  </g>
</svg>
