<?xml version="1.0" encoding="UTF-8" standalone="no"?>
<!-- Created with Inkscape (http://www.inkscape.org/) -->

<svg
   xmlns:dc="http://purl.org/dc/elements/1.1/"
   xmlns:cc="http://creativecommons.org/ns#"
   xmlns:rdf="http://www.w3.org/1999/02/22-rdf-syntax-ns#"
   xmlns:svg="http://www.w3.org/2000/svg"
   xmlns="http://www.w3.org/2000/svg"
   xmlns:sodipodi="http://sodipodi.sourceforge.net/DTD/sodipodi-0.dtd"
   xmlns:inkscape="http://www.inkscape.org/namespaces/inkscape"
   width="47.706852"
   height="47.706852"
   viewBox="0 0 47.706853 47.706852"
   id="svg4193"
   version="1.1"
   inkscape:version="0.91 r13725"
   sodipodi:docname="tasks-failure-elimination.svg">
  <defs
     id="defs4195" />
  <sodipodi:namedview
     id="base"
     pagecolor="#ffffff"
     bordercolor="#666666"
     borderopacity="1.0"
     inkscape:pageopacity="0.0"
     inkscape:pageshadow="2"
     inkscape:zoom="0.35"
     inkscape:cx="34.567711"
     inkscape:cy="-10.432292"
     inkscape:document-units="px"
     inkscape:current-layer="layer1"
     showgrid="false"
     fit-margin-top="0"
     fit-margin-left="0"
     fit-margin-right="0"
     fit-margin-bottom="0"
     units="px"
     inkscape:window-width="1307"
     inkscape:window-height="744"
     inkscape:window-x="53"
     inkscape:window-y="24"
     inkscape:window-maximized="1" />
  <metadata
     id="metadata4198">
    <rdf:RDF>
      <cc:Work
         rdf:about="">
        <dc:format>image/svg+xml</dc:format>
        <dc:type
           rdf:resource="http://purl.org/dc/dcmitype/StillImage" />
        <dc:title></dc:title>
      </cc:Work>
    </rdf:RDF>
  </metadata>
  <g
     inkscape:label="Layer 1"
     inkscape:groupmode="layer"
     id="layer1"
     transform="translate(-221.86086,-474.22306)">
    <g
       transform="translate(37.142852,163.14284)"
       id="g3418">
      <rect
         ry="1.8348789"
         y="312.9151"
         x="186.55289"
         height="44.037094"
         width="44.037094"
         id="rect3445"
         style="fill:none;stroke:#000000;stroke-width:3.66975784;stroke-linejoin:round;stroke-miterlimit:0;stroke-dasharray:none;stroke-opacity:1" />
      <rect
         style="fill:none;stroke:#673ab7;stroke-width:3.66975784;stroke-linejoin:round;stroke-miterlimit:0;stroke-dasharray:none;stroke-opacity:1"
         id="rect3447"
         width="44.037094"
         height="44.037094"
         x="186.55289"
         y="312.9151"
         ry="1.8348789" />
      <path
         style="fill:#f44336"
         id="path3449"
         d="m 214.96115,320.58316 c -0.59799,0 -1.08071,0.48272 -1.08071,1.08071 0,0.59799 0.48272,1.08071 1.08071,1.08071 0.59799,0 1.08071,-0.48272 1.08071,-1.08071 0,-0.59799 -0.48272,-1.08071 -1.08071,-1.08071 z m 0,-4.32284 c -0.59799,0 -1.08071,0.48272 -1.08071,1.08071 0,0.59799 0.48272,1.08071 1.08071,1.08071 0.59799,0 1.08071,-0.48272 1.08071,-1.08071 0,-0.59799 -0.48272,-1.08071 -1.08071,-1.08071 z m 0,8.64568 c -0.60159,0 -1.08071,0.48632 -1.08071,1.08071 0,0.59439 0.48632,1.08071 1.08071,1.08071 0.59439,0 1.08071,-0.48632 1.08071,-1.08071 0,-0.59439 -0.47911,-1.08071 -1.08071,-1.08071 z m 2.16142,1.80119 10.08663,0 0,-1.44095 -10.08663,0 0,1.44095 z m 0,-4.32285 10.08663,0 0,-1.44094 -10.08663,0 0,1.44094 z m 0,-5.76378 0,1.44094 10.08663,0 0,-1.44094 -10.08663,0 z"
         inkscape:connector-curvature="0" />
      <path
         style="fill:#673ab7"
         inkscape:connector-curvature="0"
         d="m 217.63055,329.31608 -4.4643,0 0,-2.97619 c 0,-0.81846 -0.66964,-1.4881 -1.48809,-1.4881 l -5.95238,0 c -0.81845,0 -1.48809,0.66964 -1.48809,1.4881 l 0,2.97619 -4.46428,0 c -1.63691,0 -2.9762,1.33929 -2.9762,2.97619 l 0,11.90476 c 0,1.6369 1.33929,2.97619 2.9762,2.97619 l 17.85714,0 c 1.6369,0 2.97618,-1.33929 2.97618,-2.97619 l 0,-11.90476 c 0,-1.6369 -1.33928,-2.97619 -2.97618,-2.97619 z m -11.90477,-2.97619 5.95238,0 0,2.97619 -5.95238,0 0,-2.97619 z m 8.92857,13.39286 -4.46428,0 0,4.46428 -2.9762,0 0,-4.46428 -4.46428,0 0,-2.97619 4.46428,0 0,-4.46429 2.9762,0 0,4.46429 4.46428,0 0,2.97619 z"
         id="path7199" />
    </g>
  </g>
</svg>
