<?xml version="1.0" encoding="UTF-8" standalone="no"?>
<!-- Created with Inkscape (http://www.inkscape.org/) -->

<svg
   xmlns:dc="http://purl.org/dc/elements/1.1/"
   xmlns:cc="http://creativecommons.org/ns#"
   xmlns:rdf="http://www.w3.org/1999/02/22-rdf-syntax-ns#"
   xmlns:svg="http://www.w3.org/2000/svg"
   xmlns="http://www.w3.org/2000/svg"
   xmlns:sodipodi="http://sodipodi.sourceforge.net/DTD/sodipodi-0.dtd"
   xmlns:inkscape="http://www.inkscape.org/namespaces/inkscape"
   width="47.706852"
   height="47.706852"
   viewBox="0 0 47.706853 47.706852"
   id="svg4130"
   version="1.1"
   inkscape:version="0.91 r13725"
   sodipodi:docname="tasks-automation.svg">
  <defs
     id="defs4132" />
  <sodipodi:namedview
     id="base"
     pagecolor="#ffffff"
     bordercolor="#666666"
     borderopacity="1.0"
     inkscape:pageopacity="0.0"
     inkscape:pageshadow="2"
     inkscape:zoom="0.35"
     inkscape:cx="-5.4322886"
     inkscape:cy="-10.432292"
     inkscape:document-units="px"
     inkscape:current-layer="layer1"
     showgrid="false"
     fit-margin-top="0"
     fit-margin-left="0"
     fit-margin-right="0"
     fit-margin-bottom="0"
     units="px"
     inkscape:window-width="1307"
     inkscape:window-height="744"
     inkscape:window-x="53"
     inkscape:window-y="24"
     inkscape:window-maximized="1" />
  <metadata
     id="metadata4135">
    <rdf:RDF>
      <cc:Work
         rdf:about="">
        <dc:format>image/svg+xml</dc:format>
        <dc:type
           rdf:resource="http://purl.org/dc/dcmitype/StillImage" />
        <dc:title></dc:title>
      </cc:Work>
    </rdf:RDF>
  </metadata>
  <g
     inkscape:label="Layer 1"
     inkscape:groupmode="layer"
     id="layer1"
     transform="translate(-261.86086,-474.22306)">
    <g
       transform="translate(25.142852,113.14284)"
       id="g3446">
      <rect
         ry="1.8348789"
         y="362.9151"
         x="238.55289"
         height="44.037094"
         width="44.037094"
         id="rect3712"
         style="fill:none;stroke:#000000;stroke-width:3.66975784;stroke-linejoin:round;stroke-miterlimit:0;stroke-dasharray:none;stroke-opacity:1" />
      <rect
         style="fill:none;stroke:#673ab7;stroke-width:3.66975784;stroke-linejoin:round;stroke-miterlimit:0;stroke-dasharray:none;stroke-opacity:1"
         id="rect3714"
         width="44.037094"
         height="44.037094"
         x="238.55289"
         y="362.9151"
         ry="1.8348789" />
      <path
         style="fill:#f44336"
         id="path3716"
         d="m 266.96115,370.58316 c -0.59799,0 -1.08071,0.48272 -1.08071,1.08071 0,0.59799 0.48272,1.08071 1.08071,1.08071 0.59799,0 1.08071,-0.48272 1.08071,-1.08071 0,-0.59799 -0.48272,-1.08071 -1.08071,-1.08071 z m 0,-4.32284 c -0.59799,0 -1.08071,0.48272 -1.08071,1.08071 0,0.59799 0.48272,1.08071 1.08071,1.08071 0.59799,0 1.08071,-0.48272 1.08071,-1.08071 0,-0.59799 -0.48272,-1.08071 -1.08071,-1.08071 z m 0,8.64568 c -0.60159,0 -1.08071,0.48632 -1.08071,1.08071 0,0.59439 0.48632,1.08071 1.08071,1.08071 0.59439,0 1.08071,-0.48632 1.08071,-1.08071 0,-0.59439 -0.47911,-1.08071 -1.08071,-1.08071 z m 2.16142,1.80119 10.08663,0 0,-1.44095 -10.08663,0 0,1.44095 z m 0,-4.32285 10.08663,0 0,-1.44094 -10.08663,0 0,1.44094 z m 0,-5.76378 0,1.44094 10.08663,0 0,-1.44094 -10.08663,0 z"
         inkscape:connector-curvature="0" />
      <path
         style="fill:#673ab7"
         inkscape:connector-curvature="0"
         d="m 252.43642,382.28986 1.66885,1.19203 1.30661,-1.30661 -1.19203,-1.66885 c 0.17372,-0.31048 0.31048,-0.64129 0.41028,-0.98873 l 2.02368,-0.33821 0,-1.84811 -2.02368,-0.3382 c -0.0979,-0.34744 -0.23656,-0.6801 -0.41028,-0.98874 l 1.19203,-1.66884 -1.30661,-1.30661 -1.66885,1.19203 c -0.31048,-0.17372 -0.64129,-0.31048 -0.98873,-0.41028 l -0.33821,-2.02368 -1.84811,0 -0.3382,2.02368 c -0.34744,0.0979 -0.6801,0.23656 -0.98874,0.41028 l -1.66884,-1.19203 -1.30661,1.30661 1.19203,1.66884 c -0.17372,0.31049 -0.31048,0.6413 -0.41028,0.98874 l -2.02368,0.3382 0,1.84811 2.02368,0.33821 c 0.0979,0.34744 0.23656,0.6801 0.41028,0.98873 l -1.19203,1.66885 1.30661,1.30661 1.66884,-1.19203 c 0.31049,0.17372 0.6413,0.31048 0.98874,0.41028 l 0.33636,2.02368 1.8481,0 0.33821,-2.02368 c 0.34744,-0.0979 0.6801,-0.23656 0.98874,-0.41028 z m -4.0991,-4.03442 c 0,-1.02016 0.82795,-1.84811 1.84811,-1.84811 1.02015,0 1.84811,0.82795 1.84811,1.84811 0,1.02015 -0.82796,1.84811 -1.84811,1.84811 -1.02016,0 -1.84811,-0.82796 -1.84811,-1.84811 z m 13.86081,23.10135 1.84811,0 0.35299,-1.94606 c 0.23286,-0.0351 0.46203,-0.0813 0.6875,-0.13676 l 1.0719,1.66145 1.70765,-0.70782 -0.41767,-1.93312 c 0.19959,-0.12198 0.39365,-0.25135 0.58215,-0.38995 l 1.62634,1.12549 1.30661,-1.30661 -1.1255,-1.62633 c 0.13676,-0.18851 0.26798,-0.38256 0.38995,-0.58216 l 1.93312,0.41767 0.70783,-1.70765 -1.66145,-1.0719 c 0.0554,-0.22547 0.0998,-0.45463 0.13676,-0.6875 l 1.94606,-0.35299 0,-1.8481 -1.94606,-0.35299 c -0.0351,-0.23286 -0.0813,-0.46203 -0.13676,-0.6875 l 1.66145,-1.0719 -0.70783,-1.70765 -1.93312,0.41767 c -0.12197,-0.1996 -0.25134,-0.39365 -0.38995,-0.58215 l 1.1255,-1.62634 -1.30661,-1.30661 -1.62634,1.1255 c -0.1885,-0.13676 -0.38256,-0.26798 -0.58215,-0.38996 l 0.41767,-1.93312 -1.70765,-0.70782 -1.0719,1.66145 c -0.22547,-0.0555 -0.45464,-0.0998 -0.6875,-0.13676 l -0.35299,-1.94606 -1.84811,0 -0.35299,1.94606 c -0.23286,0.0351 -0.46202,0.0813 -0.68749,0.13676 l -1.07191,-1.66145 -1.70765,0.70782 0.41768,1.93312 c -0.1996,0.12198 -0.39365,0.25135 -0.58216,0.38996 l -1.62633,-1.1255 -1.30662,1.30661 1.1255,1.62634 c -0.13676,0.1885 -0.26797,0.38255 -0.38995,0.58215 l -1.93312,-0.41767 -0.70783,1.70765 1.66145,1.0719 c -0.0554,0.22547 -0.0998,0.45464 -0.13676,0.6875 l -1.94605,0.35299 0,1.8481 1.94605,0.35299 c 0.0351,0.23287 0.0813,0.46203 0.13676,0.6875 l -1.66145,1.0719 0.70783,1.70765 1.93312,-0.41767 c 0.12198,0.1996 0.25134,0.39365 0.38995,0.58216 l -1.1255,1.62633 1.30662,1.30661 1.62633,-1.12549 c 0.18851,0.13676 0.38256,0.26797 0.58216,0.38995 l -0.41768,1.93312 1.70765,0.70782 1.07191,-1.66145 c 0.22547,0.0555 0.45463,0.0998 0.68749,0.13676 l 0.35299,1.94606 z m -3.09558,-10.16459 c 0,-2.21958 1.80006,-4.01964 4.01964,-4.01964 2.21957,0 4.01963,1.80006 4.01963,4.01964 0,2.21957 -1.80006,4.01963 -4.01963,4.01963 -2.21958,0 -4.01964,-1.80006 -4.01964,-4.01963 z"
         id="path3890" />
    </g>
  </g>
</svg>
