<?xml version="1.0" encoding="UTF-8" standalone="no"?>
<!-- Created with Inkscape (http://www.inkscape.org/) -->

<svg
   xmlns:dc="http://purl.org/dc/elements/1.1/"
   xmlns:cc="http://creativecommons.org/ns#"
   xmlns:rdf="http://www.w3.org/1999/02/22-rdf-syntax-ns#"
   xmlns:svg="http://www.w3.org/2000/svg"
   xmlns="http://www.w3.org/2000/svg"
   xmlns:sodipodi="http://sodipodi.sourceforge.net/DTD/sodipodi-0.dtd"
   xmlns:inkscape="http://www.inkscape.org/namespaces/inkscape"
   width="150.42114"
   height="151.70685"
   viewBox="0 0 150.42115 151.70685"
   id="svg4223"
   version="1.1"
   inkscape:version="0.91 r13725"
   sodipodi:docname="tasks-all.svg">
  <defs
     id="defs4225" />
  <sodipodi:namedview
     id="base"
     pagecolor="#ffffff"
     bordercolor="#666666"
     borderopacity="1.0"
     inkscape:pageopacity="0.0"
     inkscape:pageshadow="2"
     inkscape:zoom="2.8"
     inkscape:cx="53.293528"
     inkscape:cy="73.399603"
     inkscape:document-units="px"
     inkscape:current-layer="layer1"
     showgrid="false"
     fit-margin-top="0"
     fit-margin-left="0"
     fit-margin-right="0"
     fit-margin-bottom="0"
     units="px"
     inkscape:window-width="1307"
     inkscape:window-height="744"
     inkscape:window-x="53"
     inkscape:window-y="24"
     inkscape:window-maximized="1" />
  <metadata
     id="metadata4228">
    <rdf:RDF>
      <cc:Work
         rdf:about="">
        <dc:format>image/svg+xml</dc:format>
        <dc:type
           rdf:resource="http://purl.org/dc/dcmitype/StillImage" />
        <dc:title></dc:title>
      </cc:Work>
    </rdf:RDF>
  </metadata>
  <g
     inkscape:label="Layer 1"
     inkscape:groupmode="layer"
     id="layer1"
     transform="translate(-184.71801,-257.08022)">
    <g
       id="g3399">
      <rect
         style="fill:none;stroke:#000000;stroke-width:3.66975784;stroke-linejoin:round;stroke-miterlimit:0;stroke-dasharray:none;stroke-opacity:1"
         id="rect10314"
         width="44.037094"
         height="44.037094"
         x="186.55289"
         y="258.9151"
         ry="1.8348789" />
      <rect
         ry="1.8348789"
         y="258.9151"
         x="186.55289"
         height="44.037094"
         width="44.037094"
         id="rect10316"
         style="fill:none;stroke:#673ab7;stroke-width:3.66975784;stroke-linejoin:round;stroke-miterlimit:0;stroke-dasharray:none;stroke-opacity:1" />
      <path
         style="fill:#673ab7"
         inkscape:connector-curvature="0"
         d="m 194.45278,277.74763 c -1.49976,0 -2.71042,1.21066 -2.71042,2.71043 0,1.49976 1.21066,2.71042 2.71042,2.71042 1.49977,0 2.71043,-1.21066 2.71043,-2.71042 0,-1.49977 -1.21066,-2.71043 -2.71043,-2.71043 z m 0,-10.8417 c -1.49976,0 -2.71042,1.21066 -2.71042,2.71043 0,1.49977 1.21066,2.71042 2.71042,2.71042 1.49977,0 2.71043,-1.21065 2.71043,-2.71042 0,-1.49977 -1.21066,-2.71043 -2.71043,-2.71043 z m 0,21.6834 c -1.5088,0 -2.71042,1.21969 -2.71042,2.71043 0,1.49073 1.21969,2.71042 2.71042,2.71042 1.49074,0 2.71043,-1.21969 2.71043,-2.71042 0,-1.49074 -1.20162,-2.71043 -2.71043,-2.71043 z m 5.42085,4.51738 25.2973,0 0,-3.6139 -25.2973,0 0,3.6139 z m 0,-10.8417 25.2973,0 0,-3.6139 -25.2973,0 0,3.6139 z m 0,-14.4556 0,3.6139 25.2973,0 0,-3.6139 -25.2973,0 z"
         id="path3400" />
    </g>
    <g
       id="g3404">
      <rect
         ry="1.8348789"
         y="258.9151"
         x="238.55289"
         height="44.037094"
         width="44.037094"
         id="rect3416"
         style="fill:none;stroke:#000000;stroke-width:3.66975784;stroke-linejoin:round;stroke-miterlimit:0;stroke-dasharray:none;stroke-opacity:1" />
      <rect
         style="fill:none;stroke:#000000;stroke-width:3.66975784;stroke-linejoin:round;stroke-miterlimit:0;stroke-dasharray:none;stroke-opacity:1"
         id="rect3418"
         width="44.037094"
         height="44.037094"
         x="238.55289"
         y="258.9151"
         ry="1.8348789" />
      <path
         id="path3420"
         d="m 266.96115,266.58316 c -0.59799,0 -1.08071,0.48272 -1.08071,1.08071 0,0.59799 0.48272,1.08071 1.08071,1.08071 0.59799,0 1.08071,-0.48272 1.08071,-1.08071 0,-0.59799 -0.48272,-1.08071 -1.08071,-1.08071 z m 0,-4.32284 c -0.59799,0 -1.08071,0.48272 -1.08071,1.08071 0,0.59799 0.48272,1.08071 1.08071,1.08071 0.59799,0 1.08071,-0.48272 1.08071,-1.08071 0,-0.59799 -0.48272,-1.08071 -1.08071,-1.08071 z m 0,8.64568 c -0.60159,0 -1.08071,0.48632 -1.08071,1.08071 0,0.59439 0.48632,1.08071 1.08071,1.08071 0.59439,0 1.08071,-0.48632 1.08071,-1.08071 0,-0.59439 -0.47911,-1.08071 -1.08071,-1.08071 z m 2.16142,1.80119 10.08663,0 0,-1.44095 -10.08663,0 0,1.44095 z m 0,-4.32285 10.08663,0 0,-1.44094 -10.08663,0 0,1.44094 z m 0,-5.76378 0,1.44094 10.08663,0 0,-1.44094 -10.08663,0 z"
         inkscape:connector-curvature="0" />
      <rect
         style="fill:none;stroke:#000000;stroke-width:3.66975784;stroke-linejoin:round;stroke-miterlimit:0;stroke-dasharray:none;stroke-opacity:1"
         id="rect3432"
         width="44.037094"
         height="44.037094"
         x="238.55289"
         y="258.9151"
         ry="1.8348789" />
      <rect
         ry="1.8348789"
         y="258.9151"
         x="238.55289"
         height="44.037094"
         width="44.037094"
         id="rect3434"
         style="fill:none;stroke:#673ab7;stroke-width:3.66975784;stroke-linejoin:round;stroke-miterlimit:0;stroke-dasharray:none;stroke-opacity:1" />
      <path
         style="fill:#f44336"
         inkscape:connector-curvature="0"
         d="m 266.96115,266.58316 c -0.59799,0 -1.08071,0.48272 -1.08071,1.08071 0,0.59799 0.48272,1.08071 1.08071,1.08071 0.59799,0 1.08071,-0.48272 1.08071,-1.08071 0,-0.59799 -0.48272,-1.08071 -1.08071,-1.08071 z m 0,-4.32284 c -0.59799,0 -1.08071,0.48272 -1.08071,1.08071 0,0.59799 0.48272,1.08071 1.08071,1.08071 0.59799,0 1.08071,-0.48272 1.08071,-1.08071 0,-0.59799 -0.48272,-1.08071 -1.08071,-1.08071 z m 0,8.64568 c -0.60159,0 -1.08071,0.48632 -1.08071,1.08071 0,0.59439 0.48632,1.08071 1.08071,1.08071 0.59439,0 1.08071,-0.48632 1.08071,-1.08071 0,-0.59439 -0.47911,-1.08071 -1.08071,-1.08071 z m 2.16142,1.80119 10.08663,0 0,-1.44095 -10.08663,0 0,1.44095 z m 0,-4.32285 10.08663,0 0,-1.44094 -10.08663,0 0,1.44094 z m 0,-5.76378 0,1.44094 10.08663,0 0,-1.44094 -10.08663,0 z"
         id="path3436" />
    </g>
    <g
       id="g3424">
      <rect
         ry="1.8348789"
         y="312.9151"
         x="238.55289"
         height="44.037094"
         width="44.037094"
         id="rect3539"
         style="fill:none;stroke:#000000;stroke-width:3.66975784;stroke-linejoin:round;stroke-miterlimit:0;stroke-dasharray:none;stroke-opacity:1" />
      <rect
         style="fill:none;stroke:#673ab7;stroke-width:3.66975784;stroke-linejoin:round;stroke-miterlimit:0;stroke-dasharray:none;stroke-opacity:1"
         id="rect3541"
         width="44.037094"
         height="44.037094"
         x="238.55289"
         y="312.9151"
         ry="1.8348789" />
      <path
         style="fill:#673ab7"
         inkscape:connector-curvature="0"
         d="m 271.55685,335.15988 -1.71596,0 0,-4.50786 c 0,-1.2453 -1.02385,-2.25393 -2.28793,-2.25393 l -4.5759,0 0,-1.69044 c 0,-1.55522 -1.28124,-2.81742 -2.85992,-2.81742 -1.57868,0 -2.85992,1.2622 -2.85992,2.81742 l 0,1.69044 -4.57589,0 c -1.26409,0 -2.27651,1.00863 -2.27651,2.25393 l -0.005,4.28246 1.71024,0 c 1.70451,0 3.08872,1.36362 3.08872,3.0428 0,1.67919 -1.38421,3.0428 -3.08872,3.0428 l -1.71024,0 -0.005,4.28247 c 0,1.2453 1.02385,2.25393 2.28795,2.25393 l 4.34708,0 0,-1.69045 c 0,-1.67917 1.3842,-3.0428 3.08873,-3.0428 1.70452,0 3.08871,1.36363 3.08871,3.0428 l 0,1.69045 4.34709,0 c 1.26409,0 2.28795,-1.00863 2.28795,-2.25393 l 0,-4.50785 1.71595,0 c 1.57868,0 2.85993,-1.26221 2.85993,-2.81742 0,-1.5552 -1.28125,-2.8174 -2.85993,-2.8174 z"
         id="path3586" />
      <path
         style="fill:#f44336"
         id="path3543"
         d="m 266.96115,320.58316 c -0.59799,0 -1.08071,0.48272 -1.08071,1.08071 0,0.59799 0.48272,1.08071 1.08071,1.08071 0.59799,0 1.08071,-0.48272 1.08071,-1.08071 0,-0.59799 -0.48272,-1.08071 -1.08071,-1.08071 z m 0,-4.32284 c -0.59799,0 -1.08071,0.48272 -1.08071,1.08071 0,0.59799 0.48272,1.08071 1.08071,1.08071 0.59799,0 1.08071,-0.48272 1.08071,-1.08071 0,-0.59799 -0.48272,-1.08071 -1.08071,-1.08071 z m 0,8.64568 c -0.60159,0 -1.08071,0.48632 -1.08071,1.08071 0,0.59439 0.48632,1.08071 1.08071,1.08071 0.59439,0 1.08071,-0.48632 1.08071,-1.08071 0,-0.59439 -0.47911,-1.08071 -1.08071,-1.08071 z m 2.16142,1.80119 10.08663,0 0,-1.44095 -10.08663,0 0,1.44095 z m 0,-4.32285 10.08663,0 0,-1.44094 -10.08663,0 0,1.44094 z m 0,-5.76378 0,1.44094 10.08663,0 0,-1.44094 -10.08663,0 z"
         inkscape:connector-curvature="0" />
    </g>
    <g
       id="g3452">
      <rect
         ry="1.8348789"
         y="362.9151"
         x="186.55289"
         height="44.037094"
         width="44.037094"
         id="rect3606"
         style="fill:none;stroke:#000000;stroke-width:3.66975784;stroke-linejoin:round;stroke-miterlimit:0;stroke-dasharray:none;stroke-opacity:1" />
      <rect
         style="fill:none;stroke:#673ab7;stroke-width:3.66975784;stroke-linejoin:round;stroke-miterlimit:0;stroke-dasharray:none;stroke-opacity:1"
         id="rect3608"
         width="44.037094"
         height="44.037094"
         x="186.55289"
         y="362.9151"
         ry="1.8348789" />
      <path
         style="fill:#f44336"
         id="path3610"
         d="m 214.96115,370.58316 c -0.59799,0 -1.08071,0.48272 -1.08071,1.08071 0,0.59799 0.48272,1.08071 1.08071,1.08071 0.59799,0 1.08071,-0.48272 1.08071,-1.08071 0,-0.59799 -0.48272,-1.08071 -1.08071,-1.08071 z m 0,-4.32284 c -0.59799,0 -1.08071,0.48272 -1.08071,1.08071 0,0.59799 0.48272,1.08071 1.08071,1.08071 0.59799,0 1.08071,-0.48272 1.08071,-1.08071 0,-0.59799 -0.48272,-1.08071 -1.08071,-1.08071 z m 0,8.64568 c -0.60159,0 -1.08071,0.48632 -1.08071,1.08071 0,0.59439 0.48632,1.08071 1.08071,1.08071 0.59439,0 1.08071,-0.48632 1.08071,-1.08071 0,-0.59439 -0.47911,-1.08071 -1.08071,-1.08071 z m 2.16142,1.80119 10.08663,0 0,-1.44095 -10.08663,0 0,1.44095 z m 0,-4.32285 10.08663,0 0,-1.44094 -10.08663,0 0,1.44094 z m 0,-5.76378 0,1.44094 10.08663,0 0,-1.44094 -10.08663,0 z"
         inkscape:connector-curvature="0" />
      <path
         style="fill:#673ab7"
         inkscape:connector-curvature="0"
         d="m 193.82512,399.34853 10.71429,-9.38401 7.14285,6.24041 15.17858,-14.91457 -2.51786,-2.20754 -12.66072,12.4418 -7.14285,-6.2404 -13.39286,11.72416 z"
         id="path3692" />
    </g>
    <g
       id="g3446">
      <rect
         ry="1.8348789"
         y="362.9151"
         x="238.55289"
         height="44.037094"
         width="44.037094"
         id="rect3712"
         style="fill:none;stroke:#000000;stroke-width:3.66975784;stroke-linejoin:round;stroke-miterlimit:0;stroke-dasharray:none;stroke-opacity:1" />
      <rect
         style="fill:none;stroke:#673ab7;stroke-width:3.66975784;stroke-linejoin:round;stroke-miterlimit:0;stroke-dasharray:none;stroke-opacity:1"
         id="rect3714"
         width="44.037094"
         height="44.037094"
         x="238.55289"
         y="362.9151"
         ry="1.8348789" />
      <path
         style="fill:#f44336"
         id="path3716"
         d="m 266.96115,370.58316 c -0.59799,0 -1.08071,0.48272 -1.08071,1.08071 0,0.59799 0.48272,1.08071 1.08071,1.08071 0.59799,0 1.08071,-0.48272 1.08071,-1.08071 0,-0.59799 -0.48272,-1.08071 -1.08071,-1.08071 z m 0,-4.32284 c -0.59799,0 -1.08071,0.48272 -1.08071,1.08071 0,0.59799 0.48272,1.08071 1.08071,1.08071 0.59799,0 1.08071,-0.48272 1.08071,-1.08071 0,-0.59799 -0.48272,-1.08071 -1.08071,-1.08071 z m 0,8.64568 c -0.60159,0 -1.08071,0.48632 -1.08071,1.08071 0,0.59439 0.48632,1.08071 1.08071,1.08071 0.59439,0 1.08071,-0.48632 1.08071,-1.08071 0,-0.59439 -0.47911,-1.08071 -1.08071,-1.08071 z m 2.16142,1.80119 10.08663,0 0,-1.44095 -10.08663,0 0,1.44095 z m 0,-4.32285 10.08663,0 0,-1.44094 -10.08663,0 0,1.44094 z m 0,-5.76378 0,1.44094 10.08663,0 0,-1.44094 -10.08663,0 z"
         inkscape:connector-curvature="0" />
      <path
         style="fill:#673ab7"
         inkscape:connector-curvature="0"
         d="m 252.43642,382.28986 1.66885,1.19203 1.30661,-1.30661 -1.19203,-1.66885 c 0.17372,-0.31048 0.31048,-0.64129 0.41028,-0.98873 l 2.02368,-0.33821 0,-1.84811 -2.02368,-0.3382 c -0.0979,-0.34744 -0.23656,-0.6801 -0.41028,-0.98874 l 1.19203,-1.66884 -1.30661,-1.30661 -1.66885,1.19203 c -0.31048,-0.17372 -0.64129,-0.31048 -0.98873,-0.41028 l -0.33821,-2.02368 -1.84811,0 -0.3382,2.02368 c -0.34744,0.0979 -0.6801,0.23656 -0.98874,0.41028 l -1.66884,-1.19203 -1.30661,1.30661 1.19203,1.66884 c -0.17372,0.31049 -0.31048,0.6413 -0.41028,0.98874 l -2.02368,0.3382 0,1.84811 2.02368,0.33821 c 0.0979,0.34744 0.23656,0.6801 0.41028,0.98873 l -1.19203,1.66885 1.30661,1.30661 1.66884,-1.19203 c 0.31049,0.17372 0.6413,0.31048 0.98874,0.41028 l 0.33636,2.02368 1.8481,0 0.33821,-2.02368 c 0.34744,-0.0979 0.6801,-0.23656 0.98874,-0.41028 z m -4.0991,-4.03442 c 0,-1.02016 0.82795,-1.84811 1.84811,-1.84811 1.02015,0 1.84811,0.82795 1.84811,1.84811 0,1.02015 -0.82796,1.84811 -1.84811,1.84811 -1.02016,0 -1.84811,-0.82796 -1.84811,-1.84811 z m 13.86081,23.10135 1.84811,0 0.35299,-1.94606 c 0.23286,-0.0351 0.46203,-0.0813 0.6875,-0.13676 l 1.0719,1.66145 1.70765,-0.70782 -0.41767,-1.93312 c 0.19959,-0.12198 0.39365,-0.25135 0.58215,-0.38995 l 1.62634,1.12549 1.30661,-1.30661 -1.1255,-1.62633 c 0.13676,-0.18851 0.26798,-0.38256 0.38995,-0.58216 l 1.93312,0.41767 0.70783,-1.70765 -1.66145,-1.0719 c 0.0554,-0.22547 0.0998,-0.45463 0.13676,-0.6875 l 1.94606,-0.35299 0,-1.8481 -1.94606,-0.35299 c -0.0351,-0.23286 -0.0813,-0.46203 -0.13676,-0.6875 l 1.66145,-1.0719 -0.70783,-1.70765 -1.93312,0.41767 c -0.12197,-0.1996 -0.25134,-0.39365 -0.38995,-0.58215 l 1.1255,-1.62634 -1.30661,-1.30661 -1.62634,1.1255 c -0.1885,-0.13676 -0.38256,-0.26798 -0.58215,-0.38996 l 0.41767,-1.93312 -1.70765,-0.70782 -1.0719,1.66145 c -0.22547,-0.0555 -0.45464,-0.0998 -0.6875,-0.13676 l -0.35299,-1.94606 -1.84811,0 -0.35299,1.94606 c -0.23286,0.0351 -0.46202,0.0813 -0.68749,0.13676 l -1.07191,-1.66145 -1.70765,0.70782 0.41768,1.93312 c -0.1996,0.12198 -0.39365,0.25135 -0.58216,0.38996 l -1.62633,-1.1255 -1.30662,1.30661 1.1255,1.62634 c -0.13676,0.1885 -0.26797,0.38255 -0.38995,0.58215 l -1.93312,-0.41767 -0.70783,1.70765 1.66145,1.0719 c -0.0554,0.22547 -0.0998,0.45464 -0.13676,0.6875 l -1.94605,0.35299 0,1.8481 1.94605,0.35299 c 0.0351,0.23287 0.0813,0.46203 0.13676,0.6875 l -1.66145,1.0719 0.70783,1.70765 1.93312,-0.41767 c 0.12198,0.1996 0.25134,0.39365 0.38995,0.58216 l -1.1255,1.62633 1.30662,1.30661 1.62633,-1.12549 c 0.18851,0.13676 0.38256,0.26797 0.58216,0.38995 l -0.41768,1.93312 1.70765,0.70782 1.07191,-1.66145 c 0.22547,0.0555 0.45463,0.0998 0.68749,0.13676 l 0.35299,1.94606 z m -3.09558,-10.16459 c 0,-2.21958 1.80006,-4.01964 4.01964,-4.01964 2.21957,0 4.01963,1.80006 4.01963,4.01964 0,2.21957 -1.80006,4.01963 -4.01963,4.01963 -2.21958,0 -4.01964,-1.80006 -4.01964,-4.01963 z"
         id="path3890" />
    </g>
    <g
       id="g3430">
      <rect
         ry="1.8348789"
         y="312.9151"
         x="288.55289"
         height="44.037094"
         width="44.037094"
         id="rect4033"
         style="fill:none;stroke:#000000;stroke-width:3.66975784;stroke-linejoin:round;stroke-miterlimit:0;stroke-dasharray:none;stroke-opacity:1" />
      <rect
         style="fill:none;stroke:#673ab7;stroke-width:3.66975784;stroke-linejoin:round;stroke-miterlimit:0;stroke-dasharray:none;stroke-opacity:1"
         id="rect4035"
         width="44.037094"
         height="44.037094"
         x="288.55289"
         y="312.9151"
         ry="1.8348789" />
      <g
         style="fill:#673ab7"
         transform="matrix(0.68344156,0,0,0.68344156,295.27966,319.43968)"
         id="g7082">
        <circle
           style="fill:#673ab7"
           cx="18"
           cy="18"
           r="8"
           id="circle7072" />
        <path
           style="fill:#673ab7"
           inkscape:connector-curvature="0"
           d="M 18,30 C 12.66,30 2,32.68 2,38 l 0,4 32,0 0,-4 C 34,32.68 23.34,30 18,30 Z m 15.52,-19.27 -3.37,3.38 c 1.68,2.37 1.68,5.41 0,7.78 l 3.37,3.38 c 4.04,-4.06 4.04,-10.15 0,-14.54 z M 40.15,4 36.89,7.26 c 5.54,6.05 5.54,15.11 -0.01,21.47 L 40.15,32 c 7.8,-7.77 7.8,-19.91 0,-28 z"
           id="path7074" />
      </g>
      <path
         style="fill:#f44336"
         id="path4037"
         d="m 316.96115,320.58316 c -0.59799,0 -1.08071,0.48272 -1.08071,1.08071 0,0.59799 0.48272,1.08071 1.08071,1.08071 0.59799,0 1.08071,-0.48272 1.08071,-1.08071 0,-0.59799 -0.48272,-1.08071 -1.08071,-1.08071 z m 0,-4.32284 c -0.59799,0 -1.08071,0.48272 -1.08071,1.08071 0,0.59799 0.48272,1.08071 1.08071,1.08071 0.59799,0 1.08071,-0.48272 1.08071,-1.08071 0,-0.59799 -0.48272,-1.08071 -1.08071,-1.08071 z m 0,8.64568 c -0.60159,0 -1.08071,0.48632 -1.08071,1.08071 0,0.59439 0.48632,1.08071 1.08071,1.08071 0.59439,0 1.08071,-0.48632 1.08071,-1.08071 0,-0.59439 -0.47911,-1.08071 -1.08071,-1.08071 z m 2.16142,1.80119 10.08663,0 0,-1.44095 -10.08663,0 0,1.44095 z m 0,-4.32285 10.08663,0 0,-1.44094 -10.08663,0 0,1.44094 z m 0,-5.76378 0,1.44094 10.08663,0 0,-1.44094 -10.08663,0 z"
         inkscape:connector-curvature="0" />
    </g>
    <g
       id="g3418">
      <rect
         ry="1.8348789"
         y="312.9151"
         x="186.55289"
         height="44.037094"
         width="44.037094"
         id="rect3445"
         style="fill:none;stroke:#000000;stroke-width:3.66975784;stroke-linejoin:round;stroke-miterlimit:0;stroke-dasharray:none;stroke-opacity:1" />
      <rect
         style="fill:none;stroke:#673ab7;stroke-width:3.66975784;stroke-linejoin:round;stroke-miterlimit:0;stroke-dasharray:none;stroke-opacity:1"
         id="rect3447"
         width="44.037094"
         height="44.037094"
         x="186.55289"
         y="312.9151"
         ry="1.8348789" />
      <path
         style="fill:#f44336"
         id="path3449"
         d="m 214.96115,320.58316 c -0.59799,0 -1.08071,0.48272 -1.08071,1.08071 0,0.59799 0.48272,1.08071 1.08071,1.08071 0.59799,0 1.08071,-0.48272 1.08071,-1.08071 0,-0.59799 -0.48272,-1.08071 -1.08071,-1.08071 z m 0,-4.32284 c -0.59799,0 -1.08071,0.48272 -1.08071,1.08071 0,0.59799 0.48272,1.08071 1.08071,1.08071 0.59799,0 1.08071,-0.48272 1.08071,-1.08071 0,-0.59799 -0.48272,-1.08071 -1.08071,-1.08071 z m 0,8.64568 c -0.60159,0 -1.08071,0.48632 -1.08071,1.08071 0,0.59439 0.48632,1.08071 1.08071,1.08071 0.59439,0 1.08071,-0.48632 1.08071,-1.08071 0,-0.59439 -0.47911,-1.08071 -1.08071,-1.08071 z m 2.16142,1.80119 10.08663,0 0,-1.44095 -10.08663,0 0,1.44095 z m 0,-4.32285 10.08663,0 0,-1.44094 -10.08663,0 0,1.44094 z m 0,-5.76378 0,1.44094 10.08663,0 0,-1.44094 -10.08663,0 z"
         inkscape:connector-curvature="0" />
      <path
         style="fill:#673ab7"
         inkscape:connector-curvature="0"
         d="m 217.63055,329.31608 -4.4643,0 0,-2.97619 c 0,-0.81846 -0.66964,-1.4881 -1.48809,-1.4881 l -5.95238,0 c -0.81845,0 -1.48809,0.66964 -1.48809,1.4881 l 0,2.97619 -4.46428,0 c -1.63691,0 -2.9762,1.33929 -2.9762,2.97619 l 0,11.90476 c 0,1.6369 1.33929,2.97619 2.9762,2.97619 l 17.85714,0 c 1.6369,0 2.97618,-1.33929 2.97618,-2.97619 l 0,-11.90476 c 0,-1.6369 -1.33928,-2.97619 -2.97618,-2.97619 z m -11.90477,-2.97619 5.95238,0 0,2.97619 -5.95238,0 0,-2.97619 z m 8.92857,13.39286 -4.46428,0 0,4.46428 -2.9762,0 0,-4.46428 -4.46428,0 0,-2.97619 4.46428,0 0,-4.46429 2.9762,0 0,4.46429 4.46428,0 0,2.97619 z"
         id="path7199" />
    </g>
    <g
       id="g3438">
      <rect
         ry="1.8348789"
         y="362.9151"
         x="288.55289"
         height="44.037094"
         width="44.037094"
         id="rect3907"
         style="fill:none;stroke:#000000;stroke-width:3.66975784;stroke-linejoin:round;stroke-miterlimit:0;stroke-dasharray:none;stroke-opacity:1" />
      <rect
         style="fill:none;stroke:#673ab7;stroke-width:3.66975784;stroke-linejoin:round;stroke-miterlimit:0;stroke-dasharray:none;stroke-opacity:1"
         id="rect3909"
         width="44.037094"
         height="44.037094"
         x="288.55289"
         y="362.9151"
         ry="1.8348789" />
      <path
         style="fill:#f44336"
         id="path3911"
         d="m 316.96115,370.58316 c -0.59799,0 -1.08071,0.48272 -1.08071,1.08071 0,0.59799 0.48272,1.08071 1.08071,1.08071 0.59799,0 1.08071,-0.48272 1.08071,-1.08071 0,-0.59799 -0.48272,-1.08071 -1.08071,-1.08071 z m 0,-4.32284 c -0.59799,0 -1.08071,0.48272 -1.08071,1.08071 0,0.59799 0.48272,1.08071 1.08071,1.08071 0.59799,0 1.08071,-0.48272 1.08071,-1.08071 0,-0.59799 -0.48272,-1.08071 -1.08071,-1.08071 z m 0,8.64568 c -0.60159,0 -1.08071,0.48632 -1.08071,1.08071 0,0.59439 0.48632,1.08071 1.08071,1.08071 0.59439,0 1.08071,-0.48632 1.08071,-1.08071 0,-0.59439 -0.47911,-1.08071 -1.08071,-1.08071 z m 2.16142,1.80119 10.08663,0 0,-1.44095 -10.08663,0 0,1.44095 z m 0,-4.32285 10.08663,0 0,-1.44094 -10.08663,0 0,1.44094 z m 0,-5.76378 0,1.44094 10.08663,0 0,-1.44094 -10.08663,0 z"
         inkscape:connector-curvature="0" />
      <g
         style="fill:#673ab7"
         transform="matrix(1.6377551,0,0,1.6377551,293.87418,375.25485)"
         id="g7220">
        <path
           style="fill:#673ab7"
           inkscape:connector-curvature="0"
           d="M 14.5,2 10,2 C 10,0.895 9.105,0 8,0 6.895,0 6,0.895 6,2 L 1.5,2 C 1.224,2 1,2.224 1,2.5 l 0,13 C 1,15.776 1.224,16 1.5,16 l 13,0 c 0.276,0 0.5,-0.224 0.5,-0.5 l 0,-13 C 15,2.224 14.776,2 14.5,2 Z M 8,1 C 8.552,1 9,1.448 9,2 9,2.552 8.552,3 8,3 7.448,3 7,2.552 7,2 7,1.448 7.448,1 8,1 Z M 14,15 2,15 2,3 4,3 4,4.5 C 4,4.776 4.224,5 4.5,5 l 7,0 C 11.776,5 12,4.776 12,4.5 l 0,-1.5 2,0 0,12 z"
           id="path7210" />
        <path
           style="fill:#673ab7"
           inkscape:connector-curvature="0"
           d="M 7,13.414 3.793,9.707 4.707,8.793 7,10.586 11.293,6.793 12.207,7.707 Z"
           id="path7212" />
      </g>
    </g>
    <g
       id="g3412">
      <path
         style="fill:#673ab7"
         inkscape:connector-curvature="0"
         d="m 314.23585,277.99834 q 4.74868,0.97933 7.99058,4.63611 3.2419,3.65679 3.54261,8.55502 l -28.94553,0 q 0.30232,-4.89984 3.54261,-8.55502 3.24029,-3.65518 7.99057,-4.63611 -0.30232,-0.75419 -0.30232,-1.28164 0,-1.28165 0.97933,-2.22398 0.97932,-0.94234 2.26097,-0.94234 1.28164,0 2.26096,0.94234 0.97933,0.94233 0.97933,2.22398 0,0.52745 -0.30232,1.28164 z m -18.9947,14.85067 32.11186,0 0,3.16632 -32.11186,0 0,-3.16632 z"
         id="path7237" />
      <rect
         ry="1.8348789"
         y="258.9151"
         x="289.26718"
         height="44.037094"
         width="44.037094"
         id="rect7275"
         style="fill:none;stroke:#000000;stroke-width:3.66975784;stroke-linejoin:round;stroke-miterlimit:0;stroke-dasharray:none;stroke-opacity:1" />
      <rect
         style="fill:none;stroke:#673ab7;stroke-width:3.66975784;stroke-linejoin:round;stroke-miterlimit:0;stroke-dasharray:none;stroke-opacity:1"
         id="rect7277"
         width="44.037094"
         height="44.037094"
         x="289.26718"
         y="258.9151"
         ry="1.8348789" />
      <path
         style="fill:#f44336"
         id="path7279"
         d="m 317.67545,266.58316 c -0.59799,0 -1.08071,0.48272 -1.08071,1.08071 0,0.59799 0.48272,1.08071 1.08071,1.08071 0.59799,0 1.08071,-0.48272 1.08071,-1.08071 0,-0.59799 -0.48272,-1.08071 -1.08071,-1.08071 z m 0,-4.32284 c -0.59799,0 -1.08071,0.48272 -1.08071,1.08071 0,0.59799 0.48272,1.08071 1.08071,1.08071 0.59799,0 1.08071,-0.48272 1.08071,-1.08071 0,-0.59799 -0.48272,-1.08071 -1.08071,-1.08071 z m 0,8.64568 c -0.60159,0 -1.08071,0.48632 -1.08071,1.08071 0,0.59439 0.48632,1.08071 1.08071,1.08071 0.59439,0 1.08071,-0.48632 1.08071,-1.08071 0,-0.59439 -0.47911,-1.08071 -1.08071,-1.08071 z m 2.16142,1.80119 10.08663,0 0,-1.44095 -10.08663,0 0,1.44095 z m 0,-4.32285 10.08663,0 0,-1.44094 -10.08663,0 0,1.44094 z m 0,-5.76378 0,1.44094 10.08663,0 0,-1.44094 -10.08663,0 z"
         inkscape:connector-curvature="0" />
    </g>
  </g>
</svg>
