<?xml version="1.0" encoding="UTF-8" standalone="no"?>
<!-- Created with Inkscape (http://www.inkscape.org/) -->

<svg
   xmlns:dc="http://purl.org/dc/elements/1.1/"
   xmlns:cc="http://creativecommons.org/ns#"
   xmlns:rdf="http://www.w3.org/1999/02/22-rdf-syntax-ns#"
   xmlns:svg="http://www.w3.org/2000/svg"
   xmlns="http://www.w3.org/2000/svg"
   xmlns:sodipodi="http://sodipodi.sourceforge.net/DTD/sodipodi-0.dtd"
   xmlns:inkscape="http://www.inkscape.org/namespaces/inkscape"
   width="57.622646mm"
   height="13.662545mm"
   viewBox="0 0 204.17473 48.410593"
   id="svg13762"
   version="1.1"
   inkscape:version="0.91 r13725"
   sodipodi:docname="is-all.svg">
  <defs
     id="defs13764" />
  <sodipodi:namedview
     id="base"
     pagecolor="#ffffff"
     bordercolor="#666666"
     borderopacity="1.0"
     inkscape:pageopacity="0.0"
     inkscape:pageshadow="2"
     inkscape:zoom="3.959798"
     inkscape:cx="152.50022"
     inkscape:cy="-6.7912895"
     inkscape:document-units="px"
     inkscape:current-layer="layer1"
     showgrid="false"
     fit-margin-top="0"
     fit-margin-left="0"
     fit-margin-right="0"
     fit-margin-bottom="0"
     inkscape:window-width="1920"
     inkscape:window-height="1018"
     inkscape:window-x="-8"
     inkscape:window-y="-8"
     inkscape:window-maximized="1"
     inkscape:snap-text-baseline="false" />
  <metadata
     id="metadata13767">
    <rdf:RDF>
      <cc:Work
         rdf:about="">
        <dc:format>image/svg+xml</dc:format>
        <dc:type
           rdf:resource="http://purl.org/dc/dcmitype/StillImage" />
        <dc:title></dc:title>
      </cc:Work>
    </rdf:RDF>
  </metadata>
  <g
     inkscape:label="Layer 1"
     inkscape:groupmode="layer"
     id="layer1"
     transform="translate(454.54849,42.026851)">
    <text
       xml:space="preserve"
       style="font-style:normal;font-weight:normal;font-size:40px;line-height:125%;font-family:sans-serif;letter-spacing:0px;word-spacing:0px;fill:#000000;fill-opacity:1;stroke:none;stroke-width:1px;stroke-linecap:butt;stroke-linejoin:miter;stroke-opacity:1"
       x="-334.25699"
       y="5.4554667"
       id="text3352"
       sodipodi:linespacing="125%"><tspan
         sodipodi:role="line"
         id="tspan3354"
         x="-334.25699"
         y="5.4554667" /></text>
    <flowRoot
       xml:space="preserve"
       id="flowRoot3356"
       style="font-style:normal;font-weight:normal;font-size:40px;line-height:125%;font-family:sans-serif;letter-spacing:0px;word-spacing:0px;fill:#000000;fill-opacity:1;stroke:none;stroke-width:1px;stroke-linecap:butt;stroke-linejoin:miter;stroke-opacity:1"><flowRegion
         id="flowRegion3358"><rect
           id="rect3360"
           width="102.78302"
           height="84.34774"
           x="-14.647212"
           y="-16.437834" /></flowRegion><flowPara
         id="flowPara3362" /></flowRoot>    <g
       id="g4170">
      <path
         inkscape:connector-curvature="0"
         id="path3464"
         d="m -452.10106,5.665797 c -0.399,-0.120202 -0.95336,-0.425903 -1.23193,-0.679335 -1.25498,-1.141758 -1.2162,-0.400572 -1.21519,-23.228379 9.3e-4,-20.762719 0.0155,-21.411874 0.49654,-22.205085 1.03537,-1.707069 -0.24301,-1.623204 23.59641,-1.547988 l 21.56402,0.06804 0.68781,0.63807 c 1.43115,1.327657 1.38447,0.543662 1.37843,23.153708 -0.005,20.12208 -0.0233,20.91239 -0.49919,21.966391 -0.37684,0.834668 -0.75091,1.210738 -1.58119,1.589567 -1.04966,0.478935 -1.80869,0.495663 -21.77891,0.4799 -11.38024,-0.009 -21.0178,-0.114682 -21.4168,-0.234886 z m 41.72732,-23.8581 0,-20.547341 -20.37399,0.06533 -20.374,0.06533 -0.0649,20.482015 -0.0649,20.482015 20.43897,0 20.43897,0 0,-20.54734 z"
         style="fill:#008080" />
      <path
         inkscape:connector-curvature="0"
         id="path3393"
         d="m -435.02377,-3.6718324 c -8.14388,-2.609898 -13.20078,-10.3276576 -11.74085,-17.9187356 0.69227,-3.599471 2.02174,-5.969039 4.93852,-8.802268 3.46369,-3.364466 6.22135,-4.434166 11.48365,-4.45452 3.59588,-0.01405 4.035,0.08118 7.06696,1.530178 3.67871,1.758135 6.0117,4.026697 7.83695,7.620541 1.0512,2.069812 1.16923,2.736328 1.16923,6.602628 0,3.808556 -0.13003,4.568265 -1.13515,6.642318 -1.57624,3.2517901 -4.56137,6.2004925 -7.8732,7.7770139 -2.33131,1.1097746 -3.29333,1.324196 -6.39789,1.425993 -2.23246,0.0732 -4.31307,-0.091419 -5.34822,-0.4231483 z m 6.5652,-12.1456736 0,-4.914758 -1.90603,0 -1.906,0 0,4.914758 0,4.914758 1.906,0 1.90603,0 0,-4.914758 z m 0,-9.62473 0,-1.843038 -1.90603,0 -1.906,0 0,1.843038 0,1.843033 1.906,0 1.90603,0 0,-1.843033 z"
         style="fill:#008080;fill-opacity:1" />
    </g>
    <g
       transform="translate(-57.955169,-50.533202)"
       id="layer1-2"
       inkscape:label="Layer 1">
      <text
         sodipodi:linespacing="125%"
         id="text3352-6"
         y="5.4554667"
         x="-334.25699"
         style="font-style:normal;font-weight:normal;font-size:40px;line-height:125%;font-family:sans-serif;letter-spacing:0px;word-spacing:0px;fill:#000000;fill-opacity:1;stroke:none;stroke-width:1px;stroke-linecap:butt;stroke-linejoin:miter;stroke-opacity:1"
         xml:space="preserve"><tspan
           y="5.4554667"
           x="-334.25699"
           id="tspan3354-0"
           sodipodi:role="line" /></text>
      <flowRoot
         style="font-style:normal;font-weight:normal;font-size:40px;line-height:125%;font-family:sans-serif;letter-spacing:0px;word-spacing:0px;fill:#000000;fill-opacity:1;stroke:none;stroke-width:1px;stroke-linecap:butt;stroke-linejoin:miter;stroke-opacity:1"
         id="flowRoot3356-8"
         xml:space="preserve"><flowRegion
           id="flowRegion3358-2"><rect
             y="-16.437834"
             x="-14.647212"
             height="84.34774"
             width="102.78302"
             id="rect3360-2" /></flowRegion><flowPara
           id="flowPara3362-4" /></flowRoot>      <g
         id="g3594">
        <path
           style="fill:#008080"
           d="m -341.23682,56.425962 c -0.399,-0.120202 -0.95336,-0.425903 -1.23193,-0.679335 -1.25498,-1.141758 -1.2162,-0.400572 -1.21519,-23.228379 9.3e-4,-20.762719 0.0155,-21.411874 0.49654,-22.205085 1.03537,-1.7070689 -0.24301,-1.6232042 23.59641,-1.5479876 l 21.56402,0.068037 0.68781,0.6380697 c 1.43115,1.3276569 1.38447,0.5436619 1.37843,23.1537079 -0.005,20.12208 -0.0233,20.91239 -0.49919,21.966391 -0.37684,0.834668 -0.75091,1.210738 -1.58119,1.589567 -1.04966,0.478935 -1.80869,0.495663 -21.77891,0.4799 -11.38024,-0.009 -21.0178,-0.114682 -21.4168,-0.234886 z m 41.72732,-23.8581 0,-20.547341 -20.37399,0.06533 -20.374,0.06533 -0.0649,20.482015 -0.0649,20.482015 20.43897,0 20.43897,0 0,-20.54734 z"
           id="path3464-1"
           inkscape:connector-curvature="0" />
        <path
           style="fill:none"
           inkscape:connector-curvature="0"
           d="m -336.40799,23.254966 32.83884,0 0,28.293149 -32.83884,0 z"
           id="path3527" />
        <path
           style="fill:none"
           inkscape:connector-curvature="0"
           d="m -334.89276,21.739737 29.55584,0 0,29.303302 -29.55584,0 z"
           id="path3561" />
        <path
           style="clip-rule:evenodd;fill:none"
           inkscape:connector-curvature="0"
           d="m -335.39784,18.204204 31.07107,0 0,30.313454 -31.07107,0 z"
           id="path3603" />
        <path
           style="fill:none"
           inkscape:connector-curvature="0"
           d="m -334.89277,20.982124 30.31345,0 0,29.555839 -30.31345,0 0,-29.555839 z"
           id="path3643" />
        <path
           style="fill:none"
           inkscape:connector-curvature="0"
           d="m -336.40799,19.466895 33.34391,0 0,31.071067 -33.34391,0 z"
           id="path3687" />
        <path
           style="fill:#00ffff"
           d="m -305.79877,20.397349 c -2.02931,-0.65034 -3.2894,-2.573468 -2.92561,-4.465029 0.1725,-0.896924 0.50378,-1.487378 1.23059,-2.193368 0.86309,-0.838365 1.55025,-1.104915 2.86152,-1.109987 0.89603,-0.0035 1.00545,0.02023 1.76096,0.381293 0.91667,0.438096 1.49801,1.003381 1.95283,1.898903 0.26194,0.51576 0.29135,0.681844 0.29135,1.645257 0,0.949024 -0.0324,1.13833 -0.28286,1.655147 -0.39277,0.810288 -1.13661,1.545052 -1.96186,1.937893 -0.58092,0.276536 -0.82064,0.329966 -1.59424,0.355332 -0.55629,0.01824 -1.07474,-0.02278 -1.33268,-0.105441 z m 1.63593,-3.026485 0,-1.22467 -0.47495,0 -0.47494,0 0,1.22467 0,1.22467 0.47494,0 0.47495,0 0,-1.22467 z m 0,-2.398311 0,-0.459252 -0.47495,0 -0.47494,0 0,0.459252 0,0.459251 0.47494,0 0.47495,0 0,-0.459251 z"
           id="path3393-4"
           inkscape:connector-curvature="0" />
        <path
           style="fill:none"
           inkscape:connector-curvature="0"
           d="m -334.24629,20.108489 29.17857,0 0,28.285714 -29.17857,0 0,-28.285714 z"
           id="path3508" />
        <path
           style="fill:#008080"
           d="m -329.78483,42.320042 c -4.16657,-2.13624 -5.26511,-7.549861 -2.23279,-11.003191 1.1457,-1.304769 2.97029,-2.432481 3.93564,-2.432481 0.33439,0 0.90035,-0.507666 1.35637,-1.21665 0.85717,-1.332662 2.78336,-2.817428 4.38264,-3.378273 1.314,-0.460802 4.1631,-0.460802 5.4771,0 2.52287,0.88473 4.65437,3.093268 5.53819,5.738321 0.31171,0.93291 0.58324,1.212977 1.32788,1.369669 2.4645,0.518598 4.54568,3.141677 4.53173,5.711729 -0.008,1.451956 -0.83956,3.431842 -1.83852,4.376702 -1.63523,1.546701 -2.3151,1.640186 -11.92817,1.640186 l -8.978,0 -1.57207,-0.806012 z"
           id="path3577"
           inkscape:connector-curvature="0" />
      </g>
    </g>
    <g
       transform="translate(-5.4272314,-50.533201)"
       id="layer1-28"
       inkscape:label="Layer 1">
      <text
         sodipodi:linespacing="125%"
         id="text3352-1"
         y="5.4554667"
         x="-334.25699"
         style="font-style:normal;font-weight:normal;font-size:40px;line-height:125%;font-family:sans-serif;letter-spacing:0px;word-spacing:0px;fill:#000000;fill-opacity:1;stroke:none;stroke-width:1px;stroke-linecap:butt;stroke-linejoin:miter;stroke-opacity:1"
         xml:space="preserve"><tspan
           y="5.4554667"
           x="-334.25699"
           id="tspan3354-01"
           sodipodi:role="line" /></text>
      <flowRoot
         style="font-style:normal;font-weight:normal;font-size:40px;line-height:125%;font-family:sans-serif;letter-spacing:0px;word-spacing:0px;fill:#000000;fill-opacity:1;stroke:none;stroke-width:1px;stroke-linecap:butt;stroke-linejoin:miter;stroke-opacity:1"
         id="flowRoot3356-9"
         xml:space="preserve"><flowRegion
           id="flowRegion3358-1"><rect
             y="-16.437834"
             x="-14.647212"
             height="84.34774"
             width="102.78302"
             id="rect3360-4" /></flowRegion><flowPara
           id="flowPara3362-1" /></flowRoot>      <g
         id="g3707">
        <path
           style="fill:#008080"
           d="m -341.23682,56.425962 c -0.399,-0.120202 -0.95336,-0.425903 -1.23193,-0.679335 -1.25498,-1.141758 -1.2162,-0.400572 -1.21519,-23.228379 9.3e-4,-20.762719 0.0155,-21.411874 0.49654,-22.205085 1.03537,-1.7070689 -0.24301,-1.6232042 23.59641,-1.5479876 l 21.56402,0.068037 0.68781,0.6380697 c 1.43115,1.3276569 1.38447,0.5436619 1.37843,23.1537079 -0.005,20.12208 -0.0233,20.91239 -0.49919,21.966391 -0.37684,0.834668 -0.75091,1.210738 -1.58119,1.589567 -1.04966,0.478935 -1.80869,0.495663 -21.77891,0.4799 -11.38024,-0.009 -21.0178,-0.114682 -21.4168,-0.234886 z m 41.72732,-23.8581 0,-20.547341 -20.37399,0.06533 -20.374,0.06533 -0.0649,20.482015 -0.0649,20.482015 20.43897,0 20.43897,0 0,-20.54734 z"
           id="path3464-13"
           inkscape:connector-curvature="0" />
        <path
           style="fill:none"
           inkscape:connector-curvature="0"
           d="m -336.40799,23.254966 32.83884,0 0,28.293149 -32.83884,0 z"
           id="path3527-9" />
        <path
           style="fill:none"
           inkscape:connector-curvature="0"
           d="m -334.89276,21.739737 29.55584,0 0,29.303302 -29.55584,0 z"
           id="path3561-6" />
        <path
           style="clip-rule:evenodd;fill:none"
           inkscape:connector-curvature="0"
           d="m -335.39784,18.204204 31.07107,0 0,30.313454 -31.07107,0 z"
           id="path3603-2" />
        <path
           style="fill:none"
           inkscape:connector-curvature="0"
           d="m -334.89277,20.982124 30.31345,0 0,29.555839 -30.31345,0 0,-29.555839 z"
           id="path3643-4" />
        <path
           style="fill:none"
           inkscape:connector-curvature="0"
           d="m -336.40799,19.466895 33.34391,0 0,31.071067 -33.34391,0 z"
           id="path3687-7" />
        <path
           style="fill:#00ffff"
           d="m -305.79877,20.397349 c -2.02931,-0.65034 -3.2894,-2.573468 -2.92561,-4.465029 0.1725,-0.896924 0.50378,-1.487378 1.23059,-2.193368 0.86309,-0.838365 1.55025,-1.104915 2.86152,-1.109987 0.89603,-0.0035 1.00545,0.02023 1.76096,0.381293 0.91667,0.438096 1.49801,1.003381 1.95283,1.898903 0.26194,0.51576 0.29135,0.681844 0.29135,1.645257 0,0.949024 -0.0324,1.13833 -0.28286,1.655147 -0.39277,0.810288 -1.13661,1.545052 -1.96186,1.937893 -0.58092,0.276536 -0.82064,0.329966 -1.59424,0.355332 -0.55629,0.01824 -1.07474,-0.02278 -1.33268,-0.105441 z m 1.63593,-3.026485 0,-1.22467 -0.47495,0 -0.47494,0 0,1.22467 0,1.22467 0.47494,0 0.47495,0 0,-1.22467 z m 0,-2.398311 0,-0.459252 -0.47495,0 -0.47494,0 0,0.459252 0,0.459251 0.47494,0 0.47495,0 0,-0.459251 z"
           id="path3393-1"
           inkscape:connector-curvature="0" />
        <path
           style="fill:none"
           inkscape:connector-curvature="0"
           d="m -334.24629,20.108489 29.17857,0 0,28.285714 -29.17857,0 0,-28.285714 z"
           id="path3508-1" />
        <g
           id="g3673"
           transform="matrix(1.3002933,0,0,1.5732067,241.62953,-2.2560766)">
          <path
             inkscape:connector-curvature="0"
             id="path3632"
             d="m -443.23098,28.974062 c -0.45963,-0.507884 -0.43518,-0.545905 1.78663,-2.778058 l 2.25264,-2.263127 -2.33824,-2.348007 -2.33825,-2.348007 0.64648,-0.607337 0.64648,-0.607337 2.89653,2.888313 2.89653,2.888313 -2.83701,2.845089 c -1.56036,1.5648 -2.90649,2.84509 -2.99141,2.84509 -0.0849,0 -0.36408,-0.231719 -0.62038,-0.514932 z"
             style="fill:#008080" />
          <path
             inkscape:connector-curvature="0"
             id="path3632-4"
             d="m -437.42041,28.856683 c -0.45963,-0.507884 -0.43518,-0.545905 1.78663,-2.778058 l 2.25264,-2.263127 -2.33824,-2.348007 -2.33825,-2.348007 0.64648,-0.607337 0.64648,-0.607337 2.89653,2.888313 2.89653,2.888313 -2.83701,2.845089 c -1.56036,1.5648 -2.90649,2.84509 -2.99141,2.84509 -0.0849,0 -0.36408,-0.231719 -0.62038,-0.514932 z"
             style="fill:#008080" />
          <path
             inkscape:connector-curvature="0"
             id="path3632-5"
             d="m -431.7394,28.662834 c -0.45963,-0.507884 -0.43518,-0.545905 1.78663,-2.778058 l 2.25264,-2.263127 -2.33824,-2.348007 -2.33825,-2.348007 0.64648,-0.607337 0.64648,-0.607337 2.89653,2.888313 2.89653,2.888313 -2.83701,2.845089 c -1.56036,1.5648 -2.90649,2.84509 -2.99141,2.84509 -0.0849,0 -0.36408,-0.231719 -0.62038,-0.514932 z"
             style="fill:#008080" />
          <path
             inkscape:connector-curvature="0"
             id="path3632-4-4"
             d="m -425.92883,28.545455 c -0.45963,-0.507884 -0.43518,-0.545905 1.78663,-2.778058 l 2.25264,-2.263127 -2.33824,-2.348007 -2.33825,-2.348007 0.64648,-0.607337 0.64648,-0.607337 2.89653,2.888313 2.89653,2.888313 -2.83701,2.845089 c -1.56036,1.5648 -2.90649,2.84509 -2.99141,2.84509 -0.0849,0 -0.36408,-0.231719 -0.62038,-0.514932 z"
             style="fill:#008080" />
        </g>
      </g>
    </g>
    <g
       transform="translate(131.95351,-36.643604)"
       id="layer1-9"
       inkscape:label="Layer 1">
      <text
         sodipodi:linespacing="125%"
         id="text3352-3"
         y="5.4554667"
         x="-334.25699"
         style="font-style:normal;font-weight:normal;font-size:40px;line-height:125%;font-family:sans-serif;letter-spacing:0px;word-spacing:0px;fill:#000000;fill-opacity:1;stroke:none;stroke-width:1px;stroke-linecap:butt;stroke-linejoin:miter;stroke-opacity:1"
         xml:space="preserve"><tspan
           y="5.4554667"
           x="-334.25699"
           id="tspan3354-8"
           sodipodi:role="line" /></text>
      <flowRoot
         style="font-style:normal;font-weight:normal;font-size:40px;line-height:125%;font-family:sans-serif;letter-spacing:0px;word-spacing:0px;fill:#000000;fill-opacity:1;stroke:none;stroke-width:1px;stroke-linecap:butt;stroke-linejoin:miter;stroke-opacity:1"
         id="flowRoot3356-5"
         xml:space="preserve"><flowRegion
           id="flowRegion3358-0"><rect
             y="-16.437834"
             x="-14.647212"
             height="84.34774"
             width="102.78302"
             id="rect3360-6" /></flowRegion><flowPara
           id="flowPara3362-6" /></flowRoot>      <g
         id="g4166">
        <path
           style="fill:#008080"
           d="m -427.60486,42.788903 c -0.399,-0.120202 -0.95336,-0.425903 -1.23193,-0.679335 -1.25498,-1.141758 -1.2162,-0.400572 -1.21519,-23.228379 9.3e-4,-20.7627193 0.0155,-21.4118743 0.49654,-22.2050853 1.03537,-1.7070689 -0.24301,-1.6232042 23.59641,-1.5479876 l 21.56402,0.068037 0.68781,0.6380697 c 1.43115,1.3276569 1.38447,0.5436619 1.37843,23.1537082 -0.005,20.12208 -0.0233,20.91239 -0.49919,21.966391 -0.37684,0.834668 -0.75091,1.210738 -1.58119,1.589567 -1.04966,0.478935 -1.80869,0.495663 -21.77891,0.4799 -11.38024,-0.009 -21.0178,-0.114682 -21.4168,-0.234886 z m 41.72732,-23.8581 0,-20.5473413 -20.37399,0.06533 -20.374,0.06533 -0.0649,20.4820153 -0.0649,20.482015 20.43897,0 20.43897,0 0,-20.54734 z"
           id="path3464-2"
           inkscape:connector-curvature="0" />
        <path
           style="fill:#00ffff"
           d="m -394.16681,8.7602897 c -2.02931,-0.65034 -3.2894,-2.573468 -2.92561,-4.465029 0.1725,-0.896924 0.50378,-1.487378 1.23059,-2.193368 0.86309,-0.838365 1.55025,-1.104915 2.86152,-1.109987 0.89603,-0.0035 1.00545,0.02023 1.76096,0.381293 0.91667,0.438096 1.49801,1.003381 1.95283,1.898903 0.26194,0.51576 0.29135,0.681844 0.29135,1.645257 0,0.949024 -0.0324,1.13833 -0.28286,1.655147 -0.39277,0.810288 -1.13661,1.545052 -1.96186,1.937893 -0.58092,0.276536 -0.82064,0.329966 -1.59424,0.355332 -0.55629,0.01824 -1.07474,-0.02278 -1.33268,-0.105441 z m 1.63593,-3.026485 0,-1.22467 -0.47495,0 -0.47494,0 0,1.22467 0,1.22467 0.47494,0 0.47495,0 0,-1.22467 z m 0,-2.398311 0,-0.459252 -0.47495,0 -0.47494,0 0,0.459252 0,0.459251 0.47494,0 0.47495,0 0,-0.459251 z"
           id="path3393-3"
           inkscape:connector-curvature="0" />
      </g>
    </g>
  </g>
</svg>
