<?xml version="1.0" encoding="UTF-8" standalone="no"?>
<!-- Created with Inkscape (http://www.inkscape.org/) -->

<svg
   xmlns:dc="http://purl.org/dc/elements/1.1/"
   xmlns:cc="http://creativecommons.org/ns#"
   xmlns:rdf="http://www.w3.org/1999/02/22-rdf-syntax-ns#"
   xmlns:svg="http://www.w3.org/2000/svg"
   xmlns="http://www.w3.org/2000/svg"
   xmlns:sodipodi="http://sodipodi.sourceforge.net/DTD/sodipodi-0.dtd"
   xmlns:inkscape="http://www.inkscape.org/namespaces/inkscape"
   width="48"
   height="48"
   viewBox="0 0 48.000001 48"
   id="svg13762"
   version="1.1"
   inkscape:version="0.91 r13725"
   sodipodi:docname="is-flow.svg">
  <defs
     id="defs13764" />
  <sodipodi:namedview
     id="base"
     pagecolor="#ffffff"
     bordercolor="#666666"
     borderopacity="1.0"
     inkscape:pageopacity="0.0"
     inkscape:pageshadow="2"
     inkscape:zoom="3.959798"
     inkscape:cx="-42.464198"
     inkscape:cy="42.731759"
     inkscape:document-units="px"
     inkscape:current-layer="layer1"
     showgrid="false"
     fit-margin-top="0"
     fit-margin-left="0"
     fit-margin-right="0"
     fit-margin-bottom="0"
     inkscape:window-width="1920"
     inkscape:window-height="1018"
     inkscape:window-x="-8"
     inkscape:window-y="-8"
     inkscape:window-maximized="1"
     inkscape:snap-text-baseline="false"
     units="px" />
  <metadata
     id="metadata13767">
    <rdf:RDF>
      <cc:Work
         rdf:about="">
        <dc:format>image/svg+xml</dc:format>
        <dc:type
           rdf:resource="http://purl.org/dc/dcmitype/StillImage" />
        <dc:title></dc:title>
      </cc:Work>
    </rdf:RDF>
  </metadata>
  <g
     inkscape:label="Layer 1"
     inkscape:groupmode="layer"
     id="layer1"
     transform="translate(343.68425,-8.6644042)">
    <text
       xml:space="preserve"
       style="font-style:normal;font-weight:normal;font-size:40px;line-height:125%;font-family:sans-serif;letter-spacing:0px;word-spacing:0px;fill:#000000;fill-opacity:1;stroke:none;stroke-width:1px;stroke-linecap:butt;stroke-linejoin:miter;stroke-opacity:1"
       x="-334.25699"
       y="5.4554667"
       id="text3352"
       sodipodi:linespacing="125%"><tspan
         sodipodi:role="line"
         id="tspan3354"
         x="-334.25699"
         y="5.4554667" /></text>
    <flowRoot
       xml:space="preserve"
       id="flowRoot3356"
       style="font-style:normal;font-weight:normal;font-size:40px;line-height:125%;font-family:sans-serif;letter-spacing:0px;word-spacing:0px;fill:#000000;fill-opacity:1;stroke:none;stroke-width:1px;stroke-linecap:butt;stroke-linejoin:miter;stroke-opacity:1"><flowRegion
         id="flowRegion3358"><rect
           id="rect3360"
           width="102.78302"
           height="84.34774"
           x="-14.647212"
           y="-16.437834" /></flowRegion><flowPara
         id="flowPara3362" /></flowRoot>    <g
       id="g3707"
       transform="matrix(1.0057613,0,0,1.0014376,1.9800721,-0.08146103)">
      <path
         inkscape:connector-curvature="0"
         id="path3464"
         d="m -341.23682,56.425962 c -0.399,-0.120202 -0.95336,-0.425903 -1.23193,-0.679335 -1.25498,-1.141758 -1.2162,-0.400572 -1.21519,-23.228379 9.3e-4,-20.762719 0.0155,-21.411874 0.49654,-22.205085 1.03537,-1.7070689 -0.24301,-1.6232042 23.59641,-1.5479876 l 21.56402,0.068037 0.68781,0.6380697 c 1.43115,1.3276569 1.38447,0.5436619 1.37843,23.1537079 -0.005,20.12208 -0.0233,20.91239 -0.49919,21.966391 -0.37684,0.834668 -0.75091,1.210738 -1.58119,1.589567 -1.04966,0.478935 -1.80869,0.495663 -21.77891,0.4799 -11.38024,-0.009 -21.0178,-0.114682 -21.4168,-0.234886 z m 41.72732,-23.8581 0,-20.547341 -20.37399,0.06533 -20.374,0.06533 -0.0649,20.482015 -0.0649,20.482015 20.43897,0 20.43897,0 0,-20.54734 z"
         style="fill:#008080" />
      <path
         id="path3527"
         d="m -336.40799,23.254966 32.83884,0 0,28.293149 -32.83884,0 z"
         inkscape:connector-curvature="0"
         style="fill:none" />
      <path
         id="path3561"
         d="m -334.89276,21.739737 29.55584,0 0,29.303302 -29.55584,0 z"
         inkscape:connector-curvature="0"
         style="fill:none" />
      <path
         id="path3603"
         d="m -335.39784,18.204204 31.07107,0 0,30.313454 -31.07107,0 z"
         inkscape:connector-curvature="0"
         style="clip-rule:evenodd;fill:none" />
      <path
         id="path3643"
         d="m -334.89277,20.982124 30.31345,0 0,29.555839 -30.31345,0 0,-29.555839 z"
         inkscape:connector-curvature="0"
         style="fill:none" />
      <path
         id="path3687"
         d="m -336.40799,19.466895 33.34391,0 0,31.071067 -33.34391,0 z"
         inkscape:connector-curvature="0"
         style="fill:none" />
      <path
         inkscape:connector-curvature="0"
         id="path3393"
         d="m -305.79877,20.397349 c -2.02931,-0.65034 -3.2894,-2.573468 -2.92561,-4.465029 0.1725,-0.896924 0.50378,-1.487378 1.23059,-2.193368 0.86309,-0.838365 1.55025,-1.104915 2.86152,-1.109987 0.89603,-0.0035 1.00545,0.02023 1.76096,0.381293 0.91667,0.438096 1.49801,1.003381 1.95283,1.898903 0.26194,0.51576 0.29135,0.681844 0.29135,1.645257 0,0.949024 -0.0324,1.13833 -0.28286,1.655147 -0.39277,0.810288 -1.13661,1.545052 -1.96186,1.937893 -0.58092,0.276536 -0.82064,0.329966 -1.59424,0.355332 -0.55629,0.01824 -1.07474,-0.02278 -1.33268,-0.105441 z m 1.63593,-3.026485 0,-1.22467 -0.47495,0 -0.47494,0 0,1.22467 0,1.22467 0.47494,0 0.47495,0 0,-1.22467 z m 0,-2.398311 0,-0.459252 -0.47495,0 -0.47494,0 0,0.459252 0,0.459251 0.47494,0 0.47495,0 0,-0.459251 z"
         style="fill:#00ffff" />
      <path
         id="path3508"
         d="m -334.24629,20.108489 29.17857,0 0,28.285714 -29.17857,0 0,-28.285714 z"
         inkscape:connector-curvature="0"
         style="fill:none" />
      <g
         transform="matrix(1.3002933,0,0,1.5732067,241.62953,-2.2560766)"
         id="g3673">
        <path
           style="fill:#008080"
           d="m -443.23098,28.974062 c -0.45963,-0.507884 -0.43518,-0.545905 1.78663,-2.778058 l 2.25264,-2.263127 -2.33824,-2.348007 -2.33825,-2.348007 0.64648,-0.607337 0.64648,-0.607337 2.89653,2.888313 2.89653,2.888313 -2.83701,2.845089 c -1.56036,1.5648 -2.90649,2.84509 -2.99141,2.84509 -0.0849,0 -0.36408,-0.231719 -0.62038,-0.514932 z"
           id="path3632"
           inkscape:connector-curvature="0" />
        <path
           style="fill:#008080"
           d="m -437.42041,28.856683 c -0.45963,-0.507884 -0.43518,-0.545905 1.78663,-2.778058 l 2.25264,-2.263127 -2.33824,-2.348007 -2.33825,-2.348007 0.64648,-0.607337 0.64648,-0.607337 2.89653,2.888313 2.89653,2.888313 -2.83701,2.845089 c -1.56036,1.5648 -2.90649,2.84509 -2.99141,2.84509 -0.0849,0 -0.36408,-0.231719 -0.62038,-0.514932 z"
           id="path3632-4"
           inkscape:connector-curvature="0" />
        <path
           style="fill:#008080"
           d="m -431.7394,28.662834 c -0.45963,-0.507884 -0.43518,-0.545905 1.78663,-2.778058 l 2.25264,-2.263127 -2.33824,-2.348007 -2.33825,-2.348007 0.64648,-0.607337 0.64648,-0.607337 2.89653,2.888313 2.89653,2.888313 -2.83701,2.845089 c -1.56036,1.5648 -2.90649,2.84509 -2.99141,2.84509 -0.0849,0 -0.36408,-0.231719 -0.62038,-0.514932 z"
           id="path3632-5"
           inkscape:connector-curvature="0" />
        <path
           style="fill:#008080"
           d="m -425.92883,28.545455 c -0.45963,-0.507884 -0.43518,-0.545905 1.78663,-2.778058 l 2.25264,-2.263127 -2.33824,-2.348007 -2.33825,-2.348007 0.64648,-0.607337 0.64648,-0.607337 2.89653,2.888313 2.89653,2.888313 -2.83701,2.845089 c -1.56036,1.5648 -2.90649,2.84509 -2.99141,2.84509 -0.0849,0 -0.36408,-0.231719 -0.62038,-0.514932 z"
           id="path3632-4-4"
           inkscape:connector-curvature="0" />
      </g>
    </g>
  </g>
</svg>
