<?xml version="1.0" encoding="UTF-8" standalone="no"?>
<!-- Created with Inkscape (http://www.inkscape.org/) -->

<svg
   xmlns:dc="http://purl.org/dc/elements/1.1/"
   xmlns:cc="http://creativecommons.org/ns#"
   xmlns:rdf="http://www.w3.org/1999/02/22-rdf-syntax-ns#"
   xmlns:svg="http://www.w3.org/2000/svg"
   xmlns="http://www.w3.org/2000/svg"
   xmlns:sodipodi="http://sodipodi.sourceforge.net/DTD/sodipodi-0.dtd"
   xmlns:inkscape="http://www.inkscape.org/namespaces/inkscape"
   width="13.469068mm"
   height="13.52722mm"
   viewBox="0 0 47.725043 47.931093"
   id="svg13762"
   version="1.1"
   inkscape:version="0.91 r13725"
   sodipodi:docname="Шаблон ИС.svg">
  <defs
     id="defs13764" />
  <sodipodi:namedview
     id="base"
     pagecolor="#ffffff"
     bordercolor="#666666"
     borderopacity="1.0"
     inkscape:pageopacity="0.0"
     inkscape:pageshadow="2"
     inkscape:zoom="3.959798"
     inkscape:cx="43.903846"
     inkscape:cy="29.094699"
     inkscape:document-units="px"
     inkscape:current-layer="layer1"
     showgrid="false"
     fit-margin-top="0"
     fit-margin-left="0"
     fit-margin-right="0"
     fit-margin-bottom="0"
     inkscape:window-width="1920"
     inkscape:window-height="1018"
     inkscape:window-x="-8"
     inkscape:window-y="-8"
     inkscape:window-maximized="1"
     inkscape:snap-text-baseline="false" />
  <metadata
     id="metadata13767">
    <rdf:RDF>
      <cc:Work
         rdf:about="">
        <dc:format>image/svg+xml</dc:format>
        <dc:type
           rdf:resource="http://purl.org/dc/dcmitype/StillImage" />
        <dc:title></dc:title>
      </cc:Work>
    </rdf:RDF>
  </metadata>
  <g
     inkscape:label="Layer 1"
     inkscape:groupmode="layer"
     id="layer1"
     transform="translate(430.05229,4.9037491)">
    <text
       xml:space="preserve"
       style="font-style:normal;font-weight:normal;font-size:40px;line-height:125%;font-family:sans-serif;letter-spacing:0px;word-spacing:0px;fill:#000000;fill-opacity:1;stroke:none;stroke-width:1px;stroke-linecap:butt;stroke-linejoin:miter;stroke-opacity:1"
       x="-334.25699"
       y="5.4554667"
       id="text3352"
       sodipodi:linespacing="125%"><tspan
         sodipodi:role="line"
         id="tspan3354"
         x="-334.25699"
         y="5.4554667" /></text>
    <flowRoot
       xml:space="preserve"
       id="flowRoot3356"
       style="font-style:normal;font-weight:normal;font-size:40px;line-height:125%;font-family:sans-serif;letter-spacing:0px;word-spacing:0px;fill:#000000;fill-opacity:1;stroke:none;stroke-width:1px;stroke-linecap:butt;stroke-linejoin:miter;stroke-opacity:1"><flowRegion
         id="flowRegion3358"><rect
           id="rect3360"
           width="102.78302"
           height="84.34774"
           x="-14.647212"
           y="-16.437834" /></flowRegion><flowPara
         id="flowPara3362" /></flowRoot>    <g
       id="g4166">
      <path
         inkscape:connector-curvature="0"
         id="path3464"
         d="m -427.60486,42.788903 c -0.399,-0.120202 -0.95336,-0.425903 -1.23193,-0.679335 -1.25498,-1.141758 -1.2162,-0.400572 -1.21519,-23.228379 9.3e-4,-20.7627193 0.0155,-21.4118743 0.49654,-22.2050853 1.03537,-1.7070689 -0.24301,-1.6232042 23.59641,-1.5479876 l 21.56402,0.068037 0.68781,0.6380697 c 1.43115,1.3276569 1.38447,0.5436619 1.37843,23.1537082 -0.005,20.12208 -0.0233,20.91239 -0.49919,21.966391 -0.37684,0.834668 -0.75091,1.210738 -1.58119,1.589567 -1.04966,0.478935 -1.80869,0.495663 -21.77891,0.4799 -11.38024,-0.009 -21.0178,-0.114682 -21.4168,-0.234886 z m 41.72732,-23.8581 0,-20.5473413 -20.37399,0.06533 -20.374,0.06533 -0.0649,20.4820153 -0.0649,20.482015 20.43897,0 20.43897,0 0,-20.54734 z"
         style="fill:#008080" />
      <path
         inkscape:connector-curvature="0"
         id="path3393"
         d="m -394.16681,8.7602897 c -2.02931,-0.65034 -3.2894,-2.573468 -2.92561,-4.465029 0.1725,-0.896924 0.50378,-1.487378 1.23059,-2.193368 0.86309,-0.838365 1.55025,-1.104915 2.86152,-1.109987 0.89603,-0.0035 1.00545,0.02023 1.76096,0.381293 0.91667,0.438096 1.49801,1.003381 1.95283,1.898903 0.26194,0.51576 0.29135,0.681844 0.29135,1.645257 0,0.949024 -0.0324,1.13833 -0.28286,1.655147 -0.39277,0.810288 -1.13661,1.545052 -1.96186,1.937893 -0.58092,0.276536 -0.82064,0.329966 -1.59424,0.355332 -0.55629,0.01824 -1.07474,-0.02278 -1.33268,-0.105441 z m 1.63593,-3.026485 0,-1.22467 -0.47495,0 -0.47494,0 0,1.22467 0,1.22467 0.47494,0 0.47495,0 0,-1.22467 z m 0,-2.398311 0,-0.459252 -0.47495,0 -0.47494,0 0,0.459252 0,0.459251 0.47494,0 0.47495,0 0,-0.459251 z"
         style="fill:#00ffff" />
    </g>
  </g>
</svg>
