<?xml version="1.0" encoding="UTF-8" standalone="no"?>
<!-- Created with Inkscape (http://www.inkscape.org/) -->

<svg
   xmlns:dc="http://purl.org/dc/elements/1.1/"
   xmlns:cc="http://creativecommons.org/ns#"
   xmlns:rdf="http://www.w3.org/1999/02/22-rdf-syntax-ns#"
   xmlns:svg="http://www.w3.org/2000/svg"
   xmlns="http://www.w3.org/2000/svg"
   xmlns:sodipodi="http://sodipodi.sourceforge.net/DTD/sodipodi-0.dtd"
   xmlns:inkscape="http://www.inkscape.org/namespaces/inkscape"
   width="48"
   height="48"
   viewBox="0 0 47.999999 47.999997"
   id="svg13762"
   version="1.1"
   inkscape:version="0.91 r13725"
   sodipodi:docname="is.svg">
  <defs
     id="defs13764" />
  <sodipodi:namedview
     id="base"
     pagecolor="#ffffff"
     bordercolor="#666666"
     borderopacity="1.0"
     inkscape:pageopacity="0.0"
     inkscape:pageshadow="2"
     inkscape:zoom="3.959798"
     inkscape:cx="29.887977"
     inkscape:cy="-8.0284036"
     inkscape:document-units="px"
     inkscape:current-layer="layer1"
     showgrid="false"
     fit-margin-top="0"
     fit-margin-left="0"
     fit-margin-right="0"
     fit-margin-bottom="0"
     inkscape:window-width="1920"
     inkscape:window-height="1018"
     inkscape:window-x="-8"
     inkscape:window-y="-8"
     inkscape:window-maximized="1"
     inkscape:snap-text-baseline="false"
     units="px" />
  <metadata
     id="metadata13767">
    <rdf:RDF>
      <cc:Work
         rdf:about="">
        <dc:format>image/svg+xml</dc:format>
        <dc:type
           rdf:resource="http://purl.org/dc/dcmitype/StillImage" />
        <dc:title></dc:title>
      </cc:Work>
    </rdf:RDF>
  </metadata>
  <g
     inkscape:label="Layer 1"
     inkscape:groupmode="layer"
     id="layer1"
     transform="translate(454.54849,42.095754)">
    <text
       xml:space="preserve"
       style="font-style:normal;font-weight:normal;font-size:40px;line-height:125%;font-family:sans-serif;letter-spacing:0px;word-spacing:0px;fill:#000000;fill-opacity:1;stroke:none;stroke-width:1px;stroke-linecap:butt;stroke-linejoin:miter;stroke-opacity:1"
       x="-334.25699"
       y="5.4554667"
       id="text3352"
       sodipodi:linespacing="125%"><tspan
         sodipodi:role="line"
         id="tspan3354"
         x="-334.25699"
         y="5.4554667" /></text>
    <flowRoot
       xml:space="preserve"
       id="flowRoot3356"
       style="font-style:normal;font-weight:normal;font-size:40px;line-height:125%;font-family:sans-serif;letter-spacing:0px;word-spacing:0px;fill:#000000;fill-opacity:1;stroke:none;stroke-width:1px;stroke-linecap:butt;stroke-linejoin:miter;stroke-opacity:1"><flowRegion
         id="flowRegion3358"><rect
           id="rect3360"
           width="102.78302"
           height="84.34774"
           x="-14.647212"
           y="-16.437834" /></flowRegion><flowPara
         id="flowPara3362" /></flowRoot>    <g
       id="g4170"
       transform="matrix(1.0057613,0,0,1.0014375,2.6187955,-0.00848765)">
      <path
         inkscape:connector-curvature="0"
         id="path3464"
         d="m -452.10106,5.665797 c -0.399,-0.120202 -0.95336,-0.425903 -1.23193,-0.679335 -1.25498,-1.141758 -1.2162,-0.400572 -1.21519,-23.228379 9.3e-4,-20.762719 0.0155,-21.411874 0.49654,-22.205085 1.03537,-1.707069 -0.24301,-1.623204 23.59641,-1.547988 l 21.56402,0.06804 0.68781,0.63807 c 1.43115,1.327657 1.38447,0.543662 1.37843,23.153708 -0.005,20.12208 -0.0233,20.91239 -0.49919,21.966391 -0.37684,0.834668 -0.75091,1.210738 -1.58119,1.589567 -1.04966,0.478935 -1.80869,0.495663 -21.77891,0.4799 -11.38024,-0.009 -21.0178,-0.114682 -21.4168,-0.234886 z m 41.72732,-23.8581 0,-20.547341 -20.37399,0.06533 -20.374,0.06533 -0.0649,20.482015 -0.0649,20.482015 20.43897,0 20.43897,0 0,-20.54734 z"
         style="fill:#008080" />
      <path
         inkscape:connector-curvature="0"
         id="path3393"
         d="m -435.02377,-3.6718324 c -8.14388,-2.609898 -13.20078,-10.3276576 -11.74085,-17.9187356 0.69227,-3.599471 2.02174,-5.969039 4.93852,-8.802268 3.46369,-3.364466 6.22135,-4.434166 11.48365,-4.45452 3.59588,-0.01405 4.035,0.08118 7.06696,1.530178 3.67871,1.758135 6.0117,4.026697 7.83695,7.620541 1.0512,2.069812 1.16923,2.736328 1.16923,6.602628 0,3.808556 -0.13003,4.568265 -1.13515,6.642318 -1.57624,3.2517901 -4.56137,6.2004925 -7.8732,7.7770139 -2.33131,1.1097746 -3.29333,1.324196 -6.39789,1.425993 -2.23246,0.0732 -4.31307,-0.091419 -5.34822,-0.4231483 z m 6.5652,-12.1456736 0,-4.914758 -1.90603,0 -1.906,0 0,4.914758 0,4.914758 1.906,0 1.90603,0 0,-4.914758 z m 0,-9.62473 0,-1.843038 -1.90603,0 -1.906,0 0,1.843038 0,1.843033 1.906,0 1.90603,0 0,-1.843033 z"
         style="fill:#008080;fill-opacity:1" />
    </g>
  </g>
</svg>
