<?xml version="1.0" encoding="UTF-8" standalone="no"?>
<!-- Created with Inkscape (http://www.inkscape.org/) -->

<svg
   xmlns:dc="http://purl.org/dc/elements/1.1/"
   xmlns:cc="http://creativecommons.org/ns#"
   xmlns:rdf="http://www.w3.org/1999/02/22-rdf-syntax-ns#"
   xmlns:svg="http://www.w3.org/2000/svg"
   xmlns="http://www.w3.org/2000/svg"
   xmlns:sodipodi="http://sodipodi.sourceforge.net/DTD/sodipodi-0.dtd"
   xmlns:inkscape="http://www.inkscape.org/namespaces/inkscape"
   width="48"
   height="48"
   viewBox="0 0 47.999999 47.999999"
   id="svg5483"
   version="1.1"
   inkscape:version="0.91 r13725"
   sodipodi:docname="site-work-area.svg">
  <defs
     id="defs5485" />
  <sodipodi:namedview
     id="base"
     pagecolor="#ffffff"
     bordercolor="#666666"
     borderopacity="1.0"
     inkscape:pageopacity="0.0"
     inkscape:pageshadow="2"
     inkscape:zoom="0.35"
     inkscape:cx="-775.17963"
     inkscape:cy="206.96323"
     inkscape:document-units="px"
     inkscape:current-layer="layer1"
     showgrid="false"
     fit-margin-top="0"
     fit-margin-left="0"
     fit-margin-right="0"
     fit-margin-bottom="0"
     units="px"
     inkscape:window-width="1920"
     inkscape:window-height="1018"
     inkscape:window-x="-8"
     inkscape:window-y="-8"
     inkscape:window-maximized="1" />
  <metadata
     id="metadata5488">
    <rdf:RDF>
      <cc:Work
         rdf:about="">
        <dc:format>image/svg+xml</dc:format>
        <dc:type
           rdf:resource="http://purl.org/dc/dcmitype/StillImage" />
        <dc:title></dc:title>
      </cc:Work>
    </rdf:RDF>
  </metadata>
  <g
     inkscape:label="Layer 1"
     inkscape:groupmode="layer"
     id="layer1"
     transform="translate(-570.17963,-691.32543)">
    <g
       transform="matrix(0.9955993,0,0,0.9955993,1829.5013,946.49761)"
       id="g5448">
      <path
         style="color:#000000;clip-rule:nonzero;display:inline;overflow:visible;visibility:visible;opacity:1;isolation:auto;mix-blend-mode:normal;color-interpolation:sRGB;color-interpolation-filters:linearRGB;solid-color:#000000;solid-opacity:1;fill:#be1a03;fill-opacity:1;fill-rule:evenodd;color-rendering:auto;image-rendering:auto;shape-rendering:auto;text-rendering:auto;enable-background:accumulate"
         d="m -1254.1326,-246.90145 c -0.6157,0.40914 -0.2012,1.258 -0.3213,1.8787 0,2.56652 0,5.13302 0,7.69953 0.3132,0.67876 0.995,0.55718 1.6234,0.55127 1.398,0.0465 2.846,-0.0514 4.2143,0.14096 -0.056,0.30258 -0.1995,0.58769 -0.2958,0.84096 -0.321,0.40148 -0.4379,0.97051 -0.7361,1.36116 -1.8306,0.28622 -3.7132,0.0966 -5.5641,0.16004 -0.7538,0.002 -1.5074,0.003 -2.2612,0.005 -0.4449,0.48399 -0.4905,1.55038 0.1698,1.83593 0.8643,-0.20142 0.6389,0.59431 0.6504,1.1918 0.036,4.13295 -0.085,8.2735 0.1,12.40161 0.088,0.1498 0.027,0.38437 0.3131,0.39868 0.5972,0.20961 1.7136,0.0543 1.4809,-0.80803 0.034,-4.34381 -0.098,-8.69367 0.082,-13.03369 0.365,-0.19573 0.9928,-0.0178 1.4411,-0.0871 8.1474,-0.0404 16.2953,-0.0811 24.4425,-0.0236 0,4.49341 0,8.98684 0,13.48025 0.417,0.78325 1.797,0.76603 2.0947,-0.0644 0,-4.47194 0,-8.94388 0,-13.41582 0.3956,0.007 0.9555,0.0468 0.9884,-0.49443 0.028,-0.39677 0.1378,-0.99245 -0.1591,-1.29386 -0.9893,-0.15786 -2.0042,-0.0578 -3.0034,-0.097 -0.1546,-0.92427 -1.0549,-1.28969 -1.7828,-1.64304 0.4702,-1.25939 1.2637,-2.34828 1.7324,-3.61912 -0.025,-0.8379 -0.9274,-1.31159 -1.36,-1.9491 -0.2875,-0.44384 -0.8268,-0.75834 -1.02,-1.23594 0.01,-0.40203 0.3557,-0.71652 0.1759,-1.15679 -0.053,-0.84103 -0.924,-1.17538 -1.6531,-1.0709 -0.2109,-0.063 -0.3966,0.0864 -0.4764,0.17164 -0.7103,0.38248 -1.1197,1.34909 -2.0258,1.35686 -0.2409,0.19621 -0.6437,0.15455 -0.8327,0.35451 0.062,0.63621 0.7761,1.01893 1.136,1.50423 0.5883,0.53122 1.1356,1.24962 1.7822,1.64419 0.6718,-0.43459 0.2273,-1.62734 1.0192,-1.89649 0.6859,0.35396 1.071,1.14353 1.6363,1.66758 0.3869,0.38017 0.4859,0.99419 0.072,1.38939 -0.3752,0.85341 -0.8206,1.692 -1.2952,2.50652 -0.1885,0.10377 0.2134,0.1099 -0.07,0.22418 -0.6267,0.27958 -1.3859,0.36681 -1.8947,0.86367 -0.3528,0.48941 -0.405,1.14345 -1.1799,0.88861 -3.1583,0 -6.3163,0 -9.4746,0 -0.3313,-0.39324 -0.4436,-0.83007 -0.7008,-1.25519 -0.055,-0.25052 -0.3136,-0.50409 -0.3361,-0.75564 -0.349,-0.4002 0.3947,-0.51705 0.6669,-0.46752 1.5285,-0.0399 3.0579,-0.007 4.5869,-0.0104 0.5743,-0.43881 0.4979,-1.10349 0.4714,-1.75082 -0.014,-2.70488 -0.029,-5.40975 -0.043,-8.11462 -0.3839,-0.66102 -1.0569,-0.62418 -1.7328,-0.58075 -4.1135,0 -8.2268,0 -12.3404,0 -0.107,0.10255 -0.214,0.20511 -0.321,0.30766 z m 8.081,1.51171 c 1.45,0.0418 2.9366,-0.0547 4.363,0.152 0.1962,2.13462 0.1613,4.30252 0.023,6.44248 -0.1746,0.32955 -0.7717,0.0984 -1.0885,0.19433 -3.1693,0.0185 -6.347,0.1092 -9.5119,-0.0504 -0.5885,-0.15664 -0.2699,-1.01303 -0.3753,-1.44993 0.044,-1.66397 -0.094,-3.35127 0.1211,-5.00115 0.3498,-0.37858 1.0384,-0.11647 1.5048,-0.23116 1.6539,-0.05 3.3089,-0.0575 4.9635,-0.0561 z"
         id="path5442"
         inkscape:connector-curvature="0" />
      <g
         id="g5313"
         transform="translate(-110.04061,111.47462)">
        <rect
           rx="1.8348789"
           ry="1.8348789"
           y="-365.9397"
           x="-1153.0125"
           height="44.542168"
           width="44.542168"
           id="rect5315"
           style="fill:none;fill-opacity:1;stroke:#be1b05;stroke-width:3.66999984;stroke-linejoin:round;stroke-miterlimit:0;stroke-dasharray:none;stroke-opacity:1" />
        <g
           transform="matrix(1.499881,0,0,1.499881,-662.53971,-382.35224)"
           id="g5317">
          <path
             inkscape:connector-curvature="0"
             id="path5319"
             d="m -304.49053,22.063746 c -0.43195,-0.02205 -0.5969,-0.0364 -0.87861,-0.07643 -0.77393,-0.109969 -1.41027,-0.326232 -1.85295,-0.629733 -0.0968,-0.06633 -0.26255,-0.217027 -0.32275,-0.293338 -0.2086,-0.264453 -0.26565,-0.541411 -0.16828,-0.81696 0.14576,-0.412501 0.66441,-0.719118 1.51465,-0.895426 0.21835,-0.04528 0.55119,-0.09422 0.73126,-0.107522 l 0.0654,-0.0048 0.0688,0.06517 c 0.0639,0.06051 0.0674,0.06544 0.049,0.0689 -0.0109,0.0021 -0.0896,0.0128 -0.17504,0.02387 -0.26334,0.03415 -0.55082,0.09355 -0.76243,0.157547 -0.71713,0.216874 -1.03181,0.543058 -0.86471,0.896322 0.0919,0.194401 0.3594,0.396558 0.71791,0.542644 0.56087,0.228549 1.33393,0.355883 2.15971,0.355736 1.19089,-2.13e-4 2.24702,-0.261929 2.70099,-0.669322 0.55252,-0.495828 0.0798,-1.006549 -1.14401,-1.236071 -0.0787,-0.01475 -0.21291,-0.03586 -0.29832,-0.04691 -0.0854,-0.01105 -0.16418,-0.02176 -0.17504,-0.02382 -0.0183,-0.0035 -0.0148,-0.0084 0.0488,-0.06822 0.0811,-0.07618 0.0583,-0.07261 0.28858,-0.04522 1.05893,0.125913 1.7558,0.414587 2.01956,0.836591 0.0728,0.116541 0.10911,0.232479 0.11594,0.370615 0.0269,0.543234 -0.50652,1.024333 -1.46015,1.316955 -0.46819,0.143668 -0.96315,0.228062 -1.5774,0.268956 -0.11908,0.0079 -0.70171,0.01556 -0.80097,0.01049 z m 0.16708,-1.583032 c -0.57754,-0.850586 -1.12578,-1.73688 -1.51614,-2.45103 -0.40602,-0.742791 -0.65733,-1.337189 -0.72298,-1.71003 -0.0452,-0.256906 -0.004,-0.690812 0.0974,-1.019329 0.22922,-0.744074 0.80453,-1.270934 1.6003,-1.46552 0.23029,-0.05631 0.40176,-0.07606 0.66035,-0.07606 0.25859,0 0.43006,0.01975 0.66035,0.07606 1.06368,0.260097 1.7087,1.101546 1.71312,2.23482 6.8e-4,0.191859 -0.005,0.236731 -0.0606,0.440149 -0.16241,0.598611 -0.66853,1.584088 -1.46934,2.861004 -0.29614,0.472185 -0.82754,1.27614 -0.84352,1.27614 -0.003,0 -0.0569,-0.07479 -0.11898,-0.166204 z m 0.2701,-3.693944 c 0.31608,-0.05047 0.58095,-0.291982 0.65564,-0.597819 0.021,-0.086 0.0185,-0.250629 -0.005,-0.336599 -0.0393,-0.142964 -0.10303,-0.251134 -0.20902,-0.354858 -0.2222,-0.217442 -0.55068,-0.292603 -0.85768,-0.196247 -0.31125,0.09769 -0.53094,0.364681 -0.55679,0.676679 -0.0203,0.244964 0.10001,0.498786 0.31018,0.654409 0.18684,0.138342 0.42138,0.19299 0.66284,0.154435 z"
             style="fill:#be0000;fill-opacity:1" />
          <path
             style="color:#000000;clip-rule:nonzero;display:inline;overflow:visible;visibility:visible;opacity:0.60799997;isolation:auto;mix-blend-mode:normal;color-interpolation:sRGB;color-interpolation-filters:linearRGB;solid-color:#000000;solid-opacity:1;fill:#0e04e5;fill-opacity:1;fill-rule:evenodd;color-rendering:auto;image-rendering:auto;shape-rendering:auto;text-rendering:auto;enable-background:accumulate"
             d="m 39.562855,5.3437604 c -1.649003,-0.010343 -2.779157,1.9537826 -1.832798,3.3618163 0.506989,1.142435 1.228319,2.1703543 1.873954,3.2355613 1.036828,-1.368777 2.139508,-2.9541886 2.244001,-4.7094731 C 41.741253,6.1095582 40.663214,5.2866711 39.562855,5.3437604 Z m 0.08301,1.3643973 c 0.825182,0.016954 1.366356,1.299991 0.339007,1.5523856 C 38.766828,8.723246 38.313713,6.7455979 39.645863,6.7081577 Z"
             id="path5321"
             inkscape:connector-curvature="0"
             transform="translate(-343.85343,8.5087792)" />
          <path
             style="color:#000000;clip-rule:nonzero;display:inline;overflow:visible;visibility:visible;opacity:0;isolation:auto;mix-blend-mode:normal;color-interpolation:sRGB;color-interpolation-filters:linearRGB;solid-color:#000000;solid-opacity:1;fill:#be1a03;fill-opacity:1;fill-rule:evenodd;stroke:#be0000;stroke-width:3.67000008;stroke-linecap:butt;stroke-linejoin:miter;stroke-miterlimit:0;stroke-dasharray:none;stroke-dashoffset:0;stroke-opacity:1;color-rendering:auto;image-rendering:auto;shape-rendering:auto;text-rendering:auto;enable-background:accumulate"
             d="m 40.879056,10.772315 c -0.208731,0.0059 0.0471,0.150976 0.132272,0.116315 0.537973,0.09815 1.174668,0.201491 1.522391,0.668771 0.187559,0.435733 -0.284747,0.75639 -0.629272,0.902884 -1.050201,0.446801 -2.228248,0.409678 -3.343768,0.322789 -0.620186,-0.122009 -1.33281,-0.247894 -1.760254,-0.757795 -0.261319,-0.40001 0.207427,-0.787587 0.560216,-0.897653 0.360076,-0.173775 0.783244,-0.178959 1.144671,-0.3159 -0.196139,-0.09686 -0.479713,0.01488 -0.6996,0.0297 -0.619053,0.125957 -1.388379,0.305157 -1.654788,0.952273 -0.168591,0.597821 0.427206,1.03438 0.901489,1.257673 1.120681,0.548151 2.399023,0.477166 3.609358,0.418091 0.826404,-0.09805 1.728261,-0.315704 2.313494,-0.948922 0.382394,-0.389095 0.164722,-1.020201 -0.273089,-1.260027 -0.543278,-0.323135 -1.200014,-0.449813 -1.82312,-0.488194 z"
             id="path5323"
             inkscape:connector-curvature="0"
             transform="translate(-343.85343,8.5087792)" />
          <path
             style="color:#000000;clip-rule:nonzero;display:inline;overflow:visible;visibility:visible;opacity:1;isolation:auto;mix-blend-mode:normal;color-interpolation:sRGB;color-interpolation-filters:linearRGB;solid-color:#000000;solid-opacity:1;fill:#085bdf;fill-opacity:1;fill-rule:evenodd;color-rendering:auto;image-rendering:auto;shape-rendering:auto;text-rendering:auto;enable-background:accumulate"
             d="m 39.552762,5.3598042 c -1.361741,-0.011802 -2.491114,1.4975774 -2.047293,2.794015 0.526588,1.2785655 1.279592,2.4503858 2.021658,3.6119728 0.12545,0.232393 0.244541,-0.107204 0.334874,-0.191545 0.871813,-1.224412 1.761321,-2.5486705 1.936332,-4.0788227 0.123104,-1.2261837 -1.089734,-2.186602 -2.245571,-2.1356201 z m 0.107073,1.3384138 c 0.604044,0.014697 1.166498,0.8211232 0.741665,1.337193 -0.392207,0.3751438 -1.14593,0.448414 -1.443482,-0.085449 -0.29885,-0.4254433 -0.09278,-1.078512 0.424107,-1.2085833 0.08926,-0.029656 0.183511,-0.045897 0.27771,-0.04316 z"
             id="path5325"
             inkscape:connector-curvature="0"
             transform="translate(-343.85343,8.5087792)" />
          <path
             style="color:#000000;clip-rule:nonzero;display:inline;overflow:visible;visibility:visible;opacity:1;isolation:auto;mix-blend-mode:normal;color-interpolation:sRGB;color-interpolation-filters:linearRGB;solid-color:#000000;solid-opacity:1;fill:#0859e0;fill-opacity:1;fill-rule:evenodd;color-rendering:auto;image-rendering:auto;shape-rendering:auto;text-rendering:auto;enable-background:accumulate"
             d="m 40.879056,10.772315 c -0.208731,0.0059 0.0471,0.150976 0.132272,0.116315 0.537973,0.09815 1.174668,0.201491 1.522391,0.668771 0.187559,0.435733 -0.284747,0.75639 -0.629272,0.902884 -1.050201,0.446801 -2.228248,0.409678 -3.343768,0.322789 -0.620186,-0.122009 -1.33281,-0.247894 -1.760254,-0.757795 -0.261319,-0.40001 0.207427,-0.787587 0.560216,-0.897653 0.360076,-0.173775 0.783244,-0.178959 1.144671,-0.3159 -0.196139,-0.09686 -0.479713,0.01488 -0.6996,0.0297 -0.619053,0.125957 -1.388379,0.305157 -1.654788,0.952273 -0.168591,0.597821 0.427206,1.03438 0.901489,1.257673 1.120681,0.548151 2.399023,0.477166 3.609358,0.418091 0.826404,-0.09805 1.728261,-0.315704 2.313494,-0.948922 0.382394,-0.389095 0.164722,-1.020201 -0.273089,-1.260027 -0.543278,-0.323135 -1.200014,-0.449813 -1.82312,-0.488194 z"
             id="path5327"
             inkscape:connector-curvature="0"
             transform="translate(-343.85343,8.5087792)" />
          <path
             style="color:#000000;clip-rule:nonzero;display:inline;overflow:visible;visibility:visible;opacity:1;isolation:auto;mix-blend-mode:normal;color-interpolation:sRGB;color-interpolation-filters:linearRGB;solid-color:#000000;solid-opacity:1;fill:#0858e0;fill-opacity:1;fill-rule:evenodd;color-rendering:auto;image-rendering:auto;shape-rendering:auto;text-rendering:auto;enable-background:accumulate"
             d="m 39.611661,5.2564059 c -0.753823,0.00484 -1.539322,0.3366001 -1.954026,0.9880801 -0.294166,0.4529135 -0.416266,1.0127628 -0.360187,1.547875 0.112362,0.5592613 0.385824,1.0691361 0.643543,1.5725341 0.508519,0.9443449 1.081474,1.8537439 1.69114,2.7355039 0.05003,0.04467 0.0669,-0.06684 0.09901,-0.08788 0.710833,-1.065069 1.409446,-2.1459971 1.953102,-3.3080091 0.165464,-0.3832377 0.353372,-0.7818259 0.3272,-1.2102423 -10e-4,-0.7458684 -0.378228,-1.4982762 -1.028426,-1.8830322 -0.410501,-0.24654 -0.89456,-0.3599156 -1.371354,-0.3548245 z m 0.05444,0.082248 c 0.980672,-0.011288 1.94372,0.7032914 2.152061,1.6733427 0.0788,0.3875095 -0.03362,0.7810037 -0.117021,1.1582166 -0.312318,1.2436081 -1.036748,2.3282038 -1.779124,3.3539968 -0.103753,0.136319 -0.202886,0.286172 -0.311652,0.412896 -0.184998,-0.24584 -0.329387,-0.52165 -0.499895,-0.77828 C 38.615716,10.37025 38.119712,9.5786564 37.73187,8.7304406 37.516537,8.3828976 37.374523,7.9826201 37.3821,7.5697254 37.38267,6.577278 38.107182,5.6219701 39.080956,5.395361 39.272078,5.346691 39.469468,5.333107 39.666103,5.338653 Z"
             id="path5329"
             inkscape:connector-curvature="0"
             transform="translate(-343.85343,8.5087792)" />
        </g>
      </g>
      <path
         style="color:#000000;clip-rule:nonzero;display:inline;overflow:visible;visibility:visible;opacity:1;isolation:auto;mix-blend-mode:normal;color-interpolation:sRGB;color-interpolation-filters:linearRGB;solid-color:#000000;solid-opacity:1;fill:#be1a03;fill-opacity:1;fill-rule:evenodd;color-rendering:auto;image-rendering:auto;shape-rendering:auto;text-rendering:auto;enable-background:accumulate"
         d="m -1235.3343,-230.90274 c -1.2427,0.0518 -2.5462,-0.0663 -3.7539,0.14994 -0.1942,1.55793 -0.1982,3.16529 -0.023,4.7254 0.975,0.23684 2.0697,0.094 3.0883,0.15176 2.0345,0.0104 4.0689,0.007 6.1034,0.0121 0.2209,-1.51178 0.1244,-3.07002 0.082,-4.59693 0.033,-0.5955 -0.7468,-0.29491 -1.099,-0.397 -1.4653,-0.0459 -2.9317,-0.0485 -4.3977,-0.0453 z m 1.2322,0.74277 c 0.5262,-0.0703 1.5451,0.15395 1.3263,0.87 -0.4916,0.88511 -1.6534,0.52869 -2.476,0.5562 -0.7052,0.16402 -1.2405,-0.81168 -0.6247,-1.24639 0.543,-0.2459 1.1918,-0.15378 1.7744,-0.17981 z"
         id="path5444"
         inkscape:connector-curvature="0" />
      <path
         style="color:#000000;clip-rule:nonzero;display:inline;overflow:visible;visibility:visible;opacity:1;isolation:auto;mix-blend-mode:normal;color-interpolation:sRGB;color-interpolation-filters:linearRGB;solid-color:#000000;solid-opacity:1;fill:#be1a03;fill-opacity:1;fill-rule:evenodd;color-rendering:auto;image-rendering:auto;shape-rendering:auto;text-rendering:auto;enable-background:accumulate"
         d="m -1235.6026,-224.49832 c -1.1406,0.0553 -2.3285,-0.0862 -3.4416,0.1479 -0.3002,0.99365 -0.091,2.09984 -0.1657,3.13533 0.1268,0.56456 -0.3039,1.43776 0.2839,1.74697 1.1516,0.31898 2.3968,0.1114 3.5836,0.18206 1.7408,-0.0566 3.5118,0.13198 5.2331,-0.15711 0.5413,-0.26654 0.1876,-1.05212 0.313,-1.52641 -0.037,-1.14106 0.1279,-2.32605 -0.1034,-3.44119 -1.8696,-0.15938 -3.8128,-0.0567 -5.7029,-0.0876 z m 0.9771,0.82909 c 0.6032,0.12015 1.6332,-0.24791 1.8833,0.52737 0.047,0.81953 -0.9636,0.8759 -1.5614,0.82011 -0.5875,-0.0765 -1.6225,0.21393 -1.8362,-0.54376 -0.2284,-0.61127 0.4646,-0.86722 0.9526,-0.79935 0.1872,-0.008 0.3745,-0.007 0.5617,-0.005 z"
         id="path5446"
         inkscape:connector-curvature="0" />
    </g>
  </g>
</svg>
