<?xml version="1.0" encoding="UTF-8" standalone="no"?>
<!-- Created with Inkscape (http://www.inkscape.org/) -->

<svg
   xmlns:dc="http://purl.org/dc/elements/1.1/"
   xmlns:cc="http://creativecommons.org/ns#"
   xmlns:rdf="http://www.w3.org/1999/02/22-rdf-syntax-ns#"
   xmlns:svg="http://www.w3.org/2000/svg"
   xmlns="http://www.w3.org/2000/svg"
   xmlns:sodipodi="http://sodipodi.sourceforge.net/DTD/sodipodi-0.dtd"
   xmlns:inkscape="http://www.inkscape.org/namespaces/inkscape"
   width="48.21217"
   height="48.21217"
   viewBox="0 0 48.212169 48.212169"
   id="svg4482"
   version="1.1"
   inkscape:version="0.91 r13725"
   sodipodi:docname="site-regions.svg">
  <defs
     id="defs4484" />
  <sodipodi:namedview
     id="base"
     pagecolor="#ffffff"
     bordercolor="#666666"
     borderopacity="1.0"
     inkscape:pageopacity="0.0"
     inkscape:pageshadow="2"
     inkscape:zoom="0.35"
     inkscape:cx="-99.465353"
     inkscape:cy="6.9632256"
     inkscape:document-units="px"
     inkscape:current-layer="layer1"
     showgrid="false"
     inkscape:window-width="1920"
     inkscape:window-height="1018"
     inkscape:window-x="-8"
     inkscape:window-y="-8"
     inkscape:window-maximized="1"
     fit-margin-top="0"
     fit-margin-left="0"
     fit-margin-right="0"
     fit-margin-bottom="0"
     units="px" />
  <metadata
     id="metadata4487">
    <rdf:RDF>
      <cc:Work
         rdf:about="">
        <dc:format>image/svg+xml</dc:format>
        <dc:type
           rdf:resource="http://purl.org/dc/dcmitype/StillImage" />
        <dc:title></dc:title>
      </cc:Work>
    </rdf:RDF>
  </metadata>
  <g
     inkscape:label="Layer 1"
     inkscape:groupmode="layer"
     id="layer1"
     transform="translate(-330.17964,-491.11326)">
    <g
       transform="translate(1489.0677,691.41334)"
       id="g4032">
      <g
         transform="matrix(0.87846827,0,0,0.87846827,-856.80209,-201.17934)"
         id="g4153">
        <path
           style="color:#000000;clip-rule:nonzero;display:inline;overflow:visible;visibility:visible;opacity:1;isolation:auto;mix-blend-mode:normal;color-interpolation:sRGB;color-interpolation-filters:linearRGB;solid-color:#000000;solid-opacity:1;fill:#be1a03;fill-opacity:1;fill-rule:evenodd;color-rendering:auto;image-rendering:auto;shape-rendering:auto;text-rendering:auto;enable-background:accumulate"
           d="m 25.215806,24.173449 c -0.120778,0.155866 -0.334072,0.16795 -0.480608,0.246059 0.03948,0.274467 -0.524474,0.04931 -0.603202,0.345633 -0.253757,-0.06621 -0.319391,0.237603 -0.599888,0.226005 -0.165807,0.12272 -0.296592,0.338221 -0.571638,0.297502 -0.02758,0.239904 -0.321955,0.04206 -0.392369,0.276054 -0.302196,0.05123 -0.554568,0.21694 -0.802525,0.378418 -0.119745,-0.03811 -0.114009,0.214548 -0.292272,0.09103 -0.154725,0.04592 -0.201824,0.259555 -0.401262,0.19043 -0.341368,0.185299 -0.691241,0.416512 -1.062709,0.506243 0.161388,0.293876 -0.32219,-0.04401 -0.312151,0.279018 -0.09884,0.03586 -0.169903,-0.259353 -0.187988,-0.0096 -0.16089,0.263592 -0.609473,0.201046 -0.756139,0.39045 -0.04136,0.176881 -0.455874,0.04357 -0.537109,0.283378 -0.128837,0.12591 -0.323052,0.0057 -0.386266,0.228794 -0.282489,-0.02865 -0.480278,0.181514 -0.691964,0.347552 -0.06925,-0.265639 -0.241268,0.24414 -0.436663,0.09975 -0.137944,0.292229 -0.496816,0.135295 -0.695103,0.393764 -0.334351,0.09883 -0.674964,0.360528 -1.048933,0.490374 -0.206972,0.03466 -0.60221,0.560011 -0.162528,0.460205 0.157007,-0.03174 0.0464,0.404085 0.213275,0.09068 0.193249,0.108503 0.366803,0.43256 0.660051,0.46474 0.172941,-0.01578 0.2579,0.260466 0.334996,0.259835 0.18993,-0.334382 0.371693,0.330306 0.241176,0.484096 -0.0023,0.221368 -0.278964,0.32032 -0.348772,0.411377 -0.158969,0.316925 -0.674712,0.38642 -0.937326,0.650635 -0.249265,-0.01243 -0.463883,0.278359 -0.668073,0.242048 0.157429,-0.309208 -0.3063,0.0301 -0.437361,-0.0024 -0.77726,0.193144 -1.526681,-0.179828 -2.294573,-0.215542 -0.08519,-0.197705 -0.482646,-0.08365 -0.614013,-0.320871 -0.294436,0.01695 -0.534147,-0.264515 -0.799038,-0.319301 -0.04886,-0.260394 -0.4098029,0.01852 -0.3770227,-0.296282 -0.2525133,0.04473 -0.3230613,-0.269373 -0.5749512,-0.283028 -0.05406,-0.288994 -0.6105974,-0.06629 -0.251988,0.120849 -0.019895,0.197996 0.055563,0.325442 0.20595,0.450091 0.028714,0.247395 0.1940134,0.391844 0.255127,0.639125 0.2694847,0.243596 0.4153723,0.512864 0.5594308,0.831299 0.1184861,0.136136 0.2686961,0.172713 0.3050011,0.341623 0.198548,-0.02788 0.135533,0.281825 0.347377,0.254254 0.0018,0.26049 0.399871,0.260984 0.510603,0.499965 0.179902,0.0364 0.177461,0.112126 0.313198,0.240131 0.276923,0.14641 0.573727,0.205807 0.770263,0.467877 0.282224,0.07878 0.475707,0.229546 0.774275,0.2628 0.13902,0.278237 0.448711,0.114549 0.677141,0.273438 1.168799,0.264963 2.41129,0.184214 3.556432,-0.121024 0.313454,0.04479 0.551995,-0.293934 0.894949,-0.226702 0.273775,-0.238024 0.749848,-0.07691 1.023298,-0.380511 0.291027,0.02782 0.474668,-0.283824 0.790493,-0.26001 0.159785,-0.184512 0.405395,-0.132119 0.49857,-0.363072 0.466121,-0.111924 0.786935,0.464239 1.220703,0.581579 0.257213,0.183781 0.556502,0.432496 0.827986,0.511474 0.08947,0.259122 0.443378,0.03183 0.331856,-0.201765 0.128013,-0.383871 0.389128,-0.71944 0.331683,-1.158796 0.008,-0.391402 0.255143,-0.760257 0.274483,-1.120257 -0.0029,-0.254464 0.226199,-0.569779 0.171946,-0.78247 0.28703,0.05869 0.112607,-0.517531 0.166015,-0.686559 0.05371,-0.43314 0.27713,-0.792937 0.41905,-1.188267 0.08259,-0.465163 0.211299,-0.920207 0.268904,-1.391253 0.08561,-0.284223 0.134656,-0.595517 0.288259,-0.879778 0.09543,-0.39753 0.101189,-0.811829 0.280065,-1.17327 -0.05476,-0.336159 0.216241,-0.588171 0.188685,-0.938546 0.170007,-0.362715 0.460217,-1.030729 0.04831,-1.290981 l -0.02511,0.0017 z M 14.021087,35.198316 c 0.361076,0.07608 -0.421414,0.07608 -0.06034,0 l 0.03017,-0.0012 0.03017,0.0012 z m 2.410714,0 c 0.361076,0.07608 -0.421414,0.07608 -0.06034,0 l 0.03017,-0.0012 0.03017,0.0012 z"
           id="path4145-0"
           inkscape:connector-curvature="0"
           transform="translate(-343.85343,8.5087792)" />
        <path
           style="color:#000000;clip-rule:nonzero;display:inline;overflow:visible;visibility:visible;opacity:1;isolation:auto;mix-blend-mode:normal;color-interpolation:sRGB;color-interpolation-filters:linearRGB;solid-color:#000000;solid-opacity:1;fill:#be1a03;fill-opacity:1;fill-rule:evenodd;color-rendering:auto;image-rendering:auto;shape-rendering:auto;text-rendering:auto;enable-background:accumulate"
           d="m 39.912026,18.592394 c -0.416689,0.178586 -0.654065,0.654031 -0.920934,0.948312 -0.173592,-0.0076 -0.05547,0.228811 -0.264195,0.198103 -0.335807,0.241575 -0.62371,0.520573 -0.665981,0.916748 0.182294,0.257333 0.24621,0.579541 0.202812,0.910296 0.03788,0.314198 0.277227,0.55815 0.188162,0.911342 -0.0025,0.412324 -0.09492,1.021309 -0.650286,0.833391 -1.450543,-0.05102 -2.926126,0.10961 -4.361572,-0.108468 -0.353669,-0.08811 -0.120127,-0.689815 -0.576695,-0.567627 -0.395129,0.03812 -1.061286,-0.06065 -1.044048,0.526512 -0.348271,0.253411 -1.060119,0.042 -1.544981,0.120783 -1.008794,0.0105 -2.017587,0.02117 -3.026379,0.03177 -0.18085,0.362134 -0.44516,0.731157 -0.399868,1.157749 1.663004,0 3.326009,0 4.989013,0 0.184102,0.684681 0.04186,1.37741 -0.09295,2.043981 0.08955,0.41045 -0.219649,0.724956 -0.08719,1.130022 -0.313937,-0.02482 -0.134629,0.520116 -0.193744,0.727539 -0.226717,0.300643 -0.102335,0.683641 -0.365687,0.957032 0.202301,0.23692 -0.267209,0.486546 -0.235422,0.777936 0.01422,0.264318 -0.09028,0.505361 -0.226528,0.686209 0.04391,0.213766 -0.144704,0.394596 -0.156598,0.609305 -0.316205,0.297174 -0.223398,1.01249 -0.791887,0.996617 -0.242102,-0.04443 -0.510601,-0.375433 -0.696324,-0.08388 -0.458592,-0.296204 -1.055041,-0.13851 -1.556572,-0.33674 -0.83371,0.0435 -1.647065,-0.233002 -2.473667,-0.199847 -0.02669,0.191108 -0.04384,0.431647 -0.204206,0.603725 0.144318,0.146754 -0.07677,0.505339 0.232456,0.487932 0.750572,9e-6 -0.05525,0.03612 -0.0044,0.144392 0.827372,0.09552 1.684112,-0.0828 2.476807,0.210136 0.550135,-0.06209 1.027908,0.286326 1.56965,0.209787 0.444291,0.07833 0.277345,0.571522 0.02581,0.762067 -0.222825,0.20536 -0.06693,0.556408 -0.36621,0.658831 -0.291823,0.349143 -0.405063,0.79042 -0.764335,1.09654 -0.0191,0.174551 -0.09058,0.213102 -0.243443,0.263672 0.04964,0.169541 -0.251981,0.208254 -0.173689,0.39045 -0.283634,0.161664 -0.416764,0.552362 -0.716553,0.739572 -0.1987,0.114577 -0.08255,0.360288 -0.315988,0.347901 0.03694,0.240823 -0.341793,0.100627 -0.327845,0.306745 -0.489812,-0.0094 -1.030882,0.319841 -1.495188,0.125558 -0.323343,-0.796232 -0.116829,-1.71858 -0.188697,-2.564854 -0.03603,-0.490473 0.05248,-1.06326 -0.06887,-1.512295 -0.146283,0.254845 -0.0045,0.581648 -0.226004,0.822755 -0.09663,0.51465 -0.340181,0.97659 -0.32401,1.51716 -0.143402,0.29379 -0.168154,0.628324 -0.355399,0.910818 -0.07791,0.8733 -0.07681,0.589695 -0.173025,-0.102542 -0.05278,-0.07884 0.02191,0.64932 -0.09257,0.887454 -0.347421,0.218358 -0.789596,-0.1083 -1.156878,-0.07359 -0.229223,0.125366 0.04344,-0.231691 -0.229492,-0.147531 -0.240732,0.06124 -0.103043,-0.380514 -0.389753,-0.291922 -0.04933,-0.157482 -0.166582,-0.318111 -0.299944,-0.417306 -0.01644,-0.18853 -0.319665,-0.416312 -0.410331,-0.604422 -0.308493,0.0417 -0.265797,-0.529206 -0.554025,-0.60948 -0.06719,-0.418852 -0.533295,-0.245786 -0.737479,-0.07272 0.01036,-0.354977 -0.188759,0.171135 -0.380859,0.07725 -0.355046,0.02074 -0.08268,0.376369 0.01256,0.520368 -0.04574,0.231355 0.297454,-0.05152 0.142473,0.212403 -0.01663,0.170959 0.333001,0.124443 0.21467,0.382777 0.01697,0.369583 -0.549668,0.180553 -0.716902,0.03906 -0.129866,-0.117773 -0.289937,-0.07198 -0.427595,-0.175432 -0.215997,0.07445 -0.271288,-0.263886 -0.506068,-0.176828 -0.112674,-0.199075 -0.351383,-0.236396 -0.48863,-0.382255 -0.479203,0.439283 -1.206358,0.151814 -1.781006,0.373012 -0.611715,0.200468 -1.255675,-0.310802 -1.83524,-0.06505 -0.193387,0.282155 0.295416,0.209742 0.379464,0.448695 0.175556,0.168142 0.400552,0.103877 0.431955,0.35505 0.220052,-0.02637 0.347872,0.277404 0.56379,0.277972 0.07686,0.265767 0.384555,0.07251 0.519322,0.31529 0.14375,0.08022 0.420714,0.03887 0.151018,0.203857 0.157977,0.158816 0.419324,-0.004 0.515312,0.247978 0.1768,-0.03657 0.271372,0.0098 0.284075,0.201241 0.146114,-0.02981 0.214555,0.0274 0.324358,0.07551 0.29285,-0.171431 0.0028,0.195691 0.25565,0.157994 0.343232,-0.01419 0.632245,0.297368 0.898437,0.377372 0.04398,-0.227836 0.296572,0.211819 0.478691,0.08126 0.224923,0.239393 0.573842,0.101555 0.794154,0.3479 0.469717,-0.0013 0.88273,0.348861 1.38079,0.298549 0.560905,0.185965 1.193149,0.132111 1.733398,0.339355 1.141629,-0.126918 2.331395,-0.05568 3.465053,-0.0047 0.603542,-0.268815 1.312128,-0.177861 1.945975,-0.371269 0.420508,0.05881 0.720198,-0.294962 1.112235,-0.274135 0.206796,-0.235784 0.550516,-0.06966 0.753,-0.329589 0.198845,-0.01489 0.356743,-0.08604 0.477295,-0.198452 0.192351,0.09904 0.200352,-0.173629 0.402657,-0.07429 0.175341,-0.170089 0.459977,-0.17549 0.638427,-0.284598 -0.02658,-0.207953 0.415156,-0.08158 0.504151,-0.27309 0.146704,-0.07737 0.221401,0.0096 0.303083,-0.185372 0.22411,-0.09561 0.448648,-0.201956 0.652031,-0.322091 0.14494,8.04e-4 0.168015,-0.248933 0.350864,-0.196882 0.48575,-0.405899 1.041621,-0.711279 1.530413,-1.103341 0.01206,-0.2357 0.331731,-0.16114 0.408587,-0.403006 0.370998,-0.117042 0.690918,-0.562794 0.891985,-0.818046 0.471939,-0.222295 0.743005,-0.808041 1.081718,-1.146066 -0.08113,-0.193282 0.328481,-0.195237 0.361502,-0.411203 0.120198,-0.18116 0.126312,-0.342262 0.340402,-0.405796 0.247721,-0.164547 0.120654,-0.588494 0.451137,-0.595005 -0.06082,-0.257772 0.324884,-0.419341 0.26681,-0.669469 0.181417,-0.05801 0.132418,-0.346663 0.352086,-0.40475 -9.37e-4,-0.234391 0.278976,-0.394075 0.246582,-0.663714 0.08427,-0.150681 0.263359,-0.17778 0.227225,-0.368826 0.254785,-0.234258 0.15086,-0.639388 0.416434,-0.843681 -0.05865,-0.216081 0.130521,-0.337097 0.106202,-0.550014 0.269449,-0.315044 0.277286,-0.752702 0.394636,-1.104388 0.139734,-0.229406 0.01835,-0.625222 0.298723,-0.768345 -0.156339,-0.396966 0.236495,-0.856399 0.190953,-1.287144 0.157729,-1.863647 0.253391,-3.773771 -0.09208,-5.619943 -0.151223,-0.330823 -0.112723,-0.734676 -0.305524,-1.013358 0.116356,-0.390646 -0.260565,-0.629646 -0.179916,-1.030471 0.0044,-0.0435 -0.01565,-0.104857 -0.07138,-0.08822 z m 0.544259,2.340088 c 0.129068,0.138859 -0.0724,0.34545 -0.02738,0.05877 0.0052,-0.01108 10e-4,-0.06788 0.02738,-0.05877 z M 35.817264,24.4713 c 0.848973,0.05369 1.753006,-0.106204 2.571324,0.119106 0.235662,0.689212 -0.184563,1.33 -0.190778,2.016776 -0.168719,0.210846 -0.130192,0.450549 -0.14073,0.713763 -0.196026,0.08531 0.06528,0.65163 -0.177177,0.306221 -0.172234,0.163158 0.08077,0.638839 -0.220947,0.815605 -0.07592,0.195036 -0.136181,0.412754 -0.26001,0.637032 0.01818,0.232073 -0.133978,0.300738 -0.188162,0.462124 0.06512,0.301639 -0.187131,0.398247 -0.245187,0.646798 -0.232727,0.05796 -0.162659,0.434763 -0.329067,0.469622 -0.135778,0.09458 -0.06237,0.410082 -0.284772,0.499965 -0.146738,0.148354 -0.248124,0.489016 -0.246757,0.618199 -0.222566,-0.137827 -0.132024,0.303071 -0.362898,0.31128 0.05526,0.165514 -0.180504,0.140203 -0.08371,0.307791 -0.160612,0.01675 -0.304995,0.270965 -0.390276,0.375453 0.0035,0.208605 -0.518949,0.377533 -0.419573,0.595181 -0.05929,0.267033 -0.537976,0.211873 -0.444859,0.47154 -0.214645,-0.05285 -0.381587,-0.281099 -0.642439,-0.196882 -0.078,-0.226225 -0.408081,-0.08229 -0.561698,-0.294365 -0.289623,-0.167188 -0.671214,-0.111645 -0.905238,-0.342843 -0.296935,0.05359 -0.539388,-0.221742 -0.832345,-0.253906 -0.240573,-0.202224 0.14028,-0.408247 0.05162,-0.62936 0.289035,-0.235996 0.299084,-0.637047 0.464914,-0.942557 -0.143815,-0.192067 0.254995,-0.35648 0.156598,-0.453752 -0.195799,-0.08058 0.151362,-0.362546 0.0994,-0.539725 0.263075,-0.242073 0.160865,-0.586989 0.340402,-0.881174 0.06809,-0.512468 0.128517,-1.02966 0.409459,-1.466762 0.06362,-0.632271 -0.0024,-1.274282 0.216239,-1.885812 0.01605,-0.493448 -0.03443,-0.991876 0.08702,-1.479318 0.843215,0 1.68643,0 2.529645,0 z m 4.643904,1.916156 c 0.11371,0.138643 -0.06222,0.444942 -0.02668,0.09487 0.0082,-0.02401 -0.0057,-0.08519 0.02668,-0.09487 z m -7.594169,1.33074 c 0.129069,0.13886 -0.0724,0.34545 -0.02738,0.05877 0.0052,-0.01108 10e-4,-0.06788 0.02738,-0.05877 z m -1.78275,6.130545 c 0.251079,-0.03925 0.460758,0.425307 0.629883,0.137068 0.161174,0.125504 0.407429,0.161408 0.564313,0.16061 -0.08745,0.347697 0.591877,-0.0298 0.635464,0.353306 0.195829,0.04715 0.400776,0.166181 0.197579,0.385568 -0.191653,0.389457 -0.705014,0.468856 -0.944475,0.75701 -0.05785,0.131056 -0.338285,0.0586 -0.387835,0.256348 -0.273943,0.161954 -0.605275,0.313746 -0.812116,0.518799 -0.2097,-0.09785 -0.247459,0.233924 -0.449219,0.155029 -0.07924,0.276579 -0.409756,0.08492 -0.484619,0.359933 -0.1918,0.170932 -0.03314,-0.308109 -0.222517,-0.07586 0.02429,0.337529 -0.408144,0.04907 -0.487409,0.347203 -0.187059,-0.05159 -0.297031,0.08223 -0.457066,0.117013 -0.357175,-0.322838 0.320806,-0.668595 0.342669,-1.023298 0.226769,-0.05827 0.175418,-0.357742 0.308663,-0.446951 0.158181,0.0229 0.101905,-0.320002 0.312674,-0.333078 -0.02227,-0.153221 0.12751,-0.248228 0.103411,-0.396728 0.297386,0.03389 0.141037,-0.266199 0.332031,-0.416086 0.254198,-0.291906 0.330746,-0.875795 0.818569,-0.855888 z m -2.79262,5.992956 c 0.215167,0.111463 -0.396329,0.05639 -0.04639,-0.0019 l 0.02389,-3.57e-4 0.02249,0.0023 z"
           id="path4147-2"
           inkscape:connector-curvature="0"
           transform="translate(-343.85343,8.5087792)" />
        <path
           style="color:#000000;clip-rule:nonzero;display:inline;overflow:visible;visibility:visible;opacity:1;isolation:auto;mix-blend-mode:normal;color-interpolation:sRGB;color-interpolation-filters:linearRGB;solid-color:#000000;solid-opacity:1;fill:#be1a03;fill-opacity:1;fill-rule:evenodd;color-rendering:auto;image-rendering:auto;shape-rendering:auto;text-rendering:auto;enable-background:accumulate"
           d="m 25.632589,7.0658178 c 0.04523,0.2846545 -0.526707,0.098367 -0.700853,0.15845 -0.563664,-0.0069 -1.383142,-0.00906 -0.362729,-0.070389 0.55239,-0.023558 0.503488,-0.083728 -0.03174,-0.06574 -0.370054,0.026001 -0.891876,-0.064302 -1.192976,0.056501 0.357525,0.136235 -0.768258,0.045574 -0.51409,0.075597 -0.471658,-0.058373 -0.949833,0.177262 -1.398403,0.1376772 -0.106959,-0.224896 -0.377166,0.2039364 -0.569022,0.091378 -0.458784,0.012394 -0.858514,0.2096843 -1.29569,0.2845982 -0.07711,0.1866693 -0.23785,0.1322813 -0.175606,-0.04133 -0.197079,0.080987 -0.339259,0.3623109 -0.631104,0.3184291 -0.171867,0.090164 -0.654738,0.054612 -0.698417,0.1726423 0.106895,0.1717037 -0.4484,0.2577126 -0.576346,0.317034 -0.302716,-0.00975 -0.418403,0.3393253 -0.730154,0.2535575 -0.07765,0.086069 -0.0014,0.2048923 -0.203334,0.1116071 -0.135107,0.1691457 -0.378883,0.2495064 -0.59675,0.2893066 -0.114616,0.295155 -0.497574,0.2064384 -0.660226,0.4724122 -0.330868,0.1251709 -0.683029,0.457866 -0.950405,0.569719 -0.181786,0.193689 -0.477481,0.274764 -0.601981,0.551932 -0.143921,-0.04413 -0.0936,0.168871 -0.264369,0.132708 -0.285196,0.266153 -0.581362,0.530999 -0.86234,0.778809 -0.225145,0.329289 -0.607385,0.510539 -0.813511,0.859724 -0.197634,0.03534 -0.186166,0.364075 -0.442941,0.398297 -0.200811,0.254397 -0.397559,0.539749 -0.557164,0.817697 -0.299569,-0.03747 -0.0687,0.309386 -0.314244,0.361851 -0.174715,0.301068 -0.468023,0.586043 -0.5547219,0.91483 0.09253,0.14228 -0.2423871,-0.05802 -0.1579939,0.187814 0.09057,0.202911 -0.2154462,0.113715 -0.1271275,0.291225 -0.3387926,0.304737 -0.3379732,0.814751 -0.6518554,1.120954 -0.1142069,0.06143 0.021306,0.314534 -0.1728167,0.39952 -0.1348307,0.231117 -0.1093434,0.583487 -0.3489467,0.709227 0.3531483,0.20153 -0.2977522,0.449986 -0.1974052,0.75021 0.011886,0.178388 -3.75e-4,0.353247 -0.1677595,0.356969 -0.042569,0.272925 0.048667,0.591846 -0.2125767,0.762068 0.070263,0.330984 -0.1561486,0.651962 -0.1691546,0.947265 0.2143195,0.0346 -0.1841088,0.30664 -0.073068,0.449394 -0.038618,0.821453 -0.2471387,1.621154 -0.1881626,2.453612 -0.017434,0.890342 0.00239,1.783951 0.1719447,2.651368 -0.039622,0.298789 0.061179,0.622734 0.13637,0.874198 -0.2925676,0.152423 0.2556096,0.479977 0.1477051,0.738002 0.4815075,0.789257 1.2268638,1.428633 1.9505091,1.994106 0.2611968,0.01602 0.4615858,0.519867 0.7972938,0.414516 -0.111869,0.163693 0.09931,0.298609 0.138114,0.102713 0.116803,0.09724 0.183735,0.235708 0.301514,0.183978 0.257633,0.354076 0.232498,-0.159927 0.08353,-0.292621 -0.08643,-0.113657 -0.361655,-0.293571 -0.07533,-0.302386 C 10.789665,29.659765 10.973014,29.25405 10.71368,29.020511 10.67247,28.77211 10.566813,28.595782 10.449136,28.383304 10.44483,28.06928 10.179765,27.790476 10.227316,27.44005 10.037267,27.069182 9.9879395,26.670715 9.9268484,26.270268 9.7160719,25.766926 9.8443995,25.167719 9.7488001,24.645164 10.426436,24.344457 11.250452,24.536693 11.982855,24.47005 c 0.920234,-0.0042 1.840476,-0.0065 2.760714,-0.0099 0.368617,0.826868 0.22606,1.797407 0.364641,2.639159 0.19611,-0.406937 0.0623,0.178513 0.08859,0.319825 0.05557,0.352559 0.581622,-0.02907 0.767125,-0.08493 0.217881,-0.18677 0.728976,-0.281417 0.451137,-0.668945 -0.146632,-0.651962 -0.09107,-1.337696 -0.237339,-1.993932 0.12957,-0.326835 0.677205,-0.07928 0.950578,-0.176653 1.628422,-0.06817 3.282345,0.05297 4.896066,-0.105503 0.08486,-0.08436 -0.03815,-0.234923 0.158168,-0.16218 0.159666,-0.0015 0.288555,-0.356022 0.3125,-0.05737 0.120286,-0.110416 0.187238,-0.232834 0.324359,-0.202287 0.245908,-0.239175 0.573674,-0.218407 0.880475,-0.397078 0.133277,-0.115896 0.222503,-0.244954 0.409459,-0.237863 0.640383,-0.314356 0.275339,-1.106387 0.372505,-1.669393 0.02027,-1.795748 -0.02001,-3.609633 0.04742,-5.394466 0.991101,-0.226788 2.031408,-0.266919 3.042166,-0.409111 0.301948,-0.0069 0.565527,0.16326 0.838449,-0.05144 0.295506,-0.137928 0.623382,-0.0387 0.902099,-0.07499 0.330198,-0.302214 1.065333,-0.206589 1.257848,0.185896 -0.295098,0.170414 0.182167,0.181131 0.08144,0.394811 0.09513,0.324019 0.222164,0.662599 0.295934,1.010218 0.155518,0.206902 0.222063,0.459171 0.275355,0.673828 0.113566,0.291989 0.08068,0.635387 0.216065,0.934536 0.01379,0.538508 0.112793,1.057036 0.306048,1.553258 0.0961,0.212764 -0.15033,0.702948 0.09469,0.785609 0.272926,-0.154014 0.500164,-0.504747 0.62657,-0.71167 0.167077,0.01421 0.101027,-0.259188 0.322789,-0.227922 -0.03715,-0.175516 0.148855,-0.308069 0.05725,-0.538732 0.04205,-0.543781 -0.219052,-0.995692 -0.302441,-1.512049 -0.22373,-0.37526 -0.07266,-0.8799 -0.39603,-1.21774 0.03392,-0.272513 -0.271031,-0.473379 -0.207869,-0.782296 -0.05062,-0.287661 -0.408283,-0.400649 -0.344063,-0.706089 -0.14921,-0.309094 0.259515,-0.535515 0.521937,-0.456194 0.374606,-0.248776 0.910881,-0.116397 1.227504,-0.494211 0.246714,0.0075 0.44726,-0.142223 0.69772,-0.149972 0.286979,-0.102739 0.627651,-0.463089 0.883091,-0.131138 0.279149,-0.207269 0.03073,-0.702123 0.176827,-0.998361 -0.266128,-0.204446 -0.165644,-0.624298 -0.365861,-0.890765 0.06679,-0.259417 -0.109317,-0.375942 -0.278495,-0.456543 0.09631,-0.219693 -0.217755,-0.252035 -0.182234,-0.45445 -0.195161,-0.238694 -0.416027,-0.446808 -0.467878,-0.74428 -0.03471,-0.175338 -0.30677,-0.165572 -0.32802,-0.222517 0.0829,-0.135885 -0.137764,-0.127469 -0.07307,-0.275181 -0.279799,0.0035 -0.198861,-0.3533719 -0.44975,-0.4685694 C 32.666335,9.558688 32.337542,9.2001726 31.951123,9.1457216 31.961785,8.8778407 31.638158,9.0384247 31.531375,8.802704 31.301816,8.7296923 31.052936,8.7073977 30.897133,8.5271738 30.620455,8.623377 30.461364,8.1708455 30.129311,8.3226189 29.756198,8.3511367 30.335872,8.122388 30.062346,8.1219004 29.773387,8.1623232 29.493288,7.9895055 29.263309,7.9185661 29.132112,8.2059833 28.869871,7.559205 28.710854,7.8512531 28.498252,7.5846491 28.101616,7.7010245 27.841364,7.5092818 27.455887,7.5341776 27.081505,7.3721467 26.736279,7.3003672 26.383853,7.5253376 25.951576,7.2075597 25.632589,7.0658178 Z m -2.355957,5.0169152 c 0,0.90832 0,1.816639 0,2.724958 -0.778235,0.243349 -1.663451,0.0487 -2.39502,-0.127127 0.147196,0.203756 -0.304042,0.19297 -0.256347,0.01325 -0.481036,-0.135889 -1.006755,0.04411 -1.45595,-0.216239 -0.275052,-0.05143 -0.895013,0.128639 -0.722482,-0.383824 0.05632,-0.412956 0.312232,-0.65968 0.496303,-0.998535 -0.107636,-0.215182 0.155824,-0.02621 0.18485,-0.240827 0.01737,-0.307745 0.323426,-0.38111 0.410679,-0.609305 8.04e-4,-0.155201 -0.04075,-0.292005 0.139683,-0.231411 0.02969,-0.280005 0.408532,-0.270588 0.459507,-0.580182 0.136549,-0.222384 0.483476,-0.495062 0.492991,-0.701905 0.45946,-0.193096 0.773833,-0.713126 1.183733,-0.9786549 -0.32088,-0.033846 0.240305,-0.2902162 0.346156,-0.2598353 0.338721,0.1070412 1.060798,-0.331303 1.115897,0.043248 0,0.8487952 0,1.6975912 0,2.5463862 z M 24.90784,9.3607397 c 0.591567,0.019149 1.133406,0.2283552 1.504953,0.7067873 0.08509,0.155902 0.323936,0.202976 0.408238,0.265764 -0.04317,0.224129 0.340808,0.421321 0.459856,0.412598 -0.102852,0.2424 0.291523,0.319616 0.296283,0.522286 0.240065,0.118508 0.243154,0.539267 0.516183,0.496304 0.261294,0.163976 0.253442,0.663992 0.541468,0.754568 0.07224,-0.231346 0.157899,0.259348 0.186593,0.348424 0.190309,0.253703 0.456865,0.474134 0.514963,0.74149 0.07084,0.151696 -0.0089,0.251378 0.200543,0.274832 0.235891,0.377342 -0.206331,0.787725 -0.560127,0.562919 -0.928195,0.254906 -1.914979,0.172543 -2.848948,0.424456 -0.497151,0.0037 -1.09685,0.160907 -1.54227,-0.08266 -0.183738,-1.523421 -0.09502,-3.079507 -0.09454,-4.615025 0.03808,-0.2768018 -0.01766,-0.8711365 0.416807,-0.8127443 z m 3.445871,0.7381763 c 0.298105,0.13023 0.616471,0.204481 0.937674,0.261056 0.01688,0.240459 0.477562,-0.034 0.515485,0.283727 0.163037,0.0018 0.288249,0.07851 0.43335,0.119977 0.134757,-0.09321 0.008,0.220615 0.226702,0.196185 0.222017,0.157648 0.543961,0.04446 0.658831,0.295236 0.322781,0.173644 0.627364,0.429552 0.973424,0.58088 0.163018,-0.01815 0.226663,0.306418 0.461251,0.293666 0.340977,0.151286 0.417292,0.552403 0.794155,0.660052 0.221324,0.106641 0.602977,0.644818 0.111084,0.613141 -0.261598,0.08523 -0.458066,0.320534 -0.763114,0.247629 -0.187098,0.302709 -0.587738,0.09638 -0.851702,0.288958 -0.339822,0.0087 -0.939077,0.249347 -1.154785,-0.113177 -0.0059,-0.246074 -0.232499,-0.402218 -0.273787,-0.61227 -0.300482,-0.127629 -0.195354,-0.66968 -0.561175,-0.746372 -0.10101,-0.264145 -0.286949,-0.476498 -0.422711,-0.734864 -0.341732,-0.303058 -0.516743,-0.797345 -0.891463,-1.018066 0.06075,-0.207614 -0.674443,-0.59696 -0.193219,-0.615758 z m -9.019078,0.187291 c 0.488814,0.180376 -0.275669,0.621545 -0.365513,0.859724 -0.0027,0.217219 -0.161676,0.351041 -0.330462,0.356619 -0.0181,0.165032 -0.0027,0.288441 -0.168108,0.349296 0.04371,0.278907 -0.406724,0.136408 -0.270125,0.446603 0.02668,0.253499 -0.06007,0.188555 -0.166713,0.06627 -0.07067,0.158477 -0.141628,0.382489 -0.275879,0.454973 -0.02704,0.355058 -0.423699,0.646894 -0.453055,1.004813 -0.350304,0.264787 -0.915173,0.260577 -1.260114,0.0047 -0.235377,0.0118 -0.465454,-0.126931 -0.632499,-0.210135 -0.23859,0.243312 -0.519396,-0.285036 -0.81386,-0.234026 -0.285785,-0.289698 0.343267,-0.485804 0.305699,-0.740618 0.127468,-0.02994 0.435617,-0.191744 0.568847,-0.360805 0.221575,-0.07091 0.40541,-0.352909 0.643137,-0.348424 -0.05294,-0.323289 0.307216,-0.160648 0.458635,-0.377546 0.214381,-0.08937 0.354983,-0.547758 0.534668,-0.234201 0.201287,-0.372189 0.749413,-0.44289 1.066022,-0.720738 0.147017,-0.09242 0.08581,0.262781 0.208392,0.0023 0.249173,-0.18155 0.64371,-0.267999 0.950928,-0.318778 z m 4.087437,0.243269 c 0.02846,1.052897 0.03647,2.256217 -0.0045,3.220912 -0.01456,-1.069016 -0.02318,-2.171197 0.0045,-3.220912 z m -9.797537,3.64345 c 0.283414,0.125811 0.522665,0.153025 0.762939,0.334472 0.252023,-0.100563 0.309487,0.267355 0.562395,0.16776 0.408405,0.289465 0.94862,0.254775 1.382011,0.460205 0.347814,-0.06041 0.148995,0.460153 0.0047,0.587507 -0.05106,0.341929 -0.2858,0.628354 -0.246058,0.968715 -0.150043,0.09153 -0.245953,0.139927 -0.06871,0.269601 -0.289784,0.333677 -0.400076,0.762542 -0.417654,1.206055 -0.213152,0.555933 -0.182148,1.173227 -0.397775,1.733921 -0.07682,0.149712 0.149645,0.692556 -0.117362,0.420271 -0.08082,0.980193 -0.07255,1.98576 -0.348249,2.94451 -1.611561,0.01581 -3.223122,0.03162 -4.8346822,0.04743 -0.034487,-0.100561 -0.4761195,-0.582781 -0.1632255,-0.495779 0.1851367,-0.523159 -0.1299244,-1.178548 0.2723907,-1.625803 -0.057593,-0.56607 0.299866,-1.076975 0.28704,-1.649169 0.164488,-0.128341 0.145182,-0.290676 0.168806,-0.48183 0.204382,-0.216794 0.117231,-0.494078 0.34668,-0.704345 0.06095,-0.240905 0.104909,-0.477559 0.27396,-0.648019 -0.103955,-0.221079 0.264769,-0.242157 0.179269,-0.455323 0.148822,-0.186529 0.277275,-0.394818 0.270299,-0.619768 0.296232,0.04248 0.143194,-0.262831 0.34232,-0.40074 0.188617,-0.08539 -0.03361,-0.377849 0.151716,-0.321567 0.221429,-0.34486 0.532149,-0.662326 0.755789,-0.984236 0.03243,-0.163368 0.287611,-0.284572 0.265591,-0.438755 0.229067,0.01053 0.338957,-0.323948 0.567801,-0.315116 z m 4.784981,1.391427 c 0.597765,0.0482 1.180543,0.196882 1.781355,0.204904 0.257384,0.170815 0.526952,0.198991 0.81386,0.09173 0.749159,0.01549 1.48565,0.180058 2.22726,0.273437 0,2.377174 0,4.754348 0,7.131522 -2.286991,-0.0271 -4.583743,0.115465 -6.864885,-0.04674 -0.44957,-0.32105 -0.166525,-1.030299 -0.08144,-1.481585 0.112956,-0.930952 0.05836,-1.890799 0.435094,-2.769252 0.04752,-0.536145 0.144262,-1.079487 0.284598,-1.581334 0.12831,-0.145271 -0.04969,-0.397971 0.17055,-0.479038 0.01938,-0.356674 0.276223,-0.601515 0.329939,-0.960171 0.09848,-0.190723 0.157251,-0.400135 0.444509,-0.3622 0.152291,-0.01842 0.305873,-0.02355 0.459159,-0.02127 z m 6.688931,0.436663 c 0.424626,0.0365 -0.2895,0.104772 -0.269253,0.02215 0.08762,-0.02237 0.179297,-0.02521 0.269253,-0.02215 z m 5.893554,1.09218 c 0.129069,0.13886 -0.0724,0.34545 -0.02738,0.05877 0.0052,-0.01108 0.001,-0.06788 0.02738,-0.05877 z m -15.178571,0.267857 c 0.129068,0.13886 -0.0724,0.34545 -0.02738,0.05877 0.0052,-0.01108 0.001,-0.06788 0.02738,-0.05877 z m 7.607944,0.110736 c 0.03047,1.42884 0.03357,2.878234 -0.001,4.295654 -0.01924,-1.430806 -0.02169,-2.867656 0.001,-4.295654 z m -6.795479,1.269008 c 0.09874,0.133002 -0.04199,0.528861 -0.02825,0.150146 0.01168,-0.03019 -0.01387,-0.142548 0.02825,-0.150146 z m 14.991106,1.03097 c 0.129069,0.13886 -0.0724,0.34545 -0.02738,0.05877 0.0052,-0.01108 0.001,-0.06788 0.02738,-0.05877 z"
           id="path4149-7"
           inkscape:connector-curvature="0"
           transform="translate(-343.85343,8.5087792)" />
        <path
           style="color:#000000;clip-rule:nonzero;display:inline;overflow:visible;visibility:visible;opacity:1;isolation:auto;mix-blend-mode:normal;color-interpolation:sRGB;color-interpolation-filters:linearRGB;solid-color:#000000;solid-opacity:1;fill:#be1a03;fill-opacity:1;fill-rule:evenodd;color-rendering:auto;image-rendering:auto;shape-rendering:auto;text-rendering:auto;enable-background:accumulate"
           d="m 35.580273,10.908242 c -0.288551,0.160594 0.182186,0.410861 0.147531,0.587856 0.274865,0.10444 0.08594,0.392872 0.323137,0.496129 0.08676,0.561482 0.338102,1.087213 0.310288,1.675295 0.03939,0.853587 0.04114,1.72175 -0.217863,2.535956 0.05585,0.459147 -0.208639,0.854606 -0.227399,1.286098 -0.169278,0.08435 -0.202225,0.188408 -0.13637,0.359061 -0.0016,0.175101 -0.128615,0.32622 -0.253558,0.337612 0.03418,0.321084 -0.237574,0.515055 -0.281808,0.790667 -0.18964,0.09695 -0.05953,0.308649 -0.244141,0.356445 0.04835,0.178635 0.01041,0.166834 -0.101143,0.217983 0.01796,0.244937 -0.200427,0.31233 -0.25286,0.521938 -0.280331,-0.01844 -0.177878,0.350593 -0.261231,0.442243 -0.177564,-0.07574 -0.14098,0.295546 -0.377895,0.246408 -0.03295,0.217734 0.246799,0.356489 0.370571,0.14474 0.352062,-0.0505 0.641318,-0.315268 0.958601,-0.361503 0.07492,-0.194669 0.334136,-0.184395 0.414167,-0.329241 0.228041,0.02909 0.44113,-0.257353 0.641566,-0.254604 0.0073,-0.327537 0.465926,-0.274183 0.624652,-0.52682 0.315064,-0.09344 0.521337,-0.473968 0.804443,-0.544085 0.02541,-0.338935 0.495976,-0.388733 0.645537,-0.692174 0.402472,-0.476234 1.120522,-0.895635 0.900222,-1.627511 -0.0061,-0.657255 -0.425277,-1.198084 -0.423584,-1.858433 -0.06675,-0.277962 -0.236248,-0.556024 -0.285296,-0.80113 -0.225834,-0.09203 -0.06239,-0.37288 -0.350167,-0.395856 0.0012,-0.296085 -0.304928,-0.38686 -0.351388,-0.661098 -0.240741,-0.157132 -0.244346,-0.520198 -0.534843,-0.565186 0.06178,-0.240045 -0.385541,-0.276129 -0.486014,-0.498221 -0.123812,-0.208424 -0.412391,-0.239455 -0.532052,-0.371966 0.0095,-0.220138 -0.310958,-0.09015 -0.382429,-0.314593 -0.180673,-0.09751 -0.272403,-0.01456 -0.440674,-0.19601 z m 0.679583,5.02424 c 0.129069,0.138859 -0.0724,0.34545 -0.02738,0.05877 0.0052,-0.01108 0.001,-0.06788 0.02738,-0.05877 z"
           id="path4151-8"
           inkscape:connector-curvature="0"
           transform="translate(-343.85343,8.5087792)" />
      </g>
      <g
         id="g4001"
         transform="translate(-4.0406102,167.47462)">
        <rect
           rx="1.8348789"
           ry="1.8348789"
           y="-365.9397"
           x="-1153.0125"
           height="44.542168"
           width="44.542168"
           id="rect4003"
           style="fill:none;fill-opacity:1;stroke:#be1b05;stroke-width:3.66999984;stroke-linejoin:round;stroke-miterlimit:0;stroke-dasharray:none;stroke-opacity:1" />
        <g
           transform="matrix(1.499881,0,0,1.499881,-662.53971,-382.35224)"
           id="g4005">
          <path
             inkscape:connector-curvature="0"
             id="path4007"
             d="m -304.49053,22.063746 c -0.43195,-0.02205 -0.5969,-0.0364 -0.87861,-0.07643 -0.77393,-0.109969 -1.41027,-0.326232 -1.85295,-0.629733 -0.0968,-0.06633 -0.26255,-0.217027 -0.32275,-0.293338 -0.2086,-0.264453 -0.26565,-0.541411 -0.16828,-0.81696 0.14576,-0.412501 0.66441,-0.719118 1.51465,-0.895426 0.21835,-0.04528 0.55119,-0.09422 0.73126,-0.107522 l 0.0654,-0.0048 0.0688,0.06517 c 0.0639,0.06051 0.0674,0.06544 0.049,0.0689 -0.0109,0.0021 -0.0896,0.0128 -0.17504,0.02387 -0.26334,0.03415 -0.55082,0.09355 -0.76243,0.157547 -0.71713,0.216874 -1.03181,0.543058 -0.86471,0.896322 0.0919,0.194401 0.3594,0.396558 0.71791,0.542644 0.56087,0.228549 1.33393,0.355883 2.15971,0.355736 1.19089,-2.13e-4 2.24702,-0.261929 2.70099,-0.669322 0.55252,-0.495828 0.0798,-1.006549 -1.14401,-1.236071 -0.0787,-0.01475 -0.21291,-0.03586 -0.29832,-0.04691 -0.0854,-0.01105 -0.16418,-0.02176 -0.17504,-0.02382 -0.0183,-0.0035 -0.0148,-0.0084 0.0488,-0.06822 0.0811,-0.07618 0.0583,-0.07261 0.28858,-0.04522 1.05893,0.125913 1.7558,0.414587 2.01956,0.836591 0.0728,0.116541 0.10911,0.232479 0.11594,0.370615 0.0269,0.543234 -0.50652,1.024333 -1.46015,1.316955 -0.46819,0.143668 -0.96315,0.228062 -1.5774,0.268956 -0.11908,0.0079 -0.70171,0.01556 -0.80097,0.01049 z m 0.16708,-1.583032 c -0.57754,-0.850586 -1.12578,-1.73688 -1.51614,-2.45103 -0.40602,-0.742791 -0.65733,-1.337189 -0.72298,-1.71003 -0.0452,-0.256906 -0.004,-0.690812 0.0974,-1.019329 0.22922,-0.744074 0.80453,-1.270934 1.6003,-1.46552 0.23029,-0.05631 0.40176,-0.07606 0.66035,-0.07606 0.25859,0 0.43006,0.01975 0.66035,0.07606 1.06368,0.260097 1.7087,1.101546 1.71312,2.23482 6.8e-4,0.191859 -0.005,0.236731 -0.0606,0.440149 -0.16241,0.598611 -0.66853,1.584088 -1.46934,2.861004 -0.29614,0.472185 -0.82754,1.27614 -0.84352,1.27614 -0.003,0 -0.0569,-0.07479 -0.11898,-0.166204 z m 0.2701,-3.693944 c 0.31608,-0.05047 0.58095,-0.291982 0.65564,-0.597819 0.021,-0.086 0.0185,-0.250629 -0.005,-0.336599 -0.0393,-0.142964 -0.10303,-0.251134 -0.20902,-0.354858 -0.2222,-0.217442 -0.55068,-0.292603 -0.85768,-0.196247 -0.31125,0.09769 -0.53094,0.364681 -0.55679,0.676679 -0.0203,0.244964 0.10001,0.498786 0.31018,0.654409 0.18684,0.138342 0.42138,0.19299 0.66284,0.154435 z"
             style="fill:#be0000;fill-opacity:1" />
          <path
             style="color:#000000;clip-rule:nonzero;display:inline;overflow:visible;visibility:visible;opacity:0.60799997;isolation:auto;mix-blend-mode:normal;color-interpolation:sRGB;color-interpolation-filters:linearRGB;solid-color:#000000;solid-opacity:1;fill:#0e04e5;fill-opacity:1;fill-rule:evenodd;color-rendering:auto;image-rendering:auto;shape-rendering:auto;text-rendering:auto;enable-background:accumulate"
             d="m 39.562855,5.3437604 c -1.649003,-0.010343 -2.779157,1.9537826 -1.832798,3.3618163 0.506989,1.142435 1.228319,2.1703543 1.873954,3.2355613 1.036828,-1.368777 2.139508,-2.9541886 2.244001,-4.7094731 C 41.741253,6.1095582 40.663214,5.2866711 39.562855,5.3437604 Z m 0.08301,1.3643973 c 0.825182,0.016954 1.366356,1.299991 0.339007,1.5523856 C 38.766828,8.723246 38.313713,6.7455979 39.645863,6.7081577 Z"
             id="path4009"
             inkscape:connector-curvature="0"
             transform="translate(-343.85343,8.5087792)" />
          <path
             style="color:#000000;clip-rule:nonzero;display:inline;overflow:visible;visibility:visible;opacity:0;isolation:auto;mix-blend-mode:normal;color-interpolation:sRGB;color-interpolation-filters:linearRGB;solid-color:#000000;solid-opacity:1;fill:#be1a03;fill-opacity:1;fill-rule:evenodd;stroke:#be0000;stroke-width:3.67000008;stroke-linecap:butt;stroke-linejoin:miter;stroke-miterlimit:0;stroke-dasharray:none;stroke-dashoffset:0;stroke-opacity:1;color-rendering:auto;image-rendering:auto;shape-rendering:auto;text-rendering:auto;enable-background:accumulate"
             d="m 40.879056,10.772315 c -0.208731,0.0059 0.0471,0.150976 0.132272,0.116315 0.537973,0.09815 1.174668,0.201491 1.522391,0.668771 0.187559,0.435733 -0.284747,0.75639 -0.629272,0.902884 -1.050201,0.446801 -2.228248,0.409678 -3.343768,0.322789 -0.620186,-0.122009 -1.33281,-0.247894 -1.760254,-0.757795 -0.261319,-0.40001 0.207427,-0.787587 0.560216,-0.897653 0.360076,-0.173775 0.783244,-0.178959 1.144671,-0.3159 -0.196139,-0.09686 -0.479713,0.01488 -0.6996,0.0297 -0.619053,0.125957 -1.388379,0.305157 -1.654788,0.952273 -0.168591,0.597821 0.427206,1.03438 0.901489,1.257673 1.120681,0.548151 2.399023,0.477166 3.609358,0.418091 0.826404,-0.09805 1.728261,-0.315704 2.313494,-0.948922 0.382394,-0.389095 0.164722,-1.020201 -0.273089,-1.260027 -0.543278,-0.323135 -1.200014,-0.449813 -1.82312,-0.488194 z"
             id="path4011"
             inkscape:connector-curvature="0"
             transform="translate(-343.85343,8.5087792)" />
          <path
             style="color:#000000;clip-rule:nonzero;display:inline;overflow:visible;visibility:visible;opacity:1;isolation:auto;mix-blend-mode:normal;color-interpolation:sRGB;color-interpolation-filters:linearRGB;solid-color:#000000;solid-opacity:1;fill:#085bdf;fill-opacity:1;fill-rule:evenodd;color-rendering:auto;image-rendering:auto;shape-rendering:auto;text-rendering:auto;enable-background:accumulate"
             d="m 39.552762,5.3598042 c -1.361741,-0.011802 -2.491114,1.4975774 -2.047293,2.794015 0.526588,1.2785655 1.279592,2.4503858 2.021658,3.6119728 0.12545,0.232393 0.244541,-0.107204 0.334874,-0.191545 0.871813,-1.224412 1.761321,-2.5486705 1.936332,-4.0788227 0.123104,-1.2261837 -1.089734,-2.186602 -2.245571,-2.1356201 z m 0.107073,1.3384138 c 0.604044,0.014697 1.166498,0.8211232 0.741665,1.337193 -0.392207,0.3751438 -1.14593,0.448414 -1.443482,-0.085449 -0.29885,-0.4254433 -0.09278,-1.078512 0.424107,-1.2085833 0.08926,-0.029656 0.183511,-0.045897 0.27771,-0.04316 z"
             id="path4013"
             inkscape:connector-curvature="0"
             transform="translate(-343.85343,8.5087792)" />
          <path
             style="color:#000000;clip-rule:nonzero;display:inline;overflow:visible;visibility:visible;opacity:1;isolation:auto;mix-blend-mode:normal;color-interpolation:sRGB;color-interpolation-filters:linearRGB;solid-color:#000000;solid-opacity:1;fill:#0859e0;fill-opacity:1;fill-rule:evenodd;color-rendering:auto;image-rendering:auto;shape-rendering:auto;text-rendering:auto;enable-background:accumulate"
             d="m 40.879056,10.772315 c -0.208731,0.0059 0.0471,0.150976 0.132272,0.116315 0.537973,0.09815 1.174668,0.201491 1.522391,0.668771 0.187559,0.435733 -0.284747,0.75639 -0.629272,0.902884 -1.050201,0.446801 -2.228248,0.409678 -3.343768,0.322789 -0.620186,-0.122009 -1.33281,-0.247894 -1.760254,-0.757795 -0.261319,-0.40001 0.207427,-0.787587 0.560216,-0.897653 0.360076,-0.173775 0.783244,-0.178959 1.144671,-0.3159 -0.196139,-0.09686 -0.479713,0.01488 -0.6996,0.0297 -0.619053,0.125957 -1.388379,0.305157 -1.654788,0.952273 -0.168591,0.597821 0.427206,1.03438 0.901489,1.257673 1.120681,0.548151 2.399023,0.477166 3.609358,0.418091 0.826404,-0.09805 1.728261,-0.315704 2.313494,-0.948922 0.382394,-0.389095 0.164722,-1.020201 -0.273089,-1.260027 -0.543278,-0.323135 -1.200014,-0.449813 -1.82312,-0.488194 z"
             id="path4015"
             inkscape:connector-curvature="0"
             transform="translate(-343.85343,8.5087792)" />
          <path
             style="color:#000000;clip-rule:nonzero;display:inline;overflow:visible;visibility:visible;opacity:1;isolation:auto;mix-blend-mode:normal;color-interpolation:sRGB;color-interpolation-filters:linearRGB;solid-color:#000000;solid-opacity:1;fill:#0858e0;fill-opacity:1;fill-rule:evenodd;color-rendering:auto;image-rendering:auto;shape-rendering:auto;text-rendering:auto;enable-background:accumulate"
             d="m 39.611661,5.2564059 c -0.753823,0.00484 -1.539322,0.3366001 -1.954026,0.9880801 -0.294166,0.4529135 -0.416266,1.0127628 -0.360187,1.547875 0.112362,0.5592613 0.385824,1.0691361 0.643543,1.5725341 0.508519,0.9443449 1.081474,1.8537439 1.69114,2.7355039 0.05003,0.04467 0.0669,-0.06684 0.09901,-0.08788 0.710833,-1.065069 1.409446,-2.1459971 1.953102,-3.3080091 0.165464,-0.3832377 0.353372,-0.7818259 0.3272,-1.2102423 -10e-4,-0.7458684 -0.378228,-1.4982762 -1.028426,-1.8830322 -0.410501,-0.24654 -0.89456,-0.3599156 -1.371354,-0.3548245 z m 0.05444,0.082248 c 0.980672,-0.011288 1.94372,0.7032914 2.152061,1.6733427 0.0788,0.3875095 -0.03362,0.7810037 -0.117021,1.1582166 -0.312318,1.2436081 -1.036748,2.3282038 -1.779124,3.3539968 -0.103753,0.136319 -0.202886,0.286172 -0.311652,0.412896 -0.184998,-0.24584 -0.329387,-0.52165 -0.499895,-0.77828 C 38.615716,10.37025 38.119712,9.5786564 37.73187,8.7304406 37.516537,8.3828976 37.374523,7.9826201 37.3821,7.5697254 37.38267,6.577278 38.107182,5.6219701 39.080956,5.395361 39.272078,5.346691 39.469468,5.333107 39.666103,5.338653 Z"
             id="path4017"
             inkscape:connector-curvature="0"
             transform="translate(-343.85343,8.5087792)" />
        </g>
      </g>
    </g>
  </g>
</svg>
