<?xml version="1.0" encoding="UTF-8" standalone="no"?>
<!-- Created with Inkscape (http://www.inkscape.org/) -->

<svg
   xmlns:dc="http://purl.org/dc/elements/1.1/"
   xmlns:cc="http://creativecommons.org/ns#"
   xmlns:rdf="http://www.w3.org/1999/02/22-rdf-syntax-ns#"
   xmlns:svg="http://www.w3.org/2000/svg"
   xmlns="http://www.w3.org/2000/svg"
   xmlns:sodipodi="http://sodipodi.sourceforge.net/DTD/sodipodi-0.dtd"
   xmlns:inkscape="http://www.inkscape.org/namespaces/inkscape"
   width="48.21217"
   height="48.21217"
   viewBox="0 0 48.212169 48.212169"
   id="svg5241"
   version="1.1"
   inkscape:version="0.91 r13725"
   sodipodi:docname="site-temporary-reception-48px.svg">
  <defs
     id="defs5243">
    <filter
       id="filter4217"
       style="color-interpolation-filters:sRGB"
       inkscape:collect="always">
      <feBlend
         id="feBlend4219"
         in2="BackgroundImage"
         mode="screen"
         inkscape:collect="always" />
    </filter>
  </defs>
  <sodipodi:namedview
     id="base"
     pagecolor="#ffffff"
     bordercolor="#666666"
     borderopacity="1.0"
     inkscape:pageopacity="0.0"
     inkscape:pageshadow="2"
     inkscape:zoom="0.35"
     inkscape:cx="-199.46538"
     inkscape:cy="-61.608204"
     inkscape:document-units="px"
     inkscape:current-layer="layer1"
     showgrid="false"
     inkscape:window-width="1920"
     inkscape:window-height="1018"
     inkscape:window-x="-8"
     inkscape:window-y="-8"
     inkscape:window-maximized="1"
     fit-margin-top="0"
     fit-margin-left="0"
     fit-margin-right="0"
     fit-margin-bottom="0"
     units="px" />
  <metadata
     id="metadata5246">
    <rdf:RDF>
      <cc:Work
         rdf:about="">
        <dc:format>image/svg+xml</dc:format>
        <dc:type
           rdf:resource="http://purl.org/dc/dcmitype/StillImage" />
        <dc:title></dc:title>
      </cc:Work>
    </rdf:RDF>
  </metadata>
  <g
     inkscape:label="Layer 1"
     inkscape:groupmode="layer"
     id="layer1"
     transform="translate(-141.60824,-422.54183)">
    <g
       transform="translate(1354.4963,622.84191)"
       id="g5174">
      <g
         id="g4641"
         transform="translate(-58.04061,167.47462)">
        <rect
           rx="1.8348789"
           ry="1.8348789"
           y="-365.9397"
           x="-1153.0125"
           height="44.542168"
           width="44.542168"
           id="rect4643"
           style="fill:none;fill-opacity:1;stroke:#be1b05;stroke-width:3.66999984;stroke-linejoin:round;stroke-miterlimit:0;stroke-dasharray:none;stroke-opacity:1" />
        <g
           transform="matrix(1.499881,0,0,1.499881,-662.53971,-382.35224)"
           id="g4645">
          <path
             inkscape:connector-curvature="0"
             id="path4647"
             d="m -304.49053,22.063746 c -0.43195,-0.02205 -0.5969,-0.0364 -0.87861,-0.07643 -0.77393,-0.109969 -1.41027,-0.326232 -1.85295,-0.629733 -0.0968,-0.06633 -0.26255,-0.217027 -0.32275,-0.293338 -0.2086,-0.264453 -0.26565,-0.541411 -0.16828,-0.81696 0.14576,-0.412501 0.66441,-0.719118 1.51465,-0.895426 0.21835,-0.04528 0.55119,-0.09422 0.73126,-0.107522 l 0.0654,-0.0048 0.0688,0.06517 c 0.0639,0.06051 0.0674,0.06544 0.049,0.0689 -0.0109,0.0021 -0.0896,0.0128 -0.17504,0.02387 -0.26334,0.03415 -0.55082,0.09355 -0.76243,0.157547 -0.71713,0.216874 -1.03181,0.543058 -0.86471,0.896322 0.0919,0.194401 0.3594,0.396558 0.71791,0.542644 0.56087,0.228549 1.33393,0.355883 2.15971,0.355736 1.19089,-2.13e-4 2.24702,-0.261929 2.70099,-0.669322 0.55252,-0.495828 0.0798,-1.006549 -1.14401,-1.236071 -0.0787,-0.01475 -0.21291,-0.03586 -0.29832,-0.04691 -0.0854,-0.01105 -0.16418,-0.02176 -0.17504,-0.02382 -0.0183,-0.0035 -0.0148,-0.0084 0.0488,-0.06822 0.0811,-0.07618 0.0583,-0.07261 0.28858,-0.04522 1.05893,0.125913 1.7558,0.414587 2.01956,0.836591 0.0728,0.116541 0.10911,0.232479 0.11594,0.370615 0.0269,0.543234 -0.50652,1.024333 -1.46015,1.316955 -0.46819,0.143668 -0.96315,0.228062 -1.5774,0.268956 -0.11908,0.0079 -0.70171,0.01556 -0.80097,0.01049 z m 0.16708,-1.583032 c -0.57754,-0.850586 -1.12578,-1.73688 -1.51614,-2.45103 -0.40602,-0.742791 -0.65733,-1.337189 -0.72298,-1.71003 -0.0452,-0.256906 -0.004,-0.690812 0.0974,-1.019329 0.22922,-0.744074 0.80453,-1.270934 1.6003,-1.46552 0.23029,-0.05631 0.40176,-0.07606 0.66035,-0.07606 0.25859,0 0.43006,0.01975 0.66035,0.07606 1.06368,0.260097 1.7087,1.101546 1.71312,2.23482 6.8e-4,0.191859 -0.005,0.236731 -0.0606,0.440149 -0.16241,0.598611 -0.66853,1.584088 -1.46934,2.861004 -0.29614,0.472185 -0.82754,1.27614 -0.84352,1.27614 -0.003,0 -0.0569,-0.07479 -0.11898,-0.166204 z m 0.2701,-3.693944 c 0.31608,-0.05047 0.58095,-0.291982 0.65564,-0.597819 0.021,-0.086 0.0185,-0.250629 -0.005,-0.336599 -0.0393,-0.142964 -0.10303,-0.251134 -0.20902,-0.354858 -0.2222,-0.217442 -0.55068,-0.292603 -0.85768,-0.196247 -0.31125,0.09769 -0.53094,0.364681 -0.55679,0.676679 -0.0203,0.244964 0.10001,0.498786 0.31018,0.654409 0.18684,0.138342 0.42138,0.19299 0.66284,0.154435 z"
             style="fill:#be0000;fill-opacity:1" />
          <path
             style="color:#000000;clip-rule:nonzero;display:inline;overflow:visible;visibility:visible;opacity:0.60799997;isolation:auto;mix-blend-mode:normal;color-interpolation:sRGB;color-interpolation-filters:linearRGB;solid-color:#000000;solid-opacity:1;fill:#0e04e5;fill-opacity:1;fill-rule:evenodd;color-rendering:auto;image-rendering:auto;shape-rendering:auto;text-rendering:auto;enable-background:accumulate"
             d="m 39.562855,5.3437604 c -1.649003,-0.010343 -2.779157,1.9537826 -1.832798,3.3618163 0.506989,1.142435 1.228319,2.1703543 1.873954,3.2355613 1.036828,-1.368777 2.139508,-2.9541886 2.244001,-4.7094731 C 41.741253,6.1095582 40.663214,5.2866711 39.562855,5.3437604 Z m 0.08301,1.3643973 c 0.825182,0.016954 1.366356,1.299991 0.339007,1.5523856 C 38.766828,8.723246 38.313713,6.7455979 39.645863,6.7081577 Z"
             id="path4649"
             inkscape:connector-curvature="0"
             transform="translate(-343.85343,8.5087792)" />
          <path
             style="color:#000000;clip-rule:nonzero;display:inline;overflow:visible;visibility:visible;opacity:0;isolation:auto;mix-blend-mode:normal;color-interpolation:sRGB;color-interpolation-filters:linearRGB;solid-color:#000000;solid-opacity:1;fill:#be1a03;fill-opacity:1;fill-rule:evenodd;stroke:#be0000;stroke-width:3.67000008;stroke-linecap:butt;stroke-linejoin:miter;stroke-miterlimit:0;stroke-dasharray:none;stroke-dashoffset:0;stroke-opacity:1;color-rendering:auto;image-rendering:auto;shape-rendering:auto;text-rendering:auto;enable-background:accumulate"
             d="m 40.879056,10.772315 c -0.208731,0.0059 0.0471,0.150976 0.132272,0.116315 0.537973,0.09815 1.174668,0.201491 1.522391,0.668771 0.187559,0.435733 -0.284747,0.75639 -0.629272,0.902884 -1.050201,0.446801 -2.228248,0.409678 -3.343768,0.322789 -0.620186,-0.122009 -1.33281,-0.247894 -1.760254,-0.757795 -0.261319,-0.40001 0.207427,-0.787587 0.560216,-0.897653 0.360076,-0.173775 0.783244,-0.178959 1.144671,-0.3159 -0.196139,-0.09686 -0.479713,0.01488 -0.6996,0.0297 -0.619053,0.125957 -1.388379,0.305157 -1.654788,0.952273 -0.168591,0.597821 0.427206,1.03438 0.901489,1.257673 1.120681,0.548151 2.399023,0.477166 3.609358,0.418091 0.826404,-0.09805 1.728261,-0.315704 2.313494,-0.948922 0.382394,-0.389095 0.164722,-1.020201 -0.273089,-1.260027 -0.543278,-0.323135 -1.200014,-0.449813 -1.82312,-0.488194 z"
             id="path4651"
             inkscape:connector-curvature="0"
             transform="translate(-343.85343,8.5087792)" />
          <path
             style="color:#000000;clip-rule:nonzero;display:inline;overflow:visible;visibility:visible;opacity:1;isolation:auto;mix-blend-mode:normal;color-interpolation:sRGB;color-interpolation-filters:linearRGB;solid-color:#000000;solid-opacity:1;fill:#085bdf;fill-opacity:1;fill-rule:evenodd;color-rendering:auto;image-rendering:auto;shape-rendering:auto;text-rendering:auto;enable-background:accumulate"
             d="m 39.552762,5.3598042 c -1.361741,-0.011802 -2.491114,1.4975774 -2.047293,2.794015 0.526588,1.2785655 1.279592,2.4503858 2.021658,3.6119728 0.12545,0.232393 0.244541,-0.107204 0.334874,-0.191545 0.871813,-1.224412 1.761321,-2.5486705 1.936332,-4.0788227 0.123104,-1.2261837 -1.089734,-2.186602 -2.245571,-2.1356201 z m 0.107073,1.3384138 c 0.604044,0.014697 1.166498,0.8211232 0.741665,1.337193 -0.392207,0.3751438 -1.14593,0.448414 -1.443482,-0.085449 -0.29885,-0.4254433 -0.09278,-1.078512 0.424107,-1.2085833 0.08926,-0.029656 0.183511,-0.045897 0.27771,-0.04316 z"
             id="path4653"
             inkscape:connector-curvature="0"
             transform="translate(-343.85343,8.5087792)" />
          <path
             style="color:#000000;clip-rule:nonzero;display:inline;overflow:visible;visibility:visible;opacity:1;isolation:auto;mix-blend-mode:normal;color-interpolation:sRGB;color-interpolation-filters:linearRGB;solid-color:#000000;solid-opacity:1;fill:#0859e0;fill-opacity:1;fill-rule:evenodd;color-rendering:auto;image-rendering:auto;shape-rendering:auto;text-rendering:auto;enable-background:accumulate"
             d="m 40.879056,10.772315 c -0.208731,0.0059 0.0471,0.150976 0.132272,0.116315 0.537973,0.09815 1.174668,0.201491 1.522391,0.668771 0.187559,0.435733 -0.284747,0.75639 -0.629272,0.902884 -1.050201,0.446801 -2.228248,0.409678 -3.343768,0.322789 -0.620186,-0.122009 -1.33281,-0.247894 -1.760254,-0.757795 -0.261319,-0.40001 0.207427,-0.787587 0.560216,-0.897653 0.360076,-0.173775 0.783244,-0.178959 1.144671,-0.3159 -0.196139,-0.09686 -0.479713,0.01488 -0.6996,0.0297 -0.619053,0.125957 -1.388379,0.305157 -1.654788,0.952273 -0.168591,0.597821 0.427206,1.03438 0.901489,1.257673 1.120681,0.548151 2.399023,0.477166 3.609358,0.418091 0.826404,-0.09805 1.728261,-0.315704 2.313494,-0.948922 0.382394,-0.389095 0.164722,-1.020201 -0.273089,-1.260027 -0.543278,-0.323135 -1.200014,-0.449813 -1.82312,-0.488194 z"
             id="path4655"
             inkscape:connector-curvature="0"
             transform="translate(-343.85343,8.5087792)" />
          <path
             style="color:#000000;clip-rule:nonzero;display:inline;overflow:visible;visibility:visible;opacity:1;isolation:auto;mix-blend-mode:normal;color-interpolation:sRGB;color-interpolation-filters:linearRGB;solid-color:#000000;solid-opacity:1;fill:#0858e0;fill-opacity:1;fill-rule:evenodd;color-rendering:auto;image-rendering:auto;shape-rendering:auto;text-rendering:auto;enable-background:accumulate"
             d="m 39.611661,5.2564059 c -0.753823,0.00484 -1.539322,0.3366001 -1.954026,0.9880801 -0.294166,0.4529135 -0.416266,1.0127628 -0.360187,1.547875 0.112362,0.5592613 0.385824,1.0691361 0.643543,1.5725341 0.508519,0.9443449 1.081474,1.8537439 1.69114,2.7355039 0.05003,0.04467 0.0669,-0.06684 0.09901,-0.08788 0.710833,-1.065069 1.409446,-2.1459971 1.953102,-3.3080091 0.165464,-0.3832377 0.353372,-0.7818259 0.3272,-1.2102423 -10e-4,-0.7458684 -0.378228,-1.4982762 -1.028426,-1.8830322 -0.410501,-0.24654 -0.89456,-0.3599156 -1.371354,-0.3548245 z m 0.05444,0.082248 c 0.980672,-0.011288 1.94372,0.7032914 2.152061,1.6733427 0.0788,0.3875095 -0.03362,0.7810037 -0.117021,1.1582166 -0.312318,1.2436081 -1.036748,2.3282038 -1.779124,3.3539968 -0.103753,0.136319 -0.202886,0.286172 -0.311652,0.412896 -0.184998,-0.24584 -0.329387,-0.52165 -0.499895,-0.77828 C 38.615716,10.37025 38.119712,9.5786564 37.73187,8.7304406 37.516537,8.3828976 37.374523,7.9826201 37.3821,7.5697254 37.38267,6.577278 38.107182,5.6219701 39.080956,5.395361 39.272078,5.346691 39.469468,5.333107 39.666103,5.338653 Z"
             id="path4657"
             inkscape:connector-curvature="0"
             transform="translate(-343.85343,8.5087792)" />
        </g>
      </g>
      <g
         transform="translate(194.28571,154.64286)"
         id="g5163">
        <path
           inkscape:connector-curvature="0"
           id="path4143"
           d="m -1384.9589,-340.12639 c -1.8556,1.61515 -4.1646,2.69586 -6.0629,4.23001 -0.6243,0.23123 -1.2834,0.56175 -1.7288,1.16553 -0.8681,0.42861 -1.8035,1.05408 -2.5643,1.52657 -0.3287,0.65441 -2.13,0.82801 -1.6662,1.78158 0.9031,0.29961 2.9298,-0.49097 2.6764,1.03481 0,4.45822 0,8.91644 0,13.37466 2.6095,0 5.2191,0 7.8286,0 0,-4.20897 0,-8.41794 0,-12.62691 3.9216,0 7.8432,0 11.7647,0 0.075,-1.02353 0.6577,-1.98813 1.824,-1.6193 1.285,0.20528 0.6536,-1.11338 -0.062,-1.41757 -2.4042,-1.29761 -4.6599,-2.86918 -6.9675,-4.34987 -0.629,-0.44423 -1.2972,-0.48638 -1.7584,-1.13248 -1.1785,-0.5202 -2.2179,-1.35292 -3.284,-1.96703 z m -5.5578,12.38029 c 1.9551,-0.41036 2.9035,0.21784 2.4697,2.27175 -0.1254,1.09878 0.518,3.44275 -1.2632,3.38273 -1.1518,-0.11672 -2.6777,0.36662 -3.6357,-0.35315 -0.1499,-1.76282 0.01,-3.53559 0.03,-5.30133 0.7997,0 1.5994,0 2.3991,0 z"
           style="color:#000000;clip-rule:nonzero;display:inline;overflow:visible;visibility:visible;opacity:1;isolation:auto;mix-blend-mode:normal;color-interpolation:sRGB;color-interpolation-filters:linearRGB;solid-color:#000000;solid-opacity:1;fill:#be1a03;fill-opacity:1;fill-rule:evenodd;filter:url(#filter4217);color-rendering:auto;image-rendering:auto;shape-rendering:auto;text-rendering:auto;enable-background:accumulate" />
        <path
           inkscape:connector-curvature="0"
           id="path4145-7"
           d="m -1384.5018,-323.44855 c 0.1567,1.33415 -0.3173,2.91969 0.3463,4.11657 1.0233,0.30408 0.8393,2.02013 2.1905,1.9039 0.9865,0.18918 1.8293,-0.4425 1.9182,-1.39488 1.4764,-0.99047 3.4687,-0.387 5.1415,-0.56772 0,-2.69374 0,-5.38748 0,-8.08122 -3.1988,0 -6.3977,0 -9.5965,0 0,1.34112 0,2.68223 0,4.02335 z m 3.0053,3.19717 c 1.3844,0.0356 0.9696,2.88916 -0.4976,2.31132 -1.2539,-0.17252 -1.4589,-2.64202 0.1435,-2.30047 l 0.1874,-0.0109 0.1667,0 z"
           style="color:#000000;clip-rule:nonzero;display:inline;overflow:visible;visibility:visible;opacity:1;isolation:auto;mix-blend-mode:normal;color-interpolation:sRGB;color-interpolation-filters:linearRGB;solid-color:#000000;solid-opacity:1;fill:#be1a03;fill-opacity:1;fill-rule:evenodd;filter:url(#filter4217);color-rendering:auto;image-rendering:auto;shape-rendering:auto;text-rendering:auto;enable-background:accumulate" />
        <path
           inkscape:connector-curvature="0"
           id="path4147-0"
           d="m -1373.8671,-323.71749 c 0.2575,1.22076 -0.8204,3.75818 1.2543,3.173 1.5106,0.002 1.5333,2.55488 3.3008,1.98036 2.0658,-0.50733 2.8616,-3.2756 1.7633,-4.93091 -0.01,-0.64813 -0.7367,-0.78952 -0.6388,-1.54038 -0.2883,-0.9943 -0.8714,-1.94409 -2.0676,-1.72239 -1.1266,0.25841 -3.6997,-0.90699 -3.612,0.63233 0,0.80266 0,1.60533 0,2.40799 z m 3.0097,-2.89482 c 0.968,-0.15995 2.0521,0.24333 1.8872,1.38058 0.1755,0.80037 1.6246,2.3782 0.3359,2.8302 -0.9877,-0.1659 -3.4377,0.8395 -3.2125,-0.67524 0.3625,-1.0575 -0.8971,-4.08923 0.9894,-3.53554 z m 1.5123,5.17999 c 1.1151,0.0612 1.7815,1.58977 0.6052,2.14066 -1.2945,1.09925 -3.1509,-1.54674 -1.2143,-2.03017 0.1915,-0.0784 0.401,-0.1296 0.6091,-0.11049 z"
           style="color:#000000;clip-rule:nonzero;display:inline;overflow:visible;visibility:visible;opacity:1;isolation:auto;mix-blend-mode:normal;color-interpolation:sRGB;color-interpolation-filters:linearRGB;solid-color:#000000;solid-opacity:1;fill:#be1a03;fill-opacity:1;fill-rule:evenodd;filter:url(#filter4217);color-rendering:auto;image-rendering:auto;shape-rendering:auto;text-rendering:auto;enable-background:accumulate" />
        <path
           inkscape:connector-curvature="0"
           id="path4153"
           d="m -305.77061,23.28339 c -0.24819,0.03786 -0.35993,0.256111 -0.30245,0.491325 -0.007,0.987725 -0.0142,1.975451 -0.0212,2.963177 -1.0964,0.01488 -2.19279,0.02976 -3.28918,0.04464 -0.20025,0.150896 -0.22761,0.460812 0.002,0.60088 0.25975,0.108269 0.60278,0.01558 0.89461,0.04644 0.9449,-0.02183 1.89726,0.04678 2.83753,-0.04508 0.32524,-0.09511 0.16657,-0.469047 0.20229,-0.720302 0,-1.067127 0,-2.134254 0,-3.201381 -0.0993,-0.0686 -0.19204,-0.183523 -0.32366,-0.179705 z"
           style="color:#000000;clip-rule:nonzero;display:inline;overflow:visible;visibility:visible;opacity:1;isolation:auto;mix-blend-mode:normal;color-interpolation:sRGB;color-interpolation-filters:linearRGB;solid-color:#000000;solid-opacity:1;fill:#be1a03;fill-opacity:1;fill-rule:evenodd;filter:url(#filter4217);color-rendering:auto;image-rendering:auto;shape-rendering:auto;text-rendering:auto;enable-background:accumulate"
           transform="matrix(0.80681386,0,0,0.80681386,-1148.6147,-363.57154)" />
        <g
           style="filter:url(#filter4217)"
           transform="matrix(0.80681386,0,0,0.80681386,-1148.7588,-358.09673)"
           id="g4199">
          <path
             style="color:#000000;clip-rule:nonzero;display:inline;overflow:visible;visibility:visible;opacity:1;isolation:auto;mix-blend-mode:normal;color-interpolation:sRGB;color-interpolation-filters:linearRGB;solid-color:#000000;solid-opacity:1;fill:#be1a03;fill-opacity:1;fill-rule:evenodd;color-rendering:auto;image-rendering:auto;shape-rendering:auto;text-rendering:auto;enable-background:accumulate"
             d="m -307.64413,13.639574 c -0.86479,0.111868 -1.65183,0.587096 -2.30634,1.144496 -0.31234,0.25536 -0.57844,0.679305 -0.37249,1.0839 0.0868,0.251769 0.19175,0.496804 0.28747,0.745237 0.87375,-0.96419 2.02098,-1.694354 3.30333,-1.960968 0.20963,9.03e-4 0.26577,-0.103578 0.093,-0.240293 -0.25555,-0.262351 -0.45024,-0.655192 -0.82164,-0.75938 -0.0604,-0.01148 -0.12196,-0.01488 -0.18328,-0.01299 z"
             id="path4149"
             inkscape:connector-curvature="0" />
          <path
             style="color:#000000;clip-rule:nonzero;display:inline;overflow:visible;visibility:visible;opacity:1;isolation:auto;mix-blend-mode:normal;color-interpolation:sRGB;color-interpolation-filters:linearRGB;solid-color:#000000;solid-opacity:1;fill:#be0000;fill-opacity:1;fill-rule:evenodd;color-rendering:auto;image-rendering:auto;shape-rendering:auto;text-rendering:auto;enable-background:accumulate"
             d="m -303.61276,13.641231 c -0.41799,0.03245 -0.61779,0.477249 -0.88701,0.74149 -0.13669,0.121978 -0.20666,0.276962 0.0514,0.264585 1.2609,0.261764 2.40123,0.961678 3.2623,1.91168 0.14722,0.09884 0.16796,-0.360714 0.26458,-0.46536 0.17582,-0.351527 0.22362,-0.803091 -0.0858,-1.099071 -0.62036,-0.668776 -1.46661,-1.135131 -2.35308,-1.339461 -0.0834,-0.01306 -0.16808,-0.01967 -0.25243,-0.01386 z"
             id="path4151"
             inkscape:connector-curvature="0" />
          <path
             style="color:#000000;clip-rule:nonzero;display:inline;overflow:visible;visibility:visible;opacity:1;isolation:auto;mix-blend-mode:normal;color-interpolation:sRGB;color-interpolation-filters:linearRGB;solid-color:#000000;solid-opacity:1;fill:#be1a03;fill-opacity:1;fill-rule:evenodd;color-rendering:auto;image-rendering:auto;shape-rendering:auto;text-rendering:auto;enable-background:accumulate"
             d="m -305.66075,15.082009 c -1.94397,-0.01237 -3.82074,1.211037 -4.63291,2.971976 -0.33834,0.693093 -0.54084,1.457407 -0.48558,2.233015 -0.0964,1.628399 0.77095,3.212603 2.05017,4.182129 1.27697,0.99525 3.02727,1.322957 4.57821,0.862814 1.96688,-0.52587 3.49866,-2.322099 3.75423,-4.333317 0.0306,-0.819779 0.069,-1.669223 -0.26037,-2.441275 -0.5721,-1.652227 -2.01906,-2.947366 -3.71827,-3.350795 -0.41875,-0.106251 -0.85527,-0.125624 -1.28548,-0.124547 z m 0.28974,0.676531 c 1.26123,0.0073 2.47634,0.668196 3.2854,1.616981 0.73174,0.864632 1.1282,2.005466 1.03991,3.139576 -0.006,1.500206 -0.91045,2.918164 -2.17399,3.692017 -1.45081,0.901836 -3.41635,0.886162 -4.83442,-0.07769 -1.07495,-0.672719 -1.8212,-1.823947 -2.03203,-3.069632 -0.0655,-0.942525 -0.0646,-1.941785 0.41242,-2.790091 0.69704,-1.378864 2.13217,-2.390417 3.68004,-2.507048 0.20748,-0.0065 0.41513,-0.0047 0.62267,-0.0041 z"
             id="path4155"
             inkscape:connector-curvature="0" />
          <path
             style="color:#000000;clip-rule:nonzero;display:inline;overflow:visible;visibility:visible;opacity:1;isolation:auto;mix-blend-mode:normal;color-interpolation:sRGB;color-interpolation-filters:linearRGB;solid-color:#000000;solid-opacity:1;fill:#ffffff;fill-opacity:1;fill-rule:evenodd;color-rendering:auto;image-rendering:auto;shape-rendering:auto;text-rendering:auto;enable-background:accumulate"
             d="m -305.73653,15.82275 c -2.38845,-0.02908 -4.48731,2.23901 -4.32569,4.614357 -0.0228,2.465217 2.36565,4.649857 4.82587,4.337143 2.31076,-0.09022 4.28111,-2.275786 4.13614,-4.58449 0.008,-1.614297 -0.99203,-3.170089 -2.43352,-3.8845 -0.67108,-0.384607 -1.437,-0.515227 -2.2028,-0.48251 z m 0.22195,0.636647 c 0.40764,0.04513 0.25227,0.622139 0.3063,0.90608 -0.0181,1.039785 0.0708,2.092943 -0.0557,3.124789 -0.21872,0.347413 -0.73238,0.154385 -1.07156,0.216735 -0.96219,-0.02956 -1.9421,0.07502 -2.8937,-0.06728 -0.34569,-0.169542 -0.20279,-0.783643 0.2074,-0.703974 1.02003,-0.04698 2.04195,-0.03357 3.06277,-0.0529 0.0353,-1.082252 -0.076,-2.178417 0.0725,-3.252168 0.0398,-0.180086 0.22423,-0.179642 0.37202,-0.171278 z"
             id="path4177-2"
             inkscape:connector-curvature="0" />
        </g>
      </g>
    </g>
  </g>
</svg>
