<?xml version="1.0" encoding="UTF-8" standalone="no"?>
<!-- Created with Inkscape (http://www.inkscape.org/) -->

<svg
   xmlns:dc="http://purl.org/dc/elements/1.1/"
   xmlns:cc="http://creativecommons.org/ns#"
   xmlns:rdf="http://www.w3.org/1999/02/22-rdf-syntax-ns#"
   xmlns:svg="http://www.w3.org/2000/svg"
   xmlns="http://www.w3.org/2000/svg"
   xmlns:sodipodi="http://sodipodi.sourceforge.net/DTD/sodipodi-0.dtd"
   xmlns:inkscape="http://www.inkscape.org/namespaces/inkscape"
   width="48"
   height="48"
   viewBox="0 0 48 48"
   id="svg3632"
   version="1.1"
   inkscape:version="0.91 r13725"
   sodipodi:docname="site.svg">
  <defs
     id="defs3634" />
  <sodipodi:namedview
     id="base"
     pagecolor="#ffffff"
     bordercolor="#666666"
     borderopacity="1.0"
     inkscape:pageopacity="0.0"
     inkscape:pageshadow="2"
     inkscape:zoom="0.35"
     inkscape:cx="221.71073"
     inkscape:cy="-459.00361"
     inkscape:document-units="px"
     inkscape:current-layer="layer1"
     showgrid="false"
     fit-margin-top="0"
     fit-margin-left="0"
     fit-margin-right="0"
     fit-margin-bottom="0"
     units="px"
     inkscape:window-width="1920"
     inkscape:window-height="1018"
     inkscape:window-x="-8"
     inkscape:window-y="-8"
     inkscape:window-maximized="1" />
  <metadata
     id="metadata3637">
    <rdf:RDF>
      <cc:Work
         rdf:about="">
        <dc:format>image/svg+xml</dc:format>
        <dc:type
           rdf:resource="http://purl.org/dc/dcmitype/StillImage" />
        <dc:title></dc:title>
      </cc:Work>
    </rdf:RDF>
  </metadata>
  <g
     inkscape:label="Layer 1"
     inkscape:groupmode="layer"
     id="layer1"
     transform="translate(426.71072,-25.358593)">
    <g
       transform="matrix(1.0061397,0,0,1.0061397,560.96091,400.04241)"
       id="g3617">
      <rect
         style="fill:#ffffff;fill-opacity:1;stroke:#be1b05;stroke-width:3.67000008;stroke-linejoin:round;stroke-miterlimit:0;stroke-dasharray:none;stroke-opacity:1"
         id="rect13740"
         width="44.037094"
         height="44.037094"
         x="-979.80963"
         y="-370.56241"
         ry="1.8348789" />
      <path
         inkscape:connector-curvature="0"
         id="path4135"
         d="m -959.47606,-335.60657 c -1.43567,-0.0733 -1.98386,-0.12097 -2.92016,-0.25401 -2.57226,-0.3655 -4.6872,-1.08427 -6.15851,-2.093 -0.32156,-0.22046 -0.87263,-0.72132 -1.0727,-0.97494 -0.69332,-0.87894 -0.88292,-1.79945 -0.55932,-2.71528 0.48445,-1.37099 2.20827,-2.39007 5.03412,-2.97605 0.72574,-0.15048 1.83196,-0.31314 2.43043,-0.35736 l 0.21732,-0.016 0.22865,0.2166 c 0.21229,0.20111 0.22394,0.21748 0.16298,0.229 -0.0361,0.006 -0.29792,0.0425 -0.58178,0.0793 -0.87523,0.11349 -1.83073,0.31093 -2.53402,0.52363 -2.38348,0.7208 -3.42936,1.80492 -2.87399,2.97903 0.30563,0.64612 1.19453,1.31801 2.38606,1.80354 1.86415,0.75961 4.4335,1.18283 7.17809,1.18233 3.95804,-7e-4 7.46825,-0.87055 8.97706,-2.22457 1.83635,-1.64795 0.26532,-3.3454 -3.80227,-4.10824 -0.26146,-0.049 -0.70764,-0.11919 -0.99149,-0.1559 -0.28388,-0.0366 -0.54568,-0.0724 -0.58178,-0.0793 -0.0609,-0.0115 -0.0492,-0.0279 0.16237,-0.22674 0.26939,-0.25318 0.19369,-0.24131 0.95913,-0.1503 3.51949,0.41849 5.83562,1.37793 6.71223,2.78051 0.2421,0.38734 0.36264,0.77268 0.38536,1.23179 0.0893,1.8055 -1.68348,3.4045 -4.85298,4.37705 -1.5561,0.4775 -3.20117,0.758 -5.24271,0.89392 -0.39575,0.0263 -2.3322,0.0517 -2.66209,0.0349 z m 0.55531,-5.2614 c -1.91953,-2.82701 -3.74167,-5.77273 -5.0391,-8.14628 -1.34945,-2.46877 -2.18469,-4.44432 -2.40289,-5.6835 -0.15034,-0.85385 -0.0125,-2.296 0.32389,-3.38786 0.76182,-2.47302 2.67395,-4.2241 5.31878,-4.87083 0.76541,-0.18716 1.33531,-0.25281 2.19475,-0.25281 0.85946,0 1.42936,0.0657 2.19475,0.25281 3.53527,0.86445 5.67908,3.66111 5.69379,7.4277 0.003,0.63766 -0.0181,0.78679 -0.20147,1.46287 -0.53979,1.98956 -2.22193,5.26492 -4.88353,9.5089 -0.98423,1.56937 -2.75042,4.24141 -2.80354,4.24141 -0.0113,0 -0.18914,-0.24858 -0.39543,-0.55241 z m 0.89768,-12.27726 c 1.05055,-0.16776 1.93088,-0.97044 2.1791,-1.98693 0.0698,-0.28583 0.0614,-0.833 -0.0172,-1.11873 -0.13068,-0.47515 -0.34245,-0.83467 -0.69471,-1.1794 -0.73849,-0.7227 -1.83025,-0.97251 -2.85062,-0.65225 -1.03446,0.32467 -1.76463,1.21206 -1.85055,2.24901 -0.0674,0.81417 0.33239,1.65778 1.03092,2.17502 0.62097,0.45979 1.40053,0.64142 2.20305,0.51328 z"
         style="fill:#be0000;fill-opacity:1" />
    </g>
  </g>
</svg>
