<?xml version="1.0" encoding="UTF-8" standalone="no"?>
<!-- Created with Inkscape (http://www.inkscape.org/) -->

<svg
   xmlns:dc="http://purl.org/dc/elements/1.1/"
   xmlns:cc="http://creativecommons.org/ns#"
   xmlns:rdf="http://www.w3.org/1999/02/22-rdf-syntax-ns#"
   xmlns:svg="http://www.w3.org/2000/svg"
   xmlns="http://www.w3.org/2000/svg"
   xmlns:sodipodi="http://sodipodi.sourceforge.net/DTD/sodipodi-0.dtd"
   xmlns:inkscape="http://www.inkscape.org/namespaces/inkscape"
   width="48.21217"
   height="48.21217"
   viewBox="0 0 48.212169 48.212169"
   id="svg4887"
   version="1.1"
   inkscape:version="0.91 r13725"
   sodipodi:docname="site-temporary-office.svg">
  <defs
     id="defs4889" />
  <sodipodi:namedview
     id="base"
     pagecolor="#ffffff"
     bordercolor="#666666"
     borderopacity="1.0"
     inkscape:pageopacity="0.0"
     inkscape:pageshadow="2"
     inkscape:zoom="0.35"
     inkscape:cx="-68.036753"
     inkscape:cy="-41.608204"
     inkscape:document-units="px"
     inkscape:current-layer="layer1"
     showgrid="false"
     fit-margin-top="0"
     fit-margin-left="0"
     fit-margin-right="0"
     fit-margin-bottom="0"
     units="px"
     inkscape:window-width="1920"
     inkscape:window-height="1018"
     inkscape:window-x="-8"
     inkscape:window-y="-8"
     inkscape:window-maximized="1" />
  <metadata
     id="metadata4892">
    <rdf:RDF>
      <cc:Work
         rdf:about="">
        <dc:format>image/svg+xml</dc:format>
        <dc:type
           rdf:resource="http://purl.org/dc/dcmitype/StillImage" />
        <dc:title></dc:title>
      </cc:Work>
    </rdf:RDF>
  </metadata>
  <g
     inkscape:label="Layer 1"
     inkscape:groupmode="layer"
     id="layer1"
     transform="translate(-298.75104,-442.54183)">
    <g
       transform="translate(1511.6391,698.84191)"
       id="g4832">
      <g
         transform="matrix(0.86645454,0,0,0.86645454,-81.854905,64.670954)"
         id="g4818">
        <path
           style="color:#000000;clip-rule:nonzero;display:inline;overflow:visible;visibility:visible;opacity:0;isolation:auto;mix-blend-mode:normal;color-interpolation:sRGB;color-interpolation-filters:linearRGB;solid-color:#000000;solid-opacity:1;fill:#be1a03;fill-opacity:1;fill-rule:evenodd;stroke:#be0000;stroke-width:3.67000008;stroke-linecap:butt;stroke-linejoin:miter;stroke-miterlimit:0;stroke-dasharray:none;stroke-dashoffset:0;stroke-opacity:1;color-rendering:auto;image-rendering:auto;shape-rendering:auto;text-rendering:auto;enable-background:accumulate"
           d="m -1291.6353,-348.76661 c -1.694,-0.2065 -2.9042,1.5563 -2.6636,3.11754 -0.045,2.9918 -0.2044,6.01744 0.151,8.98974 0.1821,0.82509 1.2369,1.24434 1.61,1.7613 -0.7811,0.0523 -1.9267,0.38377 -1.7899,-0.81119 -0.8173,-3.07814 -1.3025,-6.27037 -2.3759,-9.26623 -0.4659,-0.45782 -1.1646,0.20984 -0.7607,0.75753 0.7587,3.41909 1.4145,6.89271 2.477,10.22461 1.108,0.48105 2.4616,0.0951 3.6552,0.22426 0,2.13763 0,4.27525 0,6.41288 -0.8148,0.16149 -1.8621,-0.1687 -2.5625,0.2989 -0.3042,1.06121 1.2258,0.66321 1.8025,0.80392 1.5095,-0.0283 3.1414,0.20232 4.5832,-0.2002 0.4318,-1.02865 -1.0794,-0.8445 -1.6733,-0.9108 -1.5704,0.37189 -0.8099,-1.45227 -0.9936,-2.38678 0.022,-1.33829 -0.083,-2.69237 0.1383,-4.01792 1.4066,-0.10641 2.9207,0.2231 4.2651,-0.20752 0.1976,-0.38042 -0.4307,-1.11678 0.4437,-0.97168 0.6922,0.25539 0.2504,1.37048 0.415,1.92697 0.019,1.84586 0.01,3.69188 0.01,5.53781 0.6727,1.03397 2.0915,1.6667 3.1889,0.89564 1.1334,-0.49737 0.8056,-1.68508 0.8496,-2.68718 -0.097,-2.84984 0.3508,-5.76285 -0.2187,-8.57189 -0.6247,-1.45819 -2.5762,-0.92219 -3.8195,-1.11394 -0.9408,-0.12683 -2.5042,0.38015 -2.1177,-1.10669 -0.1736,-0.47914 0.2574,-0.88554 0.6163,-0.4248 0.7252,0.84653 1.9744,1.42589 2.966,0.62081 2.0821,-1.41379 4.2736,-2.78881 6.0784,-4.5302 0.4168,-1.1352 0.022,-2.61385 -1.3058,-2.84773 -1.6939,-0.45524 -2.8467,1.30637 -4.1889,2.01269 -0.5822,0.20275 -1.285,1.41372 -1.8498,0.61322 -1.787,-1.37972 -3.0801,-3.746 -5.4701,-4.10749 -0.4852,-0.0486 -0.9735,-0.0367 -1.4603,-0.0356 z"
           id="path4136"
           inkscape:connector-curvature="0" />
        <path
           style="color:#000000;clip-rule:nonzero;display:inline;overflow:visible;visibility:visible;opacity:0;isolation:auto;mix-blend-mode:normal;color-interpolation:sRGB;color-interpolation-filters:linearRGB;solid-color:#000000;solid-opacity:1;fill:#be1a03;fill-opacity:1;fill-rule:evenodd;stroke:none;stroke-width:3.67000008;stroke-linecap:butt;stroke-linejoin:miter;stroke-miterlimit:0;stroke-dasharray:none;stroke-dashoffset:0;stroke-opacity:1;color-rendering:auto;image-rendering:auto;shape-rendering:auto;text-rendering:auto;enable-background:accumulate"
           d="m -1291.7124,-348.76696 c -1.6855,-0.20976 -2.803,1.6065 -2.5874,3.12208 -0.043,2.99047 -0.2022,6.01451 0.1519,8.98555 0.1831,0.82516 1.235,1.24393 1.6107,1.7613 -0.7801,0.0531 -1.9225,0.38245 -1.7846,-0.81129 -0.8006,-3.09108 -1.3454,-6.28754 -2.3407,-9.30659 -0.5052,-0.51628 -1.1942,0.27549 -0.8074,0.82136 0.7563,3.41228 1.4144,6.87846 2.4832,10.20124 1.1075,0.48119 2.4612,0.095 3.6545,0.22426 0,2.13763 0,4.27525 0,6.41288 -0.8148,0.16149 -1.8621,-0.1687 -2.5625,0.2989 -0.3042,1.06121 1.2258,0.66321 1.8025,0.80392 1.5095,-0.0283 3.1414,0.20232 4.5832,-0.2002 0.4355,-1.01888 -1.0397,-0.82756 -1.6267,-0.86448 -1.5399,0.40347 -0.7589,-1.46567 -0.9747,-2.35877 0,-1.36321 -0.1048,-2.73472 0.052,-4.09225 1.4245,-0.14072 3.0172,0.29144 4.3513,-0.27344 0.1842,-0.29611 -0.3313,-0.90979 0.3379,-0.79799 1.0088,0.0988 0.2115,2.00365 0.4656,2.85715 0.085,1.52449 -0.1703,3.18951 0.1263,4.62613 0.7466,1.26066 2.644,1.51371 3.5748,0.32947 0.7064,-0.77858 0.1526,-2.12921 0.3473,-3.14008 -0.095,-2.58166 0.3435,-5.23585 -0.2506,-7.76977 -0.6972,-1.39774 -2.6121,-0.82222 -3.8602,-1.02896 -0.9596,-0.098 -2.4617,0.35535 -2.0571,-1.14214 -0.2149,-0.55284 0.4239,-0.86856 0.6774,-0.33169 0.7371,0.98735 2.1728,1.29437 3.1333,0.43074 2.0013,-1.40209 4.15,-2.71108 5.8755,-4.43325 0.5673,-1.30028 -0.2866,-2.89241 -1.768,-2.89306 -1.7452,0.16023 -2.946,1.74527 -4.4151,2.56801 -0.4946,0.55749 -1.0537,0.5428 -1.4568,-0.11266 -1.4817,-1.22693 -2.6619,-2.97297 -4.4632,-3.73116 -0.7453,-0.16008 -1.5137,-0.16125 -2.2723,-0.15521 z"
           id="path4138"
           inkscape:connector-curvature="0" />
        <g
           id="g4146"
           transform="translate(-954.55996,-376.5359)">
          <path
             inkscape:connector-curvature="0"
             id="path4140-9"
             d="m -333.964,28.765592 c -1.69401,-0.206498 -2.9042,1.556296 -2.66357,3.117539 -0.0446,2.991803 -0.20443,6.017439 0.15101,8.989743 0.18213,0.825082 1.23689,1.244331 1.60993,1.7613 -0.78107,0.05228 -1.92662,0.383763 -1.78989,-0.811192 -0.81725,-3.078145 -1.30241,-6.270368 -2.37584,-9.266235 -0.46587,-0.457816 -1.16459,0.209845 -0.76067,0.757533 0.75862,3.419092 1.41447,6.892712 2.47698,10.22461 1.10797,0.481053 2.46157,0.09513 3.65513,0.22426 0,2.137626 0,4.275252 0,6.412877 -0.81472,0.161493 -1.86207,-0.168702 -2.56243,0.298898 -0.30424,1.061213 1.22574,0.663209 1.80246,0.80392 1.50946,-0.02827 3.14145,0.202328 4.58321,-0.200195 0.43184,-1.028648 -1.07938,-0.844502 -1.67331,-0.910796 -1.5704,0.371885 -0.80984,-1.45227 -0.99359,-2.386784 0.0222,-1.338291 -0.0829,-2.69237 0.1383,-4.01792 1.40661,-0.106412 2.92066,0.223098 4.26514,-0.207519 0.19755,-0.38042 -0.43076,-1.11678 0.44364,-0.97168 0.69226,0.25539 0.25038,1.37048 0.41504,1.926967 0.0188,1.845866 0.007,3.691877 0.0101,5.537807 0.67263,1.03397 2.09141,1.666707 3.18882,0.895647 1.13344,-0.497375 0.80561,-1.685083 0.84969,-2.687183 -0.0971,-2.849838 0.35076,-5.762854 -0.21876,-8.571885 -0.62471,-1.458196 -2.57618,-0.922192 -3.81951,-1.113944 -0.94078,-0.12683 -2.50413,0.380148 -2.11764,-1.106689 -0.17359,-0.479143 0.25736,-0.885537 0.61628,-0.424805 0.72522,0.846537 1.97434,1.425894 2.96596,0.620815 2.08211,-1.413794 4.27359,-2.788811 6.07841,-4.530204 0.41686,-1.135198 0.0218,-2.61385 -1.30581,-2.847726 -1.69383,-0.455246 -2.84664,1.306371 -4.18887,2.01269 -0.58218,0.202748 -1.28502,1.413717 -1.84977,0.613217 -1.78703,-1.37972 -3.08014,-3.745994 -5.47015,-4.107491 -0.48515,-0.04862 -0.9735,-0.03668 -1.46031,-0.03558 z"
             style="color:#000000;clip-rule:nonzero;display:inline;overflow:visible;visibility:visible;opacity:1;isolation:auto;mix-blend-mode:normal;color-interpolation:sRGB;color-interpolation-filters:linearRGB;solid-color:#000000;solid-opacity:1;fill:#be1a03;fill-opacity:1;fill-rule:evenodd;color-rendering:auto;image-rendering:auto;shape-rendering:auto;text-rendering:auto;enable-background:accumulate" />
          <path
             inkscape:connector-curvature="0"
             id="path4142-5"
             d="m -332.61321,22.040913 c -2.2595,0.06543 -3.73572,3.03269 -2.22551,4.796665 1.24953,1.739265 4.13503,1.490913 5.08858,-0.41469 1.20829,-1.977818 -0.65373,-4.543933 -2.86307,-4.381975 z"
             style="color:#000000;clip-rule:nonzero;display:inline;overflow:visible;visibility:visible;opacity:1;isolation:auto;mix-blend-mode:normal;color-interpolation:sRGB;color-interpolation-filters:linearRGB;solid-color:#000000;solid-opacity:1;fill:#be1a03;fill-opacity:1;fill-rule:evenodd;color-rendering:auto;image-rendering:auto;shape-rendering:auto;text-rendering:auto;enable-background:accumulate" />
          <path
             inkscape:connector-curvature="0"
             id="path4144-7"
             d="m -316.61153,22.579417 c -0.46791,1.336815 -0.15126,2.91086 -0.26234,4.3321 0.10086,2.016359 -0.22249,4.116315 0.22816,6.08259 0.49179,0.316687 1.6455,-0.561099 1.39509,0.585589 0.16131,1.126656 1.69324,0.534526 2.45949,0.682765 0.81525,-0.25797 2.69978,0.562993 2.45901,-0.766722 0.224,-0.858692 -0.47524,-2.408115 0.82996,-2.457896 1.36978,-0.105655 0.54138,-1.824852 0.79466,-2.750053 -0.1001,-1.105315 0.28788,-2.384969 -0.21081,-3.394617 -2.49288,-0.943225 -5.09459,-1.729998 -7.69322,-2.313756 z m 4.7705,9.24142 c 0.55897,0.106626 0.38411,1.323379 0.1444,1.406599 -0.70119,-0.152211 -1.752,0.280079 -2.30016,-0.215541 0.0452,-0.902465 1.5062,-1.002517 2.15576,-1.191058 z"
             style="color:#000000;clip-rule:nonzero;display:inline;overflow:visible;visibility:visible;opacity:1;isolation:auto;mix-blend-mode:normal;color-interpolation:sRGB;color-interpolation-filters:linearRGB;solid-color:#000000;solid-opacity:1;fill:#be1a03;fill-opacity:1;fill-rule:evenodd;color-rendering:auto;image-rendering:auto;shape-rendering:auto;text-rendering:auto;enable-background:accumulate" />
          <path
             inkscape:connector-curvature="0"
             id="path4146-0"
             d="m -316.84312,34.839462 c -1.3337,0.132912 -2.88109,-0.24677 -4.08343,0.382952 -0.14137,1.070602 1.32593,0.615298 1.9402,0.740114 3.10827,0.0905 6.24451,-0.04832 9.33666,0.17925 0.57651,0.416029 1.04095,1.187101 1.10491,1.878836 -2.60289,4.106942 -5.37153,8.1064 -8.06257,12.155762 -1.39264,0.149046 -2.97586,-0.292684 -4.26304,0.336565 -0.31087,0.96773 1.22326,0.70042 1.77901,0.77767 3.42329,0.02278 6.89067,0.117852 10.28712,-0.165924 0.52272,-0.809966 -0.62192,-0.92522 -1.16723,-0.852944 -1.70317,-0.0746 -3.4309,0.01558 -5.118,-0.205231 2.61734,-4.106929 5.39338,-8.112269 8.09047,-12.16762 -0.6593,-0.967783 -1.16674,-2.097927 -1.96812,-2.941197 -2.62029,-0.160031 -5.25164,-0.106073 -7.87598,-0.118233 z"
             style="color:#000000;clip-rule:nonzero;display:inline;overflow:visible;visibility:visible;opacity:1;isolation:auto;mix-blend-mode:normal;color-interpolation:sRGB;color-interpolation-filters:linearRGB;solid-color:#000000;solid-opacity:1;fill:#be1a03;fill-opacity:1;fill-rule:evenodd;color-rendering:auto;image-rendering:auto;shape-rendering:auto;text-rendering:auto;enable-background:accumulate" />
        </g>
        <g
           id="g4201"
           transform="matrix(0.77656775,0,0,0.7806467,-1056.3277,-372.01544)">
          <path
             inkscape:connector-curvature="0"
             id="path4150"
             d="m -306.7601,13.125284 c -0.84545,0.132008 -1.62855,0.590294 -2.24217,1.175624 -0.28852,0.263116 -0.32869,0.683798 -0.1566,1.023734 0.10763,0.172788 0.13195,0.736814 0.3578,0.376079 0.81828,-0.874493 1.91527,-1.492941 3.10124,-1.686504 -0.31148,-0.306878 -0.54982,-0.909423 -1.06027,-0.888933 z"
             style="color:#000000;clip-rule:nonzero;display:inline;overflow:visible;visibility:visible;opacity:1;isolation:auto;mix-blend-mode:normal;color-interpolation:sRGB;color-interpolation-filters:linearRGB;solid-color:#000000;solid-opacity:1;fill:#be1a03;fill-opacity:1;fill-rule:evenodd;color-rendering:auto;image-rendering:auto;shape-rendering:auto;text-rendering:auto;enable-background:accumulate" />
          <path
             inkscape:connector-curvature="0"
             id="path4152"
             d="m -303.02623,13.128336 c -0.47659,0.02772 -0.67153,0.538204 -0.96052,0.842285 -0.0414,0.131477 0.2981,0.07054 0.38789,0.134752 1.04846,0.271579 2.01266,0.845908 2.72975,1.660624 0.18277,0.232163 0.20491,-0.330828 0.31186,-0.460621 0.16421,-0.310399 0.1435,-0.699633 -0.12471,-0.947618 -0.5772,-0.601367 -1.34256,-1.048341 -2.16055,-1.219308 -0.0608,-0.0083 -0.12233,-0.01284 -0.18372,-0.01011 z"
             style="color:#000000;clip-rule:nonzero;display:inline;overflow:visible;visibility:visible;opacity:1;isolation:auto;mix-blend-mode:normal;color-interpolation:sRGB;color-interpolation-filters:linearRGB;solid-color:#000000;solid-opacity:1;fill:#be1a03;fill-opacity:1;fill-rule:evenodd;color-rendering:auto;image-rendering:auto;shape-rendering:auto;text-rendering:auto;enable-background:accumulate" />
          <path
             inkscape:connector-curvature="0"
             id="path4154"
             d="m -304.8858,15.771158 c -0.36023,0.03853 -0.25816,0.491072 -0.28145,0.739659 -0.007,0.813689 -0.002,1.627432 -0.004,2.441144 -0.99867,0.02092 -2.00365,-0.04411 -2.99848,0.03915 -0.27142,0.09286 -0.19464,0.586773 0.12157,0.522715 1.09027,0.02272 2.18443,0.04091 3.27364,-0.0093 0.31939,-0.07279 0.1859,-0.501297 0.22496,-0.735124 -0.0127,-0.936856 0.0432,-1.879398 -0.0357,-2.812762 -0.0369,-0.119221 -0.18144,-0.193526 -0.30077,-0.185462 z"
             style="color:#000000;clip-rule:nonzero;display:inline;overflow:visible;visibility:visible;opacity:1;isolation:auto;mix-blend-mode:normal;color-interpolation:sRGB;color-interpolation-filters:linearRGB;solid-color:#000000;solid-opacity:1;fill:#be1a03;fill-opacity:1;fill-rule:evenodd;color-rendering:auto;image-rendering:auto;shape-rendering:auto;text-rendering:auto;enable-background:accumulate" />
          <path
             inkscape:connector-curvature="0"
             id="path4156"
             d="m -304.90184,14.450096 c -1.1653,8.35e-4 -2.31624,0.442413 -3.17147,1.237008 -1.48937,1.29862 -2.02585,3.571001 -1.22929,5.38724 0.78371,2.009284 3.05054,3.298421 5.1778,2.922578 1.21068,-0.175878 2.31463,-0.861121 3.06754,-1.818265 0.56261,-0.735791 0.91862,-1.649517 0.98082,-2.574899 0.0841,-1.138242 -0.23231,-2.298635 -0.92453,-3.211126 -0.89461,-1.221737 -2.38709,-1.963201 -3.90087,-1.942536 z m 0.1845,0.625086 c 1.92092,-0.01713 3.65462,1.545071 3.98237,3.41361 0.35904,1.757336 -0.57796,3.666681 -2.17777,4.472718 -1.66154,0.911829 -3.92422,0.499141 -5.12894,-0.974847 -0.64036,-0.764622 -1.06549,-1.755085 -0.98714,-2.766845 -0.0904,-1.831989 1.30347,-3.518961 3.02795,-4.015981 0.41363,-0.124909 0.85532,-0.123805 1.28353,-0.128655 z"
             style="color:#000000;clip-rule:nonzero;display:inline;overflow:visible;visibility:visible;opacity:1;isolation:auto;mix-blend-mode:normal;color-interpolation:sRGB;color-interpolation-filters:linearRGB;solid-color:#000000;solid-opacity:1;fill:#be1a03;fill-opacity:1;fill-rule:evenodd;color-rendering:auto;image-rendering:auto;shape-rendering:auto;text-rendering:auto;enable-background:accumulate" />
        </g>
      </g>
      <g
         transform="translate(-58.04061,111.47462)"
         id="g4623">
        <rect
           style="fill:none;fill-opacity:1;stroke:#be1b05;stroke-width:3.66999984;stroke-linejoin:round;stroke-miterlimit:0;stroke-dasharray:none;stroke-opacity:1"
           id="rect4625"
           width="44.542168"
           height="44.542168"
           x="-1153.0125"
           y="-365.9397"
           ry="1.8348789"
           rx="1.8348789" />
        <g
           id="g4627"
           transform="matrix(1.499881,0,0,1.499881,-662.53971,-382.35224)">
          <path
             style="fill:#be0000;fill-opacity:1"
             d="m -304.49053,22.063746 c -0.43195,-0.02205 -0.5969,-0.0364 -0.87861,-0.07643 -0.77393,-0.109969 -1.41027,-0.326232 -1.85295,-0.629733 -0.0968,-0.06633 -0.26255,-0.217027 -0.32275,-0.293338 -0.2086,-0.264453 -0.26565,-0.541411 -0.16828,-0.81696 0.14576,-0.412501 0.66441,-0.719118 1.51465,-0.895426 0.21835,-0.04528 0.55119,-0.09422 0.73126,-0.107522 l 0.0654,-0.0048 0.0688,0.06517 c 0.0639,0.06051 0.0674,0.06544 0.049,0.0689 -0.0109,0.0021 -0.0896,0.0128 -0.17504,0.02387 -0.26334,0.03415 -0.55082,0.09355 -0.76243,0.157547 -0.71713,0.216874 -1.03181,0.543058 -0.86471,0.896322 0.0919,0.194401 0.3594,0.396558 0.71791,0.542644 0.56087,0.228549 1.33393,0.355883 2.15971,0.355736 1.19089,-2.13e-4 2.24702,-0.261929 2.70099,-0.669322 0.55252,-0.495828 0.0798,-1.006549 -1.14401,-1.236071 -0.0787,-0.01475 -0.21291,-0.03586 -0.29832,-0.04691 -0.0854,-0.01105 -0.16418,-0.02176 -0.17504,-0.02382 -0.0183,-0.0035 -0.0148,-0.0084 0.0488,-0.06822 0.0811,-0.07618 0.0583,-0.07261 0.28858,-0.04522 1.05893,0.125913 1.7558,0.414587 2.01956,0.836591 0.0728,0.116541 0.10911,0.232479 0.11594,0.370615 0.0269,0.543234 -0.50652,1.024333 -1.46015,1.316955 -0.46819,0.143668 -0.96315,0.228062 -1.5774,0.268956 -0.11908,0.0079 -0.70171,0.01556 -0.80097,0.01049 z m 0.16708,-1.583032 c -0.57754,-0.850586 -1.12578,-1.73688 -1.51614,-2.45103 -0.40602,-0.742791 -0.65733,-1.337189 -0.72298,-1.71003 -0.0452,-0.256906 -0.004,-0.690812 0.0974,-1.019329 0.22922,-0.744074 0.80453,-1.270934 1.6003,-1.46552 0.23029,-0.05631 0.40176,-0.07606 0.66035,-0.07606 0.25859,0 0.43006,0.01975 0.66035,0.07606 1.06368,0.260097 1.7087,1.101546 1.71312,2.23482 6.8e-4,0.191859 -0.005,0.236731 -0.0606,0.440149 -0.16241,0.598611 -0.66853,1.584088 -1.46934,2.861004 -0.29614,0.472185 -0.82754,1.27614 -0.84352,1.27614 -0.003,0 -0.0569,-0.07479 -0.11898,-0.166204 z m 0.2701,-3.693944 c 0.31608,-0.05047 0.58095,-0.291982 0.65564,-0.597819 0.021,-0.086 0.0185,-0.250629 -0.005,-0.336599 -0.0393,-0.142964 -0.10303,-0.251134 -0.20902,-0.354858 -0.2222,-0.217442 -0.55068,-0.292603 -0.85768,-0.196247 -0.31125,0.09769 -0.53094,0.364681 -0.55679,0.676679 -0.0203,0.244964 0.10001,0.498786 0.31018,0.654409 0.18684,0.138342 0.42138,0.19299 0.66284,0.154435 z"
             id="path4629"
             inkscape:connector-curvature="0" />
          <path
             transform="translate(-343.85343,8.5087792)"
             inkscape:connector-curvature="0"
             id="path4631"
             d="m 39.562855,5.3437604 c -1.649003,-0.010343 -2.779157,1.9537826 -1.832798,3.3618163 0.506989,1.142435 1.228319,2.1703543 1.873954,3.2355613 1.036828,-1.368777 2.139508,-2.9541886 2.244001,-4.7094731 C 41.741253,6.1095582 40.663214,5.2866711 39.562855,5.3437604 Z m 0.08301,1.3643973 c 0.825182,0.016954 1.366356,1.299991 0.339007,1.5523856 C 38.766828,8.723246 38.313713,6.7455979 39.645863,6.7081577 Z"
             style="color:#000000;clip-rule:nonzero;display:inline;overflow:visible;visibility:visible;opacity:0.60799997;isolation:auto;mix-blend-mode:normal;color-interpolation:sRGB;color-interpolation-filters:linearRGB;solid-color:#000000;solid-opacity:1;fill:#0e04e5;fill-opacity:1;fill-rule:evenodd;color-rendering:auto;image-rendering:auto;shape-rendering:auto;text-rendering:auto;enable-background:accumulate" />
          <path
             transform="translate(-343.85343,8.5087792)"
             inkscape:connector-curvature="0"
             id="path4633"
             d="m 40.879056,10.772315 c -0.208731,0.0059 0.0471,0.150976 0.132272,0.116315 0.537973,0.09815 1.174668,0.201491 1.522391,0.668771 0.187559,0.435733 -0.284747,0.75639 -0.629272,0.902884 -1.050201,0.446801 -2.228248,0.409678 -3.343768,0.322789 -0.620186,-0.122009 -1.33281,-0.247894 -1.760254,-0.757795 -0.261319,-0.40001 0.207427,-0.787587 0.560216,-0.897653 0.360076,-0.173775 0.783244,-0.178959 1.144671,-0.3159 -0.196139,-0.09686 -0.479713,0.01488 -0.6996,0.0297 -0.619053,0.125957 -1.388379,0.305157 -1.654788,0.952273 -0.168591,0.597821 0.427206,1.03438 0.901489,1.257673 1.120681,0.548151 2.399023,0.477166 3.609358,0.418091 0.826404,-0.09805 1.728261,-0.315704 2.313494,-0.948922 0.382394,-0.389095 0.164722,-1.020201 -0.273089,-1.260027 -0.543278,-0.323135 -1.200014,-0.449813 -1.82312,-0.488194 z"
             style="color:#000000;clip-rule:nonzero;display:inline;overflow:visible;visibility:visible;opacity:0;isolation:auto;mix-blend-mode:normal;color-interpolation:sRGB;color-interpolation-filters:linearRGB;solid-color:#000000;solid-opacity:1;fill:#be1a03;fill-opacity:1;fill-rule:evenodd;stroke:#be0000;stroke-width:3.67000008;stroke-linecap:butt;stroke-linejoin:miter;stroke-miterlimit:0;stroke-dasharray:none;stroke-dashoffset:0;stroke-opacity:1;color-rendering:auto;image-rendering:auto;shape-rendering:auto;text-rendering:auto;enable-background:accumulate" />
          <path
             transform="translate(-343.85343,8.5087792)"
             inkscape:connector-curvature="0"
             id="path4635"
             d="m 39.552762,5.3598042 c -1.361741,-0.011802 -2.491114,1.4975774 -2.047293,2.794015 0.526588,1.2785655 1.279592,2.4503858 2.021658,3.6119728 0.12545,0.232393 0.244541,-0.107204 0.334874,-0.191545 0.871813,-1.224412 1.761321,-2.5486705 1.936332,-4.0788227 0.123104,-1.2261837 -1.089734,-2.186602 -2.245571,-2.1356201 z m 0.107073,1.3384138 c 0.604044,0.014697 1.166498,0.8211232 0.741665,1.337193 -0.392207,0.3751438 -1.14593,0.448414 -1.443482,-0.085449 -0.29885,-0.4254433 -0.09278,-1.078512 0.424107,-1.2085833 0.08926,-0.029656 0.183511,-0.045897 0.27771,-0.04316 z"
             style="color:#000000;clip-rule:nonzero;display:inline;overflow:visible;visibility:visible;opacity:1;isolation:auto;mix-blend-mode:normal;color-interpolation:sRGB;color-interpolation-filters:linearRGB;solid-color:#000000;solid-opacity:1;fill:#085bdf;fill-opacity:1;fill-rule:evenodd;color-rendering:auto;image-rendering:auto;shape-rendering:auto;text-rendering:auto;enable-background:accumulate" />
          <path
             transform="translate(-343.85343,8.5087792)"
             inkscape:connector-curvature="0"
             id="path4637"
             d="m 40.879056,10.772315 c -0.208731,0.0059 0.0471,0.150976 0.132272,0.116315 0.537973,0.09815 1.174668,0.201491 1.522391,0.668771 0.187559,0.435733 -0.284747,0.75639 -0.629272,0.902884 -1.050201,0.446801 -2.228248,0.409678 -3.343768,0.322789 -0.620186,-0.122009 -1.33281,-0.247894 -1.760254,-0.757795 -0.261319,-0.40001 0.207427,-0.787587 0.560216,-0.897653 0.360076,-0.173775 0.783244,-0.178959 1.144671,-0.3159 -0.196139,-0.09686 -0.479713,0.01488 -0.6996,0.0297 -0.619053,0.125957 -1.388379,0.305157 -1.654788,0.952273 -0.168591,0.597821 0.427206,1.03438 0.901489,1.257673 1.120681,0.548151 2.399023,0.477166 3.609358,0.418091 0.826404,-0.09805 1.728261,-0.315704 2.313494,-0.948922 0.382394,-0.389095 0.164722,-1.020201 -0.273089,-1.260027 -0.543278,-0.323135 -1.200014,-0.449813 -1.82312,-0.488194 z"
             style="color:#000000;clip-rule:nonzero;display:inline;overflow:visible;visibility:visible;opacity:1;isolation:auto;mix-blend-mode:normal;color-interpolation:sRGB;color-interpolation-filters:linearRGB;solid-color:#000000;solid-opacity:1;fill:#0859e0;fill-opacity:1;fill-rule:evenodd;color-rendering:auto;image-rendering:auto;shape-rendering:auto;text-rendering:auto;enable-background:accumulate" />
          <path
             transform="translate(-343.85343,8.5087792)"
             inkscape:connector-curvature="0"
             id="path4639"
             d="m 39.611661,5.2564059 c -0.753823,0.00484 -1.539322,0.3366001 -1.954026,0.9880801 -0.294166,0.4529135 -0.416266,1.0127628 -0.360187,1.547875 0.112362,0.5592613 0.385824,1.0691361 0.643543,1.5725341 0.508519,0.9443449 1.081474,1.8537439 1.69114,2.7355039 0.05003,0.04467 0.0669,-0.06684 0.09901,-0.08788 0.710833,-1.065069 1.409446,-2.1459971 1.953102,-3.3080091 0.165464,-0.3832377 0.353372,-0.7818259 0.3272,-1.2102423 -10e-4,-0.7458684 -0.378228,-1.4982762 -1.028426,-1.8830322 -0.410501,-0.24654 -0.89456,-0.3599156 -1.371354,-0.3548245 z m 0.05444,0.082248 c 0.980672,-0.011288 1.94372,0.7032914 2.152061,1.6733427 0.0788,0.3875095 -0.03362,0.7810037 -0.117021,1.1582166 -0.312318,1.2436081 -1.036748,2.3282038 -1.779124,3.3539968 -0.103753,0.136319 -0.202886,0.286172 -0.311652,0.412896 -0.184998,-0.24584 -0.329387,-0.52165 -0.499895,-0.77828 C 38.615716,10.37025 38.119712,9.5786564 37.73187,8.7304406 37.516537,8.3828976 37.374523,7.9826201 37.3821,7.5697254 37.38267,6.577278 38.107182,5.6219701 39.080956,5.395361 39.272078,5.346691 39.469468,5.333107 39.666103,5.338653 Z"
             style="color:#000000;clip-rule:nonzero;display:inline;overflow:visible;visibility:visible;opacity:1;isolation:auto;mix-blend-mode:normal;color-interpolation:sRGB;color-interpolation-filters:linearRGB;solid-color:#000000;solid-opacity:1;fill:#0858e0;fill-opacity:1;fill-rule:evenodd;color-rendering:auto;image-rendering:auto;shape-rendering:auto;text-rendering:auto;enable-background:accumulate" />
        </g>
      </g>
    </g>
  </g>
</svg>
