<?xml version="1.0" encoding="UTF-8" standalone="no"?>
<!-- Created with Inkscape (http://www.inkscape.org/) -->

<svg
   xmlns:dc="http://purl.org/dc/elements/1.1/"
   xmlns:cc="http://creativecommons.org/ns#"
   xmlns:rdf="http://www.w3.org/1999/02/22-rdf-syntax-ns#"
   xmlns:svg="http://www.w3.org/2000/svg"
   xmlns="http://www.w3.org/2000/svg"
   xmlns:sodipodi="http://sodipodi.sourceforge.net/DTD/sodipodi-0.dtd"
   xmlns:inkscape="http://www.inkscape.org/namespaces/inkscape"
   width="48"
   height="47.999996"
   viewBox="0 0 48.000001 47.999994"
   id="svg5025"
   version="1.1"
   inkscape:version="0.91 r13725"
   sodipodi:docname="tools-makros.svg">
  <defs
     id="defs5027" />
  <sodipodi:namedview
     id="base"
     pagecolor="#ffffff"
     bordercolor="#666666"
     borderopacity="1.0"
     inkscape:pageopacity="0.0"
     inkscape:pageshadow="2"
     inkscape:zoom="0.35"
     inkscape:cx="263.52705"
     inkscape:cy="-50.5729"
     inkscape:document-units="px"
     inkscape:current-layer="layer1"
     showgrid="false"
     fit-margin-top="0"
     fit-margin-left="0"
     fit-margin-right="0"
     fit-margin-bottom="0"
     inkscape:window-width="1920"
     inkscape:window-height="1018"
     inkscape:window-x="-8"
     inkscape:window-y="-8"
     inkscape:window-maximized="1"
     units="px" />
  <metadata
     id="metadata5030">
    <rdf:RDF>
      <cc:Work
         rdf:about="">
        <dc:format>image/svg+xml</dc:format>
        <dc:type
           rdf:resource="http://purl.org/dc/dcmitype/StillImage" />
        <dc:title></dc:title>
      </cc:Work>
    </rdf:RDF>
  </metadata>
  <g
     inkscape:label="Layer 1"
     inkscape:groupmode="layer"
     id="layer1"
     transform="translate(32.812764,-433.78931)">
    <path
       style="fill:#ff0000"
       d="m 5.23119,446.55873 c -2.1248334,-2.05965 -2.3871952,-2.27462 -2.6800503,-2.19628 -1.1080578,0.29624 -2.4914469,-0.12277 -3.25427615,-0.9856 -0.74104825,-0.83833 -0.98826235,-1.85388 -0.69778335,-2.8668 l 0.1380122,-0.48136 1.10934483,1.06909 1.10934482,1.0692 0.79460965,-0.77629 0.7946097,-0.77629 -1.0849897,-1.04511 c -1.01994382,-0.98235 -1.06786197,-1.05148 -0.79777784,-1.15228 0.1580111,-0.0587 0.63412344,-0.10881 1.05806054,-0.11083 2.0665198,-0.0101 3.6866285,1.95904 3.1374509,3.81323 -0.1116771,0.37701 -0.067323,0.42934 2.2345303,2.65588 1.291612,1.24925 2.3483854,2.3571 2.3483854,2.46196 0,0.2427 -1.4130904,1.6045 -1.6648587,1.6045 -0.1040537,0 -1.2491391,-1.0273 -2.5446123,-2.28302 z"
       id="path3402-7"
       inkscape:connector-curvature="0" />
    <path
       style="fill:#00ff00"
       d="m -30.351206,481.55094 c -0.401265,-0.12034 -0.958858,-0.42651 -1.23904,-0.68034 -1.262208,-1.14338 -1.2232,-0.4011 -1.22221,-23.26195 9.9e-4,-20.7927 0.01584,-21.44278 0.499477,-22.23719 1.041329,-1.70955 -0.244442,-1.62555 23.7322568,-1.55025 l 21.6883102,0.0678 0.691744,0.63895 c 1.439425,1.32961 1.392497,0.54441 1.386359,23.18715 -0.0099,20.15123 -0.02376,20.9427 -0.502051,21.99813 -0.378989,0.8359 -0.755206,1.21251 -1.590309,1.59195 -1.055684,0.47964 -1.819108,0.49634 -21.9043375,0.48055 -11.4458045,-0.0101 -21.1389345,-0.11488 -21.5401995,-0.23522 z m 41.967688,-23.8926 0,-20.57702 -20.4913464,0.0658 -20.4913456,0.0658 -0.06534,20.51153 -0.06534,20.51164 20.5566887,0 20.5566893,0 0,-20.57702 z"
       id="path3464-8"
       inkscape:connector-curvature="0" />
    <path
       style="fill:#00ff00"
       d="m -20.51254,466.58567 -4.916957,-4.97109 4.925571,-4.97978 4.925669,-4.97979 1.073109,1.08184 1.073208,1.08195 -3.750189,3.79815 c -2.06256,2.08899 -3.750091,3.98549 -3.750091,4.21422 0,0.22884 1.649018,2.08617 3.664452,4.12739 l 3.664352,3.71141 -0.996083,0.94339 -0.996084,0.94339 -4.916957,-4.97108 z"
       id="path4032"
       inkscape:connector-curvature="0" />
    <path
       style="fill:#00ff00"
       d="m -2.8835113,470.49758 -1.0351905,-1.1109 3.83681825,-3.886 3.83681825,-3.8861 -3.84850078,-3.89784 -3.84859982,-3.89794 1.0731092,-1.08195 1.0732082,-1.08184 4.9279463,4.98222 4.9280452,4.98211 -4.9542814,4.99456 -4.9541825,4.99457 -1.0351904,-1.11089 z"
       id="path4034"
       inkscape:connector-curvature="0" />
  </g>
</svg>
