<?xml version="1.0" encoding="UTF-8" standalone="no"?>
<!-- Created with Inkscape (http://www.inkscape.org/) -->

<svg
   xmlns:dc="http://purl.org/dc/elements/1.1/"
   xmlns:cc="http://creativecommons.org/ns#"
   xmlns:rdf="http://www.w3.org/1999/02/22-rdf-syntax-ns#"
   xmlns:svg="http://www.w3.org/2000/svg"
   xmlns="http://www.w3.org/2000/svg"
   xmlns:sodipodi="http://sodipodi.sourceforge.net/DTD/sodipodi-0.dtd"
   xmlns:inkscape="http://www.inkscape.org/namespaces/inkscape"
   width="48"
   height="48"
   viewBox="0 0 48.000001 47.999998"
   id="svg4875"
   version="1.1"
   inkscape:version="0.91 r13725"
   sodipodi:docname="tools-intraru.svg">
  <defs
     id="defs4877" />
  <sodipodi:namedview
     id="base"
     pagecolor="#ffffff"
     bordercolor="#666666"
     borderopacity="1.0"
     inkscape:pageopacity="0.0"
     inkscape:pageshadow="2"
     inkscape:zoom="0.35"
     inkscape:cx="-420.75867"
     inkscape:cy="-242.00146"
     inkscape:document-units="px"
     inkscape:current-layer="layer1"
     showgrid="false"
     fit-margin-top="0"
     fit-margin-left="0"
     fit-margin-right="0"
     fit-margin-bottom="0"
     inkscape:window-width="1920"
     inkscape:window-height="1018"
     inkscape:window-x="-8"
     inkscape:window-y="-8"
     inkscape:window-maximized="1"
     units="px" />
  <metadata
     id="metadata4880">
    <rdf:RDF>
      <cc:Work
         rdf:about="">
        <dc:format>image/svg+xml</dc:format>
        <dc:type
           rdf:resource="http://purl.org/dc/dcmitype/StillImage" />
        <dc:title></dc:title>
      </cc:Work>
    </rdf:RDF>
  </metadata>
  <g
     inkscape:label="Layer 1"
     inkscape:groupmode="layer"
     id="layer1"
     transform="translate(-215.75867,-242.36074)">
    <g
       id="g4893"
       transform="matrix(0.99004445,0,0,1.0121107,2.1479952,-3.5164769)">
      <path
         inkscape:connector-curvature="0"
         id="path3402-4"
         d="m 254.18518,255.55172 c -2.1462,-2.035 -2.4112,-2.2474 -2.707,-2.17 -1.1192,0.2927 -2.5165,-0.1213 -3.287,-0.9738 -0.7485,-0.8283 -0.9982,-1.8317 -0.7048,-2.8325 l 0.1394,-0.4756 1.1205,1.0563 1.1205,1.0564 0.8026,-0.767 0.8026,-0.767 -1.0959,-1.0326 c -1.0302,-0.9706 -1.0786,-1.0389 -0.8058,-1.1385 0.1596,-0.058 0.6405,-0.1075 1.0687,-0.1095 2.0872,-0.01 3.7237,1.9356 3.169,3.7676 -0.1128,0.3725 -0.068,0.4242 2.257,2.6241 1.3046,1.2343 2.372,2.3289 2.372,2.4325 0,0.2398 -1.4273,1.5853 -1.6816,1.5853 -0.1051,0 -1.2617,-1.015 -2.5702,-2.2557 z"
         style="fill:#ff0000" />
      <path
         inkscape:connector-curvature="0"
         id="path3464-90"
         d="m 218.24498,290.12522 c -0.4053,-0.1189 -0.9685,-0.4214 -1.2515,-0.6722 -1.2749,-1.1297 -1.2355,-0.3963 -1.2345,-22.9836 0.001,-20.5439 0.016,-21.1862 0.5045,-21.9711 1.0518,-1.6891 -0.2469,-1.6061 23.9709,-1.5317 l 21.9064,0.067 0.6987,0.6313 c 1.4539,1.3137 1.4065,0.5379 1.4003,22.9097 -0.01,19.9101 -0.024,20.6921 -0.5071,21.7349 -0.3828,0.8259 -0.7628,1.198 -1.6063,1.5729 -1.0663,0.4739 -1.8374,0.4904 -22.1246,0.4748 -11.5609,-0.01 -21.3515,-0.1135 -21.7568,-0.2324 z m 42.3897,-23.6067 0,-20.3308 -20.6974,0.065 -20.6974,0.065 -0.066,20.2661 -0.066,20.2662 20.7634,0 20.7634,0 0,-20.3308 z"
         style="fill:#00ff00" />
      <path
         inkscape:connector-curvature="0"
         id="path3940"
         d="m 245.00108,282.52122 c -1.2054,-0.621 -2.1591,-2.2036 -2.1784,-3.6149 -0.012,-0.9058 -0.5073,-1.2685 -5.3291,-3.9057 -5.0371,-2.7548 -5.3606,-2.8791 -6.176,-2.3718 -1.1353,0.7062 -3.2907,0.6808 -4.4699,-0.053 -3.5463,-2.2062 -1.8174,-7.3243 2.4755,-7.3286 0.7289,-7e-4 1.6835,0.237 2.1214,0.5282 0.744,0.4948 1.1439,0.337 6.094,-2.4044 5.2702,-2.9187 5.2978,-2.9407 5.2978,-4.2265 0,-2.3814 2.451,-4.1973 5.0424,-3.7357 3.0798,0.5486 4.3646,4.527 2.1431,6.6362 -1.4596,1.3859 -2.7304,1.6315 -4.7158,0.9116 l -1.6298,-0.591 -5.0217,2.787 c -4.8107,2.6699 -5.026,2.839 -5.1253,4.026 l -0.1037,1.239 5.327,2.924 c 4.924,2.7028 5.3858,2.885 6.1038,2.4075 0.4272,-0.2841 1.4321,-0.5165 2.2333,-0.5165 2.0712,0 4.011,1.8418 4.011,3.8083 0,3.0449 -3.2951,4.9249 -6.0996,3.48 z"
         style="fill:#00ff00" />
    </g>
  </g>
</svg>
