<?xml version="1.0" encoding="UTF-8" standalone="no"?>
<!-- Created with Inkscape (http://www.inkscape.org/) -->

<svg
   xmlns:dc="http://purl.org/dc/elements/1.1/"
   xmlns:cc="http://creativecommons.org/ns#"
   xmlns:rdf="http://www.w3.org/1999/02/22-rdf-syntax-ns#"
   xmlns:svg="http://www.w3.org/2000/svg"
   xmlns="http://www.w3.org/2000/svg"
   xmlns:sodipodi="http://sodipodi.sourceforge.net/DTD/sodipodi-0.dtd"
   xmlns:inkscape="http://www.inkscape.org/namespaces/inkscape"
   width="48"
   height="48"
   viewBox="0 0 48.000003 47.999999"
   id="svg4841"
   version="1.1"
   inkscape:version="0.91 r13725"
   sodipodi:docname="tools-it.svg">
  <defs
     id="defs4843" />
  <sodipodi:namedview
     id="base"
     pagecolor="#ffffff"
     bordercolor="#666666"
     borderopacity="1.0"
     inkscape:pageopacity="0.0"
     inkscape:pageshadow="2"
     inkscape:zoom="0.35"
     inkscape:cx="-500.63242"
     inkscape:cy="-164.47982"
     inkscape:document-units="px"
     inkscape:current-layer="layer1"
     showgrid="false"
     fit-margin-top="0"
     fit-margin-left="0"
     fit-margin-right="0"
     fit-margin-bottom="0"
     inkscape:window-width="1920"
     inkscape:window-height="1018"
     inkscape:window-x="-8"
     inkscape:window-y="-8"
     inkscape:window-maximized="1"
     units="px" />
  <metadata
     id="metadata4846">
    <rdf:RDF>
      <cc:Work
         rdf:about="">
        <dc:format>image/svg+xml</dc:format>
        <dc:type
           rdf:resource="http://purl.org/dc/dcmitype/StillImage" />
        <dc:title></dc:title>
      </cc:Work>
    </rdf:RDF>
  </metadata>
  <g
     inkscape:label="Layer 1"
     inkscape:groupmode="layer"
     id="layer1"
     transform="translate(-295.63242,-319.88238)">
    <g
       id="g4859"
       transform="matrix(0.98491502,0,0,0.9961975,4.4596102,1.3988728)">
      <path
         inkscape:connector-curvature="0"
         id="path3402-9"
         d="m 334.05893,332.56829 c -2.1462,-2.035 -2.4112,-2.2474 -2.707,-2.17 -1.1192,0.2927 -2.5165,-0.1213 -3.287,-0.9738 -0.7485,-0.8283 -0.9982,-1.8317 -0.7048,-2.8325 l 0.1394,-0.4756 1.1205,1.0563 1.1205,1.0564 0.8026,-0.767 0.8026,-0.767 -1.0959,-1.0326 c -1.0302,-0.9706 -1.0786,-1.0389 -0.8058,-1.1385 0.1596,-0.058 0.6405,-0.1075 1.0687,-0.1095 2.0872,-0.01 3.7237,1.9356 3.169,3.7676 -0.1128,0.3725 -0.068,0.4242 2.257,2.6241 1.3046,1.2343 2.372,2.3289 2.372,2.4325 0,0.2398 -1.4273,1.5853 -1.6816,1.5853 -0.1051,0 -1.2617,-1.015 -2.5702,-2.2557 z"
         style="fill:#ff0000" />
      <path
         inkscape:connector-curvature="0"
         id="path3464-9"
         d="m 298.13173,367.64309 c -0.4075,-0.1208 -0.9736,-0.4281 -1.258,-0.6829 -1.2816,-1.1478 -1.242,-0.4027 -1.241,-23.3508 0.001,-20.8721 0.016,-21.5247 0.5071,-22.3221 1.0573,-1.716 -0.2482,-1.6317 24.0958,-1.5561 l 22.0205,0.068 0.7023,0.6414 c 1.4615,1.3347 1.4138,0.5466 1.4076,23.2757 0,20.2281 -0.024,21.0226 -0.5097,22.0822 -0.3848,0.839 -0.7668,1.2171 -1.6147,1.5979 -1.0719,0.4815 -1.8469,0.4983 -22.2399,0.4824 -11.6211,-0.01 -21.4626,-0.1153 -21.87,-0.2361 z m 42.6105,-23.9838 0,-20.6556 -20.8053,0.066 -20.8052,0.066 -0.066,20.59 -0.066,20.5899 20.8716,0 20.8716,0 0,-20.6556 z"
         style="fill:#00ff00" />
      <path
         inkscape:connector-curvature="0"
         id="path3619"
         d="m 322.72663,353.64199 -6.0809,-5.9308 -0.8033,0.28 c -1.2566,0.4381 -4.4827,0.1497 -5.7779,-0.5164 -1.6497,-0.8483 -3.2276,-2.4342 -4.007,-4.0273 -0.5809,-1.1873 -0.6931,-1.7374 -0.6768,-3.3187 0.011,-1.0425 0.1565,-2.2288 0.3237,-2.6362 l 0.3041,-0.7408 2.0721,2.0091 c 1.1397,1.1051 2.4245,2.3242 2.8553,2.7092 l 0.7831,0.7 1.9316,-1.8039 c 1.0624,-0.9922 1.9317,-1.8995 1.9317,-2.0162 0,-0.1167 -1.2034,-1.383 -2.6742,-2.814 l -2.6742,-2.6018 0.717,-0.3064 c 1.166,-0.4982 4.166,-0.4017 5.7323,0.1844 2.8913,1.0817 4.9369,3.7756 5.1521,6.7849 0.066,0.9167 0,2.116 -0.1566,2.6651 l -0.2757,0.9985 6.0547,5.9053 c 3.3302,3.2479 6.0548,6.0915 6.0548,6.3192 0,0.6161 -3.5475,4.0876 -4.1771,4.0876 -0.3479,0 -2.6012,-2.0221 -6.6088,-5.9308 z"
         style="fill:#00ff00" />
    </g>
  </g>
</svg>
