<?xml version="1.0" encoding="UTF-8" standalone="no"?>
<!-- Created with Inkscape (http://www.inkscape.org/) -->

<svg
   xmlns:dc="http://purl.org/dc/elements/1.1/"
   xmlns:cc="http://creativecommons.org/ns#"
   xmlns:rdf="http://www.w3.org/1999/02/22-rdf-syntax-ns#"
   xmlns:svg="http://www.w3.org/2000/svg"
   xmlns="http://www.w3.org/2000/svg"
   xmlns:sodipodi="http://sodipodi.sourceforge.net/DTD/sodipodi-0.dtd"
   xmlns:inkscape="http://www.inkscape.org/namespaces/inkscape"
   width="48"
   height="48"
   viewBox="0 0 48.000001 47.999999"
   id="svg5074"
   version="1.1"
   inkscape:version="0.91 r13725"
   sodipodi:docname="tools-monitoring.svg">
  <defs
     id="defs5076" />
  <sodipodi:namedview
     id="base"
     pagecolor="#ffffff"
     bordercolor="#666666"
     borderopacity="1.0"
     inkscape:pageopacity="0.0"
     inkscape:pageshadow="2"
     inkscape:zoom="0.35"
     inkscape:cx="-623.74206"
     inkscape:cy="-70.194142"
     inkscape:document-units="px"
     inkscape:current-layer="layer1"
     showgrid="false"
     fit-margin-top="0"
     fit-margin-left="0"
     fit-margin-right="0"
     fit-margin-bottom="0"
     inkscape:window-width="1920"
     inkscape:window-height="1018"
     inkscape:window-x="-8"
     inkscape:window-y="-8"
     inkscape:window-maximized="1"
     units="px" />
  <metadata
     id="metadata5079">
    <rdf:RDF>
      <cc:Work
         rdf:about="">
        <dc:format>image/svg+xml</dc:format>
        <dc:type
           rdf:resource="http://purl.org/dc/dcmitype/StillImage" />
        <dc:title></dc:title>
      </cc:Work>
    </rdf:RDF>
  </metadata>
  <g
     inkscape:label="Layer 1"
     inkscape:groupmode="layer"
     id="layer1"
     transform="translate(-418.74207,-414.16806)">
    <path
       style="fill:#ff0000"
       d="m 456.98521,426.98829 c -2.13595,-2.02726 -2.39969,-2.23885 -2.69408,-2.16174 -1.11386,0.29158 -2.50449,-0.12084 -3.27131,-0.9701 -0.74493,-0.82515 -0.99344,-1.82474 -0.70144,-2.82173 l 0.13874,-0.47379 1.11515,1.05228 1.11515,1.05238 0.79877,-0.76408 0.79877,-0.76408 -1.09067,-1.02868 c -1.02528,-0.9669 -1.07345,-1.03495 -0.80195,-1.13417 0.15883,-0.0578 0.63744,-0.10709 1.0636,-0.10908 2.07724,-0.01 3.70593,1.92824 3.15387,3.75327 -0.11226,0.37109 -0.0677,0.42259 2.24623,2.61413 1.29838,1.2296 2.36069,2.32004 2.36069,2.42325 0,0.23888 -1.42049,1.57927 -1.67358,1.57927 -0.1046,0 -1.25568,-1.01114 -2.55794,-2.24713 z"
       id="path3402-71"
       inkscape:connector-curvature="0" />
    <path
       style="fill:#00ff00"
       d="m 421.20368,461.92972 c -0.40138,-0.12034 -0.95891,-0.42647 -1.23906,-0.6803 -1.26225,-1.14344 -1.22324,-0.40117 -1.22224,-23.26201 9.9e-4,-20.79273 0.0159,-21.44285 0.4994,-22.23722 1.04141,-1.70947 -0.24442,-1.62549 23.73241,-1.55018 l 21.68822,0.0677 0.69178,0.63896 c 1.4394,1.32963 1.39242,0.54452 1.38635,23.18719 0,20.15118 -0.0239,20.94266 -0.50209,21.99823 -0.37898,0.83581 -0.75518,1.21248 -1.59028,1.59183 -1.05573,0.47967 -1.81907,0.4964 -21.90437,0.48056 -11.44582,-0.01 -21.13885,-0.11486 -21.54012,-0.2352 z m 41.96767,-23.8926 0,-20.57706 -20.49135,0.0657 -20.49144,0.0658 -0.0647,20.51171 -0.0657,20.5116 20.55674,0 20.55673,0 0,-20.57705 z"
       id="path3464-6"
       inkscape:connector-curvature="0" />
    <path
       style="fill:#00ff00"
       d="m 438.54593,452.66488 c -6.02382,-1.99209 -9.62744,-7.91777 -8.39854,-13.81028 1.17009,-5.61009 6.30458,-9.87072 11.89517,-9.87072 l 1.32953,0 0,4.98766 0,4.98776 0.62838,0.59084 c 0.4605,0.43305 0.62829,0.85116 0.62829,1.56533 0,2.70936 -3.99385,3.02675 -4.65986,0.37029 -0.16481,-0.65729 0.46219,-2.18715 0.89631,-2.18715 0.13465,0 0.24492,-0.68688 0.24492,-1.52648 0,-1.46491 -0.0229,-1.5196 -0.56549,-1.35871 -0.92247,0.27345 -2.25429,1.46042 -2.78295,2.48003 -0.60172,1.16067 -0.65188,3.25777 -0.10291,4.31045 0.88466,1.69662 2.82615,2.88728 4.70803,2.88728 3.81262,0 6.17787,-3.92801 4.43732,-7.36927 l -0.58927,-1.16516 0.70581,-0.67691 c 0.62053,-0.59503 0.75747,-0.63428 1.13197,-0.32407 0.23438,0.19406 0.6898,0.9189 1.01195,1.61066 1.21368,2.60575 0.56858,5.9457 -1.54509,8.00056 -4.20972,4.09238 -11.2616,1.9651 -12.44792,-3.75507 -0.728,-3.5102 1.51723,-7.12002 5.09597,-8.19342 0.93631,-0.28083 0.94258,-0.29159 0.94258,-1.62659 0,-0.73908 -0.0926,-1.34388 -0.20571,-1.34388 -0.6895,0 -3.11507,0.91302 -4.11656,1.54939 -5.41524,3.44136 -6.17012,10.94263 -1.54201,15.32391 5.04839,4.77925 13.2646,3.32212 16.29666,-2.89037 0.5846,-1.19763 0.74672,-1.9117 0.82833,-3.64788 0.11943,-2.5408 -0.39351,-4.33375 -1.80087,-6.29457 l -0.87401,-1.21775 0.72941,-0.69953 c 0.7092,-0.6801 0.74333,-0.68688 1.23348,-0.24287 1.74285,1.57877 3.02321,4.92799 3.02321,7.90801 0,5.07114 -2.85661,9.22907 -7.79134,11.34041 -1.93851,0.82944 -6.2571,0.97857 -8.34479,0.2881 z"
       id="path3659"
       inkscape:connector-curvature="0" />
  </g>
</svg>
