<?xml version="1.0" encoding="UTF-8" standalone="no"?>
<!-- Created with Inkscape (http://www.inkscape.org/) -->

<svg
   xmlns:dc="http://purl.org/dc/elements/1.1/"
   xmlns:cc="http://creativecommons.org/ns#"
   xmlns:rdf="http://www.w3.org/1999/02/22-rdf-syntax-ns#"
   xmlns:svg="http://www.w3.org/2000/svg"
   xmlns="http://www.w3.org/2000/svg"
   xmlns:sodipodi="http://sodipodi.sourceforge.net/DTD/sodipodi-0.dtd"
   xmlns:inkscape="http://www.inkscape.org/namespaces/inkscape"
   width="48"
   height="48.000004"
   viewBox="0 0 47.999996 48.000003"
   id="svg5106"
   version="1.1"
   inkscape:version="0.91 r13725"
   sodipodi:docname="tools-planing.svg">
  <defs
     id="defs5108" />
  <sodipodi:namedview
     id="base"
     pagecolor="#ffffff"
     bordercolor="#666666"
     borderopacity="1.0"
     inkscape:pageopacity="0.0"
     inkscape:pageshadow="2"
     inkscape:zoom="0.35"
     inkscape:cx="83.148274"
     inkscape:cy="-33.177338"
     inkscape:document-units="px"
     inkscape:current-layer="layer1"
     showgrid="false"
     fit-margin-top="0"
     fit-margin-left="0"
     fit-margin-right="0"
     fit-margin-bottom="0"
     inkscape:window-width="1920"
     inkscape:window-height="1018"
     inkscape:window-x="-8"
     inkscape:window-y="-8"
     inkscape:window-maximized="1"
     units="px" />
  <metadata
     id="metadata5111">
    <rdf:RDF>
      <cc:Work
         rdf:about="">
        <dc:format>image/svg+xml</dc:format>
        <dc:type
           rdf:resource="http://purl.org/dc/dcmitype/StillImage" />
        <dc:title></dc:title>
      </cc:Work>
    </rdf:RDF>
  </metadata>
  <g
     inkscape:label="Layer 1"
     inkscape:groupmode="layer"
     id="layer1"
     transform="translate(-147.56601,-451.18486)">
    <path
       style="fill:#ff0000"
       d="m 185.95989,463.81957 c -2.15856,-2.03792 -2.42509,-2.25063 -2.72259,-2.17312 -1.12565,0.29312 -2.531,-0.12147 -3.30593,-0.9752 -0.75282,-0.82949 -1.00395,-1.83433 -0.70886,-2.83657 l 0.1402,-0.47629 1.12695,1.05782 1.12696,1.05792 0.80722,-0.7681 0.80722,-0.76811 -1.10221,-1.03408 c -1.03613,-0.972 -1.08481,-1.0404 -0.81044,-1.14014 0.16052,-0.0581 0.64419,-0.10765 1.07485,-0.10966 2.09923,-0.01 3.74515,1.93839 3.18726,3.77302 -0.11345,0.37304 -0.0684,0.42481 2.27,2.62788 1.31211,1.23608 2.38566,2.33225 2.38566,2.436 0,0.24014 -1.43552,1.58758 -1.69129,1.58758 -0.1057,0 -1.26896,-1.01646 -2.585,-2.25895 z"
       id="path3402-6"
       inkscape:connector-curvature="0" />
    <path
       style="fill:#00ff00"
       d="m 150.02752,498.94615 c -0.4013,-0.12038 -0.95879,-0.42652 -1.239,-0.68038 -1.26223,-1.14334 -1.2232,-0.40108 -1.2222,-23.26182 9.1e-4,-20.79258 0.0151,-21.44261 0.49946,-22.23696 1.04127,-1.70955 -0.2445,-1.62553 23.73231,-1.55022 l 21.6882,0.0681 0.69176,0.63902 c 1.43945,1.32951 1.39248,0.54438 1.38644,23.18702 -0.0101,20.15105 -0.0231,20.94249 -0.50207,21.99801 -0.37907,0.8358 -0.75523,1.21244 -1.59031,1.59178 -1.05575,0.47969 -1.81912,0.49642 -21.90434,0.48059 -11.44585,-0.01 -21.13896,-0.11476 -21.54025,-0.23513 z m 41.96773,-23.89243 0,-20.57697 -20.49135,0.0651 -20.49134,0.0651 -0.0654,20.51147 -0.0654,20.51147 20.55672,0 20.55662,0 0,-20.57686 z"
       id="path3464-0"
       inkscape:connector-curvature="0" />
    <path
       style="fill:#00ff00"
       d="m 160.26504,490.43852 c -1.28425,-0.88507 -1.25327,-0.61057 -1.26182,-11.16534 l -0.0101,-9.94579 0.74245,-0.73926 c 0.62558,-0.623 0.94531,-0.73927 2.03194,-0.73927 l 1.28948,0 0,-1.39099 0,-1.3909 1.2567,0 1.2567,0 0.0764,1.3277 0.0764,1.32771 5.65136,0.0681 5.65127,0.0681 0,-1.39581 0,-1.3958 1.25669,0 1.2567,0 0.0764,1.3277 0.0764,1.32771 1.14294,0.0691 c 0.6287,0.0381 1.40998,0.2047 1.73614,0.37033 1.2744,0.64713 1.31182,0.9697 1.31182,11.30375 l 0,9.61882 -0.74095,0.82598 -0.74094,0.82589 -10.75227,0.0701 c -9.8485,0.0641 -10.80558,0.0331 -11.38722,-0.36773 z m 21.08143,-9.1859 0,-7.33413 -9.90573,0 -9.90572,0 0,7.33413 0,7.33414 9.90572,0 9.90573,0 0,-7.33414 z"
       id="path3701"
       inkscape:connector-curvature="0" />
    <path
       style="fill:#00ff00"
       d="m 164.58297,477.9649 0,-1.26452 1.26997,0 1.26998,0 0,1.26452 0,1.26452 -1.26998,0 -1.26997,0 0,-1.26452 z"
       id="path3703"
       inkscape:connector-curvature="0" />
    <path
       style="fill:#00ff00"
       d="m 170.17077,477.9649 0,-1.26452 1.26997,0 1.26998,0 0,1.26452 0,1.26452 -1.26998,0 -1.26997,0 0,-1.26452 z"
       id="path3705"
       inkscape:connector-curvature="0" />
    <path
       style="fill:#00ff00"
       d="m 175.75867,477.9649 0,-1.26452 1.26997,0 1.26998,0 0,1.26452 0,1.26452 -1.26998,0 -1.26997,0 0,-1.26452 z"
       id="path3709"
       inkscape:connector-curvature="0" />
  </g>
</svg>
