<?xml version="1.0" encoding="UTF-8" standalone="no"?>
<!-- Created with Inkscape (http://www.inkscape.org/) -->

<svg
   xmlns:dc="http://purl.org/dc/elements/1.1/"
   xmlns:cc="http://creativecommons.org/ns#"
   xmlns:rdf="http://www.w3.org/1999/02/22-rdf-syntax-ns#"
   xmlns:svg="http://www.w3.org/2000/svg"
   xmlns="http://www.w3.org/2000/svg"
   xmlns:sodipodi="http://sodipodi.sourceforge.net/DTD/sodipodi-0.dtd"
   xmlns:inkscape="http://www.inkscape.org/namespaces/inkscape"
   width="48"
   height="48"
   viewBox="0 0 48.000001 47.999998"
   id="svg4798"
   version="1.1"
   inkscape:version="0.91 r13725"
   sodipodi:docname="tools-delegate.svg">
  <defs
     id="defs4800" />
  <sodipodi:namedview
     id="base"
     pagecolor="#ffffff"
     bordercolor="#666666"
     borderopacity="1.0"
     inkscape:pageopacity="0.0"
     inkscape:pageshadow="2"
     inkscape:zoom="1"
     inkscape:cx="-103.25866"
     inkscape:cy="-42.00147"
     inkscape:document-units="px"
     inkscape:current-layer="layer1"
     showgrid="false"
     fit-margin-top="0"
     fit-margin-left="0"
     fit-margin-right="0"
     fit-margin-bottom="0"
     inkscape:window-width="1920"
     inkscape:window-height="1018"
     inkscape:window-x="-8"
     inkscape:window-y="-8"
     inkscape:window-maximized="1"
     units="px" />
  <metadata
     id="metadata4803">
    <rdf:RDF>
      <cc:Work
         rdf:about="">
        <dc:format>image/svg+xml</dc:format>
        <dc:type
           rdf:resource="http://purl.org/dc/dcmitype/StillImage" />
        <dc:title></dc:title>
      </cc:Work>
    </rdf:RDF>
  </metadata>
  <g
     inkscape:label="Layer 1"
     inkscape:groupmode="layer"
     id="layer1"
     transform="translate(-181.47295,-362.36074)">
    <g
       id="g4822"
       transform="matrix(0.99004445,0,0,1.0121107,1.8066622,-4.9697631)">
      <path
         inkscape:connector-curvature="0"
         id="path3402"
         d="m 219.89946,375.55172 c -2.1462,-2.035 -2.4112,-2.2474 -2.707,-2.17 -1.1192,0.2927 -2.5165,-0.1213 -3.287,-0.9738 -0.7485,-0.8283 -0.9982,-1.8317 -0.7048,-2.8325 l 0.1394,-0.4756 1.1205,1.0563 1.1205,1.0564 0.8026,-0.767 0.8026,-0.767 -1.0959,-1.0326 c -1.0302,-0.9706 -1.0786,-1.0389 -0.8058,-1.1385 0.1596,-0.058 0.6405,-0.1075 1.0687,-0.1095 2.0872,-0.01 3.7237,1.9356 3.169,3.7676 -0.1128,0.3725 -0.068,0.4242 2.257,2.6241 1.3046,1.2343 2.372,2.3289 2.372,2.4325 0,0.2398 -1.4273,1.5853 -1.6816,1.5853 -0.1051,0 -1.2617,-1.015 -2.5702,-2.2557 z"
         style="fill:#ff0000" />
      <path
         inkscape:connector-curvature="0"
         id="path3464"
         d="m 183.95926,410.12522 c -0.4053,-0.1189 -0.9685,-0.4214 -1.2515,-0.6722 -1.2749,-1.1297 -1.2355,-0.3963 -1.2345,-22.9836 10e-4,-20.5439 0.016,-21.1862 0.5044,-21.9711 1.0519,-1.6891 -0.2468,-1.6061 23.971,-1.5317 l 21.9064,0.067 0.6987,0.6313 c 1.4539,1.3137 1.4065,0.5379 1.4003,22.9097 -0.01,19.9101 -0.024,20.6921 -0.5071,21.7349 -0.3828,0.8259 -0.7628,1.198 -1.6063,1.5729 -1.0663,0.4739 -1.8374,0.4904 -22.1246,0.4748 -11.5609,-0.01 -21.3515,-0.1135 -21.7568,-0.2324 z m 42.3897,-23.6067 0,-20.3308 -20.6974,0.065 -20.6974,0.065 -0.066,20.2661 -0.066,20.2662 20.7634,0 20.7634,0 0,-20.3308 z"
         style="fill:#00ff00" />
      <path
         inkscape:connector-curvature="0"
         id="path3878"
         d="m 189.80616,399.36062 c 0,-2.1773 0.1428,-2.5915 1.3344,-3.8735 1.7975,-1.9336 5.8439,-3.2663 9.9171,-3.2663 l 3.072,0 -1.2449,1.4149 c -1.7842,2.0277 -2.1515,3.0076 -2.1515,5.7398 l 0,2.423 -5.4636,0 -5.4635,0 0,-2.4379 z"
         style="fill:#00ff00" />
      <path
         inkscape:connector-curvature="0"
         id="path3880"
         d="m 198.91206,387.50082 c -1.6708,-1.0988 -2.2272,-1.9173 -2.4906,-3.6632 -0.5861,-3.8851 3.3587,-6.776 6.7056,-4.9142 1.1638,0.6474 2.4639,2.9919 2.4612,4.4385 0,1.4091 -1.5874,3.6656 -3.0297,4.3139 -1.7964,0.8074 -2.1809,0.7889 -3.6465,-0.175 z"
         style="fill:#00ff00" />
      <path
         inkscape:connector-curvature="0"
         id="path3882"
         d="m 211.38876,389.40942 c -1.5059,-0.7047 -2.1566,-1.8282 -2.1566,-3.7238 0,-1.915 1.9035,-3.9166 3.7124,-3.9036 3.875,0.028 5.0622,5.6546 1.5994,7.5808 -1.4603,0.8124 -1.5169,0.8132 -3.1552,0.047 z"
         style="fill:#00ff00" />
      <path
         inkscape:connector-curvature="0"
         id="path3884"
         d="m 204.37566,399.71862 c 0,-2.7225 0.7402,-3.7617 3.4587,-4.8558 2.9375,-1.1823 7.1205,-1.2047 9.9377,-0.053 3.0924,1.264 3.6013,1.9228 3.6013,4.662 l 0,2.3269 -8.4989,0 -8.4988,0 0,-2.0799 z"
         style="fill:#00ff00" />
    </g>
  </g>
</svg>
