<?xml version="1.0" encoding="UTF-8" standalone="no"?>
<!-- Created with Inkscape (http://www.inkscape.org/) -->

<svg
   xmlns:dc="http://purl.org/dc/elements/1.1/"
   xmlns:cc="http://creativecommons.org/ns#"
   xmlns:rdf="http://www.w3.org/1999/02/22-rdf-syntax-ns#"
   xmlns:svg="http://www.w3.org/2000/svg"
   xmlns="http://www.w3.org/2000/svg"
   xmlns:sodipodi="http://sodipodi.sourceforge.net/DTD/sodipodi-0.dtd"
   xmlns:inkscape="http://www.inkscape.org/namespaces/inkscape"
   width="13.682888mm"
   height="13.38457mm"
   viewBox="0 0 48.482674 47.425642"
   id="svg5223"
   version="1.1"
   inkscape:version="0.91 r13725"
   sodipodi:docname="Телефон.svg">
  <defs
     id="defs5225" />
  <sodipodi:namedview
     id="base"
     pagecolor="#ffffff"
     bordercolor="#666666"
     borderopacity="1.0"
     inkscape:pageopacity="0.0"
     inkscape:pageshadow="2"
     inkscape:zoom="0.35"
     inkscape:cx="154.95562"
     inkscape:cy="-376.28718"
     inkscape:document-units="px"
     inkscape:current-layer="layer1"
     showgrid="false"
     fit-margin-top="0"
     fit-margin-left="0"
     fit-margin-right="0"
     fit-margin-bottom="0"
     inkscape:window-width="1920"
     inkscape:window-height="1018"
     inkscape:window-x="-8"
     inkscape:window-y="-8"
     inkscape:window-maximized="1" />
  <metadata
     id="metadata5228">
    <rdf:RDF>
      <cc:Work
         rdf:about="">
        <dc:format>image/svg+xml</dc:format>
        <dc:type
           rdf:resource="http://purl.org/dc/dcmitype/StillImage" />
        <dc:title></dc:title>
      </cc:Work>
    </rdf:RDF>
  </metadata>
  <g
     inkscape:label="Layer 1"
     inkscape:groupmode="layer"
     id="layer1"
     transform="translate(-75.758665,-108.64938)">
    <path
       style="fill:#ff0000"
       d="m 114.18518,121.266 c -2.1462,-2.035 -2.4112,-2.2474 -2.707,-2.17 -1.1192,0.2927 -2.5165,-0.1213 -3.287,-0.9738 -0.7485,-0.8283 -0.9982,-1.8317 -0.7048,-2.8325 l 0.1394,-0.4756 1.1205,1.0563 1.1205,1.0564 0.8026,-0.767 0.8026,-0.767 -1.0959,-1.0326 c -1.0302,-0.9706 -1.0786,-1.0389 -0.8058,-1.1385 0.1596,-0.058 0.6405,-0.1075 1.0687,-0.1095 2.0873,-0.01 3.7237,1.9356 3.169,3.7676 -0.1128,0.3725 -0.068,0.4242 2.257,2.6241 1.3046,1.2343 2.372,2.3289 2.372,2.4325 0,0.2398 -1.4273,1.5853 -1.6816,1.5853 -0.1051,0 -1.2617,-1.015 -2.5702,-2.2557 z"
       id="path3402-64"
       inkscape:connector-curvature="0" />
    <path
       style="fill:#00ff00"
       d="m 78.244976,155.8395 c -0.4053,-0.1189 -0.9685,-0.4214 -1.2515,-0.6722 -1.2749,-1.1297 -1.2355,-0.3963 -1.2345,-22.9836 10e-4,-20.5439 0.016,-21.1862 0.5045,-21.9711 1.0518,-1.6891 -0.2469,-1.6061 23.970904,-1.5317 l 21.9064,0.067 0.6987,0.6313 c 1.4539,1.3137 1.4065,0.5379 1.4003,22.9097 -0.01,19.9101 -0.024,20.6921 -0.5071,21.7349 -0.3828,0.8259 -0.7628,1.198 -1.6063,1.5729 -1.0663,0.4739 -1.8374,0.4904 -22.1246,0.4748 -11.560905,-0.01 -21.351504,-0.1135 -21.756804,-0.2324 z m 42.389704,-23.6067 0,-20.3308 -20.697405,0.065 -20.697399,0.065 -0.066,20.2661 -0.066,20.2662 20.763399,0 20.763405,0 0,-20.3308 z"
       id="path3464-1"
       inkscape:connector-curvature="0" />
    <path
       style="fill:#00ff00"
       d="m 105.40888,146.5372 c -4.1887,-1.1021 -7.414705,-2.9972 -10.714905,-6.2945 -4.3437,-4.3399 -6.5957,-9.0113 -7.1711,-14.8751 -0.3192,-3.2535 -0.1063,-3.4381 3.8045,-3.299 2.1934,0.078 3.0344,0.2461 3.238,0.647 0.1513,0.2979 0.4728,1.8951 0.7146,3.5495 l 0.4395,3.0079 -1.7501,1.7844 -1.7501,1.7843 0.8297,1.5705 c 1.1057,2.0931 4.1069,5.2086 6.6529,6.9061 l 2.066605,1.378 1.933,-1.917 1.933,-1.9171 1.6255,0.411 c 0.894,0.2261 2.2009,0.4111 2.9043,0.4111 2.0273,0 2.7169,0.9681 2.7169,3.8146 0,3.3852 -0.2885,3.7715 -2.7989,3.7472 -1.13,-0.011 -3.2331,-0.3299 -4.6734,-0.7089 z"
       id="path3987"
       inkscape:connector-curvature="0" />
  </g>
</svg>
