<?xml version="1.0" encoding="UTF-8" standalone="no"?>
<!-- Created with Inkscape (http://www.inkscape.org/) -->

<svg
   xmlns:dc="http://purl.org/dc/elements/1.1/"
   xmlns:cc="http://creativecommons.org/ns#"
   xmlns:rdf="http://www.w3.org/1999/02/22-rdf-syntax-ns#"
   xmlns:svg="http://www.w3.org/2000/svg"
   xmlns="http://www.w3.org/2000/svg"
   xmlns:sodipodi="http://sodipodi.sourceforge.net/DTD/sodipodi-0.dtd"
   xmlns:inkscape="http://www.inkscape.org/namespaces/inkscape"
   width="13.682885mm"
   height="13.669834mm"
   viewBox="0 0 48.482664 48.43642"
   id="svg4952"
   version="1.1"
   inkscape:version="0.91 r13725"
   sodipodi:docname="инцидент.svg">
  <defs
     id="defs4954" />
  <sodipodi:namedview
     id="base"
     pagecolor="#ffffff"
     bordercolor="#666666"
     borderopacity="1.0"
     inkscape:pageopacity="0.0"
     inkscape:pageshadow="2"
     inkscape:zoom="0.35"
     inkscape:cx="-307.90152"
     inkscape:cy="-318.63894"
     inkscape:document-units="px"
     inkscape:current-layer="layer1"
     showgrid="false"
     fit-margin-top="0"
     fit-margin-left="0"
     fit-margin-right="0"
     fit-margin-bottom="0"
     inkscape:window-width="1920"
     inkscape:window-height="1018"
     inkscape:window-x="-8"
     inkscape:window-y="-8"
     inkscape:window-maximized="1" />
  <metadata
     id="metadata4957">
    <rdf:RDF>
      <cc:Work
         rdf:about="">
        <dc:format>image/svg+xml</dc:format>
        <dc:type
           rdf:resource="http://purl.org/dc/dcmitype/StillImage" />
        <dc:title></dc:title>
      </cc:Work>
    </rdf:RDF>
  </metadata>
  <g
     inkscape:label="Layer 1"
     inkscape:groupmode="layer"
     id="layer1"
     transform="translate(-538.61581,-165.28685)">
    <g
       id="g4970">
      <path
         inkscape:connector-curvature="0"
         id="path3402-02"
         d="m 576.78974,178.15595 c -2.1462,-2.035 -2.4112,-2.2474 -2.707,-2.17 -1.1192,0.2927 -2.5165,-0.1213 -3.287,-0.9738 -0.7485,-0.8283 -0.9982,-1.8317 -0.7048,-2.8325 l 0.1394,-0.4756 1.1205,1.0563 1.1205,1.0564 0.8026,-0.767 0.8026,-0.767 -1.0959,-1.0326 c -1.0302,-0.9706 -1.0786,-1.0389 -0.8058,-1.1385 0.1596,-0.058 0.6405,-0.1075 1.0687,-0.1095 2.0873,-0.01 3.7237,1.9356 3.169,3.7676 -0.1128,0.3725 -0.068,0.4242 2.257,2.6241 1.3046,1.2343 2.372,2.3289 2.372,2.4325 0,0.2398 -1.4273,1.5853 -1.6816,1.5853 -0.1051,0 -1.2617,-1.015 -2.5702,-2.2557 z"
         style="fill:#ff0000" />
      <path
         inkscape:connector-curvature="0"
         id="path3464-5"
         d="m 541.10204,213.48205 c -0.4053,-0.1215 -0.9685,-0.4304 -1.2514,-0.6865 -1.275,-1.1538 -1.2356,-0.4048 -1.2345,-23.4732 9e-4,-20.9815 0.016,-21.6375 0.5044,-22.439 1.0518,-1.7251 -0.2469,-1.6403 23.971,-1.5643 l 21.9063,0.069 0.6987,0.6448 c 1.4539,1.3417 1.4065,0.5494 1.4004,23.3977 0,20.3341 -0.024,21.1328 -0.5072,22.1979 -0.3828,0.8434 -0.7628,1.2235 -1.6062,1.6063 -1.0664,0.484 -1.8374,0.5009 -22.1247,0.4849 -11.5609,-0.01 -21.3514,-0.1158 -21.7568,-0.2373 z m 42.3898,-24.1095 0,-20.7639 -20.6975,0.066 -20.6974,0.066 -0.066,20.6978 -0.066,20.6979 20.7635,0 20.7634,0 0,-20.7639 z"
         style="fill:#00ff00" />
      <path
         inkscape:connector-curvature="0"
         id="path4159"
         d="m 547.60284,203.64165 c 0.5249,-0.9742 4.118,-7.6792 7.9847,-14.8999 3.8667,-7.2207 7.1552,-13.27 7.3077,-13.4429 0.1526,-0.1729 2.5144,3.8594 5.2484,8.9607 2.734,5.1014 6.4079,11.9478 8.1641,15.2143 l 3.1932,5.9391 -16.4263,0 -16.4263,0 0.9545,-1.7713 z m 17.2654,-4.4804 0,-1.6671 -1.7375,0 -1.7374,0 0,1.6671 0,1.6671 1.7374,0 1.7375,0 0,-1.6671 z m -0.081,-8.2314 0.1122,-3.4384 -1.7531,0 -1.753,0 0,3.5666 0,3.5666 1.6409,-0.1282 1.6409,-0.1282 0.1121,-3.4384 z"
         style="fill:#00ff00" />
    </g>
  </g>
</svg>
