<?xml version="1.0" encoding="UTF-8" standalone="no"?>
<!-- Created with Inkscape (http://www.inkscape.org/) -->

<svg
   xmlns:dc="http://purl.org/dc/elements/1.1/"
   xmlns:cc="http://creativecommons.org/ns#"
   xmlns:rdf="http://www.w3.org/1999/02/22-rdf-syntax-ns#"
   xmlns:svg="http://www.w3.org/2000/svg"
   xmlns="http://www.w3.org/2000/svg"
   xmlns:sodipodi="http://sodipodi.sourceforge.net/DTD/sodipodi-0.dtd"
   xmlns:inkscape="http://www.inkscape.org/namespaces/inkscape"
   width="13.397777mm"
   height="13.38457mm"
   viewBox="0 0 47.472437 47.425642"
   id="svg4987"
   version="1.1"
   inkscape:version="0.91 r13725"
   sodipodi:docname="Лучшие практики.svg">
  <defs
     id="defs4989" />
  <sodipodi:namedview
     id="base"
     pagecolor="#ffffff"
     bordercolor="#666666"
     borderopacity="1.0"
     inkscape:pageopacity="0.0"
     inkscape:pageshadow="2"
     inkscape:zoom="0.35"
     inkscape:cx="-31.263777"
     inkscape:cy="-250.57289"
     inkscape:document-units="px"
     inkscape:current-layer="layer1"
     showgrid="false"
     fit-margin-top="0"
     fit-margin-left="0"
     fit-margin-right="0"
     fit-margin-bottom="0"
     inkscape:window-width="1920"
     inkscape:window-height="1018"
     inkscape:window-x="-8"
     inkscape:window-y="-8"
     inkscape:window-maximized="1" />
  <metadata
     id="metadata4992">
    <rdf:RDF>
      <cc:Work
         rdf:about="">
        <dc:format>image/svg+xml</dc:format>
        <dc:type
           rdf:resource="http://purl.org/dc/dcmitype/StillImage" />
        <dc:title></dc:title>
      </cc:Work>
    </rdf:RDF>
  </metadata>
  <g
     inkscape:label="Layer 1"
     inkscape:groupmode="layer"
     id="layer1"
     transform="translate(-261.97806,-234.36367)">
    <g
       id="g5007">
      <path
         inkscape:connector-curvature="0"
         id="path3402-8"
         d="m 300.15199,246.98029 c -2.1462,-2.035 -2.4112,-2.2474 -2.707,-2.17 -1.1192,0.2927 -2.5165,-0.1213 -3.287,-0.9738 -0.7485,-0.8283 -0.9982,-1.8317 -0.7048,-2.8325 l 0.1394,-0.4756 1.1205,1.0563 1.1205,1.0564 0.8026,-0.767 0.8026,-0.767 -1.0959,-1.0326 c -1.0302,-0.9706 -1.0786,-1.0389 -0.8058,-1.1385 0.1596,-0.058 0.6405,-0.1075 1.0687,-0.1095 2.0872,-0.01 3.7237,1.9356 3.169,3.7676 -0.1128,0.3725 -0.068,0.4242 2.257,2.6241 1.3046,1.2343 2.372,2.3289 2.372,2.4325 0,0.2398 -1.4273,1.5853 -1.6816,1.5853 -0.1051,0 -1.2617,-1.015 -2.5702,-2.2557 z"
         style="fill:#ff0000" />
      <path
         inkscape:connector-curvature="0"
         id="path3464-2"
         d="m 264.41249,281.55379 c -0.3969,-0.1189 -0.9483,-0.4214 -1.2254,-0.6722 -1.2483,-1.1297 -1.2098,-0.3963 -1.2087,-22.9836 9e-4,-20.5439 0.015,-21.1862 0.4939,-21.9711 1.0299,-1.6891 -0.2417,-1.6061 23.4715,-1.5317 l 21.4499,0.067 0.6842,0.6313 c 1.4236,1.3137 1.3771,0.5379 1.3711,22.9097 -0.01,19.9101 -0.023,20.6921 -0.4965,21.7349 -0.3748,0.8259 -0.747,1.198 -1.5728,1.5729 -1.0441,0.4739 -1.7992,0.4904 -21.6637,0.4748 -11.32,-0.01 -20.9066,-0.1135 -21.3035,-0.2324 z m 41.5066,-23.6067 0,-20.3308 -20.2662,0.065 -20.2662,0.065 -0.065,20.2661 -0.065,20.2662 20.3308,0 20.3308,0 0,-20.3308 z"
         style="fill:#00ff00" />
      <path
         inkscape:connector-curvature="0"
         id="path3759"
         d="m 281.09079,272.06009 c -0.645,-0.8624 -0.684,-1.3508 -0.684,-8.5663 l 0,-7.6517 4.6026,-4.8749 4.6027,-4.8749 0.8426,0.8326 c 0.9818,0.9701 1.0541,2.0015 0.3542,5.0503 -0.8968,3.9062 -1.1925,3.6445 4.1186,3.6445 5.7264,0 5.939,0.1335 5.9426,3.7313 0,2.0955 -0.2121,2.8746 -2.0266,7.3759 -1.1159,2.7681 -2.3214,5.3063 -2.679,5.6403 -0.5749,0.5372 -1.4449,0.6075 -7.5199,0.6075 l -6.8698,0 -0.684,-0.9146 z"
         style="fill:#00ff00" />
      <path
         inkscape:connector-curvature="0"
         id="path3761"
         d="m 271.82639,264.29719 0,-7.9833 2.4751,0 2.4751,0 0,7.9833 0,7.9833 -2.4751,0 -2.4751,0 0,-7.9833 z"
         style="fill:#00ff00" />
    </g>
  </g>
</svg>
