<?xml version="1.0" encoding="UTF-8" standalone="no"?>
<!-- Created with Inkscape (http://www.inkscape.org/) -->

<svg
   xmlns:dc="http://purl.org/dc/elements/1.1/"
   xmlns:cc="http://creativecommons.org/ns#"
   xmlns:rdf="http://www.w3.org/1999/02/22-rdf-syntax-ns#"
   xmlns:svg="http://www.w3.org/2000/svg"
   xmlns="http://www.w3.org/2000/svg"
   xmlns:sodipodi="http://sodipodi.sourceforge.net/DTD/sodipodi-0.dtd"
   xmlns:inkscape="http://www.inkscape.org/namespaces/inkscape"
   width="274.24133"
   height="155.96309"
   viewBox="0 0 274.24132 155.96309"
   id="svg4189"
   version="1.1"
   inkscape:version="0.91 r13725"
   sodipodi:docname="tools-all.svg">
  <defs
     id="defs4191" />
  <sodipodi:namedview
     id="base"
     pagecolor="#ffffff"
     bordercolor="#666666"
     borderopacity="1.0"
     inkscape:pageopacity="0.0"
     inkscape:pageshadow="2"
     inkscape:zoom="2.8"
     inkscape:cx="44.83628"
     inkscape:cy="52.84171"
     inkscape:document-units="px"
     inkscape:current-layer="layer1"
     showgrid="false"
     fit-margin-top="0"
     fit-margin-left="0"
     fit-margin-right="0"
     fit-margin-bottom="0"
     units="px"
     inkscape:window-width="1920"
     inkscape:window-height="1018"
     inkscape:window-x="-8"
     inkscape:window-y="-8"
     inkscape:window-maximized="1" />
  <metadata
     id="metadata4194">
    <rdf:RDF>
      <cc:Work
         rdf:about="">
        <dc:format>image/svg+xml</dc:format>
        <dc:type
           rdf:resource="http://purl.org/dc/dcmitype/StillImage" />
        <dc:title></dc:title>
      </cc:Work>
    </rdf:RDF>
  </metadata>
  <g
     inkscape:label="Layer 1"
     inkscape:groupmode="layer"
     id="layer1"
     transform="translate(-1243.9334,-1086.8959)">
    <path
       style="fill:#ff0000"
       d="m 1339.8367,1153.6207 c -2.1462,-2.035 -2.4112,-2.2474 -2.707,-2.17 -1.1192,0.2927 -2.5165,-0.1213 -3.287,-0.9738 -0.7485,-0.8283 -0.9982,-1.8317 -0.7048,-2.8325 l 0.1394,-0.4756 1.1205,1.0563 1.1205,1.0564 0.8026,-0.767 0.8026,-0.767 -1.0959,-1.0326 c -1.0302,-0.9706 -1.0786,-1.0389 -0.8058,-1.1385 0.1596,-0.058 0.6405,-0.1075 1.0687,-0.1095 2.0872,-0.01 3.7237,1.9356 3.169,3.7676 -0.1128,0.3725 -0.068,0.4242 2.257,2.6241 1.3046,1.2343 2.372,2.3289 2.372,2.4325 0,0.2398 -1.4273,1.5853 -1.6816,1.5853 -0.1051,0 -1.2617,-1.015 -2.5702,-2.2557 z"
       id="path3402"
       inkscape:connector-curvature="0" />
    <path
       style="fill:#00ff00"
       d="m 1303.8965,1188.1942 c -0.4053,-0.1189 -0.9685,-0.4214 -1.2515,-0.6722 -1.2749,-1.1297 -1.2355,-0.3963 -1.2345,-22.9836 10e-4,-20.5439 0.016,-21.1862 0.5044,-21.9711 1.0519,-1.6891 -0.2468,-1.6061 23.971,-1.5317 l 21.9064,0.067 0.6987,0.6313 c 1.4539,1.3137 1.4065,0.5379 1.4003,22.9097 -0.01,19.9101 -0.024,20.6921 -0.5071,21.7349 -0.3828,0.8259 -0.7628,1.198 -1.6063,1.5729 -1.0663,0.4739 -1.8374,0.4904 -22.1246,0.4748 -11.5609,-0.01 -21.3515,-0.1135 -21.7568,-0.2324 z m 42.3897,-23.6067 0,-20.3308 -20.6974,0.065 -20.6974,0.065 -0.066,20.2661 -0.066,20.2662 20.7634,0 20.7634,0 0,-20.3308 z"
       id="path3464"
       inkscape:connector-curvature="0" />
    <path
       style="fill:#00ff00"
       d="m 1309.7434,1177.4296 c 0,-2.1773 0.1428,-2.5915 1.3344,-3.8735 1.7975,-1.9336 5.8439,-3.2663 9.9171,-3.2663 l 3.072,0 -1.2449,1.4149 c -1.7842,2.0277 -2.1515,3.0076 -2.1515,5.7398 l 0,2.423 -5.4636,0 -5.4635,0 0,-2.4379 z"
       id="path3878"
       inkscape:connector-curvature="0" />
    <path
       style="fill:#00ff00"
       d="m 1318.8493,1165.5698 c -1.6708,-1.0988 -2.2272,-1.9173 -2.4906,-3.6632 -0.5861,-3.8851 3.3587,-6.776 6.7056,-4.9142 1.1638,0.6474 2.4639,2.9919 2.4612,4.4385 0,1.4091 -1.5874,3.6656 -3.0297,4.3139 -1.7964,0.8074 -2.1809,0.7889 -3.6465,-0.175 z"
       id="path3880"
       inkscape:connector-curvature="0" />
    <path
       style="fill:#00ff00"
       d="m 1331.326,1167.4784 c -1.5059,-0.7047 -2.1566,-1.8282 -2.1566,-3.7238 0,-1.915 1.9035,-3.9166 3.7124,-3.9036 3.875,0.028 5.0622,5.6546 1.5994,7.5808 -1.4603,0.8124 -1.5169,0.8132 -3.1552,0.047 z"
       id="path3882"
       inkscape:connector-curvature="0" />
    <path
       style="fill:#00ff00"
       d="m 1324.3129,1177.7876 c 0,-2.7225 0.7402,-3.7617 3.4587,-4.8558 2.9375,-1.1823 7.1205,-1.2047 9.9377,-0.053 3.0924,1.264 3.6013,1.9228 3.6013,4.662 l 0,2.3269 -8.4989,0 -8.4988,0 0,-2.0799 z"
       id="path3884"
       inkscape:connector-curvature="0" />
    <path
       style="fill:#ff0000"
       d="m 1282.3599,1153.9451 c -2.1462,-2.035 -2.4112,-2.2474 -2.707,-2.17 -1.1192,0.2927 -2.5165,-0.1213 -3.287,-0.9738 -0.7485,-0.8283 -0.9982,-1.8317 -0.7048,-2.8325 l 0.1394,-0.4756 1.1205,1.0563 1.1205,1.0564 0.8026,-0.767 0.8026,-0.767 -1.0959,-1.0326 c -1.0302,-0.9706 -1.0786,-1.0389 -0.8058,-1.1385 0.1596,-0.058 0.6405,-0.1075 1.0687,-0.1095 2.0872,-0.01 3.7237,1.9356 3.169,3.7676 -0.1128,0.3725 -0.068,0.4242 2.257,2.6241 1.3046,1.2343 2.372,2.3289 2.372,2.4325 0,0.2398 -1.4273,1.5853 -1.6816,1.5853 -0.1051,0 -1.2617,-1.015 -2.5702,-2.2557 z"
       id="path3402-9"
       inkscape:connector-curvature="0" />
    <path
       style="fill:#00ff00"
       d="m 1246.4327,1189.0199 c -0.4075,-0.1208 -0.9736,-0.4281 -1.258,-0.6829 -1.2816,-1.1478 -1.242,-0.4027 -1.241,-23.3508 10e-4,-20.8721 0.016,-21.5247 0.5071,-22.3221 1.0573,-1.716 -0.2482,-1.6317 24.0958,-1.5561 l 22.0205,0.068 0.7023,0.6414 c 1.4615,1.3347 1.4138,0.5466 1.4076,23.2757 0,20.2281 -0.024,21.0226 -0.5097,22.0822 -0.3848,0.839 -0.7668,1.2171 -1.6147,1.5979 -1.0719,0.4815 -1.8469,0.4983 -22.2399,0.4824 -11.6211,-0.01 -21.4626,-0.1153 -21.87,-0.2361 z m 42.6105,-23.9838 0,-20.6556 -20.8053,0.066 -20.8052,0.066 -0.066,20.59 -0.066,20.5899 20.8716,0 20.8716,0 0,-20.6556 z"
       id="path3464-9"
       inkscape:connector-curvature="0" />
    <path
       style="fill:#00ff00"
       d="m 1271.0276,1175.0188 -6.0809,-5.9308 -0.8033,0.28 c -1.2566,0.4381 -4.4827,0.1497 -5.7779,-0.5164 -1.6497,-0.8483 -3.2276,-2.4342 -4.007,-4.0273 -0.5809,-1.1873 -0.6931,-1.7374 -0.6768,-3.3187 0.011,-1.0425 0.1565,-2.2288 0.3237,-2.6362 l 0.3041,-0.7408 2.0721,2.0091 c 1.1397,1.1051 2.4245,2.3242 2.8553,2.7092 l 0.7831,0.7 1.9316,-1.8039 c 1.0624,-0.9922 1.9317,-1.8995 1.9317,-2.0162 0,-0.1167 -1.2034,-1.383 -2.6742,-2.814 l -2.6742,-2.6018 0.717,-0.3064 c 1.166,-0.4982 4.166,-0.4017 5.7323,0.1844 2.8913,1.0817 4.9369,3.7756 5.1521,6.7849 0.066,0.9167 0,2.116 -0.1566,2.6651 l -0.2757,0.9985 6.0547,5.9053 c 3.3302,3.2479 6.0548,6.0915 6.0548,6.3192 0,0.6161 -3.5475,4.0876 -4.1771,4.0876 -0.3479,0 -2.6012,-2.0221 -6.6088,-5.9308 z"
       id="path3619"
       inkscape:connector-curvature="0" />
    <path
       style="fill:#ff0000"
       d="m 1282.6954,1099.5125 c -2.1462,-2.035 -2.4112,-2.2474 -2.707,-2.17 -1.1192,0.2927 -2.5165,-0.1213 -3.287,-0.9738 -0.7485,-0.8283 -0.9982,-1.8317 -0.7048,-2.8325 l 0.1394,-0.4756 1.1205,1.0563 1.1205,1.0564 0.8026,-0.767 0.8026,-0.767 -1.0959,-1.0326 c -1.0302,-0.9706 -1.0786,-1.0389 -0.8058,-1.1385 0.1596,-0.058 0.6405,-0.1075 1.0687,-0.1095 2.0872,-0.01 3.7237,1.9356 3.169,3.7676 -0.1128,0.3725 -0.068,0.4242 2.257,2.6241 1.3046,1.2343 2.372,2.3289 2.372,2.4325 0,0.2398 -1.4273,1.5853 -1.6816,1.5853 -0.1051,0 -1.2617,-1.015 -2.5702,-2.2557 z"
       id="path3402-4"
       inkscape:connector-curvature="0" />
    <path
       style="fill:#00ff00"
       d="m 1246.7552,1134.086 c -0.4053,-0.1189 -0.9685,-0.4214 -1.2515,-0.6722 -1.2749,-1.1297 -1.2355,-0.3963 -1.2345,-22.9836 10e-4,-20.5439 0.016,-21.1862 0.5045,-21.9711 1.0518,-1.6891 -0.2469,-1.6061 23.9709,-1.5317 l 21.9064,0.067 0.6987,0.6313 c 1.4539,1.3137 1.4065,0.5379 1.4003,22.9097 -0.01,19.9101 -0.024,20.6921 -0.5071,21.7349 -0.3828,0.8259 -0.7628,1.198 -1.6063,1.5729 -1.0663,0.4739 -1.8374,0.4904 -22.1246,0.4748 -11.5609,-0.01 -21.3515,-0.1135 -21.7568,-0.2324 z m 42.3897,-23.6067 0,-20.3308 -20.6974,0.065 -20.6974,0.065 -0.066,20.2661 -0.066,20.2662 20.7634,0 20.7634,0 0,-20.3308 z"
       id="path3464-90"
       inkscape:connector-curvature="0" />
    <path
       style="fill:#00ff00"
       d="m 1273.5113,1126.482 c -1.2054,-0.621 -2.1591,-2.2036 -2.1784,-3.6149 -0.012,-0.9058 -0.5073,-1.2685 -5.3291,-3.9057 -5.0371,-2.7548 -5.3606,-2.8791 -6.176,-2.3718 -1.1353,0.7062 -3.2907,0.6808 -4.4699,-0.053 -3.5463,-2.2062 -1.8174,-7.3243 2.4755,-7.3286 0.7289,-7e-4 1.6835,0.237 2.1214,0.5282 0.744,0.4948 1.1439,0.337 6.094,-2.4044 5.2702,-2.9187 5.2978,-2.9407 5.2978,-4.2265 0,-2.3814 2.451,-4.1973 5.0424,-3.7357 3.0798,0.5486 4.3646,4.527 2.1431,6.6362 -1.4596,1.3859 -2.7304,1.6315 -4.7158,0.9116 l -1.6298,-0.591 -5.0217,2.787 c -4.8107,2.6699 -5.026,2.839 -5.1253,4.026 l -0.1037,1.239 5.327,2.924 c 4.924,2.7028 5.3858,2.885 6.1038,2.4075 0.4272,-0.2841 1.4321,-0.5165 2.2333,-0.5165 2.0712,0 4.011,1.8418 4.011,3.8083 0,3.0449 -3.2951,4.9249 -6.0996,3.48 z"
       id="path3940"
       inkscape:connector-curvature="0" />
    <path
       style="fill:#ff0000"
       d="m 1337.5397,1099.8342 c -2.1462,-2.035 -2.4112,-2.2474 -2.707,-2.17 -1.1192,0.2927 -2.5165,-0.1213 -3.287,-0.9738 -0.7485,-0.8283 -0.9982,-1.8317 -0.7048,-2.8325 l 0.1394,-0.4756 1.1205,1.0563 1.1205,1.0564 0.8026,-0.767 0.8026,-0.767 -1.0959,-1.0326 c -1.0302,-0.9706 -1.0786,-1.0389 -0.8058,-1.1385 0.1596,-0.058 0.6405,-0.1075 1.0687,-0.1095 2.0872,-0.01 3.7237,1.9356 3.169,3.7676 -0.1128,0.3725 -0.068,0.4242 2.257,2.6241 1.3046,1.2343 2.372,2.3289 2.372,2.4325 0,0.2398 -1.4273,1.5853 -1.6816,1.5853 -0.1051,0 -1.2617,-1.015 -2.5702,-2.2557 z"
       id="path3402-8"
       inkscape:connector-curvature="0" />
    <path
       style="fill:#00ff00"
       d="m 1301.8002,1134.4077 c -0.3969,-0.1189 -0.9483,-0.4214 -1.2254,-0.6722 -1.2483,-1.1297 -1.2098,-0.3963 -1.2087,-22.9836 9e-4,-20.5439 0.015,-21.1862 0.4939,-21.9711 1.0299,-1.6891 -0.2417,-1.6061 23.4715,-1.5317 l 21.4499,0.067 0.6842,0.6313 c 1.4236,1.3137 1.3771,0.5379 1.3711,22.9097 -0.01,19.9101 -0.023,20.6921 -0.4965,21.7349 -0.3748,0.8259 -0.747,1.198 -1.5728,1.5729 -1.0441,0.4739 -1.7992,0.4904 -21.6637,0.4748 -11.32,-0.01 -20.9066,-0.1135 -21.3035,-0.2324 z m 41.5066,-23.6067 0,-20.3308 -20.2662,0.065 -20.2662,0.065 -0.065,20.2661 -0.065,20.2662 20.3308,0 20.3308,0 0,-20.3308 z"
       id="path3464-2"
       inkscape:connector-curvature="0" />
    <path
       style="fill:#00ff00"
       d="m 1318.4785,1124.914 c -0.645,-0.8624 -0.684,-1.3508 -0.684,-8.5663 l 0,-7.6517 4.6026,-4.8749 4.6027,-4.8749 0.8426,0.8326 c 0.9818,0.9701 1.0541,2.0015 0.3542,5.0503 -0.8968,3.9062 -1.1925,3.6445 4.1186,3.6445 5.7264,0 5.939,0.1335 5.9426,3.7313 0,2.0955 -0.2121,2.8746 -2.0266,7.3759 -1.1159,2.7681 -2.3214,5.3063 -2.679,5.6403 -0.5749,0.5372 -1.4449,0.6075 -7.5199,0.6075 l -6.8698,0 -0.684,-0.9146 z"
       id="path3759"
       inkscape:connector-curvature="0" />
    <path
       style="fill:#00ff00"
       d="m 1309.2141,1117.1511 0,-7.9833 2.4751,0 2.4751,0 0,7.9833 0,7.9833 -2.4751,0 -2.4751,0 0,-7.9833 z"
       id="path3761"
       inkscape:connector-curvature="0" />
    <path
       style="fill:#ff0000"
       d="m 1393.3182,1099.9669 c -2.1462,-2.035 -2.4112,-2.2474 -2.707,-2.17 -1.1192,0.2927 -2.5165,-0.1213 -3.287,-0.9738 -0.7485,-0.8283 -0.9982,-1.8317 -0.7048,-2.8325 l 0.1394,-0.4756 1.1205,1.0563 1.1205,1.0564 0.8026,-0.767 0.8026,-0.767 -1.0959,-1.0326 c -1.0302,-0.9706 -1.0786,-1.0389 -0.8058,-1.1385 0.1596,-0.058 0.6405,-0.1075 1.0687,-0.1095 2.0873,-0.01 3.7237,1.9356 3.169,3.7676 -0.1128,0.3725 -0.068,0.4242 2.257,2.6241 1.3046,1.2343 2.372,2.3289 2.372,2.4325 0,0.2398 -1.4273,1.5853 -1.6816,1.5853 -0.1051,0 -1.2617,-1.015 -2.5702,-2.2557 z"
       id="path3402-7"
       inkscape:connector-curvature="0" />
    <path
       style="fill:#00ff00"
       d="m 1357.378,1134.5404 c -0.4053,-0.1189 -0.9685,-0.4214 -1.2515,-0.6722 -1.2749,-1.1297 -1.2355,-0.3963 -1.2345,-22.9836 10e-4,-20.5439 0.016,-21.1862 0.5045,-21.9711 1.0518,-1.6891 -0.2469,-1.6061 23.9709,-1.5317 l 21.9064,0.067 0.6987,0.6313 c 1.4539,1.3137 1.4065,0.5379 1.4003,22.9097 -0.01,19.9101 -0.024,20.6921 -0.5071,21.7349 -0.3828,0.8259 -0.7628,1.198 -1.6063,1.5729 -1.0663,0.4739 -1.8374,0.4904 -22.1246,0.4748 -11.5609,-0.01 -21.3515,-0.1135 -21.7568,-0.2324 z m 42.3897,-23.6067 0,-20.3308 -20.6974,0.065 -20.6974,0.065 -0.066,20.2661 -0.066,20.2662 20.7634,0 20.7634,0 0,-20.3308 z"
       id="path3464-8"
       inkscape:connector-curvature="0" />
    <path
       style="fill:#00ff00"
       d="m 1367.3156,1119.7542 -4.9664,-4.9116 4.9751,-4.9202 4.9752,-4.9202 1.0839,1.0689 1.084,1.069 -3.7879,3.7527 c -2.0833,2.064 -3.7878,3.9378 -3.7878,4.1638 0,0.2261 1.6656,2.0612 3.7013,4.078 l 3.7012,3.667 -1.0061,0.9321 -1.0061,0.9321 -4.9664,-4.9116 z"
       id="path4032"
       inkscape:connector-curvature="0" />
    <path
       style="fill:#00ff00"
       d="m 1385.1219,1123.6193 -1.0456,-1.0976 3.8754,-3.8395 3.8754,-3.8396 -3.8872,-3.8512 -3.8873,-3.8513 1.0839,-1.069 1.084,-1.0689 4.9775,4.9226 4.9776,4.9225 -5.0041,4.9348 -5.004,4.9348 -1.0456,-1.0976 z"
       id="path4034"
       inkscape:connector-curvature="0" />
    <text
       xml:space="preserve"
       style="font-style:normal;font-weight:normal;font-size:40px;line-height:125%;font-family:sans-serif;letter-spacing:0px;word-spacing:0px;fill:#000000;fill-opacity:1;stroke:none;stroke-width:1px;stroke-linecap:butt;stroke-linejoin:miter;stroke-opacity:1"
       x="1120.8755"
       y="1143.1611"
       id="text3352-0"
       sodipodi:linespacing="125%"><tspan
         sodipodi:role="line"
         id="tspan3354-77"
         x="1120.8755"
         y="1143.1611" /></text>
    <flowRoot
       xml:space="preserve"
       id="flowRoot3356-3"
       style="font-style:normal;font-weight:normal;font-size:40px;line-height:125%;font-family:sans-serif;letter-spacing:0px;word-spacing:0px;fill:#000000;fill-opacity:1;stroke:none;stroke-width:1px;stroke-linecap:butt;stroke-linejoin:miter;stroke-opacity:1"
       transform="translate(1455.1325,1137.7057)"><flowRegion
         id="flowRegion3358-4"><rect
           id="rect3360-5"
           width="102.78302"
           height="84.34774"
           x="-14.647212"
           y="-16.437834" /></flowRegion><flowPara
         id="flowPara3362-9" /></flowRoot>    <path
       style="fill:#ff0000"
       d="m 1394.2651,1152.627 c -2.1462,-2.035 -2.4112,-2.2474 -2.707,-2.17 -1.1192,0.2927 -2.5165,-0.1213 -3.287,-0.9738 -0.7485,-0.8283 -0.9982,-1.8317 -0.7048,-2.8325 l 0.1394,-0.4756 1.1205,1.0563 1.1205,1.0564 0.8026,-0.767 0.8026,-0.767 -1.0959,-1.0326 c -1.0302,-0.9706 -1.0786,-1.0389 -0.8058,-1.1385 0.1596,-0.058 0.6405,-0.1075 1.0687,-0.1095 2.0872,-0.01 3.7237,1.9356 3.169,3.7676 -0.1128,0.3725 -0.068,0.4242 2.257,2.6241 1.3046,1.2343 2.372,2.3289 2.372,2.4325 0,0.2398 -1.4273,1.5853 -1.6816,1.5853 -0.1051,0 -1.2617,-1.015 -2.5702,-2.2557 z"
       id="path3402-71"
       inkscape:connector-curvature="0" />
    <path
       style="fill:#00ff00"
       d="m 1358.312,1187.7018 c -0.4033,-0.1208 -0.9635,-0.4281 -1.245,-0.6829 -1.2683,-1.1478 -1.2291,-0.4027 -1.2281,-23.3508 10e-4,-20.8721 0.016,-21.5247 0.5018,-22.3221 1.0464,-1.716 -0.2456,-1.6317 23.8462,-1.5561 l 21.7922,0.068 0.6951,0.6414 c 1.4463,1.3347 1.3991,0.5466 1.393,23.2757 0,20.2281 -0.024,21.0226 -0.5045,22.0822 -0.3808,0.839 -0.7588,1.2171 -1.5979,1.5979 -1.0608,0.4815 -1.8278,0.4983 -22.0094,0.4824 -11.5007,-0.01 -21.2402,-0.1153 -21.6434,-0.2361 z m 42.1689,-23.9838 0,-20.6556 -20.5896,0.066 -20.5897,0.066 -0.065,20.59 -0.066,20.5899 20.6553,0 20.6553,0 0,-20.6556 z"
       id="path3464-6"
       inkscape:connector-curvature="0" />
    <path
       style="fill:#00ff00"
       d="m 1375.7374,1178.4016 c -6.0527,-1.9997 -9.6736,-7.948 -8.4388,-13.863 1.1757,-5.6315 6.3348,-9.9084 11.9522,-9.9084 l 1.3359,0 0,5.0067 0,5.0068 0.6314,0.5931 c 0.4627,0.4347 0.6313,0.8544 0.6313,1.5713 0,2.7197 -4.013,3.0383 -4.6822,0.3717 -0.1656,-0.6598 0.4644,-2.1955 0.9006,-2.1955 0.1353,0 0.2461,-0.6895 0.2461,-1.5323 0,-1.4705 -0.023,-1.5254 -0.5682,-1.3639 -0.9269,0.2745 -2.2651,1.466 -2.7963,2.4895 -0.6046,1.1651 -0.655,3.2702 -0.1034,4.3269 0.8889,1.7031 2.8397,2.8983 4.7306,2.8983 3.8309,0 6.2075,-3.943 4.4586,-7.3974 l -0.5921,-1.1696 0.7092,-0.6795 c 0.6235,-0.5973 0.7611,-0.6367 1.1374,-0.3253 0.2355,0.1948 0.6931,0.9224 1.0168,1.6168 1.2195,2.6157 0.5713,5.9684 -1.5525,8.0311 -4.2299,4.108 -11.3156,1.9726 -12.5076,-3.7694 -0.7315,-3.5236 1.5245,-7.1472 5.1204,-8.2247 0.9408,-0.2819 0.9471,-0.2927 0.9471,-1.6328 0,-0.7419 -0.093,-1.349 -0.2067,-1.349 -0.6928,0 -3.13,0.9165 -4.1363,1.5553 -5.4412,3.4545 -6.1997,10.9844 -1.5494,15.3824 5.0726,4.7975 13.3282,3.3348 16.3748,-2.9014 0.5874,-1.2022 0.7503,-1.919 0.8323,-3.6618 0.12,-2.5505 -0.3954,-4.3503 -1.8095,-6.3186 l -0.8782,-1.2224 0.7329,-0.7022 c 0.7126,-0.6827 0.7469,-0.6895 1.2394,-0.2438 1.7512,1.5848 3.0377,4.9468 3.0377,7.9382 0,5.0905 -2.8703,9.2643 -7.8287,11.3837 -1.9478,0.8326 -6.2871,0.9823 -8.3848,0.2892 z"
       id="path3659"
       inkscape:connector-curvature="0" />
    <path
       style="fill:#ff0000"
       d="m 1283.0959,1207.5445 c -2.1462,-2.035 -2.4112,-2.2474 -2.707,-2.17 -1.1192,0.2927 -2.5165,-0.1213 -3.287,-0.9738 -0.7485,-0.8283 -0.9982,-1.8317 -0.7048,-2.8325 l 0.1394,-0.4756 1.1205,1.0563 1.1205,1.0564 0.8026,-0.767 0.8026,-0.767 -1.0959,-1.0326 c -1.0302,-0.9706 -1.0786,-1.0389 -0.8058,-1.1385 0.1596,-0.058 0.6405,-0.1075 1.0687,-0.1095 2.0872,-0.01 3.7237,1.9356 3.169,3.7676 -0.1128,0.3725 -0.068,0.4242 2.257,2.6241 1.3046,1.2343 2.372,2.3289 2.372,2.4325 0,0.2398 -1.4273,1.5853 -1.6816,1.5853 -0.1051,0 -1.2617,-1.015 -2.5702,-2.2557 z"
       id="path3402-6"
       inkscape:connector-curvature="0" />
    <path
       style="fill:#00ff00"
       d="m 1247.3693,1242.6206 c -0.399,-0.1202 -0.9533,-0.4259 -1.2319,-0.6794 -1.255,-1.1417 -1.2162,-0.4005 -1.2152,-23.2284 9e-4,-20.7627 0.015,-21.4118 0.4966,-22.205 1.0353,-1.7071 -0.2431,-1.6232 23.5964,-1.548 l 21.564,0.068 0.6878,0.6381 c 1.4312,1.3276 1.3845,0.5436 1.3785,23.1537 -0.01,20.1221 -0.023,20.9124 -0.4992,21.9664 -0.3769,0.8346 -0.7509,1.2107 -1.5812,1.5895 -1.0497,0.479 -1.8087,0.4957 -21.7789,0.4799 -11.3803,-0.01 -21.0179,-0.1146 -21.4169,-0.2348 z m 41.7274,-23.8581 0,-20.5474 -20.374,0.065 -20.374,0.065 -0.065,20.482 -0.065,20.482 20.439,0 20.4389,0 0,-20.5473 z"
       id="path3464-0"
       inkscape:connector-curvature="0" />
    <path
       style="fill:#00ff00"
       d="m 1257.5482,1234.1252 c -1.2769,-0.8838 -1.2461,-0.6097 -1.2546,-11.1493 l -0.01,-9.9315 0.7382,-0.7382 c 0.622,-0.6221 0.9399,-0.7382 2.0203,-0.7382 l 1.2821,0 0,-1.389 0,-1.3889 1.2495,0 1.2495,0 0.076,1.3258 0.076,1.3258 5.619,0.068 5.6189,0.068 0,-1.3938 0,-1.3938 1.2495,0 1.2495,0 0.076,1.3258 0.076,1.3258 1.1364,0.069 c 0.6251,0.038 1.4019,0.2044 1.7262,0.3698 1.2671,0.6462 1.3043,0.9683 1.3043,11.2875 l 0,9.605 -0.7367,0.8248 -0.7367,0.8247 -10.6907,0.07 c -9.7921,0.064 -10.7437,0.033 -11.322,-0.3672 z m 20.9607,-9.1727 0,-7.3236 -9.849,0 -9.849,0 0,7.3236 0,7.3236 9.849,0 9.849,0 0,-7.3236 z"
       id="path3701"
       inkscape:connector-curvature="0" />
    <path
       style="fill:#00ff00"
       d="m 1261.8414,1221.6695 0,-1.2627 1.2627,0 1.2627,0 0,1.2627 0,1.2627 -1.2627,0 -1.2627,0 0,-1.2627 z"
       id="path3703"
       inkscape:connector-curvature="0" />
    <path
       style="fill:#00ff00"
       d="m 1267.3972,1221.6695 0,-1.2627 1.2627,0 1.2627,0 0,1.2627 0,1.2627 -1.2627,0 -1.2627,0 0,-1.2627 z"
       id="path3705"
       inkscape:connector-curvature="0" />
    <path
       style="fill:#00ff00"
       d="m 1272.9531,1221.6695 0,-1.2627 1.2627,0 1.2627,0 0,1.2627 0,1.2627 -1.2627,0 -1.2627,0 0,-1.2627 z"
       id="path3709"
       inkscape:connector-curvature="0" />
    <text
       xml:space="preserve"
       style="font-style:normal;font-weight:normal;font-size:40px;line-height:125%;font-family:sans-serif;letter-spacing:0px;word-spacing:0px;fill:#000000;fill-opacity:1;stroke:none;stroke-width:1px;stroke-linecap:butt;stroke-linejoin:miter;stroke-opacity:1"
       x="1065.8223"
       y="1194.0476"
       id="text3352-72"
       sodipodi:linespacing="125%"><tspan
         sodipodi:role="line"
         id="tspan3354-54"
         x="1065.8223"
         y="1194.0476" /></text>
    <flowRoot
       xml:space="preserve"
       id="flowRoot3356-1"
       style="font-style:normal;font-weight:normal;font-size:40px;line-height:125%;font-family:sans-serif;letter-spacing:0px;word-spacing:0px;fill:#000000;fill-opacity:1;stroke:none;stroke-width:1px;stroke-linecap:butt;stroke-linejoin:miter;stroke-opacity:1"
       transform="translate(1400.0792,1188.5922)"><flowRegion
         id="flowRegion3358-2"><rect
           id="rect3360-6"
           width="102.78302"
           height="84.34774"
           x="-14.647212"
           y="-16.437834" /></flowRegion><flowPara
         id="flowPara3362-74" /></flowRoot>    <path
       style="fill:#ff0000"
       d="m 1341.3546,1206.7278 c -2.1462,-2.035 -2.4112,-2.2474 -2.707,-2.17 -1.1192,0.2927 -2.5165,-0.1213 -3.287,-0.9738 -0.7485,-0.8283 -0.9982,-1.8317 -0.7048,-2.8325 l 0.1394,-0.4756 1.1205,1.0563 1.1205,1.0564 0.8026,-0.767 0.8026,-0.767 -1.0959,-1.0326 c -1.0302,-0.9706 -1.0786,-1.0389 -0.8058,-1.1385 0.1596,-0.058 0.6405,-0.1075 1.0687,-0.1095 2.0872,-0.01 3.7237,1.9356 3.169,3.7676 -0.1128,0.3725 -0.068,0.4242 2.257,2.6241 1.3046,1.2343 2.372,2.3289 2.372,2.4325 0,0.2398 -1.4273,1.5853 -1.6816,1.5853 -0.1051,0 -1.2617,-1.015 -2.5702,-2.2557 z"
       id="path3402-0"
       inkscape:connector-curvature="0" />
    <path
       style="fill:#00ff00"
       d="m 1305.4014,1242.0539 c -0.4032,-0.1215 -0.9634,-0.4304 -1.2449,-0.6865 -1.2683,-1.1538 -1.2291,-0.4048 -1.2281,-23.4732 10e-4,-20.9815 0.016,-21.6375 0.5018,-22.439 1.0463,-1.7251 -0.2456,-1.6403 23.8462,-1.5643 l 21.7922,0.069 0.6951,0.6448 c 1.4463,1.3417 1.3991,0.5494 1.393,23.3977 -0.01,20.3341 -0.024,21.1328 -0.5045,22.1979 -0.3808,0.8434 -0.7588,1.2235 -1.5979,1.6063 -1.0608,0.484 -1.8278,0.5009 -22.0094,0.4849 -11.5007,-0.01 -21.2402,-0.1158 -21.6435,-0.2373 z m 42.169,-24.1095 0,-20.7639 -20.5896,0.066 -20.5897,0.066 -0.066,20.6978 -0.066,20.6978 20.6553,0 20.6553,0 0,-20.7638 z"
       id="path3464-66"
       inkscape:connector-curvature="0" />
    <path
       style="fill:#00ff00"
       d="m 1315.1283,1231.1871 c -0.4426,-0.1314 -1.0438,-0.5428 -1.3359,-0.9141 -0.5176,-0.6581 -0.5293,-0.8734 -0.4579,-8.4812 l 0.073,-7.8059 0.7577,-0.6059 0.7576,-0.6059 11.8187,0 c 13.0337,0 12.9937,-0.01 13.534,1.544 0.4434,1.2719 0.3777,14.3994 -0.077,15.4889 -0.647,1.5485 -0.4376,1.5229 -12.9009,1.5739 -6.5604,0.027 -11.7044,-0.055 -12.169,-0.1926 z m 17.2391,-10.7912 5.5366,-2.9823 0.076,-1.3108 c 0.042,-0.721 0.021,-1.3109 -0.047,-1.3109 -0.068,0 -2.131,1.0868 -4.5849,2.415 -2.4539,1.3283 -4.9386,2.6468 -5.5216,2.93 l -1.0599,0.515 -5.4169,-2.9229 -5.4169,-2.9228 -0.078,1.3136 c -0.043,0.7225 0.014,1.3461 0.1263,1.3858 0.152,0.054 10.7226,5.7702 10.8304,5.8571 0.011,0.01 2.5107,-1.3265 5.5559,-2.9668 z"
       id="path3541"
       inkscape:connector-curvature="0" />
    <text
       xml:space="preserve"
       style="font-style:normal;font-weight:normal;font-size:40px;line-height:125%;font-family:sans-serif;letter-spacing:0px;word-spacing:0px;fill:#000000;fill-opacity:1;stroke:none;stroke-width:1px;stroke-linecap:butt;stroke-linejoin:miter;stroke-opacity:1"
       x="1123.1484"
       y="1195.4365"
       id="text3352-74"
       sodipodi:linespacing="125%"><tspan
         sodipodi:role="line"
         id="tspan3354-27"
         x="1123.1484"
         y="1195.4365" /></text>
    <flowRoot
       xml:space="preserve"
       id="flowRoot3356-68"
       style="font-style:normal;font-weight:normal;font-size:40px;line-height:125%;font-family:sans-serif;letter-spacing:0px;word-spacing:0px;fill:#000000;fill-opacity:1;stroke:none;stroke-width:1px;stroke-linecap:butt;stroke-linejoin:miter;stroke-opacity:1"
       transform="translate(1457.4054,1189.9811)"><flowRegion
         id="flowRegion3358-73"><rect
           id="rect3360-84"
           width="102.78302"
           height="84.34774"
           x="-14.647212"
           y="-16.437834" /></flowRegion><flowPara
         id="flowPara3362-0" /></flowRoot>    <path
       style="fill:#ff0000"
       d="m 1394.7522,1205.2596 c -2.1462,-2.035 -2.4112,-2.2474 -2.707,-2.17 -1.1192,0.2927 -2.5165,-0.1213 -3.287,-0.9738 -0.7485,-0.8283 -0.9982,-1.8317 -0.7048,-2.8325 l 0.1394,-0.4756 1.1205,1.0563 1.1205,1.0564 0.8026,-0.767 0.8026,-0.767 -1.0959,-1.0326 c -1.0302,-0.9706 -1.0786,-1.0389 -0.8058,-1.1385 0.1596,-0.058 0.6405,-0.1075 1.0687,-0.1095 2.0873,-0.01 3.7237,1.9356 3.169,3.7676 -0.1128,0.3725 -0.068,0.4242 2.257,2.6241 1.3046,1.2343 2.372,2.3289 2.372,2.4325 0,0.2398 -1.4273,1.5853 -1.6816,1.5853 -0.1051,0 -1.2617,-1.015 -2.5702,-2.2557 z"
       id="path3402-2"
       inkscape:connector-curvature="0" />
    <path
       style="fill:#00ff00"
       d="m 1358.799,1240.0844 c -0.4032,-0.1196 -0.9634,-0.4237 -1.2449,-0.6758 -1.2683,-1.1357 -1.2291,-0.3984 -1.2281,-23.106 10e-4,-20.6533 0.016,-21.299 0.5018,-22.0881 1.0463,-1.698 -0.2456,-1.6146 23.8462,-1.5398 l 21.7922,0.068 0.6951,0.6347 c 1.4463,1.3207 1.3991,0.5408 1.393,23.0317 -0.01,20.0161 -0.024,20.8022 -0.5045,21.8507 -0.3808,0.8302 -0.7588,1.2043 -1.5979,1.5812 -1.0608,0.4764 -1.8278,0.493 -22.0094,0.4773 -11.5007,-0.01 -21.2402,-0.114 -21.6435,-0.2336 z m 42.169,-23.7324 0,-20.4391 -20.5896,0.065 -20.5897,0.065 -0.066,20.3741 -0.066,20.3741 20.6553,0 20.6553,0 0,-20.4391 z"
       id="path3464-7"
       inkscape:connector-curvature="0" />
    <path
       style="fill:#00ff00"
       d="m 1373.1533,1226.0424 -0.6658,-0.6658 0,-8.3113 0,-8.3114 0.6682,-0.6193 0.6683,-0.6193 8.1872,0 c 5.3818,0 8.3619,0.093 8.6971,0.2729 1.1016,0.5896 1.2247,1.5262 1.2247,9.3236 0,7.7973 -0.1231,8.7339 -1.2247,9.3235 -0.3352,0.1794 -3.316,0.2729 -8.6996,0.2729 l -8.1896,0 -0.6658,-0.6658 z m 10.1934,-4.0062 0,-1.3889 -3.7881,0 -3.7881,0 0,1.3889 0,1.389 3.7881,0 3.7881,0 0,-1.389 z m 5.0507,-4.9244 0,-1.2627 -6.3134,0 -6.3135,0 0,1.2627 0,1.2626 6.3135,0 6.3134,0 0,-1.2626 z m 0,-4.9245 0,-1.389 -6.3134,0 -6.3135,0 0,1.389 0,1.3889 6.3135,0 6.3134,0 0,-1.3889 z"
       id="path3577"
       inkscape:connector-curvature="0" />
    <path
       style="fill:#00ff00"
       d="m 1369.2763,1231.5819 c -0.3078,-0.06 -0.8476,-0.4506 -1.1996,-0.8689 l -0.6399,-0.7606 0,-8.8194 0,-8.8195 1.1364,0 1.1364,0 0,8.5863 0,8.5863 8.5863,0 8.5863,0 0,1.1364 0,1.1365 -8.5232,-0.034 c -4.6877,-0.019 -8.7749,-0.083 -9.0827,-0.1427 z"
       id="path3579"
       inkscape:connector-curvature="0" />
    <path
       style="fill:#ff0000"
       d="m 1446.0306,1099.8549 c -2.1462,-2.035 -2.4112,-2.2474 -2.707,-2.17 -1.1192,0.2927 -2.5165,-0.1213 -3.287,-0.9738 -0.7485,-0.8283 -0.9982,-1.8317 -0.7048,-2.8325 l 0.1394,-0.4756 1.1205,1.0563 1.1205,1.0564 0.8026,-0.767 0.8026,-0.767 -1.0959,-1.0326 c -1.0302,-0.9706 -1.0786,-1.0389 -0.8058,-1.1385 0.1596,-0.058 0.6405,-0.1075 1.0687,-0.1095 2.0873,-0.01 3.7237,1.9356 3.169,3.7676 -0.1128,0.3725 -0.068,0.4242 2.257,2.6241 1.3046,1.2343 2.372,2.3289 2.372,2.4325 0,0.2398 -1.4273,1.5853 -1.6816,1.5853 -0.1051,0 -1.2617,-1.015 -2.5702,-2.2557 z"
       id="path3402-64"
       inkscape:connector-curvature="0" />
    <path
       style="fill:#00ff00"
       d="m 1410.0904,1134.4284 c -0.4053,-0.1189 -0.9685,-0.4214 -1.2515,-0.6722 -1.2749,-1.1297 -1.2355,-0.3963 -1.2345,-22.9836 10e-4,-20.5439 0.016,-21.1862 0.5045,-21.9711 1.0518,-1.6891 -0.2469,-1.6061 23.9709,-1.5317 l 21.9064,0.067 0.6987,0.6313 c 1.4539,1.3137 1.4065,0.5379 1.4003,22.9097 -0.01,19.9101 -0.024,20.6921 -0.5071,21.7349 -0.3828,0.8259 -0.7628,1.198 -1.6063,1.5729 -1.0663,0.4739 -1.8374,0.4904 -22.1246,0.4748 -11.5609,-0.01 -21.3515,-0.1135 -21.7568,-0.2324 z m 42.3897,-23.6067 0,-20.3308 -20.6974,0.065 -20.6974,0.065 -0.066,20.2661 -0.066,20.2662 20.7634,0 20.7634,0 0,-20.3308 z"
       id="path3464-1"
       inkscape:connector-curvature="0" />
    <path
       style="fill:#00ff00"
       d="m 1437.2543,1125.1261 c -4.1887,-1.1021 -7.4147,-2.9972 -10.7149,-6.2945 -4.3437,-4.3399 -6.5957,-9.0113 -7.1711,-14.8751 -0.3192,-3.2535 -0.1063,-3.4381 3.8045,-3.299 2.1934,0.078 3.0344,0.2461 3.238,0.647 0.1513,0.2979 0.4728,1.8951 0.7146,3.5495 l 0.4395,3.0079 -1.7501,1.7844 -1.7501,1.7843 0.8297,1.5705 c 1.1057,2.0931 4.1069,5.2086 6.6529,6.9061 l 2.0666,1.378 1.933,-1.917 1.933,-1.9171 1.6255,0.411 c 0.894,0.2261 2.2009,0.4111 2.9043,0.4111 2.0273,0 2.7169,0.9681 2.7169,3.8146 0,3.3852 -0.2885,3.7715 -2.7989,3.7472 -1.13,-0.011 -3.2331,-0.3299 -4.6734,-0.7089 z"
       id="path3987"
       inkscape:connector-curvature="0" />
    <path
       style="fill:#ff0000"
       d="m 1447.5925,1151.3774 c -2.1462,-2.035 -2.4112,-2.2474 -2.707,-2.17 -1.1192,0.2927 -2.5165,-0.1213 -3.287,-0.9738 -0.7485,-0.8283 -0.9982,-1.8317 -0.7048,-2.8325 l 0.1394,-0.4756 1.1205,1.0563 1.1205,1.0564 0.8026,-0.767 0.8026,-0.767 -1.0959,-1.0326 c -1.0302,-0.9706 -1.0786,-1.0389 -0.8058,-1.1385 0.1596,-0.058 0.6405,-0.1075 1.0687,-0.1095 2.0873,-0.01 3.7237,1.9356 3.169,3.7676 -0.1128,0.3725 -0.068,0.4242 2.257,2.6241 1.3046,1.2343 2.372,2.3289 2.372,2.4325 0,0.2398 -1.4273,1.5853 -1.6816,1.5853 -0.1051,0 -1.2617,-1.015 -2.5702,-2.2557 z"
       id="path3402-67"
       inkscape:connector-curvature="0" />
    <path
       style="fill:#00ff00"
       d="m 1411.853,1185.9509 c -0.3969,-0.1189 -0.9483,-0.4214 -1.2254,-0.6722 -1.2483,-1.1297 -1.2097,-0.3963 -1.2087,-22.9836 9e-4,-20.5439 0.015,-21.1862 0.4939,-21.9711 1.0299,-1.6891 -0.2417,-1.6061 23.4715,-1.5317 l 21.4499,0.067 0.6842,0.6313 c 1.4236,1.3137 1.3772,0.5379 1.3711,22.9097 0,19.9101 -0.023,20.6921 -0.4965,21.7349 -0.3748,0.8259 -0.7469,1.198 -1.5728,1.5729 -1.0441,0.4739 -1.7991,0.4904 -21.6637,0.4748 -11.32,-0.01 -20.9066,-0.1135 -21.3035,-0.2324 z m 41.5066,-23.6067 0,-20.3308 -20.2662,0.065 -20.2662,0.065 -0.065,20.2661 -0.065,20.2662 20.3308,0 20.3308,0 0,-20.3308 z"
       id="path3464-84"
       inkscape:connector-curvature="0" />
    <path
       style="fill:#00ff00"
       d="m 1428.6953,1176.5813 c -1.199,-0.4142 -2.7176,-1.0747 -3.3747,-1.4677 -2.5515,-1.5258 -4.7832,-4.6589 -5.3258,-7.4769 l -0.2672,-1.3875 1.3802,0 c 2.1964,0 5.4846,1.2177 7.5986,2.814 2.142,1.6174 4.0891,4.5959 4.5103,6.8991 l 0.2537,1.3876 -1.2976,-0.01 c -0.7137,0 -2.2786,-0.3467 -3.4775,-0.7609 z"
       id="path3799"
       inkscape:connector-curvature="0" />
    <path
       style="fill:#00ff00"
       d="m 1432.7304,1168.2362 c -1.3349,-0.2949 -2.4361,-1.2432 -2.6921,-2.3181 -0.1276,-0.5362 -0.2864,-0.9749 -0.3526,-0.9749 -0.066,0 -0.5776,0.1459 -1.1363,0.3243 -1.5407,0.492 -3.5874,-0.3451 -4.2882,-1.7539 -0.6673,-1.3412 -0.1828,-2.9464 1.0575,-3.5039 0.7556,-0.3396 0.7484,-0.373 -0.2742,-1.2694 -1.5269,-1.3385 -1.4612,-3.098 0.1611,-4.3154 1.2607,-0.9461 2.6606,-1.1487 3.9458,-0.571 0.6463,0.2905 0.7519,0.2279 0.7519,-0.4457 0,-1.9127 2.8102,-3.2847 5.0977,-2.4889 1.153,0.4011 2.2885,1.7681 2.2885,2.7551 0,0.4104 0.1555,0.4476 0.7519,0.1795 1.3412,-0.6028 2.7543,-0.3819 3.9429,0.6164 1.4985,1.2585 1.5617,2.9625 0.1538,4.1449 l -0.9825,0.8252 0.9825,0.9807 c 1.1231,1.121 1.29,2.7022 0.3983,3.7715 -0.7985,0.9574 -2.9096,1.5131 -4.1925,1.1034 -0.9091,-0.2903 -1.0236,-0.2342 -1.2443,0.6094 -0.4062,1.5535 -2.5971,2.7222 -4.3692,2.3308 z m 2.4475,-5.73 c 0.9424,-0.3307 1.5442,-0.8441 1.9533,-1.6663 0.7676,-1.543 0.411,-2.8429 -1.0664,-3.887 -2.9077,-2.0549 -7.0984,0.047 -6.3927,3.2059 0.2671,1.1959 1.0597,1.9544 2.5717,2.461 1.3018,0.4363 1.3753,0.4334 2.9341,-0.1136 z"
       id="path3801"
       inkscape:connector-curvature="0" />
    <path
       style="fill:#00ff00"
       d="m 1433.9285,1175.8473 c 0.6026,-3.7176 4.2904,-7.5601 8.5363,-8.8943 1.232,-0.3871 2.7826,-0.7038 3.4458,-0.7038 l 1.2058,0 -0.2266,1.607 c -0.6351,4.5037 -5.9677,8.9036 -11.416,9.4193 l -1.8044,0.1708 0.2591,-1.599 z"
       id="path3803"
       inkscape:connector-curvature="0" />
    <text
       xml:space="preserve"
       style="font-style:normal;font-weight:normal;font-size:40px;line-height:125%;font-family:sans-serif;letter-spacing:0px;word-spacing:0px;fill:#000000;fill-opacity:1;stroke:none;stroke-width:1px;stroke-linecap:butt;stroke-linejoin:miter;stroke-opacity:1"
       x="1180.9799"
       y="1195.8153"
       id="text3352-31"
       sodipodi:linespacing="125%"><tspan
         sodipodi:role="line"
         id="tspan3354-1"
         x="1180.9799"
         y="1195.8153" /></text>
    <flowRoot
       xml:space="preserve"
       id="flowRoot3356-8"
       style="font-style:normal;font-weight:normal;font-size:40px;line-height:125%;font-family:sans-serif;letter-spacing:0px;word-spacing:0px;fill:#000000;fill-opacity:1;stroke:none;stroke-width:1px;stroke-linecap:butt;stroke-linejoin:miter;stroke-opacity:1"
       transform="translate(1515.2368,1190.3599)"><flowRegion
         id="flowRegion3358-9"><rect
           id="rect3360-08"
           width="102.78302"
           height="84.34774"
           x="-14.647212"
           y="-16.437834" /></flowRegion><flowPara
         id="flowPara3362-52" /></flowRoot>    <path
       style="fill:#ff0000"
       d="m 1447.2265,1204.9241 c -2.1462,-2.035 -2.4112,-2.2474 -2.707,-2.17 -1.1192,0.2927 -2.5165,-0.1213 -3.287,-0.9738 -0.7485,-0.8283 -0.9982,-1.8317 -0.7048,-2.8325 l 0.1394,-0.4756 1.1205,1.0563 1.1205,1.0564 0.8026,-0.767 0.8026,-0.767 -1.0959,-1.0326 c -1.0302,-0.9706 -1.0786,-1.0389 -0.8058,-1.1385 0.1596,-0.058 0.6405,-0.1075 1.0687,-0.1095 2.0872,-0.01 3.7237,1.9356 3.169,3.7676 -0.1128,0.3725 -0.068,0.4242 2.257,2.6241 1.3046,1.2343 2.372,2.3289 2.372,2.4325 0,0.2398 -1.4273,1.5853 -1.6816,1.5853 -0.1051,0 -1.2617,-1.015 -2.5702,-2.2557 z"
       id="path3402-1"
       inkscape:connector-curvature="0" />
    <path
       style="fill:#00ff00"
       d="m 1411.0233,1239.7476 c -0.4019,-0.1202 -0.959,-0.4259 -1.2378,-0.6793 -1.2562,-1.1418 -1.2249,-0.4006 -0.9833,-23.2284 0.2197,-20.7627 0.2412,-21.4119 0.7358,-22.2051 1.0643,-1.707 -0.2285,-1.6232 23.8624,-1.548 l 21.7916,0.068 0.6883,0.638 c 1.4323,1.3277 1.3934,0.5437 1.1491,23.1538 -0.2171,20.122 -0.244,20.9123 -0.736,21.9663 -0.3896,0.8347 -0.7716,1.2108 -1.6146,1.5896 -1.0659,0.4789 -1.8331,0.4957 -22.0145,0.4799 -11.5006,-0.01 -21.239,-0.1147 -21.641,-0.2349 z m 42.4204,-23.8581 0.2165,-20.5473 -20.5903,0.065 -20.5903,0.065 -0.2815,20.4821 -0.2814,20.482 20.6553,0 20.6553,0 0.2165,-20.5474 z"
       id="path3464-19"
       inkscape:connector-curvature="0" />
    <text
       xml:space="preserve"
       style="font-style:normal;font-weight:normal;font-size:40px;line-height:125%;font-family:sans-serif;letter-spacing:0px;word-spacing:0px;fill:#000000;fill-opacity:1;stroke:none;stroke-width:1px;stroke-linecap:butt;stroke-linejoin:miter;stroke-opacity:1"
       x="1583.0479"
       y="1063.8298"
       id="text3352"
       sodipodi:linespacing="125%"><tspan
         sodipodi:role="line"
         id="tspan3354"
         x="1583.0479"
         y="1063.8298" /></text>
    <flowRoot
       xml:space="preserve"
       id="flowRoot3356"
       style="font-style:normal;font-weight:normal;font-size:40px;line-height:125%;font-family:sans-serif;letter-spacing:0px;word-spacing:0px;fill:#000000;fill-opacity:1;stroke:none;stroke-width:1px;stroke-linecap:butt;stroke-linejoin:miter;stroke-opacity:1"
       transform="translate(1917.3049,1058.3744)"><flowRegion
         id="flowRegion3358"><rect
           id="rect3360"
           width="102.78302"
           height="84.34774"
           x="-14.647212"
           y="-16.437834" /></flowRegion><flowPara
         id="flowPara3362" /></flowRoot>    <path
       style="fill:#ff0000"
       d="m 1507.866,1101.1529 c -2.1462,-2.035 -2.4112,-2.2474 -2.707,-2.17 -1.1192,0.2927 -2.5165,-0.1213 -3.287,-0.9738 -0.7485,-0.8283 -0.9982,-1.8317 -0.7048,-2.8325 l 0.1394,-0.4756 1.1205,1.0563 1.1205,1.0564 0.8026,-0.767 0.8026,-0.767 -1.0959,-1.0326 c -1.0302,-0.9706 -1.0786,-1.0389 -0.8058,-1.1385 0.1596,-0.058 0.6405,-0.1075 1.0687,-0.1095 2.0873,-0.01 3.7237,1.9356 3.169,3.7676 -0.1128,0.3725 -0.068,0.4242 2.257,2.6241 1.3046,1.2343 2.372,2.3289 2.372,2.4325 0,0.2398 -1.4273,1.5853 -1.6816,1.5853 -0.1051,0 -1.2617,-1.015 -2.5702,-2.2557 z"
       id="path3402-02"
       inkscape:connector-curvature="0" />
    <path
       style="fill:#00ff00"
       d="m 1472.1783,1136.479 c -0.4053,-0.1215 -0.9685,-0.4304 -1.2514,-0.6865 -1.275,-1.1538 -1.2356,-0.4048 -1.2345,-23.4732 9e-4,-20.9815 0.016,-21.6375 0.5044,-22.439 1.0518,-1.7251 -0.2469,-1.6403 23.971,-1.5643 l 21.9063,0.069 0.6987,0.6448 c 1.4539,1.3417 1.4065,0.5494 1.4004,23.3977 0,20.3341 -0.024,21.1328 -0.5072,22.1979 -0.3828,0.8434 -0.7628,1.2235 -1.6062,1.6063 -1.0664,0.484 -1.8374,0.5009 -22.1247,0.4849 -11.5609,-0.01 -21.3514,-0.1158 -21.7568,-0.2373 z m 42.3898,-24.1095 0,-20.7639 -20.6975,0.066 -20.6974,0.066 -0.066,20.6978 -0.066,20.6979 20.7635,0 20.7634,0 0,-20.7639 z"
       id="path3464-5"
       inkscape:connector-curvature="0" />
    <path
       style="fill:#00ff00"
       d="m 1478.6791,1126.6386 c 0.5249,-0.9742 4.118,-7.6792 7.9847,-14.8999 3.8667,-7.2207 7.1552,-13.27 7.3077,-13.4429 0.1526,-0.1729 2.5144,3.8594 5.2484,8.9607 2.734,5.1014 6.4079,11.9478 8.1641,15.2143 l 3.1932,5.9391 -16.4263,0 -16.4263,0 0.9545,-1.7713 z m 17.2654,-4.4804 0,-1.6671 -1.7375,0 -1.7374,0 0,1.6671 0,1.6671 1.7374,0 1.7375,0 0,-1.6671 z m -0.081,-8.2314 0.1122,-3.4384 -1.7531,0 -1.753,0 0,3.5666 0,3.5666 1.6409,-0.1282 1.6409,-0.1282 0.1121,-3.4384 z"
       id="path4159"
       inkscape:connector-curvature="0" />
  </g>
</svg>
