<?xml version="1.0" encoding="UTF-8" standalone="no"?>
<!-- Created with Inkscape (http://www.inkscape.org/) -->

<svg
   xmlns:dc="http://purl.org/dc/elements/1.1/"
   xmlns:cc="http://creativecommons.org/ns#"
   xmlns:rdf="http://www.w3.org/1999/02/22-rdf-syntax-ns#"
   xmlns:svg="http://www.w3.org/2000/svg"
   xmlns="http://www.w3.org/2000/svg"
   xmlns:sodipodi="http://sodipodi.sourceforge.net/DTD/sodipodi-0.dtd"
   xmlns:inkscape="http://www.inkscape.org/namespaces/inkscape"
   width="48"
   height="48"
   viewBox="0 0 47.999998 47.999998"
   id="svg5254"
   version="1.1"
   inkscape:version="0.91 r13725"
   sodipodi:docname="tools-shop-projects.svg">
  <defs
     id="defs5256" />
  <sodipodi:namedview
     id="base"
     pagecolor="#ffffff"
     bordercolor="#666666"
     borderopacity="1.0"
     inkscape:pageopacity="0.0"
     inkscape:pageshadow="2"
     inkscape:zoom="0.35"
     inkscape:cx="-546.97806"
     inkscape:cy="-182.00147"
     inkscape:document-units="px"
     inkscape:current-layer="layer1"
     showgrid="false"
     fit-margin-top="0"
     fit-margin-left="0"
     fit-margin-right="0"
     fit-margin-bottom="0"
     inkscape:window-width="1920"
     inkscape:window-height="1018"
     inkscape:window-x="-8"
     inkscape:window-y="-8"
     inkscape:window-maximized="1"
     units="px" />
  <metadata
     id="metadata5259">
    <rdf:RDF>
      <cc:Work
         rdf:about="">
        <dc:format>image/svg+xml</dc:format>
        <dc:type
           rdf:resource="http://purl.org/dc/dcmitype/StillImage" />
        <dc:title></dc:title>
      </cc:Work>
    </rdf:RDF>
  </metadata>
  <g
     inkscape:label="Layer 1"
     inkscape:groupmode="layer"
     id="layer1"
     transform="translate(-341.97806,-302.36074)">
    <g
       id="g5276"
       transform="matrix(1.0111128,0,0,1.0121106,-3.8003367,-4.2430915)">
      <path
         inkscape:connector-curvature="0"
         id="path3402-67"
         d="m 380.15197,315.55172 c -2.1462,-2.035 -2.4112,-2.2474 -2.707,-2.17 -1.1192,0.2927 -2.5165,-0.1213 -3.287,-0.9738 -0.7485,-0.8283 -0.9982,-1.8317 -0.7048,-2.8325 l 0.1394,-0.4756 1.1205,1.0563 1.1205,1.0564 0.8026,-0.767 0.8026,-0.767 -1.0959,-1.0326 c -1.0302,-0.9706 -1.0786,-1.0389 -0.8058,-1.1385 0.1596,-0.058 0.6405,-0.1075 1.0687,-0.1095 2.0873,-0.01 3.7237,1.9356 3.169,3.7676 -0.1128,0.3725 -0.068,0.4242 2.257,2.6241 1.3046,1.2343 2.372,2.3289 2.372,2.4325 0,0.2398 -1.4273,1.5853 -1.6816,1.5853 -0.1051,0 -1.2617,-1.015 -2.5702,-2.2557 z"
         style="fill:#ff0000" />
      <path
         inkscape:connector-curvature="0"
         id="path3464-84"
         d="m 344.41247,350.12522 c -0.3969,-0.1189 -0.9483,-0.4214 -1.2254,-0.6722 -1.2483,-1.1297 -1.2097,-0.3963 -1.2087,-22.9836 9e-4,-20.5439 0.015,-21.1862 0.4939,-21.9711 1.0299,-1.6891 -0.2417,-1.6061 23.4715,-1.5317 l 21.4499,0.067 0.6842,0.6313 c 1.4236,1.3137 1.3772,0.5379 1.3711,22.9097 0,19.9101 -0.023,20.6921 -0.4965,21.7349 -0.3748,0.8259 -0.7469,1.198 -1.5728,1.5729 -1.0441,0.4739 -1.7991,0.4904 -21.6637,0.4748 -11.32,-0.01 -20.9066,-0.1135 -21.3035,-0.2324 z m 41.5066,-23.6067 0,-20.3308 -20.2662,0.065 -20.2662,0.065 -0.065,20.2661 -0.065,20.2662 20.3308,0 20.3308,0 0,-20.3308 z"
         style="fill:#00ff00" />
      <path
         inkscape:connector-curvature="0"
         id="path3799"
         d="m 361.25477,340.75562 c -1.199,-0.4142 -2.7176,-1.0747 -3.3747,-1.4677 -2.5515,-1.5258 -4.7832,-4.6589 -5.3258,-7.4769 l -0.2672,-1.3875 1.3802,0 c 2.1964,0 5.4846,1.2177 7.5986,2.814 2.142,1.6174 4.0891,4.5959 4.5103,6.8991 l 0.2537,1.3876 -1.2976,-0.01 c -0.7137,0 -2.2786,-0.3467 -3.4775,-0.7609 z"
         style="fill:#00ff00" />
      <path
         inkscape:connector-curvature="0"
         id="path3801"
         d="m 365.28987,332.41052 c -1.3349,-0.2949 -2.4361,-1.2432 -2.6921,-2.3181 -0.1276,-0.5362 -0.2864,-0.9749 -0.3526,-0.9749 -0.066,0 -0.5776,0.1459 -1.1363,0.3243 -1.5407,0.492 -3.5874,-0.3451 -4.2882,-1.7539 -0.6673,-1.3412 -0.1828,-2.9464 1.0575,-3.5039 0.7556,-0.3396 0.7484,-0.373 -0.2742,-1.2694 -1.5269,-1.3385 -1.4612,-3.098 0.1611,-4.3154 1.2607,-0.9461 2.6606,-1.1487 3.9458,-0.571 0.6463,0.2905 0.7519,0.2279 0.7519,-0.4457 0,-1.9127 2.8102,-3.2847 5.0977,-2.4889 1.153,0.4011 2.2885,1.7681 2.2885,2.7551 0,0.4104 0.1555,0.4476 0.7519,0.1795 1.3412,-0.6028 2.7543,-0.3819 3.9429,0.6164 1.4985,1.2585 1.5617,2.9625 0.1538,4.1449 l -0.9825,0.8252 0.9825,0.9807 c 1.1231,1.121 1.29,2.7022 0.3983,3.7715 -0.7985,0.9574 -2.9096,1.5131 -4.1925,1.1034 -0.9091,-0.2903 -1.0236,-0.2342 -1.2443,0.6094 -0.4062,1.5535 -2.5971,2.7222 -4.3692,2.3308 z m 2.4475,-5.73 c 0.9424,-0.3307 1.5442,-0.8441 1.9533,-1.6663 0.7676,-1.543 0.411,-2.8429 -1.0664,-3.887 -2.9077,-2.0549 -7.0984,0.047 -6.3927,3.2059 0.2671,1.1959 1.0597,1.9544 2.5717,2.461 1.3018,0.4363 1.3753,0.4334 2.9341,-0.1136 z"
         style="fill:#00ff00" />
      <path
         inkscape:connector-curvature="0"
         id="path3803"
         d="m 366.48797,340.02162 c 0.6026,-3.7176 4.2904,-7.5601 8.5363,-8.8943 1.232,-0.3871 2.7826,-0.7038 3.4458,-0.7038 l 1.2058,0 -0.2266,1.607 c -0.6351,4.5037 -5.9677,8.9036 -11.416,9.4193 l -1.8044,0.1708 0.2591,-1.599 z"
         style="fill:#00ff00" />
    </g>
  </g>
</svg>
