<?xml version="1.0" encoding="UTF-8" standalone="no"?>
<!-- Created with Inkscape (http://www.inkscape.org/) -->

<svg
   xmlns:dc="http://purl.org/dc/elements/1.1/"
   xmlns:cc="http://creativecommons.org/ns#"
   xmlns:rdf="http://www.w3.org/1999/02/22-rdf-syntax-ns#"
   xmlns:svg="http://www.w3.org/2000/svg"
   xmlns="http://www.w3.org/2000/svg"
   xmlns:sodipodi="http://sodipodi.sourceforge.net/DTD/sodipodi-0.dtd"
   xmlns:inkscape="http://www.inkscape.org/namespaces/inkscape"
   width="48"
   height="48.000031"
   viewBox="0 0 48 48.000029"
   id="svg5223"
   version="1.1"
   inkscape:version="0.91 r13725"
   sodipodi:docname="tools-phone.svg">
  <defs
     id="defs5225" />
  <sodipodi:namedview
     id="base"
     pagecolor="#ffffff"
     bordercolor="#666666"
     borderopacity="1.0"
     inkscape:pageopacity="0.0"
     inkscape:pageshadow="2"
     inkscape:zoom="0.35"
     inkscape:cx="154.95562"
     inkscape:cy="-376.28718"
     inkscape:document-units="px"
     inkscape:current-layer="layer1"
     showgrid="false"
     fit-margin-top="0"
     fit-margin-left="0"
     fit-margin-right="0"
     fit-margin-bottom="0"
     inkscape:window-width="1920"
     inkscape:window-height="1018"
     inkscape:window-x="-8"
     inkscape:window-y="-8"
     inkscape:window-maximized="1"
     units="px" />
  <metadata
     id="metadata5228">
    <rdf:RDF>
      <cc:Work
         rdf:about="">
        <dc:format>image/svg+xml</dc:format>
        <dc:type
           rdf:resource="http://purl.org/dc/dcmitype/StillImage" />
        <dc:title></dc:title>
      </cc:Work>
    </rdf:RDF>
  </metadata>
  <g
     inkscape:label="Layer 1"
     inkscape:groupmode="layer"
     id="layer1"
     transform="translate(-75.758665,-108.075)">
    <path
       style="fill:#ff0000"
       d="m 113.80262,120.84442 c -2.12483,-2.05964 -2.3872,-2.27462 -2.68005,-2.19628 -1.10806,0.29624 -2.49145,-0.12277 -3.25428,-0.9856 -0.74104,-0.83833 -0.98826,-1.85388 -0.69778,-2.86681 l 0.13801,-0.48135 1.10935,1.06909 1.10934,1.0692 0.79461,-0.7763 0.79461,-0.77628 -1.08499,-1.04511 c -1.01994,-0.98236 -1.06786,-1.05148 -0.79778,-1.15229 0.15802,-0.0587 0.63413,-0.1088 1.05806,-0.11083 2.06652,-0.0102 3.68663,1.95904 3.13746,3.81323 -0.11168,0.37701 -0.0673,0.42934 2.23453,2.65589 1.29161,1.24924 2.34838,2.3571 2.34838,2.46195 0,0.24271 -1.41309,1.60451 -1.66486,1.60451 -0.10405,0 -1.24914,-1.0273 -2.54461,-2.28302 z"
       id="path3402-64"
       inkscape:connector-curvature="0" />
    <path
       style="fill:#00ff00"
       d="m 78.220223,155.83664 c -0.401265,-0.12033 -0.958858,-0.4265 -1.23904,-0.68033 -1.262208,-1.14339 -1.2232,-0.40111 -1.22221,-23.26197 9.9e-4,-20.79271 0.01584,-21.44278 0.499477,-22.23719 1.041329,-1.70956 -0.244442,-1.62556 23.732259,-1.55025 l 21.688311,0.0678 0.69174,0.63896 c 1.43943,1.3296 1.3925,0.5444 1.38636,23.18716 -0.01,20.15124 -0.0238,20.9427 -0.50205,21.99814 -0.37899,0.8359 -0.75521,1.2125 -1.59031,1.59194 -1.05568,0.47964 -1.81911,0.49635 -21.904335,0.48056 -11.445809,-0.0102 -21.138937,-0.11487 -21.540202,-0.23522 z m 41.967687,-23.8926 0,-20.57703 -20.491348,0.0658 -20.491344,0.0658 -0.06534,20.51154 -0.06534,20.51165 20.556686,0 20.556686,0 0,-20.57703 z"
       id="path3464-1"
       inkscape:connector-curvature="0" />
    <path
       style="fill:#00ff00"
       d="m 105.11369,146.42169 c -4.147,-1.11545 -7.340883,-3.03351 -10.608228,-6.37074 -4.300456,-4.39246 -6.530036,-9.12044 -7.099707,-15.05526 -0.316022,-3.2929 -0.105242,-3.47974 3.766624,-3.33895 2.171563,0.0789 3.00419,0.24908 3.205763,0.65483 0.149794,0.30151 0.468093,1.91806 0.707486,3.5925 l 0.435125,3.04432 -1.732677,1.80602 -1.732677,1.8059 0.82144,1.58953 c 1.094692,2.11845 4.066013,5.27168 6.586666,6.98973 l 2.046035,1.39469 1.91375,-1.94021 1.91376,-1.94032 1.60931,0.41598 c 0.8851,0.22883 2.17899,0.41608 2.87539,0.41608 2.00712,0 2.68985,0.97982 2.68985,3.86079 0,3.4262 -0.28563,3.81719 -2.77103,3.79259 -1.11875,-0.0111 -3.20092,-0.3339 -4.62688,-0.71748 z"
       id="path3987"
       inkscape:connector-curvature="0" />
  </g>
</svg>
