<?xml version="1.0" encoding="UTF-8" standalone="no"?>
<!-- Created with Inkscape (http://www.inkscape.org/) -->

<svg
   xmlns:dc="http://purl.org/dc/elements/1.1/"
   xmlns:cc="http://creativecommons.org/ns#"
   xmlns:rdf="http://www.w3.org/1999/02/22-rdf-syntax-ns#"
   xmlns:svg="http://www.w3.org/2000/svg"
   xmlns="http://www.w3.org/2000/svg"
   xmlns:sodipodi="http://sodipodi.sourceforge.net/DTD/sodipodi-0.dtd"
   xmlns:inkscape="http://www.inkscape.org/namespaces/inkscape"
   width="13.684829mm"
   height="13.527198mm"
   viewBox="0 0 48.489551 47.931016"
   id="svg5293"
   version="1.1"
   inkscape:version="0.91 r13725"
   sodipodi:docname="tools.svg">
  <defs
     id="defs5295" />
  <sodipodi:namedview
     id="base"
     pagecolor="#ffffff"
     bordercolor="#666666"
     borderopacity="1.0"
     inkscape:pageopacity="0.0"
     inkscape:pageshadow="2"
     inkscape:zoom="2.8"
     inkscape:cx="36.780958"
     inkscape:cy="41.791941"
     inkscape:document-units="px"
     inkscape:current-layer="layer1"
     showgrid="false"
     fit-margin-top="0"
     fit-margin-left="0"
     fit-margin-right="0"
     fit-margin-bottom="0"
     inkscape:window-width="1920"
     inkscape:window-height="1018"
     inkscape:window-x="-8"
     inkscape:window-y="-8"
     inkscape:window-maximized="1" />
  <metadata
     id="metadata5298">
    <rdf:RDF>
      <cc:Work
         rdf:about="">
        <dc:format>image/svg+xml</dc:format>
        <dc:type
           rdf:resource="http://purl.org/dc/dcmitype/StillImage" />
        <dc:title></dc:title>
      </cc:Work>
    </rdf:RDF>
  </metadata>
  <g
     inkscape:label="Layer 1"
     inkscape:groupmode="layer"
     id="layer1"
     transform="translate(-304.32665,-485.53955)">
    <g
       id="g4138">
      <path
         inkscape:connector-curvature="0"
         id="path3402-1"
         d="m 331.8719,517.31888 c -5.90155,-5.59578 -6.63024,-6.17983 -7.44362,-5.967 -3.07754,0.80486 -6.91979,-0.33354 -9.03849,-2.67772 -2.0582,-2.27763 -2.74482,-5.03675 -1.93804,-7.78872 l 0.38332,-1.30779 3.08112,2.90458 3.08111,2.90486 2.20697,-2.10908 2.20696,-2.10907 -3.01347,-2.83941 c -2.83281,-2.66893 -2.9659,-2.85674 -2.21577,-3.13061 0.43887,-0.15949 1.76123,-0.2956 2.93868,-0.3011 5.73932,-0.0275 10.23932,5.32245 8.71402,10.36003 -0.31017,1.02429 -0.18698,1.16645 6.20623,7.21566 3.58735,3.39404 6.52245,6.40394 6.52245,6.68882 0,0.65939 -3.92475,4.35921 -4.62401,4.35921 -0.289,0 -3.46938,-2.79102 -7.06746,-6.20266 z"
         style="fill:#00ff00;fill-opacity:1" />
      <path
         inkscape:connector-curvature="0"
         id="path3464-19"
         d="m 306.6798,533.2322 c -0.4019,-0.1202 -0.959,-0.4259 -1.2378,-0.6793 -1.2562,-1.1418 -1.2249,-0.4006 -0.9833,-23.2284 0.2197,-20.7627 0.2412,-21.4119 0.7358,-22.2051 1.0643,-1.707 -0.2285,-1.6232 23.8624,-1.548 l 21.7916,0.068 0.6883,0.638 c 1.4323,1.3277 1.3934,0.5437 1.1491,23.1538 -0.2171,20.122 -0.244,20.9123 -0.736,21.9663 -0.3896,0.8347 -0.7716,1.2108 -1.6146,1.5896 -1.0659,0.4789 -1.8331,0.4957 -22.0145,0.4799 -11.5006,-0.01 -21.239,-0.1147 -21.641,-0.2349 z m 42.4204,-23.8581 0.2165,-20.5473 -20.5903,0.065 -20.5903,0.065 -0.2815,20.4821 -0.2814,20.482 20.6553,0 20.6553,0 0.2165,-20.5474 z"
         style="fill:#00ff00" />
    </g>
  </g>
</svg>
