<?xml version="1.0" encoding="UTF-8" standalone="no"?>
<!-- Created with Inkscape (http://www.inkscape.org/) -->

<svg
   xmlns:dc="http://purl.org/dc/elements/1.1/"
   xmlns:cc="http://creativecommons.org/ns#"
   xmlns:rdf="http://www.w3.org/1999/02/22-rdf-syntax-ns#"
   xmlns:svg="http://www.w3.org/2000/svg"
   xmlns="http://www.w3.org/2000/svg"
   xmlns:sodipodi="http://sodipodi.sourceforge.net/DTD/sodipodi-0.dtd"
   xmlns:inkscape="http://www.inkscape.org/namespaces/inkscape"
   width="13.684829mm"
   height="13.527198mm"
   viewBox="0 0 48.489551 47.931016"
   id="svg5293"
   version="1.1"
   inkscape:version="0.91 r13725"
   sodipodi:docname="Шаблон Инструменты_методы Решения.svg">
  <defs
     id="defs5295" />
  <sodipodi:namedview
     id="base"
     pagecolor="#ffffff"
     bordercolor="#666666"
     borderopacity="1.0"
     inkscape:pageopacity="0.0"
     inkscape:pageshadow="2"
     inkscape:zoom="0.35"
     inkscape:cx="-73.612365"
     inkscape:cy="1.1083609"
     inkscape:document-units="px"
     inkscape:current-layer="layer1"
     showgrid="false"
     fit-margin-top="0"
     fit-margin-left="0"
     fit-margin-right="0"
     fit-margin-bottom="0"
     inkscape:window-width="1920"
     inkscape:window-height="1018"
     inkscape:window-x="-8"
     inkscape:window-y="-8"
     inkscape:window-maximized="1" />
  <metadata
     id="metadata5298">
    <rdf:RDF>
      <cc:Work
         rdf:about="">
        <dc:format>image/svg+xml</dc:format>
        <dc:type
           rdf:resource="http://purl.org/dc/dcmitype/StillImage" />
        <dc:title></dc:title>
      </cc:Work>
    </rdf:RDF>
  </metadata>
  <g
     inkscape:label="Layer 1"
     inkscape:groupmode="layer"
     id="layer1"
     transform="translate(-304.32665,-485.53955)">
    <g
       id="g5309">
      <path
         inkscape:connector-curvature="0"
         id="path3402-1"
         d="m 342.883,498.4087 c -2.1462,-2.035 -2.4112,-2.2474 -2.707,-2.17 -1.1192,0.2927 -2.5165,-0.1213 -3.287,-0.9738 -0.7485,-0.8283 -0.9982,-1.8317 -0.7048,-2.8325 l 0.1394,-0.4756 1.1205,1.0563 1.1205,1.0564 0.8026,-0.767 0.8026,-0.767 -1.0959,-1.0326 c -1.0302,-0.9706 -1.0786,-1.0389 -0.8058,-1.1385 0.1596,-0.058 0.6405,-0.1075 1.0687,-0.1095 2.0872,-0.01 3.7237,1.9356 3.169,3.7676 -0.1128,0.3725 -0.068,0.4242 2.257,2.6241 1.3046,1.2343 2.372,2.3289 2.372,2.4325 0,0.2398 -1.4273,1.5853 -1.6816,1.5853 -0.1051,0 -1.2617,-1.015 -2.5702,-2.2557 z"
         style="fill:#ff0000" />
      <path
         inkscape:connector-curvature="0"
         id="path3464-19"
         d="m 306.6798,533.2322 c -0.4019,-0.1202 -0.959,-0.4259 -1.2378,-0.6793 -1.2562,-1.1418 -1.2249,-0.4006 -0.9833,-23.2284 0.2197,-20.7627 0.2412,-21.4119 0.7358,-22.2051 1.0643,-1.707 -0.2285,-1.6232 23.8624,-1.548 l 21.7916,0.068 0.6883,0.638 c 1.4323,1.3277 1.3934,0.5437 1.1491,23.1538 -0.2171,20.122 -0.244,20.9123 -0.736,21.9663 -0.3896,0.8347 -0.7716,1.2108 -1.6146,1.5896 -1.0659,0.4789 -1.8331,0.4957 -22.0145,0.4799 -11.5006,-0.01 -21.239,-0.1147 -21.641,-0.2349 z m 42.4204,-23.8581 0.2165,-20.5473 -20.5903,0.065 -20.5903,0.065 -0.2815,20.4821 -0.2814,20.482 20.6553,0 20.6553,0 0.2165,-20.5474 z"
         style="fill:#00ff00" />
    </g>
  </g>
</svg>
