<?xml version="1.0" encoding="UTF-8" standalone="no"?>
<!-- Created with Inkscape (http://www.inkscape.org/) -->

<svg
   xmlns:dc="http://purl.org/dc/elements/1.1/"
   xmlns:cc="http://creativecommons.org/ns#"
   xmlns:rdf="http://www.w3.org/1999/02/22-rdf-syntax-ns#"
   xmlns:svg="http://www.w3.org/2000/svg"
   xmlns="http://www.w3.org/2000/svg"
   xmlns:sodipodi="http://sodipodi.sourceforge.net/DTD/sodipodi-0.dtd"
   xmlns:inkscape="http://www.inkscape.org/namespaces/inkscape"
   width="13.611619mm"
   height="13.669834mm"
   viewBox="0 0 48.230146 48.43642"
   id="svg5141"
   version="1.1"
   inkscape:version="0.91 r13725"
   sodipodi:docname="Почта.svg">
  <defs
     id="defs5143" />
  <sodipodi:namedview
     id="base"
     pagecolor="#ffffff"
     bordercolor="#666666"
     borderopacity="1.0"
     inkscape:pageopacity="0.0"
     inkscape:pageshadow="2"
     inkscape:zoom="0.35"
     inkscape:cx="69.115077"
     inkscape:cy="-78.638937"
     inkscape:document-units="px"
     inkscape:current-layer="layer1"
     showgrid="false"
     fit-margin-top="0"
     fit-margin-left="0"
     fit-margin-right="0"
     fit-margin-bottom="0"
     inkscape:window-width="1920"
     inkscape:window-height="1018"
     inkscape:window-x="-8"
     inkscape:window-y="-8"
     inkscape:window-maximized="1" />
  <metadata
     id="metadata5146">
    <rdf:RDF>
      <cc:Work
         rdf:about="">
        <dc:format>image/svg+xml</dc:format>
        <dc:type
           rdf:resource="http://purl.org/dc/dcmitype/StillImage" />
        <dc:title></dc:title>
      </cc:Work>
    </rdf:RDF>
  </metadata>
  <g
     inkscape:label="Layer 1"
     inkscape:groupmode="layer"
     id="layer1"
     transform="translate(-161.59921,-405.28685)">
    <g
       id="g5159">
      <path
         inkscape:connector-curvature="0"
         id="path3402-0"
         d="m 200.02572,418.15595 c -2.1462,-2.035 -2.4112,-2.2474 -2.707,-2.17 -1.1192,0.2927 -2.5165,-0.1213 -3.287,-0.9738 -0.7485,-0.8283 -0.9982,-1.8317 -0.7048,-2.8325 l 0.1394,-0.4756 1.1205,1.0563 1.1205,1.0564 0.8026,-0.767 0.8026,-0.767 -1.0959,-1.0326 c -1.0302,-0.9706 -1.0786,-1.0389 -0.8058,-1.1385 0.1596,-0.058 0.6405,-0.1075 1.0687,-0.1095 2.0872,-0.01 3.7237,1.9356 3.169,3.7676 -0.1128,0.3725 -0.068,0.4242 2.257,2.6241 1.3046,1.2343 2.372,2.3289 2.372,2.4325 0,0.2398 -1.4273,1.5853 -1.6816,1.5853 -0.1051,0 -1.2617,-1.015 -2.5702,-2.2557 z"
         style="fill:#ff0000" />
      <path
         inkscape:connector-curvature="0"
         id="path3464-66"
         d="m 164.07252,453.48205 c -0.4032,-0.1215 -0.9634,-0.4304 -1.2449,-0.6865 -1.2683,-1.1538 -1.2291,-0.4048 -1.2281,-23.4732 10e-4,-20.9815 0.016,-21.6375 0.5018,-22.439 1.0463,-1.7251 -0.2456,-1.6403 23.8462,-1.5643 l 21.7922,0.069 0.6951,0.6448 c 1.4463,1.3417 1.3991,0.5494 1.393,23.3977 -0.01,20.3341 -0.024,21.1328 -0.5045,22.1979 -0.3808,0.8434 -0.7588,1.2235 -1.5979,1.6063 -1.0608,0.484 -1.8278,0.5009 -22.0094,0.4849 -11.5007,-0.01 -21.2402,-0.1158 -21.6435,-0.2373 z m 42.169,-24.1095 0,-20.7639 -20.5896,0.066 -20.5897,0.066 -0.066,20.6978 -0.066,20.6978 20.6553,0 20.6553,0 0,-20.7638 z"
         style="fill:#00ff00" />
      <path
         inkscape:connector-curvature="0"
         id="path3541"
         d="m 173.79942,442.61525 c -0.4426,-0.1314 -1.0438,-0.5428 -1.3359,-0.9141 -0.5176,-0.6581 -0.5293,-0.8734 -0.4579,-8.4812 l 0.073,-7.8059 0.7577,-0.6059 0.7576,-0.6059 11.8187,0 c 13.0337,0 12.9937,-0.01 13.534,1.544 0.4434,1.2719 0.3777,14.3994 -0.077,15.4889 -0.647,1.5485 -0.4376,1.5229 -12.9009,1.5739 -6.5604,0.027 -11.7044,-0.055 -12.169,-0.1926 z m 17.2391,-10.7912 5.5366,-2.9823 0.076,-1.3108 c 0.042,-0.721 0.021,-1.3109 -0.047,-1.3109 -0.068,0 -2.131,1.0868 -4.5849,2.415 -2.4539,1.3283 -4.9386,2.6468 -5.5216,2.93 l -1.0599,0.515 -5.4169,-2.9229 -5.4169,-2.9228 -0.078,1.3136 c -0.043,0.7225 0.014,1.3461 0.1263,1.3858 0.152,0.054 10.7226,5.7702 10.8304,5.8571 0.011,0.01 2.5107,-1.3265 5.5559,-2.9668 z"
         style="fill:#00ff00" />
    </g>
  </g>
</svg>
