<?xml version="1.0" encoding="UTF-8" standalone="no"?>
<!-- Created with Inkscape (http://www.inkscape.org/) -->

<svg
   xmlns:dc="http://purl.org/dc/elements/1.1/"
   xmlns:cc="http://creativecommons.org/ns#"
   xmlns:rdf="http://www.w3.org/1999/02/22-rdf-syntax-ns#"
   xmlns:svg="http://www.w3.org/2000/svg"
   xmlns="http://www.w3.org/2000/svg"
   xmlns:sodipodi="http://sodipodi.sourceforge.net/DTD/sodipodi-0.dtd"
   xmlns:inkscape="http://www.inkscape.org/namespaces/inkscape"
   width="13.611619mm"
   height="13.598375mm"
   viewBox="0 0 48.230146 48.183219"
   id="svg5074"
   version="1.1"
   inkscape:version="0.91 r13725"
   sodipodi:docname="мониторинг.svg">
  <defs
     id="defs5076" />
  <sodipodi:namedview
     id="base"
     pagecolor="#ffffff"
     bordercolor="#666666"
     borderopacity="1.0"
     inkscape:pageopacity="0.0"
     inkscape:pageshadow="2"
     inkscape:zoom="0.35"
     inkscape:cx="-188.02778"
     inkscape:cy="-70.194101"
     inkscape:document-units="px"
     inkscape:current-layer="layer1"
     showgrid="false"
     fit-margin-top="0"
     fit-margin-left="0"
     fit-margin-right="0"
     fit-margin-bottom="0"
     inkscape:window-width="1920"
     inkscape:window-height="1018"
     inkscape:window-x="-8"
     inkscape:window-y="-8"
     inkscape:window-maximized="1" />
  <metadata
     id="metadata5079">
    <rdf:RDF>
      <cc:Work
         rdf:about="">
        <dc:format>image/svg+xml</dc:format>
        <dc:type
           rdf:resource="http://purl.org/dc/dcmitype/StillImage" />
        <dc:title></dc:title>
      </cc:Work>
    </rdf:RDF>
  </metadata>
  <g
     inkscape:label="Layer 1"
     inkscape:groupmode="layer"
     id="layer1"
     transform="translate(-418.74207,-413.98488)">
    <path
       style="fill:#ff0000"
       d="m 457.16858,426.85401 c -2.1462,-2.035 -2.4112,-2.2474 -2.707,-2.17 -1.1192,0.2927 -2.5165,-0.1213 -3.287,-0.9738 -0.7485,-0.8283 -0.9982,-1.8317 -0.7048,-2.8325 l 0.1394,-0.4756 1.1205,1.0563 1.1205,1.0564 0.8026,-0.767 0.8026,-0.767 -1.0959,-1.0326 c -1.0302,-0.9706 -1.0786,-1.0389 -0.8058,-1.1385 0.1596,-0.058 0.6405,-0.1075 1.0687,-0.1095 2.0872,-0.01 3.7237,1.9356 3.169,3.7676 -0.1128,0.3725 -0.068,0.4242 2.257,2.6241 1.3046,1.2343 2.372,2.3289 2.372,2.4325 0,0.2398 -1.4273,1.5853 -1.6816,1.5853 -0.1051,0 -1.2617,-1.015 -2.5702,-2.2557 z"
       id="path3402-71"
       inkscape:connector-curvature="0" />
    <path
       style="fill:#00ff00"
       d="m 421.21548,461.92881 c -0.4033,-0.1208 -0.9635,-0.4281 -1.245,-0.6829 -1.2683,-1.1478 -1.2291,-0.4027 -1.2281,-23.3508 10e-4,-20.8721 0.016,-21.5247 0.5018,-22.3221 1.0464,-1.716 -0.2456,-1.6317 23.8462,-1.5561 l 21.7922,0.068 0.6951,0.6414 c 1.4463,1.3347 1.3991,0.5466 1.393,23.2757 0,20.2281 -0.024,21.0226 -0.5045,22.0822 -0.3808,0.839 -0.7588,1.2171 -1.5979,1.5979 -1.0608,0.4815 -1.8278,0.4983 -22.0094,0.4824 -11.5007,-0.01 -21.2402,-0.1153 -21.6434,-0.2361 z m 42.1689,-23.9838 0,-20.6556 -20.5896,0.066 -20.5897,0.066 -0.065,20.59 -0.066,20.5899 20.6553,0 20.6553,0 0,-20.6556 z"
       id="path3464-6"
       inkscape:connector-curvature="0" />
    <path
       style="fill:#00ff00"
       d="m 438.64088,452.62861 c -6.0527,-1.9997 -9.6736,-7.948 -8.4388,-13.863 1.1757,-5.6315 6.3348,-9.9084 11.9522,-9.9084 l 1.3359,0 0,5.0067 0,5.0068 0.6314,0.5931 c 0.4627,0.4347 0.6313,0.8544 0.6313,1.5713 0,2.7197 -4.013,3.0383 -4.6822,0.3717 -0.1656,-0.6598 0.4644,-2.1955 0.9006,-2.1955 0.1353,0 0.2461,-0.6895 0.2461,-1.5323 0,-1.4705 -0.023,-1.5254 -0.5682,-1.3639 -0.9269,0.2745 -2.2651,1.466 -2.7963,2.4895 -0.6046,1.1651 -0.655,3.2702 -0.1034,4.3269 0.8889,1.7031 2.8397,2.8983 4.7306,2.8983 3.8309,0 6.2075,-3.943 4.4586,-7.3974 l -0.5921,-1.1696 0.7092,-0.6795 c 0.6235,-0.5973 0.7611,-0.6367 1.1374,-0.3253 0.2355,0.1948 0.6931,0.9224 1.0168,1.6168 1.2195,2.6157 0.5713,5.9684 -1.5525,8.0311 -4.2299,4.108 -11.3156,1.9726 -12.5076,-3.7694 -0.7315,-3.5236 1.5245,-7.1472 5.1204,-8.2247 0.9408,-0.2819 0.9471,-0.2927 0.9471,-1.6328 0,-0.7419 -0.093,-1.349 -0.2067,-1.349 -0.6928,0 -3.13,0.9165 -4.1363,1.5553 -5.4412,3.4545 -6.1997,10.9844 -1.5494,15.3824 5.0726,4.7975 13.3282,3.3348 16.3748,-2.9014 0.5874,-1.2022 0.7503,-1.919 0.8323,-3.6618 0.12,-2.5505 -0.3954,-4.3503 -1.8095,-6.3186 l -0.8782,-1.2224 0.7329,-0.7022 c 0.7126,-0.6827 0.7469,-0.6895 1.2394,-0.2438 1.7512,1.5848 3.0377,4.9468 3.0377,7.9382 0,5.0905 -2.8703,9.2643 -7.8287,11.3837 -1.9478,0.8326 -6.2871,0.9823 -8.3848,0.2892 z"
       id="path3659"
       inkscape:connector-curvature="0" />
  </g>
</svg>
